<?xml version="1.0" standalone="no"?>
<!DOCTYPE svg PUBLIC "-//W3C//DTD SVG 1.1//EN" "http://www.w3.org/Graphics/SVG/1.1/DTD/svg11.dtd" >
<svg>
<metadata>
Created by FontForge 20090622 at Mon Aug  3 01:11:32 2020
 By deploy user
Copyright 2020 The Bodoni Moda Project Authors (https://github.com/indestructible-type)
</metadata>
<defs>
<font id="BodoniModa72-Book" horiz-adv-x="1160" >
  <font-face 
    font-family="Bodoni* 72"
    font-weight="400"
    font-stretch="normal"
    units-per-em="2000"
    panose-1="0 0 0 0 0 0 0 0 0 0"
    ascent="1600"
    descent="-400"
    x-height="920"
    cap-height="1500"
    bbox="-786 -608 3830 2088"
    underline-thickness="0"
    underline-position="-200"
    unicode-range="U+000D-U+FF19"
  />
<missing-glyph horiz-adv-x="1000" 
d="M100 -400v2000h800v-2000h-800zM200 -300h600v1800h-600v-1800z" />
    <glyph glyph-name="uniFB00" unicode="ff" horiz-adv-x="1370" 
d="M55 5h161v910h-161v5h161v3q0 99 29.5 188.5t84.5 158.5t139 109.5t186 40.5q149 0 235 -89q109 189 320 189q114 0 180 -60.5t66 -137.5q0 -59 -33 -91.5t-82 -32.5q-44 0 -77.5 27t-33.5 82q0 49 35 80t76 31q33 0 63 -17t43 -45q-15 66 -77 112.5t-160 46.5
q-214 0 -214 -435v-160h280v-5h-280v-910h240v-5h-1181v5zM396 980v-60h420v103q0 33 3 66q-41 3 -70 30t-29 78q0 49 35 80t76 31q21 0 43 -8q3 4 7.5 13t6.5 14q-84 88 -233 88q-130 0 -194.5 -117.5t-64.5 -317.5zM396 5h420v910h-420v-910z" />
    <glyph glyph-name="uniFB01" unicode="fi" horiz-adv-x="1188" 
d="M55 5h161v910h-161v5h161v103q0 132 54 244.5t159.5 182.5t240.5 70q131 0 223.5 -62t92.5 -136q0 -59 -33 -91.5t-82 -32.5q-44 0 -77.5 27t-33.5 82q0 49 35 80t76 31q64 0 97 -47q-29 59 -111 101.5t-187 42.5q-131 0 -202.5 -119.5t-71.5 -315.5v-160h578v-915h140
v-5h-1059v5zM794 915h-398v-910h398v910z" />
    <glyph glyph-name="uniFB02" unicode="fl" horiz-adv-x="1198" 
d="M55 5h161v910h-161v5h161v103q0 99 27 188.5t77 158.5t127.5 109.5t172.5 40.5q114 0 177 -60l179 80v-1535h159v-5h-1080v5zM656 915h-260v-910h400v1206q-25 -13 -55 -13q-44 0 -77.5 27t-33.5 82q0 49 35 80t76 31q29 0 55 -12v48q-64 61 -176 61q-78 0 -129 -57
t-73 -152t-22 -226v-160h260v-5z" />
    <glyph glyph-name="uniFB03" unicode="ffi" horiz-adv-x="1768" 
d="M55 5h161v910h-161v5h161v3q0 99 29.5 188.5t84.5 158.5t139 109.5t186 40.5q81 0 144.5 -27.5t101.5 -72.5q60 93 154.5 146.5t214.5 53.5q131 0 223.5 -62t92.5 -136q0 -59 -33 -91.5t-82 -32.5q-44 0 -77.5 27t-33.5 82q0 49 35 80t76 31q64 0 97 -47
q-28 59 -110 101.5t-188 42.5q-131 0 -202.5 -119.5t-71.5 -315.5v-160h578v-915h120v-5h-1639v5zM396 980v-60h420v103q0 33 3 66q-41 3 -70 30t-29 78q0 49 35 80t76 31q30 0 55 -12q4 6 12 20q-38 44 -100.5 71.5t-142.5 27.5q-130 0 -194.5 -117.5t-64.5 -317.5zM396 5
h420v910h-420v-910zM1394 915h-398v-910h398v910z" />
    <glyph glyph-name="uniFB04" unicode="ffl" horiz-adv-x="1798" 
d="M55 5h161v910h-161v5h161v3q0 99 29.5 188.5t84.5 158.5t139 109.5t186 40.5q151 0 238 -91q53 89 136 140t191 51q104 0 178 -59l178 79v-1535h159v-5h-1680v5zM1276 915h-280v-910h400v1198q-18 -5 -35 -5q-44 0 -77.5 27t-33.5 82q0 49 35 80t76 31q15 0 35 -5v44
q-75 58 -176 58q-78 0 -129 -57t-73 -152t-22 -226v-160h280v-5zM396 980v-60h420v103q0 33 3 66q-41 3 -70 30t-29 78q0 49 35 80t76 31q24 0 46 -9q2 5 7 13.5t6 11.5q-84 91 -235 91q-130 0 -194.5 -117.5t-64.5 -317.5zM396 5h420v910h-420v-910z" />
    <glyph glyph-name="uniFB05" unicode="&#x17f;t" horiz-adv-x="1344" 
d="M55 5h141v1018q0 100 26 188.5t76.5 158t133.5 110t188 40.5t188 -40.5t133.5 -110t76.5 -158t26 -188.5v-103h213v-5h-213l-1 -767q0 -74 18 -101.5t63 -27.5q51 0 105 54t85 130h5q-37 -98 -110 -157.5t-163 -59.5q-47 0 -81.5 15t-53.5 36.5t-30 55.5t-14 63t-3 67
v692h-122v5h122v160q0 100 -11.5 176t-38.5 136t-76 91.5t-118 31.5t-118 -31.5t-76 -91.5t-38.5 -136t-11.5 -176v-1075h240v-5h-561v5z" />
    <glyph glyph-name="fj.lig" unicode="fj" horiz-adv-x="1101" 
d="M55 5h161v910h-161v5h161v103q0 134 49 245t149.5 181.5t235.5 70.5q129 0 207.5 -61t78.5 -137q0 -59 -33 -91.5t-82 -32.5q-44 0 -77.5 27t-33.5 82q0 49 35 80t76 31q31 0 60 -15t43 -41q-20 63 -93.5 108t-180.5 45q-129 0 -191.5 -117t-62.5 -318v-160h529v-943
q0 -60 -3.5 -110.5t-13 -102.5t-24.5 -93t-39.5 -77.5t-56.5 -61t-76.5 -38.5t-99.5 -14q-116 0 -181 64t-65 154q0 59 33 91.5t81 32.5q44 0 77.5 -26.5t33.5 -81.5q0 -41 -30 -75t-77 -34q-38 0 -68.5 16.5t-42.5 46.5q10 -77 70 -128.5t158 -51.5q29 0 52 10t38.5 31
t27 45t17 61t9 69.5t4 80t0 83t-1.5 87.5t-1 85v875h-350v-910h240v-5h-581v5z" />
    <glyph glyph-name=".notdef" horiz-adv-x="1000" 
d="M100 -400v2000h800v-2000h-800zM200 -300h600v1800h-600v-1800z" />
    <glyph glyph-name="uni0000" horiz-adv-x="500" 
 />
    <glyph glyph-name="uni0000" horiz-adv-x="500" 
 />
    <glyph glyph-name="uni000D" unicode="&#xd;" horiz-adv-x="500" 
 />
    <glyph glyph-name="space" unicode=" " horiz-adv-x="500" 
 />
    <glyph glyph-name="exclam" unicode="!" horiz-adv-x="630" 
d="M431 1318q-10 -163 -62.5 -453t-52.5 -449h-5q0 159 -53 449t-63 453v38q0 76 26 118t92 42q121 0 121 -160q0 -6 -1.5 -18.5t-1.5 -19.5zM195 100q0 50 35.5 85.5t84.5 35.5t84.5 -35.5t35.5 -85.5t-35.5 -85t-84.5 -35t-84.5 35t-35.5 85z" />
    <glyph glyph-name="quotedbl" unicode="&#x22;" horiz-adv-x="739" 
d="M638 1362q-7 -48 -24 -92.5t-32 -74.5t-27 -87t-12 -132h-6q0 75 -12 132t-27 87t-32 74.5t-24 92.5q-2 14 -2 36q0 57 27.5 89.5t72.5 32.5t72.5 -32.5t27.5 -89.5q0 -22 -2 -36zM298 1362q-7 -48 -24 -92.5t-32 -74.5t-27 -87t-12 -132h-6q0 75 -12 132t-27 87
t-32 74.5t-24 92.5q-2 14 -2 36q0 57 27.5 89.5t72.5 32.5t72.5 -32.5t27.5 -89.5q0 -22 -2 -36z" />
    <glyph glyph-name="numbersign" unicode="#" horiz-adv-x="1260" 
d="M60 501h337l69 528h-346v5h347l62 476h6l-63 -476h372l62 474l5 2l-62 -476h352v-5h-353l-70 -528h363v-5h-363l-67 -506l-5 -2l67 508h-372l-66 -506h-6l67 506h-336v5zM402 501h371l70 528h-372z" />
    <glyph glyph-name="dollar" unicode="$" horiz-adv-x="1109" 
d="M453 1660h6v-152q56 12 115 12q28 0 63 -5v145h6v-146q141 -22 244 -118.5t103 -205.5q0 -57 -38.5 -100.5t-101.5 -43.5q-50 0 -88.5 35t-38.5 97q0 58 39.5 94.5t92.5 36.5q42 0 77 -22t49 -58q-19 98 -116 179t-222 101v-624q69 -31 115.5 -56t102 -67t89 -87
t56.5 -111t23 -144q0 -190 -103 -307.5t-283 -137.5v-135h-6v134q-31 -3 -67 -3q-55 0 -111 8v-139h-6v139q-179 27 -285.5 121.5t-106.5 189.5q0 71 37.5 117.5t101.5 46.5q50 0 89 -35t39 -97q0 -58 -40.5 -94.5t-94.5 -36.5q-92 0 -121 59q22 -87 123 -164.5t258 -101.5
v719q-59 28 -102.5 54t-89.5 64.5t-75 80.5t-47.5 101t-18.5 127q0 144 93.5 244.5t239.5 132.5v153zM574 1515q-61 0 -115 -13v-534l178 -81v623q-35 5 -63 5zM260 1220q0 -84 50 -142t143 -107v529q-193 -51 -193 -280zM570 -24q25 0 67 4v638q-30 15 -90 42t-88 41v-717
q54 -8 111 -8zM891 310q0 107 -64 176t-184 129v-634q248 38 248 329z" />
    <glyph glyph-name="percent" unicode="%" horiz-adv-x="2000" 
d="M70 1080q0 208 112 324t288 116t288 -116t112 -324q0 -103 -36 -188.5t-94.5 -139t-128.5 -83t-141 -29.5q-176 0 -288 116t-112 324zM290 1080q0 -435 180 -435t180 435t-180 435t-180 -435zM1523 1500h7l-1053 -1500h-7zM1130 420q0 208 112 324t288 116t288 -116
t112 -324q0 -103 -36 -188.5t-94.5 -139t-128.5 -83t-141 -29.5q-176 0 -288 116t-112 324zM1350 420q0 -435 180 -435t180 435t-180 435t-180 -435z" />
    <glyph glyph-name="ampersand" unicode="&#x26;" horiz-adv-x="1607" 
d="M1088 920h480v-5h-212q-16 -170 -81.5 -337t-170.5 -299l178 -274h256v-5h-468l-97 144q-198 -164 -435 -164q-204 0 -331 97.5t-127 267.5q0 61 23 117.5t63.5 100t85 79t98.5 64.5t92 47t77 34l15 6l-126 187q-40 59 -66 127t-26 119q0 133 112.5 213.5t289.5 80.5
q163 0 270 -73.5t107 -191.5q0 -39 -9 -72.5t-22.5 -59t-38.5 -50t-47 -41.5t-59 -37.5t-64.5 -33.5l-73 -35l-74.5 -37l394 -606q103 130 169 297.5t81 334.5h-263v5zM648 980l56 -87q198 132 198 367q0 40 -8 80t-27 81.5t-57.5 67.5t-91.5 26q-55 0 -96.5 -21.5
t-64.5 -57t-34 -75t-11 -81.5q0 -98 136 -300zM300 355q0 -81 39.5 -158.5t114 -129t164.5 -51.5q184 0 351 133l-432 640q-120 -71 -178.5 -175.5t-58.5 -258.5z" />
    <glyph glyph-name="quotesingle" unicode="'" horiz-adv-x="399" 
d="M298 1362q-7 -48 -24 -92.5t-32 -74.5t-27 -87t-12 -132h-6q0 75 -12 132t-27 87t-32 74.5t-24 92.5q-2 14 -2 36q0 57 27.5 89.5t72.5 32.5t72.5 -32.5t27.5 -89.5q0 -22 -2 -36z" />
    <glyph glyph-name="parenleft" unicode="(" horiz-adv-x="723" 
d="M689 -335l-3 -5q-248 106 -402 375.5t-154 614.5q0 341 152 591.5t404 358.5l3 -5q-120 -77 -205 -230t-124.5 -335.5t-39.5 -379.5q0 -199 39.5 -390t125 -354.5t204.5 -240.5z" />
    <glyph glyph-name="parenright" unicode=")" horiz-adv-x="723" 
d="M35 1595l3 5q248 -106 402 -375.5t154 -614.5q0 -341 -152 -591.5t-404 -358.5l-3 5q120 77 205 230t124.5 335.5t39.5 379.5q0 199 -39.5 390t-125 354.5t-204.5 240.5z" />
    <glyph glyph-name="asterisk" unicode="*" horiz-adv-x="1264" 
d="M732 556q0 -57 -27.5 -89.5t-72.5 -32.5t-72.5 32.5t-27.5 89.5q0 23 2 37q7 48 23.5 91.5t31.5 73t27.5 85t12.5 129.5q-63 -37 -105.5 -75.5t-60.5 -66.5t-47.5 -64.5t-67.5 -65.5q-6 -5 -31 -20q-52 -28 -92 -20.5t-63 46.5q-23 38 -9 78t64 69q20 12 33 17
q45 18 91 25.5t79 9t87.5 19t118.5 53.5q-64 36 -118.5 53.5t-87.5 19t-79 9t-91 25.5q-13 5 -33 17q-50 29 -64 69t9 78q23 39 63 46.5t92 -20.5q25 -15 31 -20q38 -29 67.5 -65.5t47.5 -64.5t60.5 -66.5t105.5 -75.5q0 74 -12.5 129.5t-27.5 85t-31.5 73t-23.5 91.5
q-2 14 -2 37q0 57 27.5 89.5t72.5 32.5t72.5 -32.5t27.5 -89.5q0 -23 -2 -37q-7 -48 -23.5 -91.5t-31.5 -73t-27.5 -85t-12.5 -129.5q63 37 105.5 75.5t60.5 66.5t47.5 64.5t67.5 65.5q6 5 31 20q52 28 92 20.5t63 -46.5q23 -38 9 -78t-64 -69q-20 -12 -33 -17
q-45 -18 -91 -25.5t-79 -9t-87.5 -19t-118.5 -53.5q64 -36 118.5 -53.5t87.5 -19t79 -9t91 -25.5q13 -5 33 -17q50 -29 64 -69t-9 -78q-23 -39 -63 -46.5t-92 20.5q-25 15 -31 20q-38 29 -67.5 65.5t-47.5 64.5t-60.5 66.5t-105.5 75.5q0 -74 12.5 -129.5t27.5 -85t31.5 -73
t23.5 -91.5q2 -14 2 -37z" />
    <glyph glyph-name="plus" unicode="+" horiz-adv-x="1059" 
d="M527 220v409h-407v6h407v405h6v-405h407v-6h-407v-409h-6z" />
    <glyph glyph-name="comma" unicode="," horiz-adv-x="429" 
d="M80 98q0 50 38.5 84t95.5 34q61 0 100.5 -53t39.5 -145q0 -122 -75.5 -217t-202.5 -95v5q95 0 164.5 60t94 149.5t2.5 178.5q1 -44 -37 -81.5t-94 -37.5q-62 0 -94 33t-32 85z" />
    <glyph glyph-name="hyphen" unicode="-" horiz-adv-x="719" 
d="M120 553h480v-6h-480v6z" />
    <glyph glyph-name="period" unicode="." horiz-adv-x="399" 
d="M80 100q0 50 35.5 85.5t84.5 35.5t84.5 -35.5t35.5 -85.5t-35 -85t-85 -35t-85 35t-35 85z" />
    <glyph glyph-name="slash" unicode="/" horiz-adv-x="1040" 
d="M955 1560h6l-876 -1860h-5z" />
    <glyph glyph-name="zero" unicode="0" horiz-adv-x="1239" 
d="M620 -20q-120 0 -221.5 60.5t-171 164.5t-108.5 245t-39 300q0 210 70.5 387t195 280t274.5 103t274.5 -103t195 -280t70.5 -387q0 -159 -39 -300t-108.5 -245t-171 -164.5t-221.5 -60.5zM620 1515q-72 0 -127.5 -45.5t-89 -118.5t-55.5 -175.5t-30 -205.5t-8 -220
q0 -85 3 -157.5t11.5 -153t23 -144t38 -123.5t55.5 -99.5t77.5 -63.5t101.5 -24t101.5 24t77.5 63.5t55.5 99.5t38 123.5t23 144t11.5 153t3 157.5q0 117 -8 220t-30 205.5t-55.5 175.5t-89 118.5t-127.5 45.5z" />
    <glyph glyph-name="one" unicode="1" horiz-adv-x="869" 
d="M100 5h260v1490h-226v5h416v-1495h220v-5h-670v5z" />
    <glyph glyph-name="two" unicode="2" horiz-adv-x="1099" 
d="M1029 0h-949v130l481 427q119 106 173 247.5t54 295.5q0 162 -86.5 280t-213.5 118q-182 0 -289 -114t-87 -308q9 38 44 63t78 25q47 0 84 -31t37 -81q0 -59 -35.5 -93.5t-89.5 -34.5q-51 0 -83 36.5t-40 94.5q-29 216 93 340.5t350 124.5q103 0 187 -31.5t138 -84.5
t83.5 -121t29.5 -144q0 -57 -16.5 -112.5t-39 -97t-60.5 -87t-66 -72.5l-70 -65l-590 -525h878v150h5v-330z" />
    <glyph glyph-name="three" unicode="3" horiz-adv-x="1041" 
d="M962 400q0 -191 -142 -305.5t-358 -114.5q-200 0 -306 84.5t-106 203.5q0 60 33 94t87 34q47 0 77 -29.5t30 -81.5q0 -46 -33.5 -75.5t-79.5 -29.5q-36 0 -66.5 17.5t-40.5 45.5q10 -106 106 -177t259 -71q86 0 152.5 32.5t106 89t59.5 128t20 155.5q0 60 -8 111.5
t-33.5 108t-67 96.5t-115 66t-170.5 26v6q66 0 118.5 11.5t87 29.5t59.5 48.5t38 59t20.5 70t9 73t1.5 76.5q0 150 -65.5 237.5t-182.5 87.5q-122 0 -220.5 -68.5t-114.5 -163.5q12 29 43 46t65 17q47 0 80 -28t33 -78q0 -55 -34.5 -83t-78.5 -28q-49 0 -82.5 32.5
t-33.5 91.5q0 109 110.5 191t262.5 82q114 0 208 -37t153 -115t59 -184q0 -63 -10 -111t-40 -97t-81 -81.5t-137.5 -55t-204.5 -26.5q125 -5 220 -29t153.5 -61t95 -90t50.5 -108.5t14 -122.5z" />
    <glyph glyph-name="four" unicode="4" horiz-adv-x="1189" 
d="M1100 5v-5h-530v5h190v422h-690l720 1073h160v-1067h220v-6h-220v-422h150zM80 433h680v1012z" />
    <glyph glyph-name="five" unicode="5" horiz-adv-x="1000" 
d="M870 1320h-731v-560q33 66 132 122.5t233 56.5q198 0 316.5 -128t118.5 -351q0 -130 -63 -239t-180 -175t-264 -66q-151 0 -261 84t-110 194q0 59 32.5 91.5t80.5 32.5q44 0 79 -28.5t35 -83.5q0 -50 -33.5 -80t-80.5 -30q-30 0 -59 16t-42 42q21 -96 123.5 -164.5
t235.5 -68.5q74 0 129.5 29.5t87 74.5t50.5 111t25 126.5t6 133.5q0 202 -83 329t-216 127q-99 0 -180 -52t-109 -110h-8v746h731v109h5v-289z" />
    <glyph glyph-name="six" unicode="6" horiz-adv-x="1119" 
d="M1060 500q0 -231 -125.5 -375.5t-346.5 -144.5q-230 0 -359 164.5t-129 475.5q0 179 64.5 345t173 287.5t258.5 194.5t314 73v-5q-168 0 -308 -117t-219.5 -311t-82.5 -420q8 71 28.5 126t57 98t96.5 66t140 23q79 0 154 -28t140 -83.5t104.5 -151t39.5 -217.5zM860 500
q0 206 -75.5 335.5t-206.5 129.5q-75 0 -130 -31.5t-86.5 -87.5t-46.5 -126t-15 -156v-4q0 -106 16 -203.5t49 -183.5t92 -137t137 -51q53 0 95.5 22t70.5 61.5t48.5 88t31.5 109t15.5 117t4.5 117.5z" />
    <glyph glyph-name="seven" unicode="7" horiz-adv-x="1009" 
d="M336 152q0 71 38.5 159t119.5 226t112 199q123 236 282 574h-803v-150h-5v340h910l-376 -768q-27 -54 -61 -115.5l-48 -88t-25 -60t-11 -64.5q0 -49 20 -90.5t43.5 -66t43.5 -59.5t20 -72q0 -59 -32.5 -97.5t-95.5 -38.5q-61 0 -96.5 43t-35.5 129z" />
    <glyph glyph-name="eight" unicode="8" horiz-adv-x="1099" 
d="M80 380q0 176 106 278.5t318 112.5q-187 10 -285.5 101t-98.5 248q0 83 28 155.5t81 127t135.5 86t185.5 31.5t185.5 -31.5t135.5 -86t81 -127t28 -155.5q0 -157 -98.5 -248t-285.5 -101q212 -10 318 -112.5t106 -278.5q0 -186 -118 -293t-352 -107t-352 107t-118 293z
M320 1120q0 -67 11.5 -125.5t36.5 -109.5t71.5 -80.5t110.5 -29.5t110.5 29.5t71.5 80.5t36.5 109.5t11.5 125.5q0 54 -6.5 106t-23.5 105.5t-42 93.5t-66 65t-92 25t-92 -25t-66 -65t-42 -93.5t-23.5 -105.5t-6.5 -106zM280 380q0 -74 15 -141.5t45.5 -126t84.5 -93
t125 -34.5t125 34.5t84.5 93t45.5 126t15 141.5t-15 140.5t-45.5 123t-84.5 90t-125 33.5t-125 -33.5t-84.5 -90t-45.5 -123t-15 -140.5z" />
    <glyph glyph-name="nine" unicode="9" horiz-adv-x="1119" 
d="M1020 880q0 -179 -64.5 -345t-173 -287.5t-258.5 -194.5t-314 -73v5q168 0 308 117t219.5 311t82.5 420q-8 -71 -28.5 -126t-57 -98t-96.5 -66t-140 -23q-79 0 -154 28t-140 83.5t-104.5 151t-39.5 217.5q0 231 125.5 375.5t346.5 144.5q230 0 359 -164.5t129 -475.5z
M260 1000q0 -206 75.5 -335.5t206.5 -129.5q75 0 130 31.5t86.5 87.5t46.5 126t15 156v4q0 106 -16 203.5t-49 183.5t-92 137t-137 51q-53 0 -95.5 -22t-70.5 -61.5t-48.5 -88t-31.5 -109t-15.5 -117t-4.5 -117.5z" />
    <glyph glyph-name="colon" unicode=":" horiz-adv-x="395" 
d="M80 940q0 50 35.5 85.5t84.5 35.5t84.5 -35.5t35.5 -85.5t-35 -85t-85 -35t-85 35t-35 85zM80 100q0 50 35.5 85.5t84.5 35.5t84.5 -35.5t35.5 -85.5t-35 -85t-85 -35t-85 35t-35 85z" />
    <glyph glyph-name="semicolon" unicode=";" horiz-adv-x="429" 
d="M80 940q0 50 35.5 85.5t84.5 35.5t84.5 -35.5t35.5 -85.5t-35 -85t-85 -35t-85 35t-35 85zM80 98q0 50 38.5 84t95.5 34q61 0 100.5 -53t39.5 -145q0 -122 -75.5 -217t-202.5 -95v5q95 0 164.5 60t94 149.5t2.5 178.5q1 -44 -37 -81.5t-94 -37.5q-62 0 -94 33t-32 85z
" />
    <glyph glyph-name="less" unicode="&#x3c;" horiz-adv-x="1119" 
d="M120 771v8l880 421v-5l-877 -420l877 -420v-5z" />
    <glyph glyph-name="equal" unicode="=" horiz-adv-x="1119" 
d="M120 1024h880v-6h-880v6zM120 723h880v-6h-880v6z" />
    <glyph glyph-name="greater" unicode="&#x3e;" horiz-adv-x="1119" 
d="M1000 779v-8l-880 -421v5l877 420l-877 420v5z" />
    <glyph glyph-name="question" unicode="?" horiz-adv-x="1099" 
d="M491 698q81 19 142 61t96 100t52 123t17 138q0 64 -5 113.5t-22 104.5t-46.5 91t-81.5 59.5t-124 23.5q-145 0 -259.5 -91t-131.5 -207q11 30 40.5 47.5t65.5 17.5q47 0 80.5 -29.5t33.5 -79.5q0 -55 -35 -83t-79 -28q-49 0 -81.5 32t-32.5 91q0 61 33 122t88 108.5
t132 77.5t159 30q211 0 339.5 -110t128.5 -290q0 -171 -144.5 -291.5t-358.5 -134.5v-276h-6v280zM378 100q0 50 35.5 85.5t84.5 35.5t84.5 -35.5t35.5 -85.5t-35 -85t-85 -35t-85 35t-35 85z" />
    <glyph glyph-name="at" unicode="@" horiz-adv-x="2019" 
d="M1180 420l1 6q-48 -128 -131.5 -207t-181.5 -79q-125 0 -212.5 85.5t-87.5 234.5q0 110 40 219.5t104.5 192.5t150.5 134.5t173 51.5q193 0 193 -366q0 -42 -4 -77l99 425h180l-144 -620q0 -2 -6.5 -23t-11.5 -43t-10.5 -52t-3.5 -55.5t9 -48.5t27.5 -36t51.5 -13
q86 0 164.5 37t136.5 101.5t101 147.5t65 177.5t22 189.5q0 111 -27.5 219.5t-87 209t-144 177t-207.5 122t-269 45.5q-143 0 -279.5 -42.5t-252 -118t-213.5 -182.5t-166 -233.5t-106 -275t-38 -301.5q0 -182 41 -327.5t109.5 -240.5t162.5 -159t196 -91t214 -27
q472 0 727 298l5 -3q-257 -300 -732 -300q-114 0 -216.5 27.5t-197.5 91t-163.5 159.5t-109.5 242.5t-41 329.5q0 154 38 303t106.5 276t166 234.5t214 183.5t254 118.5t281.5 42.5q147 0 271 -46t209 -122.5t144.5 -177.5t87.5 -210.5t28 -221.5q0 -97 -21.5 -192
t-66 -180.5t-106.5 -151t-148.5 -104t-185.5 -38.5q-51 0 -92 17.5t-64 46.5t-38 66.5t-15 76.5t7 77zM1224 692q0 25 -0.5 46.5t-4.5 60t-10 69t-19.5 65.5t-31.5 58.5t-46.5 39.5t-63.5 16q-70 0 -136 -100t-104 -240.5t-38 -265.5q0 -73 10.5 -135.5t38.5 -108.5t70 -46
q97 0 181.5 96.5t125.5 243.5l15 63q13 65 13 138z" />
    <glyph glyph-name="A" unicode="A" horiz-adv-x="1476" 
d="M38 5h193l531 1525h6l528 -1525h143v-5h-580v5h218l-155 480h-518l-167 -480h241v-5h-440v5zM674 1256l-268 -765h514z" />
    <glyph glyph-name="B" unicode="B" horiz-adv-x="1261" 
d="M658 0h-620v5h179v1490h-179v5h580q236 0 368 -91t132 -279q0 -172 -102.5 -258t-304.5 -101q101 -4 182.5 -25.5t146.5 -62t101 -107.5t36 -156q0 -420 -519 -420zM618 1495h-210v-722h210q59 0 111.5 19.5t95.5 59t68 106t25 152.5q0 171 -90 278t-210 107zM637 767
h-229v-762h229q131 0 226 119.5t95 295.5q0 170 -91.5 258.5t-229.5 88.5z" />
    <glyph glyph-name="C" unicode="C" horiz-adv-x="1339" 
d="M1255 410v-410h-5l-111 124q-67 -68 -163.5 -106t-211.5 -38q-150 0 -277 58t-215.5 159.5t-138 244t-49.5 308.5t49.5 308.5t138 244t215.5 159.5t277 58q100 0 189.5 -35.5t155.5 -99.5l121 115h5v-410h-6q0 118 -64 215.5t-165.5 150.5t-215.5 53q-101 0 -182 -44.5
t-134 -117.5t-88.5 -173t-50.5 -205t-15 -219t15 -219t50.5 -205t88.5 -173t134 -117.5t182 -44.5t189 34t148 91.5t94 133.5t34 160h6z" />
    <glyph glyph-name="D" unicode="D" horiz-adv-x="1401" 
d="M597 0h-559v5h179v1490h-179v5h559q218 0 383.5 -99t251.5 -268.5t86 -382.5q0 -211 -90.5 -382t-256 -269.5t-374.5 -98.5zM597 1495h-189v-1490h189q107 0 192 43t140 114t91.5 169t51.5 201.5t15 217.5q0 112 -17 217.5t-55.5 202t-94.5 168.5t-139 114.5t-184 42.5z
" />
    <glyph glyph-name="E" unicode="E" horiz-adv-x="1168" 
d="M743 556q0 97 -63 157t-152 60h-120v-768h320q100 0 173.5 33.5t117 94.5t64 140t20.5 177h6v-450h-1071v5h179v1490h-179v5h1050v-410h-5q0 82 -20 153.5t-59.5 128.5t-105 90t-150.5 33h-340v-716h120q90 0 152.5 55.5t62.5 151.5h6v-430h-6z" />
    <glyph glyph-name="F" unicode="F" horiz-adv-x="1128" 
d="M38 5h179v1490h-179v5h1031v-410h-6q0 82 -20 153.5t-59.5 128.5t-105 90t-150.5 33h-320v-746h90q264 0 264 197h6v-410h-6q0 101 -67 154t-197 53h-90v-738h200v-5h-570v5z" />
    <glyph glyph-name="G" unicode="G" horiz-adv-x="1424" 
d="M864 573h540v-6h-120v-237q-21 -43 -49 -85t-77 -92t-106.5 -86.5t-141 -61.5t-176.5 -25q-153 0 -276.5 57.5t-205 160t-125 244t-43.5 308.5q0 166 49.5 308.5t138 244t215.5 159.5t277 58q99 0 188.5 -35.5t155.5 -98.5l122 114h5v-410h-6q0 120 -63.5 217.5
t-165 149.5t-216.5 52q-101 0 -182 -44.5t-134 -117.5t-88.5 -173t-50.5 -205t-15 -219q0 -117 11 -220t40 -205.5t75 -175.5t121 -118.5t173 -45.5q40 0 76 7t65 21.5t53 30t43.5 38l33.5 39.5t27 41l19.5 36.5t14 31.5t8.5 20v317h-210v6z" />
    <glyph glyph-name="H" unicode="H" horiz-adv-x="1475" 
d="M38 5h179v1490h-179v5h570v-5h-200v-752h660v752h-200v5h570v-5h-181v-1490h181v-5h-570v5h200v732h-660v-732h200v-5h-570v5z" />
    <glyph glyph-name="I" unicode="I" horiz-adv-x="725" 
d="M38 5h219v1490h-219v5h650v-5h-240v-1490h240v-5h-650v5z" />
    <glyph glyph-name="J" unicode="J" horiz-adv-x="846" 
d="M160 1500h649v-5h-200v-1155l-20 -67t-27 -73.5t-36 -77t-46 -69.5t-59 -60t-73 -38.5t-89 -15.5q-109 0 -175.5 67t-66.5 149q0 61 33 95.5t81 34.5q43 0 78 -30t35 -87q0 -54 -32.5 -82t-80.5 -28q-31 0 -61 17t-43 45q15 -70 74.5 -121.5t148.5 -51.5q42 0 72.5 19
t49 52.5t29.5 89.5t15 119.5t4 152.5v1115h-260v5z" />
    <glyph glyph-name="K" unicode="K" horiz-adv-x="1357" 
d="M38 5h179v1490h-179v5h570v-5h-200v-824l611 824h-241v5h479v-5h-230l-403 -543l565 -947h158v-5h-619v5h221l-445 784l-96 -128v-656h200v-5h-570v5z" />
    <glyph glyph-name="L" unicode="L" horiz-adv-x="1139" 
d="M1098 0h-1060v5h179v1490h-179v5h549v-5h-179v-1490h309q92 0 159.5 22.5t108.5 60.5t65.5 96.5t33 121t8.5 144.5h6v-450z" />
    <glyph glyph-name="M" unicode="M" horiz-adv-x="1657" 
d="M47 5h145v1490h-154v5h348l460 -1242l440 1242h334v-5h-140v-1490h140v-5h-491v5h161v1488l-535 -1513h-4l-554 1513v-1488h155v-5h-305v5z" />
    <glyph glyph-name="N" unicode="N" horiz-adv-x="1465" 
d="M38 5h198v1490h-198v5h430l745 -1196v1191h-240v5h455v-5h-210v-1515h-6l-970 1515v-1490h241v-5h-445v5z" />
    <glyph glyph-name="O" unicode="O" horiz-adv-x="1448" 
d="M725 -20q-149 0 -271 60.5t-202.5 165t-124 244.5t-43.5 300q0 159 46.5 300t129 245t203 164.5t262.5 60.5t262.5 -60.5t202.5 -164.5t128 -245t46 -300q0 -160 -43.5 -300t-123.5 -244.5t-201.5 -165t-270.5 -60.5zM725 1515q-80 0 -144.5 -31t-108.5 -87t-75.5 -127.5
t-49 -160t-25.5 -176t-8 -183.5q0 -84 4.5 -157.5t16.5 -153t31 -144t51 -123.5t74 -99.5t101.5 -64t132.5 -23.5q84 0 150.5 30.5t110.5 87.5t74 127t45.5 160.5t22 175.5t6.5 184q0 96 -8 183.5t-25 176t-48.5 160t-75.5 127.5t-108 87t-144 31z" />
    <glyph glyph-name="P" unicode="P" horiz-adv-x="1231" 
d="M38 5h179v1490h-179v5h589q264 0 392.5 -109.5t128.5 -310.5q0 -403 -521 -403h-219v-672h179v-5h-549v5zM627 1495h-219v-813h219q69 0 127.5 37t95 95.5t57 128t20.5 137.5t-20.5 140t-57 134t-95 101.5t-127.5 39.5z" />
    <glyph glyph-name="Q" unicode="Q" horiz-adv-x="1448" 
d="M1064 -495v-5q-71 0 -128 6t-102 16.5t-78.5 29.5t-58 40t-41 54.5t-27 65.5t-16 80t-7 92t-1.5 107q-243 45 -382 255t-139 504q0 159 46.5 300t129 245t203 164.5t262.5 60.5t262.5 -60.5t202.5 -164.5t128 -245t46 -300q0 -194 -61 -355.5t-182.5 -270t-286.5 -135.5
q0 -98 2.5 -161.5t11 -123t24 -93t41.5 -60t62.5 -36.5t88.5 -10zM725 1515q-80 0 -144.5 -31t-108.5 -87t-75.5 -127.5t-49 -160t-25.5 -176t-8 -183.5q0 -84 4.5 -157.5t16.5 -153t31 -144t51 -123.5t74 -99.5t101.5 -64t132.5 -23.5q84 0 150.5 30.5t110.5 87.5t74 127
t45.5 160.5t22 175.5t6.5 184q0 96 -8 183.5t-25 176t-48.5 160t-75.5 127.5t-108 87t-144 31z" />
    <glyph glyph-name="R" unicode="R" horiz-adv-x="1393" 
d="M38 5h219v1490h-219v5h660q236 0 368 -91t132 -279q0 -174 -105 -260.5t-313 -99.5q98 -6 169.5 -36.5t110.5 -76.5t62.5 -103.5t30 -120t8.5 -124.5t2.5 -117.5t7 -98t27.5 -67.5t59 -25q61 0 109 24l2 -3q-57 -32 -180 -32q-74 0 -123 26.5t-71.5 71.5t-32.5 103.5
t-11.5 123t-3.5 128.5t-13.5 122.5t-36.5 103.5t-77 71.5t-131 26.5h-240v-762h220v-5h-630v5zM698 1495h-250v-723h250q142 0 221 96t79 262t-79 265.5t-221 99.5z" />
    <glyph glyph-name="S" unicode="S" horiz-adv-x="1117" 
d="M94 -20h-5v410h5q18 -92 52.5 -165t90 -130t138.5 -87.5t189 -30.5q163 0 259 86.5t96 246.5q0 65 -27.5 119t-74.5 92.5t-107.5 72.5t-128 64.5l-134.5 62t-127.5 72t-107.5 88.5t-74.5 117t-27.5 152q0 161 121.5 265.5t292.5 104.5q210 0 323 -132l108 132h5v-410h-5
q-29 201 -137 301t-274 100q-141 0 -217.5 -70.5t-76.5 -191.5q0 -59 27 -108t72.5 -84.5t105 -67.5t125 -62.5l131 -63.5t125 -76.5t105 -95.5t72.5 -126.5t27 -164.5q0 -196 -124.5 -313t-335.5 -117q-250 0 -378 156z" />
    <glyph glyph-name="T" unicode="T" horiz-adv-x="1266" 
d="M319 5h220v1490h-201q-85 0 -144.5 -33t-91.5 -95.5t-45.5 -139t-13.5 -177.5h-5v450h1191v-450h-6q0 101 -13.5 177.5t-45.5 139t-91.5 95.5t-144.5 33h-199v-1490h220v-5h-630v5z" />
    <glyph glyph-name="U" unicode="U" horiz-adv-x="1395" 
d="M38 1500h570v-5h-200v-1015q0 -85 8.5 -154t31.5 -135t61 -111t101 -72t147 -27q201 0 299.5 118.5t98.5 360.5v1035h-189v5h392v-5h-198v-1035q0 -251 -104.5 -370.5t-338.5 -119.5q-261 0 -380.5 116t-119.5 374v1035h-179v5z" />
    <glyph glyph-name="V" unicode="V" horiz-adv-x="1475" 
d="M805 244l452 1251h-259v5h440v-5h-174l-551 -1525h-5l-529 1525h-141v5h580v-5h-219z" />
    <glyph glyph-name="W" unicode="W" horiz-adv-x="1941" 
d="M1421 1495h-155l-179 -532l212 -685l441 1217h-218v5h399v-5h-173l-550 -1515h-5l-233 752l-284 -752h-6l-470 1515h-179v5h1400v-5zM780 278l176 465l-232 752h-324zM923 1495l160 -520l174 520h-334z" />
    <glyph glyph-name="X" unicode="X" horiz-adv-x="1461" 
d="M21 5h222l427 695l-457 795h-123v5h560v-5h-205l358 -616l352 616h-263v5h439v-5h-168l-357 -622l504 -868h131v-5h-561v5h189l-395 688l-423 -688h249v-5h-479v5z" />
    <glyph glyph-name="Y" unicode="Y" horiz-adv-x="1411" 
d="M450 5h180v715l-467 775h-142v5h580v-5h-218l432 -724l391 724h-235v5h420v-5h-178l-393 -729v-761h201v-5h-571v5z" />
    <glyph glyph-name="Z" unicode="Z" horiz-adv-x="1099" 
d="M70 1500h960v-5l-790 -1490h449q199 0 277 88.5t78 286.5h5v-380h-1019v5l790 1490h-389q-101 0 -171 -21.5t-110 -66t-57.5 -104.5t-17.5 -143h-5v340z" />
    <glyph glyph-name="bracketleft" unicode="[" horiz-adv-x="649" 
d="M590 -300h-480v1860h480v-5h-300v-1850h300v-5z" />
    <glyph glyph-name="backslash" unicode="\" horiz-adv-x="1040" 
d="M86 1560l875 -1860h-6l-875 1860h6z" />
    <glyph glyph-name="bracketright" unicode="]" horiz-adv-x="649" 
d="M60 -295h300v1850h-300v5h480v-1860h-480v5z" />
    <glyph glyph-name="asciicircum" unicode="^" horiz-adv-x="1089" 
d="M544 1446l-339 -189l-5 3l280 280h130l280 -280l-5 -3z" />
    <glyph glyph-name="underscore" unicode="_" horiz-adv-x="1119" 
d="M-11 -297h1140v-6h-1140v6z" />
    <glyph glyph-name="grave" unicode="`" horiz-adv-x="789" 
d="M180 1442q-29 0 -49.5 20t-20.5 48q0 32 25.5 54.5t64.5 11.5l472 -133l-2 -6z" />
    <glyph glyph-name="a" unicode="a" horiz-adv-x="1046" 
d="M530 504h125v105q0 50 -3 89t-13.5 84t-29 74t-52 49t-79.5 20q-87 0 -168 -32.5t-118 -85.5q32 35 79 35q46 0 80 -29t34 -77q0 -56 -34 -85t-80 -29q-48 0 -78.5 29t-30.5 81q0 60 51.5 107.5t132 72t172.5 24.5q67 0 119 -12.5t85.5 -36.5t56.5 -53t34.5 -68.5
t16 -75.5t4.5 -81v-517q0 -89 72 -89q36 0 78 35t65 89l4 -4q-27 -64 -84.5 -103.5t-130.5 -39.5q-83 0 -133 36.5t-50 133.5v121q-33 -291 -278 -291q-130 0 -207.5 66.5t-77.5 180.5q0 134 112.5 205.5t325.5 71.5zM434 3q97 0 159 89t62 269v138h-125q-63 0 -110 -25
t-72.5 -66t-37.5 -84.5t-12 -87.5q0 -41 7 -79.5t21.5 -74t42.5 -57.5t65 -22z" />
    <glyph glyph-name="b" unicode="b" horiz-adv-x="1195" 
d="M186 1495h-122v5h301v-936q18 179 99 276.5t214 97.5q82 0 158 -33t135.5 -93t95 -151.5t35.5 -200.5t-35.5 -201t-95 -152t-135.5 -93.5t-158 -33.5q-133 0 -214 98t-99 278v-356h-301v5h122v1490zM365 460q0 -222 79.5 -343t202.5 -121q81 0 137 61t82 163.5t26 239.5
q0 210 -62 336t-183 126q-123 0 -202.5 -120.5t-79.5 -341.5z" />
    <glyph glyph-name="c" unicode="c" horiz-adv-x="1013" 
d="M909 285q-92 -305 -359 -305q-201 0 -328 129.5t-127 350.5q0 132 52.5 239.5t160 174t253.5 66.5q149 0 239 -76.5t90 -191.5q0 -53 -30.5 -83.5t-77.5 -30.5q-44 0 -79 28.5t-35 83.5q0 50 33 79t81 29q35 0 62 -17t38 -48q-16 102 -104 161t-197 59
q-57 0 -102.5 -21.5t-75 -60t-50 -84t-30.5 -102t-14.5 -105t-4.5 -100.5q0 -471 259 -471q248 0 341 296h5z" />
    <glyph glyph-name="d" unicode="d" horiz-adv-x="1195" 
d="M1132 5v-5h-302v356q-18 -180 -98 -277t-213 -97q-82 0 -158 33t-135.5 93t-95 151.5t-35.5 200.5t35.5 201t95 152t135.5 93.5t158 33.5q133 0 213 -98t98 -278v931h-120v5h301v-1495h121zM830 460q0 222 -79 343t-202 121q-81 0 -137 -61t-81.5 -163.5t-25.5 -239.5
t25.5 -239.5t81.5 -163t137 -60.5q123 0 202 120.5t79 342.5z" />
    <glyph glyph-name="e" unicode="e" horiz-adv-x="1054" 
d="M970 285q-41 -138 -145.5 -221.5t-263.5 -83.5q-202 0 -334 130t-132 350t129.5 350t330.5 130q107 0 189 -34.5t129.5 -94.5t71 -133t23.5 -158h-662q0 -10 -0.5 -30t-0.5 -30q0 -74 7 -137.5t25.5 -127t47.5 -108t77.5 -72.5t111.5 -28q148 0 249.5 83.5t141.5 214.5h5
zM555 935q-64 0 -112.5 -34t-76 -94t-41.5 -129t-18 -152h449q1 53 -2.5 102.5t-16.5 107.5t-34 100t-59 70.5t-89 28.5z" />
    <glyph glyph-name="f" unicode="f" horiz-adv-x="770" 
d="M55 5h161v910h-161v5h161v103q0 134 43 245t134.5 181.5t216.5 70.5q114 0 180 -60.5t66 -137.5q0 -59 -33 -91.5t-82 -32.5q-44 0 -77.5 27t-33.5 82q0 49 35 80t76 31q34 0 64 -17t42 -46q-14 69 -77.5 114.5t-159.5 45.5q-214 0 -214 -435v-160h260v-5h-260v-910h220
v-5h-561v5z" />
    <glyph glyph-name="g" unicode="g" horiz-adv-x="1164" 
d="M126 143q0 88 79.5 136.5t208.5 57.5q-58 7 -110 27t-96 55t-70 91t-26 127q0 79 32.5 139.5t86.5 95t114.5 51t124.5 16.5q84 0 160.5 -28.5t125.5 -86.5q40 55 94 80.5t103 25.5q70 0 113.5 -45.5t43.5 -105.5q0 -58 -31 -84t-75 -26q-40 0 -70.5 27t-30.5 74t30 70
t71 23q30 0 58 -14t39 -38q-11 48 -49.5 81t-97.5 33q-51 0 -103.5 -25.5t-91.5 -79.5q59 -73 59 -183q0 -64 -21 -116t-55 -86.5t-79.5 -57.5t-93.5 -33t-99 -10h-10q-75 -3 -136.5 -34t-61.5 -88q0 -20 10.5 -34t25.5 -21.5t43 -11.5t52 -5t63 -1q37 0 80.5 1t70.5 1
q51 0 90.5 -5.5t82.5 -24t71 -50.5t46.5 -89.5t18.5 -135.5q0 -115 -59.5 -197t-153 -120.5t-208.5 -38.5q-120 0 -215 27t-156.5 89.5t-61.5 153.5q0 62 29.5 109.5t75 73t89.5 38.5t84 15q-214 21 -214 157zM302 637q0 -44 1.5 -74t6.5 -68t16.5 -63t29.5 -48t47 -34
t67 -11q56 0 95.5 44.5t56.5 110t17 143.5t-17 143t-56.5 109.5t-95.5 44.5t-95.5 -44.5t-56 -109.5t-16.5 -143zM257 -229q0 -50 15.5 -98.5t45.5 -91t81.5 -68.5t116.5 -26q160 0 270 85.5t110 214.5q0 91 -75.5 143t-179.5 52h-218q-37 0 -70 3q-61 -39 -78.5 -86
t-17.5 -128z" />
    <glyph glyph-name="h" unicode="h" horiz-adv-x="1159" 
d="M64 5h122v1490h-122v5h301v-932q32 372 326 372q85 0 143 -22t88 -64.5t42 -94t12 -121.5v-633h120v-5h-421v5h120v611q0 75 -3.5 122t-15 96t-37 72.5t-65.5 23.5q-309 0 -309 -484v-441h120v-5h-421v5z" />
    <glyph glyph-name="i" unicode="i" horiz-adv-x="569" 
d="M146 1400q0 50 35 85t85 35t85 -35t35 -85t-35 -85t-85 -35t-85 35t-35 85zM74 5h121v910h-121v5h301v-915h120v-5h-421v5z" />
    <glyph glyph-name="j" unicode="j" horiz-adv-x="583" 
d="M180 1400q0 50 35 85t85 35q49 0 84 -35t35 -85t-35 -85.5t-84 -35.5t-84.5 35.5t-35.5 85.5zM405 920v-943q0 -60 -3.5 -110.5t-13 -102.5t-24.5 -93t-39.5 -77.5t-56.5 -61t-76.5 -38.5t-99.5 -14q-116 0 -181 64t-65 154q0 59 33 91.5t81 32.5q44 0 77.5 -26.5
t33.5 -81.5q0 -40 -34.5 -74.5t-82.5 -34.5q-35 0 -62.5 15.5t-37.5 43.5q12 -77 72.5 -127t154.5 -50q29 0 52 10t38.5 31t27 45t17 61.5t9 70t4 80t0 83t-1.5 87.5t-1 85v875h-162v5h341z" />
    <glyph glyph-name="k" unicode="k" horiz-adv-x="1181" 
d="M64 5h162v1490h-162v5h341v-966l482 381h-225v5h407v-5h-175l-365 -290l528 -620h81v-5h-455v5h147l-425 500v-500h140v-5h-481v5z" />
    <glyph glyph-name="l" unicode="l" horiz-adv-x="628" 
d="M64 5h162v1490h-162v5h341v-1495h160v-5h-501v5z" />
    <glyph glyph-name="m" unicode="m" horiz-adv-x="1689" 
d="M64 5h122v910h-122v5h301v-361q32 381 296 381q275 0 275 -302v-76q32 378 295 378q275 0 275 -302v-633h119v-5h-421v5h121v611v50t-1 47t-2.5 45.5l-4 40t-6.5 38t-10 31t-14.5 27t-19 18.5t-24 13t-30.5 4q-70 0 -122.5 -34t-81 -84t-46 -119.5t-22.5 -126.5t-5 -120
v-441h120v-5h-421v5h121v611q0 40 -0.5 62t-1.5 57t-4 54.5t-8 45.5t-13.5 40.5t-20 28.5t-28 20t-36.5 6q-70 0 -122.5 -34t-81.5 -84t-47 -119.5t-23 -127t-5 -119.5v-441h120v-5h-421v5z" />
    <glyph glyph-name="n" unicode="n" horiz-adv-x="1159" 
d="M64 5h122v910h-122v5h301v-352q32 372 326 372q85 0 143 -22t88 -64.5t42 -94t12 -121.5v-633h120v-5h-421v5h120v611q0 75 -3.5 122t-15 96t-37 72.5t-65.5 23.5q-309 0 -309 -484v-441h120v-5h-421v5z" />
    <glyph glyph-name="o" unicode="o" horiz-adv-x="1105" 
d="M95 460q0 97 32.5 184.5t90.5 153t145 104t190 38.5t190 -38.5t145 -104t90.5 -153t32.5 -184.5t-32.5 -184.5t-90.5 -153t-145 -104t-190 -38.5t-190 38.5t-145 104t-90.5 153t-32.5 184.5zM305 460q0 -53 3.5 -101t12 -105t26.5 -102.5t44.5 -84.5t68 -60.5t93.5 -21.5
t93.5 21.5t68 60.5t44.5 84.5t27 102.5t12.5 105t3.5 101t-3.5 101t-12.5 105t-27 102.5t-44.5 84.5t-68 60.5t-93.5 21.5t-93.5 -21.5t-68 -60.5t-44.5 -84.5t-26.5 -102.5t-12 -105t-3.5 -101z" />
    <glyph glyph-name="p" unicode="p" horiz-adv-x="1195" 
d="M64 -495h122v1410h-122v5h301v-356q18 179 99 276.5t214 97.5q82 0 158 -33t135.5 -93t95 -151.5t35.5 -200.5t-35.5 -201t-95 -152t-135.5 -93.5t-158 -33.5q-133 0 -214 98t-99 278v-851h120v-5h-421v5zM365 460q0 -222 79.5 -343t202.5 -121q81 0 137 61t82 163.5
t26 239.5q0 210 -62 336t-183 126q-123 0 -202.5 -120.5t-79.5 -341.5z" />
    <glyph glyph-name="q" unicode="q" horiz-adv-x="1195" 
d="M1132 -495v-5h-422v5h120v851q-18 -180 -98 -277t-213 -97q-82 0 -158 33t-135.5 93t-95 151.5t-35.5 200.5t35.5 201t95 152t135.5 93.5t158 33.5q133 0 213 -98t98 -278v356h302v-5h-121v-1410h121zM830 460q0 222 -79 343t-202 121q-81 0 -137 -61t-81.5 -163.5
t-25.5 -239.5t25.5 -239.5t81.5 -163t137 -60.5q123 0 202 120.5t79 342.5z" />
    <glyph glyph-name="r" unicode="r" horiz-adv-x="848" 
d="M64 5h122v910h-122v5h301v-350q30 370 255 370q81 0 131 -47.5t50 -114.5q0 -53 -31.5 -87.5t-84.5 -34.5q-55 0 -87.5 30.5t-32.5 76.5q0 56 36 87.5t83 31.5q35 0 63 -16.5t42 -43.5q-15 50 -60 81.5t-109 31.5q-255 0 -255 -490v-440h120v-5h-421v5z" />
    <glyph glyph-name="s" unicode="s" horiz-adv-x="888" 
d="M109 -20h-5v280h5q4 -111 107.5 -192t234.5 -81q65 0 117.5 17t90 61.5t37.5 111.5q0 51 -31.5 87t-81.5 57t-110.5 39t-121 40.5t-110.5 53.5t-81.5 86t-31.5 130q0 106 73 187t206 81q139 0 236 -87l89 89h6v-280h-6q0 103 -94 188t-229 85q-89 0 -146.5 -40.5
t-57.5 -111.5q0 -48 33 -83.5t86 -58t116.5 -42.5t127.5 -44.5t117 -56t86 -86t33 -126.5q0 -133 -97.5 -218.5t-244.5 -85.5q-151 0 -259 93z" />
    <glyph glyph-name="t" unicode="t" horiz-adv-x="678" 
d="M645 203q-37 -98 -110 -157.5t-163 -59.5q-47 0 -81.5 14.5t-53.5 36.5t-30 55t-14 62.5t-3 67.5v693h-146v5h146v200q43 0 96 18t84 42v-260h214v-5h-214v-770q0 -73 17 -99.5t59 -26.5q54 0 108.5 54t85.5 130h5z" />
    <glyph glyph-name="u" unicode="u" horiz-adv-x="1159" 
d="M976 5h120v-5h-301v342q-36 -362 -326 -362q-69 0 -119.5 15t-81.5 40.5t-49.5 65.5t-25.5 82.5t-7 98.5v633h-122v5h301v-616q0 -58 2 -98t9 -84t19.5 -70.5t35.5 -44t56 -17.5q308 0 308 484v441h-140v5h321v-915z" />
    <glyph glyph-name="v" unicode="v" horiz-adv-x="1105" 
d="M610 204l295 711h-191v5h347v-5h-148l-388 -935h-4l-384 935h-113v5h483v-5h-171z" />
    <glyph glyph-name="w" unicode="w" horiz-adv-x="1537" 
d="M543 218l316 722h5l218 -686l221 661h-197v5h387v-5h-182l-313 -935h-6l-245 689l-302 -689h-6l-302 935h-113v5h461v-5h-162z" />
    <glyph glyph-name="x" unicode="x" horiz-adv-x="1117" 
d="M44 5h134l320 412l-340 498h-94v5h454v-5h-140l237 -347l269 347h-169v5h328v-5h-152l-273 -352l381 -558h74v-5h-402v5h108l-278 407l-315 -407h198v-5h-340v5z" />
    <glyph glyph-name="y" unicode="y" horiz-adv-x="1104" 
d="M470 915h-156l352 -721l294 721h-171v5h311v-5h-133l-532 -1311q-31 -70 -59 -100.5t-81 -30.5q-43 0 -78 27.5t-35 79.5q0 49 31.5 80t79.5 31q45 0 81.5 -33.5t38.5 -83.5l158 389l-457 952h-90v5h446v-5z" />
    <glyph glyph-name="z" unicode="z" horiz-adv-x="928" 
d="M407 915q-161 0 -226 -87t-65 -252h-6v344h722v-5l-561 -910h250q102 0 168.5 21t103.5 68.5t51.5 111.5t14.5 162h5v-368h-809v5l559 910h-207z" />
    <glyph glyph-name="braceleft" unicode="{" horiz-adv-x="543" 
d="M484 -300q-107 0 -180.5 18t-115.5 55.5t-60 87t-18 119.5q0 93 19 174t41 127t41 97.5t19 91.5q0 58 -35 99t-85 58v8q50 17 85 58t35 99q0 40 -19 91.5t-41 97.5t-41 127t-19 174t32.5 152t116 92.5t225.5 33.5v-5q-59 0 -103 -39.5t-64.5 -98t-20.5 -123.5
q0 -70 34 -198t34 -234q0 -31 -4 -56t-15.5 -45t-21 -34.5t-31.5 -28l-35 -21t-44 -17.5l-46 -14.5t-53 -14.5l61 -16.5t52 -17.5t47.5 -22t36 -27.5t30 -37t16.5 -47.5t7 -63q0 -106 -34 -234t-34 -198q0 -103 50.5 -183t137.5 -80v-5z" />
    <glyph glyph-name="bar" unicode="|" horiz-adv-x="460" 
d="M228 1560h5v-2060h-5v2060z" />
    <glyph glyph-name="braceright" unicode="}" horiz-adv-x="543" 
d="M60 -300v5q59 0 103 39.5t64.5 98t20.5 123.5q0 70 -34 198t-34 234q0 31 4 56t15.5 45t21 34.5t31.5 28l35 21t44 17.5l46 14.5t53 14.5l-61 16.5t-52 17.5t-47.5 22t-36 27.5t-30 37t-16.5 47.5t-7 63q0 106 34 234t34 198q0 103 -50.5 183t-137.5 80v5
q107 0 180.5 -18t115.5 -55.5t60 -87t18 -119.5q0 -93 -19 -174t-41 -127t-41 -97.5t-19 -91.5q0 -58 35 -99t85 -58v-8q-50 -17 -85 -58t-35 -99q0 -40 19 -91.5t41 -97.5t41 -127t19 -174t-32.5 -152t-116 -92.5t-225.5 -33.5z" />
    <glyph glyph-name="asciitilde" unicode="~" horiz-adv-x="1375" 
d="M427 874q-58 0 -105.5 -16t-82 -60t-34.5 -112h-5q0 84 24 149t66 104.5t94.5 60t113.5 20.5t110 -19.5t82.5 -47l66 -55t76 -47t96.5 -19.5q50 0 91.5 9.5t76.5 30t54.5 58.5t19.5 90h5q0 -84 -24 -149t-66 -104.5t-94.5 -60t-113.5 -20.5q-70 0 -123.5 19.5t-87 47
l-65 55t-75.5 47t-100 19.5z" />
    <glyph glyph-name="uni00A0" unicode="&#xa0;" horiz-adv-x="500" 
 />
    <glyph glyph-name="exclamdown" unicode="&#xa1;" horiz-adv-x="637" 
d="M444 940q0 -50 -35.5 -85.5t-84.5 -35.5t-84.5 35.5t-35.5 85.5t35 85t85 35t85 -35t35 -85zM208 -278q10 163 62.5 453t52.5 449h5q0 -159 53 -449t63 -453v-38q0 -76 -26 -118t-92 -42q-121 0 -121 160q0 6 1.5 18.5t1.5 19.5z" />
    <glyph glyph-name="cent" unicode="&#xa2;" horiz-adv-x="1013" 
d="M568 1109v-169q146 -1 234 -78t88 -190q0 -53 -30.5 -83.5t-77.5 -30.5q-44 0 -79 28.5t-35 83.5q0 50 33 79t81 29q35 0 62 -17t38 -48q-16 102 -104 161t-197 59q-9 0 -13 -1v-942q242 1 336 295h5q-88 -294 -341 -305v-150h-6v150h-12q-201 0 -328 129.5t-127 350.5
q0 132 52.5 239.5t160 174t253.5 66.5h1v169h6zM304 460q0 -471 258 -471v943q-53 -4 -95.5 -27t-70 -61.5t-46.5 -83.5t-28.5 -100t-13.5 -102t-4 -98z" />
    <glyph glyph-name="sterling" unicode="&#xa3;" horiz-adv-x="1250" 
d="M236 1100q0 205 142.5 312.5t389.5 107.5q117 0 207.5 -28t143.5 -75.5t79.5 -104.5t26.5 -121q0 -58 -35.5 -90.5t-84.5 -32.5q-43 0 -78 28.5t-35 83.5q0 50 33 80t80 30q37 0 69.5 -19.5t43.5 -51.5q-5 59 -34.5 111t-82.5 94t-138.5 66.5t-193.5 24.5
q-79 0 -138 -27.5t-91.5 -68t-51.5 -97.5t-24.5 -103.5t-5.5 -98.5q0 -29 4 -60.5t7.5 -52.5t14 -55t14.5 -46t18.5 -50.5t16.5 -44.5h397v-6h-395q35 -96 35 -164q0 -72 -24 -133t-62.5 -104t-84.5 -81.5l-91.5 -75t-82.5 -75t-58 -91t-18 -113.5q65 225 294 225
q106 0 234.5 -33.5t198.5 -33.5q56 0 105 7t102 25t84.5 58t31.5 98h5q0 -105 -27.5 -180.5t-77 -116.5t-107.5 -59.5t-129 -18.5q-93 0 -173.5 19t-126.5 42t-97.5 42t-91.5 19q-67 0 -138 -29t-85 -72h-7q-11 77 11.5 151t62 130.5t80 105.5t70.5 94.5t30 79.5
q0 52 -13 107t-26 87.5t-39 89.5h-291v6h288q-27 56 -41 90t-27 89.5t-13 109.5z" />
    <glyph glyph-name="currency" unicode="&#xa4;" horiz-adv-x="1140" 
d="M83 286l156 156q-127 132 -127 328q0 195 127 327l-156 157l3 3l157 -156q128 128 328 128q199 0 327 -128l156 156l4 -3l-156 -157q126 -131 126 -327t-126 -327l155 -157l-3 -3l-156 156q-127 -129 -327 -129q-198 0 -328 128l-157 -156zM118 770q0 -124 54.5 -227
t159 -165t239.5 -62q203 0 327 131.5t124 322.5q0 124 -53.5 226.5t-157.5 164.5t-240 62q-203 0 -328 -131t-125 -322z" />
    <glyph glyph-name="yen" unicode="&#xa5;" horiz-adv-x="1411" 
d="M450 5h180v433h-297v6h297v276l-12 19h-285v6h282l-452 750h-142v5h580v-5h-218l432 -724l391 724h-235v5h420v-5h-178l-393 -729v-21h393v-6h-393v-295h393v-6h-393v-433h201v-5h-571v5z" />
    <glyph glyph-name="brokenbar" unicode="&#xa6;" horiz-adv-x="439" 
d="M218 1560h5v-742h-5v742zM218 332h5v-832h-5v832z" />
    <glyph glyph-name="section" unicode="&#xa7;" horiz-adv-x="893" 
d="M817 324q0 -155 -108 -249.5t-282 -94.5q-56 0 -106 9t-99 31t-84 55.5t-56.5 86.5t-21.5 120q0 62 33.5 103t85.5 41q47 0 77.5 -30t30.5 -82q0 -47 -34 -78.5t-80 -31.5q-36 0 -66.5 15t-40.5 41q4 -75 37 -130.5t85.5 -86t112 -44.5t126.5 -14q122 0 186 64t64 145
q0 53 -33 95.5t-86.5 71.5t-117.5 55l-128 53.5t-117.5 58.5t-86.5 77.5t-33 104.5q0 48 16 92t45.5 80t54 59t57.5 49q-125 86 -125 226q0 75 30 135t79 95.5t106 54.5t115 19q69 0 129 -17t110.5 -50.5t79.5 -92t29 -135.5q0 -62 -34 -103.5t-86 -41.5q-47 0 -77.5 29.5
t-30.5 81.5q0 47 34.5 79t79.5 32q34 0 65.5 -17.5t42.5 -41.5q-3 70 -33.5 124t-79 85.5t-106.5 47t-123 15.5q-91 0 -158 -62.5t-67 -135.5q0 -53 33.5 -96t86.5 -73.5t118 -58.5l129.5 -57.5t117.5 -64t86.5 -85t33.5 -112.5q0 -70 -41 -120.5t-117 -103.5
q142 -79 142 -222zM169 834q0 -51 32 -88t89 -61t117.5 -42t135.5 -42.5t124 -50.5q53 52 53 116q0 52 -31 91.5t-85 67.5t-111.5 50t-127 51.5t-114.5 60.5q-82 -72 -82 -153z" />
    <glyph glyph-name="dieresis" unicode="&#xa8;" horiz-adv-x="792" 
d="M460 1786q0 40 28 68.5t68 28.5t68 -28.5t28 -68.5t-28 -68t-68 -28t-68 28t-28 68zM140 1786q0 40 28 68.5t68 28.5t68 -28.5t28 -68.5t-28 -68t-68 -28t-68 28t-28 68z" />
    <glyph glyph-name="copyright" unicode="&#xa9;" horiz-adv-x="1739" 
d="M100 750q0 157 61 299.5t164 245.5t245.5 164t299.5 61t299.5 -61t245.5 -164t164 -245.5t61 -299.5t-61 -299.5t-164 -245.5t-245.5 -164t-299.5 -61t-299.5 61t-245.5 164t-164 245.5t-61 299.5zM105 750q0 -155 61 -296.5t163.5 -244t244 -163.5t296.5 -61t296.5 61
t244 163.5t163.5 244t61 296.5t-61 296.5t-163.5 244t-244 163.5t-296.5 61t-296.5 -61t-244 -163.5t-163.5 -244t-61 -296.5zM1176 546v-246h-3l-66 75q-85 -87 -225 -87q-182 0 -295 130t-113 332t113 332t295 130q122 0 206 -81l73 69h3v-246h-3q0 106 -81 178.5
t-186 72.5q-75 0 -131.5 -39.5t-88.5 -107t-47 -145t-15 -163.5t15 -163.5t47 -145t88.5 -107t131.5 -39.5q122 0 200.5 74t78.5 177h3z" />
    <glyph glyph-name="ordfeminine" unicode="&#xaa;" horiz-adv-x="619" 
d="M624 1038q-16 -38 -51 -62t-78 -24q-110 0 -110 102v72q-20 -174 -167 -174q-78 0 -124.5 40t-46.5 108q0 80 68 123.5t195 43.5h75v62q0 39 -3.5 67.5t-13.5 59t-32.5 47t-56.5 16.5q-52 0 -100.5 -19.5t-71.5 -51.5q19 21 48 21q27 0 47.5 -17t20.5 -46
q0 -34 -20.5 -51.5t-47.5 -17.5q-29 0 -47.5 17.5t-18.5 48.5q0 54 64 88.5t150 34.5q48 0 83 -11.5t55 -29.5t32 -45t16 -52.5t4 -58.5v-310q0 -53 43 -53q21 0 46.5 20.5t39.5 53.5zM253 966q58 0 95 53.5t37 161.5v83h-75q-71 0 -105 -49t-34 -109q0 -55 19.5 -97.5
t62.5 -42.5z" />
    <glyph glyph-name="guillemotleft" unicode="&#xab;" horiz-adv-x="1389" 
d="M862 776l411 -483l-3 -3l-660 460v50l660 460l3 -3zM302 776l411 -483l-3 -3l-660 460v50l660 460l3 -3z" />
    <glyph glyph-name="logicalnot" unicode="&#xac;" horiz-adv-x="971" 
d="M847 1225h-727v5h732v-404h-5v399z" />
    <glyph glyph-name="uni00AD" unicode="&#xad;" horiz-adv-x="719" 
d="M120 553h480v-6h-480v6z" />
    <glyph glyph-name="registered" unicode="&#xae;" horiz-adv-x="1739" 
d="M100 750q0 157 61 299.5t164 245.5t245.5 164t299.5 61t299.5 -61t245.5 -164t164 -245.5t61 -299.5t-61 -299.5t-164 -245.5t-245.5 -164t-299.5 -61t-299.5 61t-245.5 164t-164 245.5t-61 299.5zM105 750q0 -155 61 -296.5t163.5 -244t244 -163.5t296.5 -61t296.5 61
t244 163.5t163.5 244t61 296.5t-61 296.5t-163.5 244t-244 163.5t-296.5 61t-296.5 -61t-244 -163.5t-163.5 -244t-61 -296.5zM498 299h132v894h-132v3h396q141 0 220.5 -54.5t79.5 -167.5q0 -105 -63 -156.5t-188 -59.5q75 -5 124 -33t69 -69t28.5 -89t8 -95.5t1 -87
t14 -63.5t41.5 -24q36 0 66 14l1 -2q-33 -19 -108 -19q-57 0 -89 25.5t-41.5 67t-11.5 91t-4.5 99t-13.5 91t-45.5 67t-94.5 25.5h-144v-457h132v-3h-378v3zM894 1193h-150v-434h150q85 0 132.5 58t47.5 157q0 100 -47.5 159.5t-132.5 59.5z" />
    <glyph glyph-name="macron" unicode="&#xaf;" horiz-adv-x="803" 
d="M120 953h565v-6h-565v6z" />
    <glyph glyph-name="degree" unicode="&#xb0;" horiz-adv-x="639" 
d="M80 1360q0 99 70.5 169.5t169.5 70.5t169.5 -70.5t70.5 -169.5t-70.5 -169.5t-169.5 -70.5t-169.5 70.5t-70.5 169.5zM121 1360q0 -85 57 -142t142 -57t142 57t57 142t-57 142t-142 57t-142 -57t-57 -142z" />
    <glyph glyph-name="plusminus" unicode="&#xb1;" horiz-adv-x="1059" 
d="M527 300v409h-407v6h407v405h6v-405h407v-6h-407v-409h-6zM121 24h819v-6h-819v6z" />
    <glyph glyph-name="uni00B2" unicode="&#xb2;" horiz-adv-x="939" 
d="M769 914h-569v78l289 256q136 121 136 326q0 98 -52 168.5t-128 70.5q-110 0 -174 -68.5t-52 -184.5q5 22 26.5 37t46.5 15q29 0 51 -18.5t22 -48.5q0 -35 -21.5 -56t-53.5 -21q-30 0 -49.5 22t-24.5 57q-17 129 56.5 204t209.5 75q121 0 192 -67t71 -162
q0 -43 -13 -81.5t-38.5 -72.5t-46.5 -55.5t-53 -50.5l-354 -315h526v90h3v-198z" />
    <glyph glyph-name="uni00B3" unicode="&#xb3;" horiz-adv-x="899" 
d="M707 1154q0 -115 -85 -183.5t-215 -68.5q-120 0 -183.5 51t-63.5 122q0 36 20 56.5t52 20.5q28 0 46 -18t18 -49q0 -28 -20 -45.5t-48 -17.5q-21 0 -39 11t-25 27q6 -64 64 -106.5t155 -42.5q101 0 152 69t51 174q0 245 -236 245v3q55 0 93.5 13.5t59 33t31.5 52t13.5 58
t2.5 64.5q0 90 -39.5 142.5t-109.5 52.5q-73 0 -132 -41t-69 -98q7 18 26 28t39 10q28 0 48 -17t20 -47q0 -33 -21 -49.5t-47 -16.5q-29 0 -49.5 19.5t-20.5 54.5q0 66 66.5 115t157.5 49q106 0 179 -53.5t73 -148.5q0 -48 -10.5 -82.5t-39.5 -67t-87.5 -51t-146.5 -21.5
q93 -4 158 -24.5t99 -55.5t48.5 -75.5t14.5 -91.5z" />
    <glyph glyph-name="acute" unicode="&#xb4;" horiz-adv-x="789" 
d="M610 1442l-490 -5l-2 6l472 133q39 11 64.5 -11.5t25.5 -54.5q0 -28 -20.5 -48t-49.5 -20z" />
    <glyph glyph-name="mu" unicode="&#xb5;" horiz-adv-x="1159" 
d="M510 -246q50 0 86.5 -39t36.5 -95q0 -62 -42 -101t-125 -39q-113 0 -196.5 75t-83.5 203v1157h-122v5h301v-616q0 -58 2 -98t9 -84t19.5 -70.5t35.5 -44t56 -17.5q308 0 308 484v441h-140v5h321v-915h120v-5h-301v342q-36 -362 -326 -362q-136 0 -199.5 55.5t-78.5 159.5
v-437q0 -121 76.5 -193.5t186.5 -78.5q-30 12 -48.5 54t-18.5 88q0 50 37 88t86 38z" />
    <glyph glyph-name="paragraph" unicode="&#xb6;" horiz-adv-x="1183" 
d="M596 779q-214 0 -342 95t-128 265t128 265.5t342 95.5h501v-5h-179v-1790h179v-5h-533v5h189v1074h-157zM912 -295v1790h-153v-1790h153z" />
    <glyph glyph-name="periodcentered" unicode="&#xb7;" horiz-adv-x="395" 
d="M80 800q0 50 35.5 85.5t84.5 35.5t84.5 -35.5t35.5 -85.5t-35 -85t-85 -35t-85 35t-35 85z" />
    <glyph glyph-name="cedilla" unicode="&#xb8;" horiz-adv-x="1099" 
d="M578 -350q0 38 -16 63.5t-48.5 37.5t-69 16.5t-90.5 4.5l171 230h8l-111 -150q78 -3 142 -19t110 -53t46 -90q0 -165 -338 -165v6q87 0 141.5 33.5t54.5 85.5z" />
    <glyph glyph-name="uni00B9" unicode="&#xb9;" horiz-adv-x="1059" 
d="M274 915h156v894h-136v3h250v-897h132v-3h-402v3z" />
    <glyph glyph-name="ordmasculine" unicode="&#xba;" horiz-adv-x="1105" 
d="M286 1238q0 121 76 204.5t199 83.5t199 -83.5t76 -204.5t-76 -204.5t-199 -83.5t-199 83.5t-76 204.5zM412 1238q0 -285 149 -285t149 285t-149 285t-149 -285z" />
    <glyph glyph-name="guillemotright" unicode="&#xbb;" horiz-adv-x="1389" 
d="M528 774l-411 483l3 3l660 -460v-50l-660 -460l-3 3zM1088 774l-411 483l3 3l660 -460v-50l-660 -460l-3 3z" />
    <glyph glyph-name="onequarter" unicode="&#xbc;" horiz-adv-x="1281" 
d="M44 715h156v894h-136v3h250v-897h132v-3h-402v3zM1047 1300h5l-967 -1500h-5zM1200 -203v-3h-318v3h114v253h-414l432 644h96v-640h132v-4h-132v-253h90zM588 54h408v607z" />
    <glyph glyph-name="onehalf" unicode="&#xbd;" horiz-adv-x="1339" 
d="M44 715h156v894h-136v3h250v-897h132v-3h-402v3zM1047 1300h5l-967 -1500h-5zM1299 -202h-569v78l289 256q136 121 136 326q0 98 -52 168.5t-128 70.5q-110 0 -174 -68.5t-52 -184.5q5 22 26.5 37t46.5 15q29 0 51 -18.5t22 -48.5q0 -35 -21.5 -56t-53.5 -21
q-30 0 -49.5 22t-24.5 57q-17 129 56.5 204t209.5 75q121 0 192 -67t71 -162q0 -43 -13 -81.5t-38.5 -72.5t-46.5 -55.5t-53 -50.5l-354 -315h526v90h3v-198z" />
    <glyph glyph-name="threequarters" unicode="&#xbe;" horiz-adv-x="1401" 
d="M587 948q0 -115 -85 -183.5t-215 -68.5q-120 0 -183.5 51t-63.5 122q0 36 20 56.5t52 20.5q28 0 46 -18t18 -49q0 -28 -20 -45.5t-48 -17.5q-21 0 -39 11t-25 27q6 -64 64 -106.5t155 -42.5q101 0 152 69t51 174q0 245 -236 245v3q55 0 93.5 13.5t59 33t31.5 52t13.5 58
t2.5 64.5q0 90 -39.5 142.5t-109.5 52.5q-73 0 -132 -41t-69 -98q7 18 26 28t39 10q28 0 48 -17t20 -47q0 -33 -21 -49.5t-47 -16.5q-29 0 -49.5 19.5t-20.5 54.5q0 66 66.5 115t157.5 49q106 0 179 -53.5t73 -148.5q0 -48 -10.5 -82.5t-39.5 -67t-87.5 -51t-146.5 -21.5
q93 -4 158 -24.5t99 -55.5t48.5 -75.5t14.5 -91.5zM1167 1300h5l-967 -1500h-5zM1320 -203v-3h-318v3h114v253h-414l432 644h96v-640h132v-4h-132v-253h90zM708 54h408v607z" />
    <glyph glyph-name="questiondown" unicode="&#xbf;" horiz-adv-x="1099" 
d="M712 940q0 -50 -35.5 -85.5t-84.5 -35.5t-84.5 35.5t-35.5 85.5t35 85t85 35t85 -35t35 -85zM599 342q-81 -19 -142 -61t-96 -100t-52 -123t-17 -138q0 -64 5 -113.5t22 -104.5t46.5 -91t81.5 -59.5t124 -23.5q145 0 259.5 91t131.5 207q-11 -30 -40.5 -47.5t-65.5 -17.5
q-47 0 -80.5 29.5t-33.5 79.5q0 55 35 83t79 28q49 0 81.5 -32t32.5 -91q0 -61 -33 -122t-88 -108.5t-132 -77.5t-159 -30q-211 0 -339.5 110t-128.5 290q0 171 144.5 291.5t358.5 134.5v276h6v-280z" />
    <glyph glyph-name="Agrave" unicode="&#xc0;" horiz-adv-x="1476" 
d="M612 1817q-25 11 -33.5 42t6.5 56q16 28 49 34.5t63 -23.5l191 -230l-2 -3zM38 5h193l531 1525h6l528 -1525h143v-5h-580v5h218l-155 480h-518l-167 -480h241v-5h-440v5zM674 1256l-268 -765h514z" />
    <glyph glyph-name="Aacute" unicode="&#xc1;" horiz-adv-x="1476" 
d="M1016 1817l-274 -124l-2 3l191 230q30 30 63 23.5t49 -34.5q15 -25 6.5 -56t-33.5 -42zM38 5h193l531 1525h6l528 -1525h143v-5h-580v5h218l-155 480h-518l-167 -480h241v-5h-440v5zM674 1256l-268 -765h514z" />
    <glyph glyph-name="Acircumflex" unicode="&#xc2;" horiz-adv-x="1476" 
d="M814 1849l-281 -135l-3 5l220 220h130l220 -220l-3 -5zM38 5h193l531 1525h6l528 -1525h143v-5h-580v5h218l-155 480h-518l-167 -480h241v-5h-440v5zM674 1256l-268 -765h514z" />
    <glyph glyph-name="Atilde" unicode="&#xc3;" horiz-adv-x="1476" 
d="M617 1838q-58 0 -100 -33t-42 -105h-5q0 120 59 187t139 67q47 0 98.5 -24.5t88.5 -54.5t82 -54.5t82 -24.5q69 0 105.5 32t36.5 106h5q0 -138 -43 -196t-135 -58q-37 0 -77.5 16.5t-76 39.5l-71 46t-74 39.5t-72.5 16.5zM38 5h193l531 1525h6l528 -1525h143v-5h-580v5
h218l-155 480h-518l-167 -480h241v-5h-440v5zM674 1256l-268 -765h514z" />
    <glyph glyph-name="Adieresis" unicode="&#xc4;" horiz-adv-x="1476" 
d="M877 1786q0 40 28 68.5t68 28.5t68 -28.5t28 -68.5t-28 -68t-68 -28t-68 28t-28 68zM557 1786q0 40 28 68.5t68 28.5t68 -28.5t28 -68.5t-28 -68t-68 -28t-68 28t-28 68zM38 5h193l531 1525h6l528 -1525h143v-5h-580v5h218l-155 480h-518l-167 -480h241v-5h-440v5z
M674 1256l-268 -765h514z" />
    <glyph glyph-name="Aring" unicode="&#xc5;" horiz-adv-x="1476" 
d="M38 5h193l518 1486q-52 20 -83.5 65.5t-31.5 103.5q0 76 52 128t128 52t128 -52t52 -128t-52 -128t-128 -52q-10 0 -30 2l512 -1477h143v-5h-580v5h218l-155 480h-518l-167 -480h241v-5h-440v5zM704 1660q0 -118 49 -156l9 26h6l14 -40q15 -5 32 -5q110 0 110 175
t-110 175t-110 -175zM674 1256l-268 -765h514z" />
    <glyph glyph-name="AE" unicode="&#xc6;" horiz-adv-x="2001" 
d="M30 5h192l828 1495h871v-410h-6q0 82 -20 153.5t-59.5 128.5t-105 90t-150.5 33h-340v-716h120q90 0 152.5 55.5t62.5 151.5h6v-430h-6q0 97 -63 157t-152 60h-120v-768h320q100 0 173.5 33.5t117 94.5t64 140t20.5 177h6v-450h-1071v5h180v482h-554l-267 -482h241v-5
h-440v5zM499 493h551v994z" />
    <glyph glyph-name="Ccedilla" unicode="&#xc7;" horiz-adv-x="1339" 
d="M802 -360q0 38 -16 63.5t-48.5 37.5t-69 16.5t-90.5 4.5l162 218q-194 6 -343.5 107t-231 273.5t-81.5 389.5q0 166 49.5 308.5t138 244t215.5 159.5t277 58q100 0 189.5 -35.5t155.5 -99.5l121 115h5v-410h-6q0 118 -64 215.5t-165.5 150.5t-215.5 53q-101 0 -182 -44.5
t-134 -117.5t-88.5 -173t-50.5 -205t-15 -219q0 -110 14 -212.5t47.5 -200t83 -171t125.5 -121t170 -53.5h2q4 0 14 -0.5t14 -0.5q101 0 189 34t148 91.5t94 133.5t34 160h6v-410h-5l-111 124q-67 -68 -163.5 -106t-211.5 -38h-17l-102 -138q57 -2 108 -12t95 -28.5t70 -50
t26 -71.5q0 -164 -338 -164v5q87 0 141.5 34t54.5 85z" />
    <glyph glyph-name="Egrave" unicode="&#xc8;" horiz-adv-x="1168" 
d="M472 1817q-25 11 -33.5 42t6.5 56q16 28 49 34.5t63 -23.5l191 -230l-2 -3zM743 556q0 97 -63 157t-152 60h-120v-768h320q100 0 173.5 33.5t117 94.5t64 140t20.5 177h6v-450h-1071v5h179v1490h-179v5h1050v-410h-5q0 82 -20 153.5t-59.5 128.5t-105 90t-150.5 33h-340
v-716h120q90 0 152.5 55.5t62.5 151.5h6v-430h-6z" />
    <glyph glyph-name="Eacute" unicode="&#xc9;" horiz-adv-x="1168" 
d="M876 1817l-274 -124l-2 3l191 230q30 30 63 23.5t49 -34.5q15 -25 6.5 -56t-33.5 -42zM743 556q0 97 -63 157t-152 60h-120v-768h320q100 0 173.5 33.5t117 94.5t64 140t20.5 177h6v-450h-1071v5h179v1490h-179v5h1050v-410h-5q0 82 -20 153.5t-59.5 128.5t-105 90
t-150.5 33h-340v-716h120q90 0 152.5 55.5t62.5 151.5h6v-430h-6z" />
    <glyph glyph-name="Ecircumflex" unicode="&#xca;" horiz-adv-x="1168" 
d="M674 1849l-281 -135l-3 5l220 220h130l220 -220l-3 -5zM743 556q0 97 -63 157t-152 60h-120v-768h320q100 0 173.5 33.5t117 94.5t64 140t20.5 177h6v-450h-1071v5h179v1490h-179v5h1050v-410h-5q0 82 -20 153.5t-59.5 128.5t-105 90t-150.5 33h-340v-716h120
q90 0 152.5 55.5t62.5 151.5h6v-430h-6z" />
    <glyph glyph-name="Edieresis" unicode="&#xcb;" horiz-adv-x="1168" 
d="M737 1786q0 40 28 68.5t68 28.5t68 -28.5t28 -68.5t-28 -68t-68 -28t-68 28t-28 68zM417 1786q0 40 28 68.5t68 28.5t68 -28.5t28 -68.5t-28 -68t-68 -28t-68 28t-28 68zM743 556q0 97 -63 157t-152 60h-120v-768h320q100 0 173.5 33.5t117 94.5t64 140t20.5 177h6v-450
h-1071v5h179v1490h-179v5h1050v-410h-5q0 82 -20 153.5t-59.5 128.5t-105 90t-150.5 33h-340v-716h120q90 0 152.5 55.5t62.5 151.5h6v-430h-6z" />
    <glyph glyph-name="Igrave" unicode="&#xcc;" horiz-adv-x="725" 
d="M204 1817q-25 11 -33.5 42t6.5 56q16 28 49 34.5t63 -23.5l191 -230l-2 -3zM38 5h219v1490h-219v5h650v-5h-240v-1490h240v-5h-650v5z" />
    <glyph glyph-name="Iacute" unicode="&#xcd;" horiz-adv-x="725" 
d="M608 1817l-274 -124l-2 3l191 230q30 30 63 23.5t49 -34.5q15 -25 6.5 -56t-33.5 -42zM38 5h219v1490h-219v5h650v-5h-240v-1490h240v-5h-650v5z" />
    <glyph glyph-name="Icircumflex" unicode="&#xce;" horiz-adv-x="725" 
d="M406 1849l-281 -135l-3 5l220 220h130l220 -220l-3 -5zM38 5h219v1490h-219v5h650v-5h-240v-1490h240v-5h-650v5z" />
    <glyph glyph-name="Idieresis" unicode="&#xcf;" horiz-adv-x="725" 
d="M469 1786q0 40 28 68.5t68 28.5t68 -28.5t28 -68.5t-28 -68t-68 -28t-68 28t-28 68zM149 1786q0 40 28 68.5t68 28.5t68 -28.5t28 -68.5t-28 -68t-68 -28t-68 28t-28 68zM38 5h219v1490h-219v5h650v-5h-240v-1490h240v-5h-650v5z" />
    <glyph glyph-name="Eth" unicode="&#xd0;" horiz-adv-x="1401" 
d="M597 0h-559v5h179v742h-131v6h131v742h-179v5h559q218 0 383.5 -99t251.5 -268.5t86 -382.5q0 -211 -90.5 -382t-256 -269.5t-374.5 -98.5zM670 747h-262v-742h189q107 0 192 43t140 114t91.5 169t51.5 201.5t15 217.5q0 112 -17 217.5t-55.5 202t-94.5 168.5t-139 114.5
t-184 42.5h-189v-742h262v-6z" />
    <glyph glyph-name="Ntilde" unicode="&#xd1;" horiz-adv-x="1465" 
d="M659 1838q-58 0 -100 -33t-42 -105h-5q0 120 59 187t139 67q47 0 98.5 -24.5t88.5 -54.5t82 -54.5t82 -24.5q69 0 105.5 32t36.5 106h5q0 -138 -43 -196t-135 -58q-37 0 -77.5 16.5t-76 39.5l-71 46t-74 39.5t-72.5 16.5zM38 5h198v1490h-198v5h430l745 -1196v1191h-240
v5h455v-5h-210v-1515h-6l-970 1515v-1490h241v-5h-445v5z" />
    <glyph glyph-name="Ograve" unicode="&#xd2;" horiz-adv-x="1448" 
d="M574 1817q-25 11 -33.5 42t6.5 56q16 28 49 34.5t63 -23.5l191 -230l-2 -3zM725 -20q-149 0 -271 60.5t-202.5 165t-124 244.5t-43.5 300q0 159 46.5 300t129 245t203 164.5t262.5 60.5t262.5 -60.5t202.5 -164.5t128 -245t46 -300q0 -160 -43.5 -300t-123.5 -244.5
t-201.5 -165t-270.5 -60.5zM725 1515q-80 0 -144.5 -31t-108.5 -87t-75.5 -127.5t-49 -160t-25.5 -176t-8 -183.5q0 -84 4.5 -157.5t16.5 -153t31 -144t51 -123.5t74 -99.5t101.5 -64t132.5 -23.5q84 0 150.5 30.5t110.5 87.5t74 127t45.5 160.5t22 175.5t6.5 184
q0 96 -8 183.5t-25 176t-48.5 160t-75.5 127.5t-108 87t-144 31z" />
    <glyph glyph-name="Oacute" unicode="&#xd3;" horiz-adv-x="1448" 
d="M978 1817l-274 -124l-2 3l191 230q30 30 63 23.5t49 -34.5q15 -25 6.5 -56t-33.5 -42zM725 -20q-149 0 -271 60.5t-202.5 165t-124 244.5t-43.5 300q0 159 46.5 300t129 245t203 164.5t262.5 60.5t262.5 -60.5t202.5 -164.5t128 -245t46 -300q0 -160 -43.5 -300
t-123.5 -244.5t-201.5 -165t-270.5 -60.5zM725 1515q-80 0 -144.5 -31t-108.5 -87t-75.5 -127.5t-49 -160t-25.5 -176t-8 -183.5q0 -84 4.5 -157.5t16.5 -153t31 -144t51 -123.5t74 -99.5t101.5 -64t132.5 -23.5q84 0 150.5 30.5t110.5 87.5t74 127t45.5 160.5t22 175.5
t6.5 184q0 96 -8 183.5t-25 176t-48.5 160t-75.5 127.5t-108 87t-144 31z" />
    <glyph glyph-name="Ocircumflex" unicode="&#xd4;" horiz-adv-x="1448" 
d="M776 1849l-281 -135l-3 5l220 220h130l220 -220l-3 -5zM725 -20q-149 0 -271 60.5t-202.5 165t-124 244.5t-43.5 300q0 159 46.5 300t129 245t203 164.5t262.5 60.5t262.5 -60.5t202.5 -164.5t128 -245t46 -300q0 -160 -43.5 -300t-123.5 -244.5t-201.5 -165
t-270.5 -60.5zM725 1515q-80 0 -144.5 -31t-108.5 -87t-75.5 -127.5t-49 -160t-25.5 -176t-8 -183.5q0 -84 4.5 -157.5t16.5 -153t31 -144t51 -123.5t74 -99.5t101.5 -64t132.5 -23.5q84 0 150.5 30.5t110.5 87.5t74 127t45.5 160.5t22 175.5t6.5 184q0 96 -8 183.5t-25 176
t-48.5 160t-75.5 127.5t-108 87t-144 31z" />
    <glyph glyph-name="Otilde" unicode="&#xd5;" horiz-adv-x="1448" 
d="M579 1838q-58 0 -100 -33t-42 -105h-5q0 120 59 187t139 67q47 0 98.5 -24.5t88.5 -54.5t82 -54.5t82 -24.5q69 0 105.5 32t36.5 106h5q0 -138 -43 -196t-135 -58q-37 0 -77.5 16.5t-76 39.5l-71 46t-74 39.5t-72.5 16.5zM725 -20q-149 0 -271 60.5t-202.5 165
t-124 244.5t-43.5 300q0 159 46.5 300t129 245t203 164.5t262.5 60.5t262.5 -60.5t202.5 -164.5t128 -245t46 -300q0 -160 -43.5 -300t-123.5 -244.5t-201.5 -165t-270.5 -60.5zM725 1515q-80 0 -144.5 -31t-108.5 -87t-75.5 -127.5t-49 -160t-25.5 -176t-8 -183.5
q0 -84 4.5 -157.5t16.5 -153t31 -144t51 -123.5t74 -99.5t101.5 -64t132.5 -23.5q84 0 150.5 30.5t110.5 87.5t74 127t45.5 160.5t22 175.5t6.5 184q0 96 -8 183.5t-25 176t-48.5 160t-75.5 127.5t-108 87t-144 31z" />
    <glyph glyph-name="Odieresis" unicode="&#xd6;" horiz-adv-x="1448" 
d="M839 1786q0 40 28 68.5t68 28.5t68 -28.5t28 -68.5t-28 -68t-68 -28t-68 28t-28 68zM519 1786q0 40 28 68.5t68 28.5t68 -28.5t28 -68.5t-28 -68t-68 -28t-68 28t-28 68zM725 -20q-149 0 -271 60.5t-202.5 165t-124 244.5t-43.5 300q0 159 46.5 300t129 245t203 164.5
t262.5 60.5t262.5 -60.5t202.5 -164.5t128 -245t46 -300q0 -160 -43.5 -300t-123.5 -244.5t-201.5 -165t-270.5 -60.5zM725 1515q-80 0 -144.5 -31t-108.5 -87t-75.5 -127.5t-49 -160t-25.5 -176t-8 -183.5q0 -84 4.5 -157.5t16.5 -153t31 -144t51 -123.5t74 -99.5
t101.5 -64t132.5 -23.5q84 0 150.5 30.5t110.5 87.5t74 127t45.5 160.5t22 175.5t6.5 184q0 96 -8 183.5t-25 176t-48.5 160t-75.5 127.5t-108 87t-144 31z" />
    <glyph glyph-name="multiply" unicode="&#xd7;" horiz-adv-x="1059" 
d="M236 345l288 288l-287 286l4 4l287 -287l288 288l4 -3l-288 -288l289 -290l-4 -4l-289 290l-288 -288z" />
    <glyph glyph-name="Oslash" unicode="&#xd8;" horiz-adv-x="1448" 
d="M725 -20q-156 0 -282 66l-116 -246h-5l117 248q-169 90 -262 277t-93 425q0 159 46.5 300t129 245t203 164.5t262.5 60.5q198 0 352 -116l120 256h6l-122 -259q134 -102 208.5 -273.5t74.5 -377.5q0 -160 -43.5 -300t-123.5 -244.5t-201.5 -165t-270.5 -60.5zM725 1515
q-80 0 -144.5 -31t-108.5 -87t-75.5 -127.5t-49 -160t-25.5 -176t-8 -183.5q0 -468 150 -648l569 1209q-104 204 -308 204zM1134 750q0 358 -98 555l-568 -1207q97 -113 257 -113q84 0 150.5 30.5t110.5 87.5t74 127t45.5 160.5t22 175.5t6.5 184z" />
    <glyph glyph-name="Ugrave" unicode="&#xd9;" horiz-adv-x="1395" 
d="M584 1817q-25 11 -33.5 42t6.5 56q16 28 49 34.5t63 -23.5l191 -230l-2 -3zM38 1500h570v-5h-200v-1015q0 -85 8.5 -154t31.5 -135t61 -111t101 -72t147 -27q201 0 299.5 118.5t98.5 360.5v1035h-189v5h392v-5h-198v-1035q0 -251 -104.5 -370.5t-338.5 -119.5
q-261 0 -380.5 116t-119.5 374v1035h-179v5z" />
    <glyph glyph-name="Uacute" unicode="&#xda;" horiz-adv-x="1395" 
d="M988 1817l-274 -124l-2 3l191 230q30 30 63 23.5t49 -34.5q15 -25 6.5 -56t-33.5 -42zM38 1500h570v-5h-200v-1015q0 -85 8.5 -154t31.5 -135t61 -111t101 -72t147 -27q201 0 299.5 118.5t98.5 360.5v1035h-189v5h392v-5h-198v-1035q0 -251 -104.5 -370.5t-338.5 -119.5
q-261 0 -380.5 116t-119.5 374v1035h-179v5z" />
    <glyph glyph-name="Ucircumflex" unicode="&#xdb;" horiz-adv-x="1395" 
d="M786 1849l-281 -135l-3 5l220 220h130l220 -220l-3 -5zM38 1500h570v-5h-200v-1015q0 -85 8.5 -154t31.5 -135t61 -111t101 -72t147 -27q201 0 299.5 118.5t98.5 360.5v1035h-189v5h392v-5h-198v-1035q0 -251 -104.5 -370.5t-338.5 -119.5q-261 0 -380.5 116t-119.5 374
v1035h-179v5z" />
    <glyph glyph-name="Udieresis" unicode="&#xdc;" horiz-adv-x="1395" 
d="M849 1786q0 40 28 68.5t68 28.5t68 -28.5t28 -68.5t-28 -68t-68 -28t-68 28t-28 68zM529 1786q0 40 28 68.5t68 28.5t68 -28.5t28 -68.5t-28 -68t-68 -28t-68 28t-28 68zM38 1500h570v-5h-200v-1015q0 -85 8.5 -154t31.5 -135t61 -111t101 -72t147 -27q201 0 299.5 118.5
t98.5 360.5v1035h-189v5h392v-5h-198v-1035q0 -251 -104.5 -370.5t-338.5 -119.5q-261 0 -380.5 116t-119.5 374v1035h-179v5z" />
    <glyph glyph-name="Yacute" unicode="&#xdd;" horiz-adv-x="1411" 
d="M978 1817l-274 -124l-2 3l191 230q30 30 63 23.5t49 -34.5q15 -25 6.5 -56t-33.5 -42zM450 5h180v715l-467 775h-142v5h580v-5h-218l432 -724l391 724h-235v5h420v-5h-178l-393 -729v-761h201v-5h-571v5z" />
    <glyph glyph-name="Thorn" unicode="&#xde;" horiz-adv-x="1209" 
d="M30 5h180v1490h-180v5h550v-5h-180v-295h220q264 0 392 -109.5t128 -310.5t-128 -310.5t-392 -109.5h-220v-355h180v-5h-550v5zM620 1195h-220v-830h220q69 0 127.5 39.5t95 101.5t57 134t20.5 140t-20.5 140t-57 134t-95 101.5t-127.5 39.5z" />
    <glyph glyph-name="germandbls" unicode="&#xdf;" horiz-adv-x="1361" 
d="M29 5h181v977q0 256 144 397t392 141q208 0 342.5 -106.5t134.5 -251.5q0 -154 -113 -247.5t-366 -103.5q126 -5 222 -34.5t155 -74t96 -108t51 -129.5t14 -145q0 -147 -112.5 -243.5t-267.5 -96.5q-111 0 -183.5 78.5t-72.5 212.5q0 60 35 95.5t89 35.5q47 0 77.5 -30
t30.5 -82q0 -47 -34 -78.5t-80 -31.5q-32 0 -67 19t-45 51q6 -125 76 -194.5t165 -69.5q45 0 80 23t54.5 57.5t32 81.5t16.5 88t4 84q0 44 -4 86.5t-15 92.5t-29 92.5t-49 83.5t-71 69.5t-98 46t-128 17.5v6q74 0 133.5 22t96 56.5t61 79.5t34 87.5t9.5 83.5q0 59 -14.5 120
t-44 119.5t-85.5 95.5t-130 37q-97 0 -168 -45.5t-110.5 -125.5t-58 -175t-18.5 -207v-957h179v-5h-541v5z" />
    <glyph glyph-name="agrave" unicode="&#xe0;" horiz-adv-x="1046" 
d="M304 1237q-25 11 -33.5 42t6.5 56q16 28 49 34.5t63 -23.5l191 -230l-2 -3zM530 504h125v105q0 50 -3 89t-13.5 84t-29 74t-52 49t-79.5 20q-87 0 -168 -32.5t-118 -85.5q32 35 79 35q46 0 80 -29t34 -77q0 -56 -34 -85t-80 -29q-48 0 -78.5 29t-30.5 81q0 60 51.5 107.5
t132 72t172.5 24.5q67 0 119 -12.5t85.5 -36.5t56.5 -53t34.5 -68.5t16 -75.5t4.5 -81v-517q0 -89 72 -89q36 0 78 35t65 89l4 -4q-27 -64 -84.5 -103.5t-130.5 -39.5q-83 0 -133 36.5t-50 133.5v121q-33 -291 -278 -291q-130 0 -207.5 66.5t-77.5 180.5q0 134 112.5 205.5
t325.5 71.5zM434 3q97 0 159 89t62 269v138h-125q-63 0 -110 -25t-72.5 -66t-37.5 -84.5t-12 -87.5q0 -41 7 -79.5t21.5 -74t42.5 -57.5t65 -22z" />
    <glyph glyph-name="aacute" unicode="&#xe1;" horiz-adv-x="1046" 
d="M708 1237l-274 -124l-2 3l191 230q30 30 63 23.5t49 -34.5q15 -25 6.5 -56t-33.5 -42zM530 504h125v105q0 50 -3 89t-13.5 84t-29 74t-52 49t-79.5 20q-87 0 -168 -32.5t-118 -85.5q32 35 79 35q46 0 80 -29t34 -77q0 -56 -34 -85t-80 -29q-48 0 -78.5 29t-30.5 81
q0 60 51.5 107.5t132 72t172.5 24.5q67 0 119 -12.5t85.5 -36.5t56.5 -53t34.5 -68.5t16 -75.5t4.5 -81v-517q0 -89 72 -89q36 0 78 35t65 89l4 -4q-27 -64 -84.5 -103.5t-130.5 -39.5q-83 0 -133 36.5t-50 133.5v121q-33 -291 -278 -291q-130 0 -207.5 66.5t-77.5 180.5
q0 134 112.5 205.5t325.5 71.5zM434 3q97 0 159 89t62 269v138h-125q-63 0 -110 -25t-72.5 -66t-37.5 -84.5t-12 -87.5q0 -41 7 -79.5t21.5 -74t42.5 -57.5t65 -22z" />
    <glyph glyph-name="acircumflex" unicode="&#xe2;" horiz-adv-x="1046" 
d="M506 1269l-281 -135l-3 5l220 220h130l220 -220l-3 -5zM530 504h125v105q0 50 -3 89t-13.5 84t-29 74t-52 49t-79.5 20q-87 0 -168 -32.5t-118 -85.5q32 35 79 35q46 0 80 -29t34 -77q0 -56 -34 -85t-80 -29q-48 0 -78.5 29t-30.5 81q0 60 51.5 107.5t132 72t172.5 24.5
q67 0 119 -12.5t85.5 -36.5t56.5 -53t34.5 -68.5t16 -75.5t4.5 -81v-517q0 -89 72 -89q36 0 78 35t65 89l4 -4q-27 -64 -84.5 -103.5t-130.5 -39.5q-83 0 -133 36.5t-50 133.5v121q-33 -291 -278 -291q-130 0 -207.5 66.5t-77.5 180.5q0 134 112.5 205.5t325.5 71.5zM434 3
q97 0 159 89t62 269v138h-125q-63 0 -110 -25t-72.5 -66t-37.5 -84.5t-12 -87.5q0 -41 7 -79.5t21.5 -74t42.5 -57.5t65 -22z" />
    <glyph glyph-name="atilde" unicode="&#xe3;" horiz-adv-x="1046" 
d="M309 1258q-58 0 -100 -33t-42 -105h-5q0 120 59 187t139 67q47 0 98.5 -24.5t88.5 -54.5t82 -54.5t82 -24.5q69 0 105.5 32t36.5 106h5q0 -138 -43 -196t-135 -58q-37 0 -77.5 16.5t-76 39.5l-71 46t-74 39.5t-72.5 16.5zM530 504h125v105q0 50 -3 89t-13.5 84t-29 74
t-52 49t-79.5 20q-87 0 -168 -32.5t-118 -85.5q32 35 79 35q46 0 80 -29t34 -77q0 -56 -34 -85t-80 -29q-48 0 -78.5 29t-30.5 81q0 60 51.5 107.5t132 72t172.5 24.5q67 0 119 -12.5t85.5 -36.5t56.5 -53t34.5 -68.5t16 -75.5t4.5 -81v-517q0 -89 72 -89q36 0 78 35t65 89
l4 -4q-27 -64 -84.5 -103.5t-130.5 -39.5q-83 0 -133 36.5t-50 133.5v121q-33 -291 -278 -291q-130 0 -207.5 66.5t-77.5 180.5q0 134 112.5 205.5t325.5 71.5zM434 3q97 0 159 89t62 269v138h-125q-63 0 -110 -25t-72.5 -66t-37.5 -84.5t-12 -87.5q0 -41 7 -79.5t21.5 -74
t42.5 -57.5t65 -22z" />
    <glyph glyph-name="adieresis" unicode="&#xe4;" horiz-adv-x="1046" 
d="M569 1206q0 40 28 68.5t68 28.5t68 -28.5t28 -68.5t-28 -68t-68 -28t-68 28t-28 68zM249 1206q0 40 28 68.5t68 28.5t68 -28.5t28 -68.5t-28 -68t-68 -28t-68 28t-28 68zM530 504h125v105q0 50 -3 89t-13.5 84t-29 74t-52 49t-79.5 20q-87 0 -168 -32.5t-118 -85.5
q32 35 79 35q46 0 80 -29t34 -77q0 -56 -34 -85t-80 -29q-48 0 -78.5 29t-30.5 81q0 60 51.5 107.5t132 72t172.5 24.5q67 0 119 -12.5t85.5 -36.5t56.5 -53t34.5 -68.5t16 -75.5t4.5 -81v-517q0 -89 72 -89q36 0 78 35t65 89l4 -4q-27 -64 -84.5 -103.5t-130.5 -39.5
q-83 0 -133 36.5t-50 133.5v121q-33 -291 -278 -291q-130 0 -207.5 66.5t-77.5 180.5q0 134 112.5 205.5t325.5 71.5zM434 3q97 0 159 89t62 269v138h-125q-63 0 -110 -25t-72.5 -66t-37.5 -84.5t-12 -87.5q0 -41 7 -79.5t21.5 -74t42.5 -57.5t65 -22z" />
    <glyph glyph-name="aring" unicode="&#xe5;" horiz-adv-x="1046" 
d="M326 1280q0 76 52 128t128 52t128 -52t52 -128t-52 -128t-128 -52t-128 52t-52 128zM396 1280q0 -175 110 -175t110 175t-110 175t-110 -175zM530 504h125v105q0 50 -3 89t-13.5 84t-29 74t-52 49t-79.5 20q-87 0 -168 -32.5t-118 -85.5q32 35 79 35q46 0 80 -29t34 -77
q0 -56 -34 -85t-80 -29q-48 0 -78.5 29t-30.5 81q0 60 51.5 107.5t132 72t172.5 24.5q67 0 119 -12.5t85.5 -36.5t56.5 -53t34.5 -68.5t16 -75.5t4.5 -81v-517q0 -89 72 -89q36 0 78 35t65 89l4 -4q-27 -64 -84.5 -103.5t-130.5 -39.5q-83 0 -133 36.5t-50 133.5v121
q-33 -291 -278 -291q-130 0 -207.5 66.5t-77.5 180.5q0 134 112.5 205.5t325.5 71.5zM434 3q97 0 159 89t62 269v138h-125q-63 0 -110 -25t-72.5 -66t-37.5 -84.5t-12 -87.5q0 -41 7 -79.5t21.5 -74t42.5 -57.5t65 -22z" />
    <glyph glyph-name="ae" unicode="&#xe6;" horiz-adv-x="1623" 
d="M162 732q0 60 51 107.5t131.5 72t172.5 24.5q126 0 186.5 -48t78.5 -133q104 185 342 185q108 0 190 -34.5t129.5 -94.5t71 -133t23.5 -158h-662q-1 -20 -1 -60q0 -74 7 -137.5t25.5 -127t47.5 -108t77 -72.5t111 -28q148 0 250 83.5t142 214.5h5q-41 -137 -146 -221
t-264 -84q-139 0 -236.5 66t-142.5 189q-26 -126 -109.5 -190.5t-219.5 -64.5q-63 0 -119 12.5t-105 40t-77.5 77.5t-28.5 117q0 128 114 203t323 75h124v104q0 39 -2 70.5t-8 70.5t-18.5 68t-31 54.5t-48 39t-68.5 13.5q-89 0 -171 -33.5t-117 -89.5q33 40 86 40
q43 0 75.5 -30.5t32.5 -75.5q0 -55 -37 -84.5t-81 -29.5q-47 0 -75 28.5t-28 81.5zM1326 526q1 53 -2.5 102.5t-16.5 107.5t-34 100t-59.5 70.5t-89.5 28.5q-64 0 -112 -34t-75.5 -94t-42 -129t-18.5 -152h450zM461 -9q87 0 139.5 106.5t52.5 263.5v138h-124
q-109 0 -171.5 -76.5t-62.5 -186.5q0 -119 45.5 -182t120.5 -63z" />
    <glyph glyph-name="ccedilla" unicode="&#xe7;" horiz-adv-x="1013" 
d="M570 -350q0 38 -16 63.5t-48.5 37.5t-69 16.5t-90.5 4.5l156 210q-182 16 -294.5 143.5t-112.5 334.5q0 132 52.5 239.5t160 174t253.5 66.5q149 0 239 -76.5t90 -191.5q0 -53 -30.5 -83.5t-77.5 -30.5q-44 0 -79 28.5t-35 83.5q0 50 33 79t81 29q35 0 62 -17t38 -48
q-16 102 -104 161t-197 59q-57 0 -102.5 -21.5t-75 -60t-50 -84t-30.5 -102t-14.5 -105t-4.5 -100.5q0 -421 208 -465l5 7h8l-7 -9q28 -4 45 -4q248 0 341 296h5q-92 -305 -359 -305q-13 0 -41 2l-95 -130q78 -3 142 -19t110 -53t46 -90q0 -165 -338 -165v6q87 0 141.5 33.5
t54.5 85.5z" />
    <glyph glyph-name="egrave" unicode="&#xe8;" horiz-adv-x="1054" 
d="M333 1237q-25 11 -33.5 42t6.5 56q16 28 49 34.5t63 -23.5l191 -230l-2 -3zM970 285q-41 -138 -145.5 -221.5t-263.5 -83.5q-202 0 -334 130t-132 350t129.5 350t330.5 130q107 0 189 -34.5t129.5 -94.5t71 -133t23.5 -158h-662q0 -10 -0.5 -30t-0.5 -30q0 -74 7 -137.5
t25.5 -127t47.5 -108t77.5 -72.5t111.5 -28q148 0 249.5 83.5t141.5 214.5h5zM555 935q-64 0 -112.5 -34t-76 -94t-41.5 -129t-18 -152h449q1 53 -2.5 102.5t-16.5 107.5t-34 100t-59 70.5t-89 28.5z" />
    <glyph glyph-name="eacute" unicode="&#xe9;" horiz-adv-x="1054" 
d="M737 1237l-274 -124l-2 3l191 230q30 30 63 23.5t49 -34.5q15 -25 6.5 -56t-33.5 -42zM970 285q-41 -138 -145.5 -221.5t-263.5 -83.5q-202 0 -334 130t-132 350t129.5 350t330.5 130q107 0 189 -34.5t129.5 -94.5t71 -133t23.5 -158h-662q0 -10 -0.5 -30t-0.5 -30
q0 -74 7 -137.5t25.5 -127t47.5 -108t77.5 -72.5t111.5 -28q148 0 249.5 83.5t141.5 214.5h5zM555 935q-64 0 -112.5 -34t-76 -94t-41.5 -129t-18 -152h449q1 53 -2.5 102.5t-16.5 107.5t-34 100t-59 70.5t-89 28.5z" />
    <glyph glyph-name="ecircumflex" unicode="&#xea;" horiz-adv-x="1054" 
d="M535 1269l-281 -135l-3 5l220 220h130l220 -220l-3 -5zM970 285q-41 -138 -145.5 -221.5t-263.5 -83.5q-202 0 -334 130t-132 350t129.5 350t330.5 130q107 0 189 -34.5t129.5 -94.5t71 -133t23.5 -158h-662q0 -10 -0.5 -30t-0.5 -30q0 -74 7 -137.5t25.5 -127t47.5 -108
t77.5 -72.5t111.5 -28q148 0 249.5 83.5t141.5 214.5h5zM555 935q-64 0 -112.5 -34t-76 -94t-41.5 -129t-18 -152h449q1 53 -2.5 102.5t-16.5 107.5t-34 100t-59 70.5t-89 28.5z" />
    <glyph glyph-name="edieresis" unicode="&#xeb;" horiz-adv-x="1054" 
d="M598 1206q0 40 28 68.5t68 28.5t68 -28.5t28 -68.5t-28 -68t-68 -28t-68 28t-28 68zM278 1206q0 40 28 68.5t68 28.5t68 -28.5t28 -68.5t-28 -68t-68 -28t-68 28t-28 68zM970 285q-41 -138 -145.5 -221.5t-263.5 -83.5q-202 0 -334 130t-132 350t129.5 350t330.5 130
q107 0 189 -34.5t129.5 -94.5t71 -133t23.5 -158h-662q0 -10 -0.5 -30t-0.5 -30q0 -74 7 -137.5t25.5 -127t47.5 -108t77.5 -72.5t111.5 -28q148 0 249.5 83.5t141.5 214.5h5zM555 935q-64 0 -112.5 -34t-76 -94t-41.5 -129t-18 -152h449q1 53 -2.5 102.5t-16.5 107.5
t-34 100t-59 70.5t-89 28.5z" />
    <glyph glyph-name="igrave" unicode="&#xec;" horiz-adv-x="569" 
d="M80 1237q-25 11 -33.5 42t6.5 56q16 28 49 34.5t63 -23.5l191 -230l-2 -3zM74 5h121v910h-121v5h301v-915h120v-5h-421v5z" />
    <glyph glyph-name="iacute" unicode="&#xed;" horiz-adv-x="569" 
d="M484 1237l-274 -124l-2 3l191 230q30 30 63 23.5t49 -34.5q15 -25 6.5 -56t-33.5 -42zM74 5h121v910h-121v5h301v-915h120v-5h-421v5z" />
    <glyph glyph-name="icircumflex" unicode="&#xee;" horiz-adv-x="569" 
d="M282 1269l-281 -135l-3 5l220 220h130l220 -220l-3 -5zM74 5h121v910h-121v5h301v-915h120v-5h-421v5z" />
    <glyph glyph-name="idieresis" unicode="&#xef;" horiz-adv-x="569" 
d="M345 1206q0 40 28 68.5t68 28.5t68 -28.5t28 -68.5t-28 -68t-68 -28t-68 28t-28 68zM25 1206q0 40 28 68.5t68 28.5t68 -28.5t28 -68.5t-28 -68t-68 -28t-68 28t-28 68zM74 5h121v910h-121v5h301v-915h120v-5h-421v5z" />
    <glyph glyph-name="eth" unicode="&#xf0;" horiz-adv-x="1119" 
d="M1020 620q0 -311 -129 -475.5t-359 -164.5q-221 0 -346 144.5t-125 375.5q0 122 39.5 217.5t104 151t139.5 83.5t154 28q265 0 314 -261l-1 21q0 128 -45 265t-124 250h-421v5h417q-84 118 -193.5 186.5t-234.5 68.5v5q161 0 307.5 -68.5t259.5 -191.5h284v-5h-279
q112 -125 175 -288.5t63 -346.5zM260 500q0 -75 6.5 -142t24.5 -137t46.5 -120.5t76.5 -82.5t111 -32t114 34.5t84 90.5t55.5 132t32 155t9.5 163l-5 99q-33 298 -273 298q-131 0 -206.5 -126.5t-75.5 -331.5z" />
    <glyph glyph-name="ntilde" unicode="&#xf1;" horiz-adv-x="1159" 
d="M409 1258q-58 0 -100 -33t-42 -105h-5q0 120 59 187t139 67q47 0 98.5 -24.5t88.5 -54.5t82 -54.5t82 -24.5q69 0 105.5 32t36.5 106h5q0 -138 -43 -196t-135 -58q-37 0 -77.5 16.5t-76 39.5l-71 46t-74 39.5t-72.5 16.5zM64 5h122v910h-122v5h301v-352q32 372 326 372
q85 0 143 -22t88 -64.5t42 -94t12 -121.5v-633h120v-5h-421v5h120v611q0 75 -3.5 122t-15 96t-37 72.5t-65.5 23.5q-309 0 -309 -484v-441h120v-5h-421v5z" />
    <glyph glyph-name="ograve" unicode="&#xf2;" horiz-adv-x="1105" 
d="M351 1237q-25 11 -33.5 42t6.5 56q16 28 49 34.5t63 -23.5l192 -230l-3 -3zM95 460q0 97 32.5 184.5t90.5 153t145 104t190 38.5t190 -38.5t145 -104t90.5 -153t32.5 -184.5t-32.5 -184.5t-90.5 -153t-145 -104t-190 -38.5t-190 38.5t-145 104t-90.5 153t-32.5 184.5z
M305 460q0 -53 3.5 -101t12 -105t26.5 -102.5t44.5 -84.5t68 -60.5t93.5 -21.5t93.5 21.5t68 60.5t44.5 84.5t27 102.5t12.5 105t3.5 101t-3.5 101t-12.5 105t-27 102.5t-44.5 84.5t-68 60.5t-93.5 21.5t-93.5 -21.5t-68 -60.5t-44.5 -84.5t-26.5 -102.5t-12 -105t-3.5 -101
z" />
    <glyph glyph-name="oacute" unicode="&#xf3;" horiz-adv-x="1105" 
d="M755 1237l-273 -124l-3 3l191 230q30 30 63 23.5t49 -34.5q15 -25 6.5 -56t-33.5 -42zM95 460q0 97 32.5 184.5t90.5 153t145 104t190 38.5t190 -38.5t145 -104t90.5 -153t32.5 -184.5t-32.5 -184.5t-90.5 -153t-145 -104t-190 -38.5t-190 38.5t-145 104t-90.5 153
t-32.5 184.5zM305 460q0 -53 3.5 -101t12 -105t26.5 -102.5t44.5 -84.5t68 -60.5t93.5 -21.5t93.5 21.5t68 60.5t44.5 84.5t27 102.5t12.5 105t3.5 101t-3.5 101t-12.5 105t-27 102.5t-44.5 84.5t-68 60.5t-93.5 21.5t-93.5 -21.5t-68 -60.5t-44.5 -84.5t-26.5 -102.5
t-12 -105t-3.5 -101z" />
    <glyph glyph-name="ocircumflex" unicode="&#xf4;" horiz-adv-x="1105" 
d="M553 1269l-281 -135l-3 5l220 220h130l220 -220l-2 -5zM95 460q0 97 32.5 184.5t90.5 153t145 104t190 38.5t190 -38.5t145 -104t90.5 -153t32.5 -184.5t-32.5 -184.5t-90.5 -153t-145 -104t-190 -38.5t-190 38.5t-145 104t-90.5 153t-32.5 184.5zM305 460
q0 -53 3.5 -101t12 -105t26.5 -102.5t44.5 -84.5t68 -60.5t93.5 -21.5t93.5 21.5t68 60.5t44.5 84.5t27 102.5t12.5 105t3.5 101t-3.5 101t-12.5 105t-27 102.5t-44.5 84.5t-68 60.5t-93.5 21.5t-93.5 -21.5t-68 -60.5t-44.5 -84.5t-26.5 -102.5t-12 -105t-3.5 -101z" />
    <glyph glyph-name="otilde" unicode="&#xf5;" horiz-adv-x="1105" 
d="M356 1258q-58 0 -99.5 -33t-41.5 -105h-6q0 120 59.5 187t139.5 67q47 0 98 -24.5t88 -54.5t82.5 -54.5t82.5 -24.5q68 0 104.5 32t36.5 106h5q0 -138 -43 -196t-135 -58q-45 0 -97 24.5t-92 54.5t-90 54.5t-92 24.5zM95 460q0 97 32.5 184.5t90.5 153t145 104t190 38.5
t190 -38.5t145 -104t90.5 -153t32.5 -184.5t-32.5 -184.5t-90.5 -153t-145 -104t-190 -38.5t-190 38.5t-145 104t-90.5 153t-32.5 184.5zM305 460q0 -53 3.5 -101t12 -105t26.5 -102.5t44.5 -84.5t68 -60.5t93.5 -21.5t93.5 21.5t68 60.5t44.5 84.5t27 102.5t12.5 105
t3.5 101t-3.5 101t-12.5 105t-27 102.5t-44.5 84.5t-68 60.5t-93.5 21.5t-93.5 -21.5t-68 -60.5t-44.5 -84.5t-26.5 -102.5t-12 -105t-3.5 -101z" />
    <glyph glyph-name="odieresis" unicode="&#xf6;" horiz-adv-x="1105" 
d="M616 1206q0 40 28.5 68.5t67.5 28.5q40 0 68 -28.5t28 -68.5t-28 -68t-68 -28q-39 0 -67.5 28t-28.5 68zM296 1206q0 40 28.5 68.5t67.5 28.5q40 0 68 -28.5t28 -68.5t-28 -68t-68 -28q-39 0 -67.5 28t-28.5 68zM95 460q0 97 32.5 184.5t90.5 153t145 104t190 38.5
t190 -38.5t145 -104t90.5 -153t32.5 -184.5t-32.5 -184.5t-90.5 -153t-145 -104t-190 -38.5t-190 38.5t-145 104t-90.5 153t-32.5 184.5zM305 460q0 -53 3.5 -101t12 -105t26.5 -102.5t44.5 -84.5t68 -60.5t93.5 -21.5t93.5 21.5t68 60.5t44.5 84.5t27 102.5t12.5 105
t3.5 101t-3.5 101t-12.5 105t-27 102.5t-44.5 84.5t-68 60.5t-93.5 21.5t-93.5 -21.5t-68 -60.5t-44.5 -84.5t-26.5 -102.5t-12 -105t-3.5 -101z" />
    <glyph glyph-name="divide" unicode="&#xf7;" horiz-adv-x="1119" 
d="M440 1130q0 49 35.5 84.5t85.5 35.5q49 0 84.5 -35t35.5 -85q0 -49 -35 -84t-85 -35t-85.5 35t-35.5 84zM100 793h919v-6h-919v6zM440 420q0 49 35.5 84.5t85.5 35.5q49 0 84.5 -35t35.5 -85q0 -49 -35 -84t-85 -35t-85.5 35t-35.5 84z" />
    <glyph glyph-name="oslash" unicode="&#xf8;" horiz-adv-x="1105" 
d="M95 460q0 97 32.5 184.5t90.5 153t145 104t190 38.5q143 0 253 -72l181 290h6l-183 -293q95 -64 148 -171t53 -234q0 -97 -32.5 -184.5t-90.5 -153t-145 -104t-190 -38.5q-141 0 -250 71l-186 -297h-5l187 299q-96 64 -150 172t-54 235zM305 460q0 -204 47 -321l401 643
q-61 153 -200 153q-52 0 -93.5 -21.5t-68 -60.5t-44.5 -84.5t-26.5 -102.5t-12 -105t-3.5 -101zM802 460q0 198 -46 317l-401 -643q62 -149 198 -149q52 0 93.5 21.5t68 60.5t44.5 84.5t27 102.5t12.5 105t3.5 101z" />
    <glyph glyph-name="ugrave" unicode="&#xf9;" horiz-adv-x="1159" 
d="M325 1237q-25 11 -33.5 42t6.5 56q16 28 49 34.5t63 -23.5l191 -230l-3 -3zM976 5h120v-5h-301v342q-36 -362 -326 -362q-69 0 -119.5 15t-81.5 40.5t-49.5 65.5t-25.5 82.5t-7 98.5v633h-122v5h301v-616q0 -58 2 -98t9 -84t19.5 -70.5t35.5 -44t56 -17.5q308 0 308 484
v441h-140v5h321v-915z" />
    <glyph glyph-name="uacute" unicode="&#xfa;" horiz-adv-x="1159" 
d="M729 1237l-274 -124l-3 3l192 230q30 30 63 23.5t49 -34.5q14 -25 6 -56t-33 -42zM976 5h120v-5h-301v342q-36 -362 -326 -362q-69 0 -119.5 15t-81.5 40.5t-49.5 65.5t-25.5 82.5t-7 98.5v633h-122v5h301v-616q0 -58 2 -98t9 -84t19.5 -70.5t35.5 -44t56 -17.5
q308 0 308 484v441h-140v5h321v-915z" />
    <glyph glyph-name="ucircumflex" unicode="&#xfb;" horiz-adv-x="1159" 
d="M527 1269l-282 -135l-2 5l220 220h130l220 -220l-3 -5zM976 5h120v-5h-301v342q-36 -362 -326 -362q-69 0 -119.5 15t-81.5 40.5t-49.5 65.5t-25.5 82.5t-7 98.5v633h-122v5h301v-616q0 -58 2 -98t9 -84t19.5 -70.5t35.5 -44t56 -17.5q308 0 308 484v441h-140v5h321v-915
z" />
    <glyph glyph-name="udieresis" unicode="&#xfc;" horiz-adv-x="1159" 
d="M590 1206q0 40 28 68.5t68 28.5t68 -28.5t28 -68.5t-28 -68t-68 -28t-68 28t-28 68zM270 1206q0 40 28 68.5t68 28.5t68 -28.5t28 -68.5t-28 -68t-68 -28t-68 28t-28 68zM976 5h120v-5h-301v342q-36 -362 -326 -362q-69 0 -119.5 15t-81.5 40.5t-49.5 65.5t-25.5 82.5
t-7 98.5v633h-122v5h301v-616q0 -58 2 -98t9 -84t19.5 -70.5t35.5 -44t56 -17.5q308 0 308 484v441h-140v5h321v-915z" />
    <glyph glyph-name="yacute" unicode="&#xfd;" horiz-adv-x="1104" 
d="M818 1237l-274 -124l-3 3l192 230q30 30 63 23.5t49 -34.5q14 -25 6 -56t-33 -42zM470 915h-156l352 -721l294 721h-171v5h311v-5h-133l-532 -1311q-31 -70 -59 -100.5t-81 -30.5q-43 0 -78 27.5t-35 79.5q0 49 31.5 80t79.5 31q45 0 81.5 -33.5t38.5 -83.5l158 389
l-457 952h-90v5h446v-5z" />
    <glyph glyph-name="thorn" unicode="&#xfe;" horiz-adv-x="1147" 
d="M31 -495h140v1990h-140v5h320v-936q18 179 98.5 276.5t213.5 97.5q82 0 158 -33t135.5 -93t95 -151.5t35.5 -200.5t-35.5 -201t-95 -152t-135.5 -93.5t-158 -33.5q-133 0 -213.5 98t-98.5 278v-851h140v-5h-460v5zM351 460q0 -222 79.5 -343t202.5 -121
q121 0 182.5 126.5t61.5 337.5t-61.5 336.5t-182.5 125.5q-123 0 -202.5 -120.5t-79.5 -341.5z" />
    <glyph glyph-name="ydieresis" unicode="&#xff;" horiz-adv-x="1104" 
d="M679 1206q0 40 28 68.5t68 28.5q39 0 67.5 -28.5t28.5 -68.5t-28.5 -68t-67.5 -28q-40 0 -68 28t-28 68zM359 1206q0 40 28 68.5t68 28.5q39 0 67.5 -28.5t28.5 -68.5t-28.5 -68t-67.5 -28q-40 0 -68 28t-28 68zM470 915h-156l352 -721l294 721h-171v5h311v-5h-133
l-532 -1311q-31 -70 -59 -100.5t-81 -30.5q-43 0 -78 27.5t-35 79.5q0 49 31.5 80t79.5 31q45 0 81.5 -33.5t38.5 -83.5l158 389l-457 952h-90v5h446v-5z" />
    <glyph glyph-name="Amacron" unicode="&#x100;" horiz-adv-x="1476" 
d="M574 1705h480v-5h-480v5zM38 5h193l531 1525h6l528 -1525h143v-5h-580v5h218l-155 480h-518l-167 -480h241v-5h-440v5zM674 1256l-268 -765h514z" />
    <glyph glyph-name="amacron" unicode="&#x101;" horiz-adv-x="1046" 
d="M266 1125h480v-5h-480v5zM530 504h125v105q0 50 -3 89t-13.5 84t-29 74t-52 49t-79.5 20q-87 0 -168 -32.5t-118 -85.5q32 35 79 35q46 0 80 -29t34 -77q0 -56 -34 -85t-80 -29q-48 0 -78.5 29t-30.5 81q0 60 51.5 107.5t132 72t172.5 24.5q67 0 119 -12.5t85.5 -36.5
t56.5 -53t34.5 -68.5t16 -75.5t4.5 -81v-517q0 -89 72 -89q36 0 78 35t65 89l4 -4q-27 -64 -84.5 -103.5t-130.5 -39.5q-83 0 -133 36.5t-50 133.5v121q-33 -291 -278 -291q-130 0 -207.5 66.5t-77.5 180.5q0 134 112.5 205.5t325.5 71.5zM434 3q97 0 159 89t62 269v138
h-125q-63 0 -110 -25t-72.5 -66t-37.5 -84.5t-12 -87.5q0 -41 7 -79.5t21.5 -74t42.5 -57.5t65 -22z" />
    <glyph glyph-name="Abreve" unicode="&#x102;" horiz-adv-x="1476" 
d="M599 1938q0 -70 64 -109t151 -39t151 39t64 109h5q0 -50 -9.5 -92.5t-32.5 -81.5t-68.5 -61.5t-109.5 -22.5t-109.5 22.5t-68.5 61.5t-32.5 81.5t-9.5 92.5h5zM38 5h193l531 1525h6l528 -1525h143v-5h-580v5h218l-155 480h-518l-167 -480h241v-5h-440v5zM674 1256
l-268 -765h514z" />
    <glyph glyph-name="abreve" unicode="&#x103;" horiz-adv-x="1046" 
d="M291 1358q0 -70 64 -109t151 -39t151 39t64 109h5q0 -50 -9.5 -92.5t-32.5 -81.5t-68.5 -61.5t-109.5 -22.5t-109.5 22.5t-68.5 61.5t-32.5 81.5t-9.5 92.5h5zM530 504h125v105q0 50 -3 89t-13.5 84t-29 74t-52 49t-79.5 20q-87 0 -168 -32.5t-118 -85.5q32 35 79 35
q46 0 80 -29t34 -77q0 -56 -34 -85t-80 -29q-48 0 -78.5 29t-30.5 81q0 60 51.5 107.5t132 72t172.5 24.5q67 0 119 -12.5t85.5 -36.5t56.5 -53t34.5 -68.5t16 -75.5t4.5 -81v-517q0 -89 72 -89q36 0 78 35t65 89l4 -4q-27 -64 -84.5 -103.5t-130.5 -39.5q-83 0 -133 36.5
t-50 133.5v121q-33 -291 -278 -291q-130 0 -207.5 66.5t-77.5 180.5q0 134 112.5 205.5t325.5 71.5zM434 3q97 0 159 89t62 269v138h-125q-63 0 -110 -25t-72.5 -66t-37.5 -84.5t-12 -87.5q0 -41 7 -79.5t21.5 -74t42.5 -57.5t65 -22z" />
    <glyph glyph-name="Aogonek" unicode="&#x104;" horiz-adv-x="1476" 
d="M38 5h193l531 1525h6l519 -1499q4 2 12 4.5t12 3.5l4 -5q-12 -6 -23 -17l4 -12h143v-5h-164q-56 -72 -56 -217q0 -71 32 -118t82 -47q48 0 78 27.5t65 84.5l3 -3q-14 -27 -29.5 -47.5t-42.5 -45.5t-67.5 -39t-90.5 -14q-54 0 -101.5 17t-81 57.5t-33.5 97.5
q0 153 183 247h-357v5h218l-155 480h-518l-167 -480h241v-5h-440v5zM674 1256l-268 -765h514z" />
    <glyph glyph-name="aogonek" unicode="&#x105;" horiz-adv-x="1046" 
d="M530 504h125v105q0 50 -3 89t-13.5 84t-29 74t-52 49t-79.5 20q-87 0 -168 -32.5t-118 -85.5q32 35 79 35q46 0 80 -29t34 -77q0 -56 -34 -85t-80 -29q-48 0 -78.5 29t-30.5 81q0 60 51.5 107.5t132 72t172.5 24.5q67 0 119 -12.5t85.5 -36.5t56.5 -53t34.5 -68.5
t16 -75.5t4.5 -81v-517q0 -48 20 -69q7 3 44 16l4 -5q-15 -8 -31 -24q17 -7 35 -7q36 0 78 35t65 89l4 -4q-26 -62 -80.5 -101t-123.5 -42q-43 -71 -43 -197q0 -71 32 -118t82 -47q48 0 78 27.5t65 84.5l3 -3q-14 -27 -29.5 -47.5t-42.5 -45.5t-67.5 -39t-90.5 -14
q-54 0 -101.5 17t-81 57.5t-33.5 97.5q0 141 156 232q-121 23 -121 165v121q-33 -291 -278 -291q-130 0 -207.5 66.5t-77.5 180.5q0 134 112.5 205.5t325.5 71.5zM434 3q97 0 159 89t62 269v138h-125q-63 0 -110 -25t-72.5 -66t-37.5 -84.5t-12 -87.5q0 -41 7 -79.5
t21.5 -74t42.5 -57.5t65 -22z" />
    <glyph glyph-name="Cacute" unicode="&#x106;" horiz-adv-x="1339" 
d="M1018 1817l-274 -124l-2 3l191 230q30 30 63 23.5t49 -34.5q15 -25 6.5 -56t-33.5 -42zM1255 410v-410h-5l-111 124q-67 -68 -163.5 -106t-211.5 -38q-150 0 -277 58t-215.5 159.5t-138 244t-49.5 308.5t49.5 308.5t138 244t215.5 159.5t277 58q100 0 189.5 -35.5
t155.5 -99.5l121 115h5v-410h-6q0 118 -64 215.5t-165.5 150.5t-215.5 53q-101 0 -182 -44.5t-134 -117.5t-88.5 -173t-50.5 -205t-15 -219t15 -219t50.5 -205t88.5 -173t134 -117.5t182 -44.5t189 34t148 91.5t94 133.5t34 160h6z" />
    <glyph glyph-name="cacute" unicode="&#x107;" horiz-adv-x="1013" 
d="M777 1237l-274 -124l-2 3l191 230q30 30 63 23.5t49 -34.5q15 -25 6.5 -56t-33.5 -42zM909 285q-92 -305 -359 -305q-201 0 -328 129.5t-127 350.5q0 132 52.5 239.5t160 174t253.5 66.5q149 0 239 -76.5t90 -191.5q0 -53 -30.5 -83.5t-77.5 -30.5q-44 0 -79 28.5
t-35 83.5q0 50 33 79t81 29q35 0 62 -17t38 -48q-16 102 -104 161t-197 59q-57 0 -102.5 -21.5t-75 -60t-50 -84t-30.5 -102t-14.5 -105t-4.5 -100.5q0 -471 259 -471q248 0 341 296h5z" />
    <glyph glyph-name="Ccircumflex" unicode="&#x108;" horiz-adv-x="1339" 
d="M816 1849l-281 -135l-3 5l220 220h130l220 -220l-3 -5zM1255 410v-410h-5l-111 124q-67 -68 -163.5 -106t-211.5 -38q-150 0 -277 58t-215.5 159.5t-138 244t-49.5 308.5t49.5 308.5t138 244t215.5 159.5t277 58q100 0 189.5 -35.5t155.5 -99.5l121 115h5v-410h-6
q0 118 -64 215.5t-165.5 150.5t-215.5 53q-101 0 -182 -44.5t-134 -117.5t-88.5 -173t-50.5 -205t-15 -219t15 -219t50.5 -205t88.5 -173t134 -117.5t182 -44.5t189 34t148 91.5t94 133.5t34 160h6z" />
    <glyph glyph-name="ccircumflex" unicode="&#x109;" horiz-adv-x="1013" 
d="M575 1269l-281 -135l-3 5l220 220h130l220 -220l-3 -5zM909 285q-92 -305 -359 -305q-201 0 -328 129.5t-127 350.5q0 132 52.5 239.5t160 174t253.5 66.5q149 0 239 -76.5t90 -191.5q0 -53 -30.5 -83.5t-77.5 -30.5q-44 0 -79 28.5t-35 83.5q0 50 33 79t81 29
q35 0 62 -17t38 -48q-16 102 -104 161t-197 59q-57 0 -102.5 -21.5t-75 -60t-50 -84t-30.5 -102t-14.5 -105t-4.5 -100.5q0 -471 259 -471q248 0 341 296h5z" />
    <glyph glyph-name="Cdotaccent" unicode="&#x10a;" horiz-adv-x="1339" 
d="M720 1776q0 40 28 68.5t68 28.5t68 -28.5t28 -68.5t-28 -68t-68 -28t-68 28t-28 68zM1255 410v-410h-5l-111 124q-67 -68 -163.5 -106t-211.5 -38q-150 0 -277 58t-215.5 159.5t-138 244t-49.5 308.5t49.5 308.5t138 244t215.5 159.5t277 58q100 0 189.5 -35.5
t155.5 -99.5l121 115h5v-410h-6q0 118 -64 215.5t-165.5 150.5t-215.5 53q-101 0 -182 -44.5t-134 -117.5t-88.5 -173t-50.5 -205t-15 -219t15 -219t50.5 -205t88.5 -173t134 -117.5t182 -44.5t189 34t148 91.5t94 133.5t34 160h6z" />
    <glyph glyph-name="cdotaccent" unicode="&#x10b;" horiz-adv-x="1013" 
d="M479 1196q0 40 28 68.5t68 28.5t68 -28.5t28 -68.5t-28 -68t-68 -28t-68 28t-28 68zM909 285q-92 -305 -359 -305q-201 0 -328 129.5t-127 350.5q0 132 52.5 239.5t160 174t253.5 66.5q149 0 239 -76.5t90 -191.5q0 -53 -30.5 -83.5t-77.5 -30.5q-44 0 -79 28.5t-35 83.5
q0 50 33 79t81 29q35 0 62 -17t38 -48q-16 102 -104 161t-197 59q-57 0 -102.5 -21.5t-75 -60t-50 -84t-30.5 -102t-14.5 -105t-4.5 -100.5q0 -471 259 -471q248 0 341 296h5z" />
    <glyph glyph-name="Ccaron" unicode="&#x10c;" horiz-adv-x="1339" 
d="M816 1790l281 133l5 -3l-220 -220h-130l-220 220l5 3zM1255 410v-410h-5l-111 124q-67 -68 -163.5 -106t-211.5 -38q-150 0 -277 58t-215.5 159.5t-138 244t-49.5 308.5t49.5 308.5t138 244t215.5 159.5t277 58q100 0 189.5 -35.5t155.5 -99.5l121 115h5v-410h-6
q0 118 -64 215.5t-165.5 150.5t-215.5 53q-101 0 -182 -44.5t-134 -117.5t-88.5 -173t-50.5 -205t-15 -219t15 -219t50.5 -205t88.5 -173t134 -117.5t182 -44.5t189 34t148 91.5t94 133.5t34 160h6z" />
    <glyph glyph-name="ccaron" unicode="&#x10d;" horiz-adv-x="1013" 
d="M575 1210l281 133l5 -3l-220 -220h-130l-220 220l5 3zM909 285q-92 -305 -359 -305q-201 0 -328 129.5t-127 350.5q0 132 52.5 239.5t160 174t253.5 66.5q149 0 239 -76.5t90 -191.5q0 -53 -30.5 -83.5t-77.5 -30.5q-44 0 -79 28.5t-35 83.5q0 50 33 79t81 29
q35 0 62 -17t38 -48q-16 102 -104 161t-197 59q-57 0 -102.5 -21.5t-75 -60t-50 -84t-30.5 -102t-14.5 -105t-4.5 -100.5q0 -471 259 -471q248 0 341 296h5z" />
    <glyph glyph-name="Dcaron" unicode="&#x10e;" horiz-adv-x="1401" 
d="M634 1790l281 133l5 -3l-220 -220h-130l-220 220l5 3zM597 0h-559v5h179v1490h-179v5h559q218 0 383.5 -99t251.5 -268.5t86 -382.5q0 -211 -90.5 -382t-256 -269.5t-374.5 -98.5zM597 1495h-189v-1490h189q107 0 192 43t140 114t91.5 169t51.5 201.5t15 217.5
q0 112 -17 217.5t-55.5 202t-94.5 168.5t-139 114.5t-184 42.5z" />
    <glyph glyph-name="dcaron" unicode="&#x10f;" horiz-adv-x="1486" 
d="M1164 1382q0 50 38.5 84t95.5 34q61 0 100.5 -53t39.5 -145q0 -122 -75.5 -217t-202.5 -95v5q95 0 164.5 60t94 149.5t2.5 178.5q1 -44 -37 -81.5t-94 -37.5q-62 0 -94 33t-32 85zM1132 5v-5h-302v356q-18 -180 -98 -277t-213 -97q-82 0 -158 33t-135.5 93t-95 151.5
t-35.5 200.5t35.5 201t95 152t135.5 93.5t158 33.5q133 0 213 -98t98 -278v931h-120v5h301v-1495h121zM830 460q0 222 -79 343t-202 121q-81 0 -137 -61t-81.5 -163.5t-25.5 -239.5t25.5 -239.5t81.5 -163t137 -60.5q123 0 202 120.5t79 342.5z" />
    <glyph glyph-name="Dcroat" unicode="&#x110;" horiz-adv-x="1401" 
d="M597 0h-559v5h179v742h-131v6h131v742h-179v5h559q218 0 383.5 -99t251.5 -268.5t86 -382.5q0 -211 -90.5 -382t-256 -269.5t-374.5 -98.5zM670 747h-262v-742h189q107 0 192 43t140 114t91.5 169t51.5 201.5t15 217.5q0 112 -17 217.5t-55.5 202t-94.5 168.5t-139 114.5
t-184 42.5h-189v-742h262v-6z" />
    <glyph glyph-name="dcroat" unicode="&#x111;" horiz-adv-x="1195" 
d="M1132 5v-5h-302v356q-18 -180 -98 -277t-213 -97q-82 0 -158 33t-135.5 93t-95 151.5t-35.5 200.5t35.5 201t95 152t135.5 93.5t158 33.5q133 0 213 -98t98 -278v573h-147v6h147v352h-120v5h301v-357h184v-6h-184v-1132h121zM830 460q0 222 -79 343t-202 121
q-81 0 -137 -61t-81.5 -163.5t-25.5 -239.5t25.5 -239.5t81.5 -163t137 -60.5q123 0 202 120.5t79 342.5z" />
    <glyph glyph-name="Emacron" unicode="&#x112;" horiz-adv-x="1168" 
d="M434 1705h480v-5h-480v5zM743 556q0 97 -63 157t-152 60h-120v-768h320q100 0 173.5 33.5t117 94.5t64 140t20.5 177h6v-450h-1071v5h179v1490h-179v5h1050v-410h-5q0 82 -20 153.5t-59.5 128.5t-105 90t-150.5 33h-340v-716h120q90 0 152.5 55.5t62.5 151.5h6v-430h-6z
" />
    <glyph glyph-name="emacron" unicode="&#x113;" horiz-adv-x="1054" 
d="M295 1125h480v-5h-480v5zM970 285q-41 -138 -145.5 -221.5t-263.5 -83.5q-202 0 -334 130t-132 350t129.5 350t330.5 130q107 0 189 -34.5t129.5 -94.5t71 -133t23.5 -158h-662q0 -10 -0.5 -30t-0.5 -30q0 -74 7 -137.5t25.5 -127t47.5 -108t77.5 -72.5t111.5 -28
q148 0 249.5 83.5t141.5 214.5h5zM555 935q-64 0 -112.5 -34t-76 -94t-41.5 -129t-18 -152h449q1 53 -2.5 102.5t-16.5 107.5t-34 100t-59 70.5t-89 28.5z" />
    <glyph glyph-name="Ebreve" unicode="&#x114;" horiz-adv-x="1168" 
d="M459 1938q0 -70 64 -109t151 -39t151 39t64 109h5q0 -50 -9.5 -92.5t-32.5 -81.5t-68.5 -61.5t-109.5 -22.5t-109.5 22.5t-68.5 61.5t-32.5 81.5t-9.5 92.5h5zM743 556q0 97 -63 157t-152 60h-120v-768h320q100 0 173.5 33.5t117 94.5t64 140t20.5 177h6v-450h-1071v5
h179v1490h-179v5h1050v-410h-5q0 82 -20 153.5t-59.5 128.5t-105 90t-150.5 33h-340v-716h120q90 0 152.5 55.5t62.5 151.5h6v-430h-6z" />
    <glyph glyph-name="ebreve" unicode="&#x115;" horiz-adv-x="1054" 
d="M320 1358q0 -70 64 -109t151 -39t151 39t64 109h5q0 -50 -9.5 -92.5t-32.5 -81.5t-68.5 -61.5t-109.5 -22.5t-109.5 22.5t-68.5 61.5t-32.5 81.5t-9.5 92.5h5zM970 285q-41 -138 -145.5 -221.5t-263.5 -83.5q-202 0 -334 130t-132 350t129.5 350t330.5 130
q107 0 189 -34.5t129.5 -94.5t71 -133t23.5 -158h-662q0 -10 -0.5 -30t-0.5 -30q0 -74 7 -137.5t25.5 -127t47.5 -108t77.5 -72.5t111.5 -28q148 0 249.5 83.5t141.5 214.5h5zM555 935q-64 0 -112.5 -34t-76 -94t-41.5 -129t-18 -152h449q1 53 -2.5 102.5t-16.5 107.5
t-34 100t-59 70.5t-89 28.5z" />
    <glyph glyph-name="Edotaccent" unicode="&#x116;" horiz-adv-x="1168" 
d="M578 1776q0 40 28 68.5t68 28.5t68 -28.5t28 -68.5t-28 -68t-68 -28t-68 28t-28 68zM743 556q0 97 -63 157t-152 60h-120v-768h320q100 0 173.5 33.5t117 94.5t64 140t20.5 177h6v-450h-1071v5h179v1490h-179v5h1050v-410h-5q0 82 -20 153.5t-59.5 128.5t-105 90
t-150.5 33h-340v-716h120q90 0 152.5 55.5t62.5 151.5h6v-430h-6z" />
    <glyph glyph-name="edotaccent" unicode="&#x117;" horiz-adv-x="1054" 
d="M439 1196q0 40 28 68.5t68 28.5t68 -28.5t28 -68.5t-28 -68t-68 -28t-68 28t-28 68zM970 285q-41 -138 -145.5 -221.5t-263.5 -83.5q-202 0 -334 130t-132 350t129.5 350t330.5 130q107 0 189 -34.5t129.5 -94.5t71 -133t23.5 -158h-662q0 -10 -0.5 -30t-0.5 -30
q0 -74 7 -137.5t25.5 -127t47.5 -108t77.5 -72.5t111.5 -28q148 0 249.5 83.5t141.5 214.5h5zM555 935q-64 0 -112.5 -34t-76 -94t-41.5 -129t-18 -152h449q1 53 -2.5 102.5t-16.5 107.5t-34 100t-59 70.5t-89 28.5z" />
    <glyph glyph-name="Eogonek" unicode="&#x118;" horiz-adv-x="1168" 
d="M743 556q0 97 -63 157t-152 60h-120v-768h320q100 0 173.5 33.5t117 94.5t64 140t20.5 177h6v-450h-144q-56 -72 -56 -217q0 -71 32 -118t82 -47q48 0 78 27.5t65 84.5l3 -3q-14 -27 -29.5 -47.5t-42.5 -45.5t-67.5 -39t-90.5 -14q-54 0 -101.5 17t-81 57.5t-33.5 97.5
q0 153 183 247h-868v5h179v1490h-179v5h1050v-410h-5q0 82 -20 153.5t-59.5 128.5t-105 90t-150.5 33h-340v-716h120q90 0 152.5 55.5t62.5 151.5h6v-430h-6z" />
    <glyph glyph-name="eogonek" unicode="&#x119;" horiz-adv-x="1054" 
d="M879 -243q-14 -27 -29.5 -47.5t-42.5 -45.5t-67.5 -39t-90.5 -14q-54 0 -101.5 17t-81 57.5t-33.5 97.5q0 115 105 197q-194 8 -318.5 137.5t-124.5 342.5q0 220 129.5 350t330.5 130q107 0 189 -34.5t129.5 -94.5t71 -133t23.5 -158h-662q0 -10 -0.5 -30t-0.5 -30
q0 -90 11 -165t36.5 -144.5t75.5 -112.5t120 -49q68 50 163 80l4 -5q-38 -21 -62 -70q117 22 197.5 100.5t114.5 190.5h5q-34 -117 -116 -196t-204 -101q-31 -70 -31 -175q0 -71 32 -118t82 -47q48 0 78 27.5t65 84.5zM555 935q-64 0 -112.5 -34t-76 -94t-41.5 -129
t-18 -152h449q1 53 -2.5 102.5t-16.5 107.5t-34 100t-59 70.5t-89 28.5z" />
    <glyph glyph-name="Ecaron" unicode="&#x11a;" horiz-adv-x="1168" 
d="M674 1790l281 133l5 -3l-220 -220h-130l-220 220l5 3zM743 556q0 97 -63 157t-152 60h-120v-768h320q100 0 173.5 33.5t117 94.5t64 140t20.5 177h6v-450h-1071v5h179v1490h-179v5h1050v-410h-5q0 82 -20 153.5t-59.5 128.5t-105 90t-150.5 33h-340v-716h120
q90 0 152.5 55.5t62.5 151.5h6v-430h-6z" />
    <glyph glyph-name="ecaron" unicode="&#x11b;" horiz-adv-x="1054" 
d="M535 1210l281 133l5 -3l-220 -220h-130l-220 220l5 3zM970 285q-41 -138 -145.5 -221.5t-263.5 -83.5q-202 0 -334 130t-132 350t129.5 350t330.5 130q107 0 189 -34.5t129.5 -94.5t71 -133t23.5 -158h-662q0 -10 -0.5 -30t-0.5 -30q0 -74 7 -137.5t25.5 -127t47.5 -108
t77.5 -72.5t111.5 -28q148 0 249.5 83.5t141.5 214.5h5zM555 935q-64 0 -112.5 -34t-76 -94t-41.5 -129t-18 -152h449q1 53 -2.5 102.5t-16.5 107.5t-34 100t-59 70.5t-89 28.5z" />
    <glyph glyph-name="Gcircumflex" unicode="&#x11c;" horiz-adv-x="1424" 
d="M816 1849l-281 -135l-3 5l220 220h130l220 -220l-3 -5zM864 573h540v-6h-120v-237q-21 -43 -49 -85t-77 -92t-106.5 -86.5t-141 -61.5t-176.5 -25q-153 0 -276.5 57.5t-205 160t-125 244t-43.5 308.5q0 166 49.5 308.5t138 244t215.5 159.5t277 58q99 0 188.5 -35.5
t155.5 -98.5l122 114h5v-410h-6q0 120 -63.5 217.5t-165 149.5t-216.5 52q-101 0 -182 -44.5t-134 -117.5t-88.5 -173t-50.5 -205t-15 -219q0 -117 11 -220t40 -205.5t75 -175.5t121 -118.5t173 -45.5q40 0 76 7t65 21.5t53 30t43.5 38l33.5 39.5t27 41l19.5 36.5t14 31.5
t8.5 20v317h-210v6z" />
    <glyph glyph-name="gcircumflex" unicode="&#x11d;" horiz-adv-x="1164" 
d="M540 1269l-281 -135l-3 5l220 220h130l220 -220l-3 -5zM126 143q0 88 79.5 136.5t208.5 57.5q-58 7 -110 27t-96 55t-70 91t-26 127q0 79 32.5 139.5t86.5 95t114.5 51t124.5 16.5q84 0 160.5 -28.5t125.5 -86.5q40 55 94 80.5t103 25.5q70 0 113.5 -45.5t43.5 -105.5
q0 -58 -31 -84t-75 -26q-40 0 -70.5 27t-30.5 74t30 70t71 23q30 0 58 -14t39 -38q-11 48 -49.5 81t-97.5 33q-51 0 -103.5 -25.5t-91.5 -79.5q59 -73 59 -183q0 -64 -21 -116t-55 -86.5t-79.5 -57.5t-93.5 -33t-99 -10h-10q-75 -3 -136.5 -34t-61.5 -88q0 -20 10.5 -34
t25.5 -21.5t43 -11.5t52 -5t63 -1q37 0 80.5 1t70.5 1q51 0 90.5 -5.5t82.5 -24t71 -50.5t46.5 -89.5t18.5 -135.5q0 -115 -59.5 -197t-153 -120.5t-208.5 -38.5q-120 0 -215 27t-156.5 89.5t-61.5 153.5q0 62 29.5 109.5t75 73t89.5 38.5t84 15q-214 21 -214 157zM302 637
q0 -44 1.5 -74t6.5 -68t16.5 -63t29.5 -48t47 -34t67 -11q56 0 95.5 44.5t56.5 110t17 143.5t-17 143t-56.5 109.5t-95.5 44.5t-95.5 -44.5t-56 -109.5t-16.5 -143zM257 -229q0 -50 15.5 -98.5t45.5 -91t81.5 -68.5t116.5 -26q160 0 270 85.5t110 214.5q0 91 -75.5 143
t-179.5 52h-218q-37 0 -70 3q-61 -39 -78.5 -86t-17.5 -128z" />
    <glyph glyph-name="Gbreve" unicode="&#x11e;" horiz-adv-x="1424" 
d="M601 1938q0 -70 64 -109t151 -39t151 39t64 109h5q0 -50 -9.5 -92.5t-32.5 -81.5t-68.5 -61.5t-109.5 -22.5t-109.5 22.5t-68.5 61.5t-32.5 81.5t-9.5 92.5h5zM864 573h540v-6h-120v-237q-21 -43 -49 -85t-77 -92t-106.5 -86.5t-141 -61.5t-176.5 -25q-153 0 -276.5 57.5
t-205 160t-125 244t-43.5 308.5q0 166 49.5 308.5t138 244t215.5 159.5t277 58q99 0 188.5 -35.5t155.5 -98.5l122 114h5v-410h-6q0 120 -63.5 217.5t-165 149.5t-216.5 52q-101 0 -182 -44.5t-134 -117.5t-88.5 -173t-50.5 -205t-15 -219q0 -117 11 -220t40 -205.5
t75 -175.5t121 -118.5t173 -45.5q40 0 76 7t65 21.5t53 30t43.5 38l33.5 39.5t27 41l19.5 36.5t14 31.5t8.5 20v317h-210v6z" />
    <glyph glyph-name="gbreve" unicode="&#x11f;" horiz-adv-x="1164" 
d="M325 1358q0 -70 64 -109t151 -39t151 39t64 109h5q0 -50 -9.5 -92.5t-32.5 -81.5t-68.5 -61.5t-109.5 -22.5t-109.5 22.5t-68.5 61.5t-32.5 81.5t-9.5 92.5h5zM126 143q0 88 79.5 136.5t208.5 57.5q-58 7 -110 27t-96 55t-70 91t-26 127q0 79 32.5 139.5t86.5 95
t114.5 51t124.5 16.5q84 0 160.5 -28.5t125.5 -86.5q40 55 94 80.5t103 25.5q70 0 113.5 -45.5t43.5 -105.5q0 -58 -31 -84t-75 -26q-40 0 -70.5 27t-30.5 74t30 70t71 23q30 0 58 -14t39 -38q-11 48 -49.5 81t-97.5 33q-51 0 -103.5 -25.5t-91.5 -79.5q59 -73 59 -183
q0 -64 -21 -116t-55 -86.5t-79.5 -57.5t-93.5 -33t-99 -10h-10q-75 -3 -136.5 -34t-61.5 -88q0 -20 10.5 -34t25.5 -21.5t43 -11.5t52 -5t63 -1q37 0 80.5 1t70.5 1q51 0 90.5 -5.5t82.5 -24t71 -50.5t46.5 -89.5t18.5 -135.5q0 -115 -59.5 -197t-153 -120.5t-208.5 -38.5
q-120 0 -215 27t-156.5 89.5t-61.5 153.5q0 62 29.5 109.5t75 73t89.5 38.5t84 15q-214 21 -214 157zM302 637q0 -44 1.5 -74t6.5 -68t16.5 -63t29.5 -48t47 -34t67 -11q56 0 95.5 44.5t56.5 110t17 143.5t-17 143t-56.5 109.5t-95.5 44.5t-95.5 -44.5t-56 -109.5
t-16.5 -143zM257 -229q0 -50 15.5 -98.5t45.5 -91t81.5 -68.5t116.5 -26q160 0 270 85.5t110 214.5q0 91 -75.5 143t-179.5 52h-218q-37 0 -70 3q-61 -39 -78.5 -86t-17.5 -128z" />
    <glyph glyph-name="Gdotaccent" unicode="&#x120;" horiz-adv-x="1424" 
d="M720 1776q0 40 28 68.5t68 28.5t68 -28.5t28 -68.5t-28 -68t-68 -28t-68 28t-28 68zM864 573h540v-6h-120v-237q-21 -43 -49 -85t-77 -92t-106.5 -86.5t-141 -61.5t-176.5 -25q-153 0 -276.5 57.5t-205 160t-125 244t-43.5 308.5q0 166 49.5 308.5t138 244t215.5 159.5
t277 58q99 0 188.5 -35.5t155.5 -98.5l122 114h5v-410h-6q0 120 -63.5 217.5t-165 149.5t-216.5 52q-101 0 -182 -44.5t-134 -117.5t-88.5 -173t-50.5 -205t-15 -219q0 -117 11 -220t40 -205.5t75 -175.5t121 -118.5t173 -45.5q40 0 76 7t65 21.5t53 30t43.5 38l33.5 39.5
t27 41l19.5 36.5t14 31.5t8.5 20v317h-210v6z" />
    <glyph glyph-name="gdotaccent" unicode="&#x121;" horiz-adv-x="1164" 
d="M444 1196q0 40 28 68.5t68 28.5t68 -28.5t28 -68.5t-28 -68t-68 -28t-68 28t-28 68zM126 143q0 88 79.5 136.5t208.5 57.5q-58 7 -110 27t-96 55t-70 91t-26 127q0 79 32.5 139.5t86.5 95t114.5 51t124.5 16.5q84 0 160.5 -28.5t125.5 -86.5q40 55 94 80.5t103 25.5
q70 0 113.5 -45.5t43.5 -105.5q0 -58 -31 -84t-75 -26q-40 0 -70.5 27t-30.5 74t30 70t71 23q30 0 58 -14t39 -38q-11 48 -49.5 81t-97.5 33q-51 0 -103.5 -25.5t-91.5 -79.5q59 -73 59 -183q0 -64 -21 -116t-55 -86.5t-79.5 -57.5t-93.5 -33t-99 -10h-10q-75 -3 -136.5 -34
t-61.5 -88q0 -20 10.5 -34t25.5 -21.5t43 -11.5t52 -5t63 -1q37 0 80.5 1t70.5 1q51 0 90.5 -5.5t82.5 -24t71 -50.5t46.5 -89.5t18.5 -135.5q0 -115 -59.5 -197t-153 -120.5t-208.5 -38.5q-120 0 -215 27t-156.5 89.5t-61.5 153.5q0 62 29.5 109.5t75 73t89.5 38.5t84 15
q-214 21 -214 157zM302 637q0 -44 1.5 -74t6.5 -68t16.5 -63t29.5 -48t47 -34t67 -11q56 0 95.5 44.5t56.5 110t17 143.5t-17 143t-56.5 109.5t-95.5 44.5t-95.5 -44.5t-56 -109.5t-16.5 -143zM257 -229q0 -50 15.5 -98.5t45.5 -91t81.5 -68.5t116.5 -26q160 0 270 85.5
t110 214.5q0 91 -75.5 143t-179.5 52h-218q-37 0 -70 3q-61 -39 -78.5 -86t-17.5 -128z" />
    <glyph glyph-name="uni0122" unicode="&#x122;" horiz-adv-x="1424" 
d="M864 573h540v-6h-120v-237q-21 -43 -49 -85t-77 -92t-106.5 -86.5t-141 -61.5t-176.5 -25q-153 0 -276.5 57.5t-205 160t-125 244t-43.5 308.5q0 166 49.5 308.5t138 244t215.5 159.5t277 58q99 0 188.5 -35.5t155.5 -98.5l122 114h5v-410h-6q0 120 -63.5 217.5
t-165 149.5t-216.5 52q-101 0 -182 -44.5t-134 -117.5t-88.5 -173t-50.5 -205t-15 -219q0 -117 11 -220t40 -205.5t75 -175.5t121 -118.5t173 -45.5q40 0 76 7t65 21.5t53 30t43.5 38l33.5 39.5t27 41l19.5 36.5t14 31.5t8.5 20v317h-210v6zM683 -295q0 40 30.5 67.5
t76.5 27.5q49 0 80.5 -42.5t31.5 -115.5q0 -98 -60 -174t-162 -76v4q76 0 131.5 48t75.5 119.5t2 142.5q1 -35 -29.5 -65t-75.5 -30q-49 0 -75 26.5t-26 67.5z" />
    <glyph glyph-name="uni0123" unicode="&#x123;" horiz-adv-x="1164" 
d="M651 1195q0 -40 -30.5 -67.5t-76.5 -27.5q-49 0 -80.5 42.5t-31.5 115.5q0 98 60 174t162 76v-4q-76 0 -131.5 -48t-75.5 -119.5t-2 -142.5q-1 35 29.5 65t75.5 30q49 0 75 -26.5t26 -67.5zM126 143q0 88 79.5 136.5t208.5 57.5q-58 7 -110 27t-96 55t-70 91t-26 127
q0 79 32.5 139.5t86.5 95t114.5 51t124.5 16.5q84 0 160.5 -28.5t125.5 -86.5q40 55 94 80.5t103 25.5q70 0 113.5 -45.5t43.5 -105.5q0 -58 -31 -84t-75 -26q-40 0 -70.5 27t-30.5 74t30 70t71 23q30 0 58 -14t39 -38q-11 48 -49.5 81t-97.5 33q-51 0 -103.5 -25.5
t-91.5 -79.5q59 -73 59 -183q0 -64 -21 -116t-55 -86.5t-79.5 -57.5t-93.5 -33t-99 -10h-10q-75 -3 -136.5 -34t-61.5 -88q0 -20 10.5 -34t25.5 -21.5t43 -11.5t52 -5t63 -1q37 0 80.5 1t70.5 1q51 0 90.5 -5.5t82.5 -24t71 -50.5t46.5 -89.5t18.5 -135.5q0 -115 -59.5 -197
t-153 -120.5t-208.5 -38.5q-120 0 -215 27t-156.5 89.5t-61.5 153.5q0 62 29.5 109.5t75 73t89.5 38.5t84 15q-214 21 -214 157zM302 637q0 -44 1.5 -74t6.5 -68t16.5 -63t29.5 -48t47 -34t67 -11q56 0 95.5 44.5t56.5 110t17 143.5t-17 143t-56.5 109.5t-95.5 44.5
t-95.5 -44.5t-56 -109.5t-16.5 -143zM257 -229q0 -50 15.5 -98.5t45.5 -91t81.5 -68.5t116.5 -26q160 0 270 85.5t110 214.5q0 91 -75.5 143t-179.5 52h-218q-37 0 -70 3q-61 -39 -78.5 -86t-17.5 -128z" />
    <glyph glyph-name="Hcircumflex" unicode="&#x124;" horiz-adv-x="1475" 
d="M786 1849l-281 -135l-3 5l220 220h130l220 -220l-3 -5zM38 5h179v1490h-179v5h570v-5h-200v-752h660v752h-200v5h570v-5h-181v-1490h181v-5h-570v5h200v732h-660v-732h200v-5h-570v5z" />
    <glyph glyph-name="hcircumflex" unicode="&#x125;" horiz-adv-x="1159" 
d="M64 5h122v1490h-122v5h301v-932q32 372 326 372q85 0 143 -22t88 -64.5t42 -94t12 -121.5v-633h120v-5h-421v5h120v611q0 75 -3.5 122t-15 96t-37 72.5t-65.5 23.5q-309 0 -309 -484v-441h120v-5h-421v5zM725 1269l-281 -135l-3 5l220 220h130l220 -220l-2 -5z" />
    <glyph glyph-name="Hbar" unicode="&#x126;" horiz-adv-x="1475" 
d="M38 5h179v1110h-180v6h180v374h-179v5h570v-5h-200v-374h660v374h-200v5h570v-5h-181v-374h180v-6h-180v-1110h181v-5h-570v5h200v732h-660v-732h200v-5h-570v5zM408 743h660v372h-660v-372z" />
    <glyph glyph-name="hbar" unicode="&#x127;" horiz-adv-x="1159" 
d="M64 5h122v1182h-130v6h130v302h-122v5h301v-307h275v-6h-275v-619q32 372 326 372q85 0 143 -22t88 -64.5t42 -94t12 -121.5v-633h120v-5h-421v5h120v611q0 75 -3.5 122t-15 96t-37 72.5t-65.5 23.5q-309 0 -309 -484v-441h120v-5h-421v5z" />
    <glyph glyph-name="Itilde" unicode="&#x128;" horiz-adv-x="725" 
d="M157 1838q-58 0 -100 -33t-42 -105h-5q0 120 59 187t139 67q47 0 98.5 -24.5t88.5 -54.5t82 -54.5t82 -24.5q69 0 105.5 32t36.5 106h5q0 -138 -43 -196t-135 -58q-37 0 -77.5 16.5t-76 39.5l-71 46t-74 39.5t-72.5 16.5zM38 5h219v1490h-219v5h650v-5h-240v-1490h240v-5
h-650v5z" />
    <glyph glyph-name="itilde" unicode="&#x129;" horiz-adv-x="569" 
d="M55 1258q-58 0 -99.5 -33t-41.5 -105h-5q0 120 59 187t139 67q39 0 79 -16.5t74 -39.5l66 -46t66.5 -39.5t65.5 -16.5q68 0 104.5 32t36.5 106h6q0 -138 -43.5 -196t-135.5 -58q-45 0 -97 24.5t-92 54.5t-90 54.5t-92 24.5zM74 5h121v910h-121v5h301v-915h120v-5h-421v5z
" />
    <glyph glyph-name="Imacron" unicode="&#x12a;" horiz-adv-x="725" 
d="M114 1705h480v-5h-480v5zM38 5h219v1490h-219v5h650v-5h-240v-1490h240v-5h-650v5z" />
    <glyph glyph-name="imacron" unicode="&#x12b;" horiz-adv-x="569" 
d="M13 1125h480v-5h-480v5zM74 5h121v910h-121v5h301v-915h120v-5h-421v5z" />
    <glyph glyph-name="Ibreve" unicode="&#x12c;" horiz-adv-x="725" 
d="M139 1938q0 -70 64 -109t151 -39t151 39t64 109h5q0 -50 -9.5 -92.5t-32.5 -81.5t-68.5 -61.5t-109.5 -22.5t-109.5 22.5t-68.5 61.5t-32.5 81.5t-9.5 92.5h5zM38 5h219v1490h-219v5h650v-5h-240v-1490h240v-5h-650v5z" />
    <glyph glyph-name="ibreve" unicode="&#x12d;" horiz-adv-x="569" 
d="M37 1358q0 -70 64 -109t152 -39q87 0 151 39t64 109h5q0 -50 -9.5 -92.5t-32.5 -81.5t-68.5 -61.5t-109.5 -22.5t-109.5 22.5t-68.5 61.5t-32.5 81.5t-9.5 92.5h4zM74 5h121v910h-121v5h301v-915h120v-5h-421v5z" />
    <glyph glyph-name="Iogonek" unicode="&#x12e;" horiz-adv-x="725" 
d="M38 5h219v1490h-219v5h650v-5h-240v-1490h240v-5h-328q-57 -71 -57 -217q0 -71 32 -118t82 -47q48 0 78 27.5t65 84.5l3 -3q-14 -27 -29.5 -47.5t-42.5 -45.5t-67.5 -39t-90.5 -14q-54 0 -101.5 17t-81 57.5t-33.5 97.5q0 153 183 247h-262v5z" />
    <glyph glyph-name="iogonek" unicode="&#x12f;" horiz-adv-x="569" 
d="M146 1400q0 50 35 85t85 35t85 -35t35 -85t-35 -85t-85 -35t-85 35t-35 85zM74 5h121v910h-121v5h301v-915h120v-5h-198q-56 -72 -56 -217q0 -71 31.5 -118t81.5 -47q49 0 79 27.5t65 84.5l3 -3q-14 -27 -29.5 -47.5t-42.5 -45.5t-67.5 -39t-90.5 -14q-54 0 -101.5 17
t-81 57.5t-33.5 97.5q0 153 183 247h-164v5z" />
    <glyph glyph-name="Idotaccent" unicode="&#x130;" horiz-adv-x="725" 
d="M258 1776q0 40 28 68.5t68 28.5t68 -28.5t28 -68.5t-28 -68t-68 -28t-68 28t-28 68zM38 5h219v1490h-219v5h650v-5h-240v-1490h240v-5h-650v5z" />
    <glyph glyph-name="dotlessi" unicode="&#x131;" horiz-adv-x="569" 
d="M74 5h121v910h-121v5h301v-915h120v-5h-421v5z" />
    <glyph glyph-name="IJ" unicode="&#x132;" horiz-adv-x="1713" 
d="M38 5h219v1490h-219v5h650v-5h-240v-1490h240v-5h-650v5zM920 1500h649v-5h-200v-1155l-20 -67t-27 -73.5t-36 -77t-46 -69.5t-59 -60t-73 -38.5t-89 -15.5q-109 0 -175.5 67t-66.5 149q0 61 33 95.5t81 34.5q43 0 78 -30t35 -87q0 -54 -32.5 -82t-80.5 -28q-31 0 -61 17
t-43 45q15 -70 74.5 -121.5t148.5 -51.5q42 0 72.5 19t49 52.5t29.5 89.5t15 119.5t4 152.5v1115h-260v5z" />
    <glyph glyph-name="ij" unicode="&#x133;" horiz-adv-x="1097" 
d="M146 1400q0 50 35 85t85 35t85 -35t35 -85t-35 -85t-85 -35t-85 35t-35 85zM640 1400q0 50 35 85t85 35q49 0 84 -35t35 -85t-35 -85.5t-84 -35.5t-84.5 35.5t-35.5 85.5zM74 5h121v910h-121v5h301v-915h120v-5h-421v5zM865 920v-943q0 -60 -3.5 -110.5t-13 -102.5
t-24.5 -93t-39.5 -77.5t-56.5 -61t-76.5 -38.5t-99.5 -14q-116 0 -181 64t-65 154q0 59 33 91.5t81 32.5q44 0 77.5 -26.5t33.5 -81.5q0 -40 -34.5 -74.5t-82.5 -34.5q-35 0 -62.5 15.5t-37.5 43.5q12 -77 72.5 -127t154.5 -50q29 0 52 10t38.5 31t27 45t17 61.5t9 70t4 80
t0 83t-1.5 87.5t-1 85v875h-162v5h341z" />
    <glyph glyph-name="Jcircumflex" unicode="&#x134;" horiz-adv-x="846" 
d="M487 1849l-281 -135l-3 5l220 220h130l220 -220l-3 -5zM160 1500h649v-5h-200v-1155l-20 -67t-27 -73.5t-36 -77t-46 -69.5t-59 -60t-73 -38.5t-89 -15.5q-109 0 -175.5 67t-66.5 149q0 61 33 95.5t81 34.5q43 0 78 -30t35 -87q0 -54 -32.5 -82t-80.5 -28q-31 0 -61 17
t-43 45q15 -70 74.5 -121.5t148.5 -51.5q42 0 72.5 19t49 52.5t29.5 89.5t15 119.5t4 152.5v1115h-260v5z" />
    <glyph glyph-name="jcircumflex" unicode="&#x135;" horiz-adv-x="583" 
d="M234 1195l-282 -135l-2 5l220 220h130l220 -220l-3 -5zM405 920v-943q0 -60 -3.5 -110.5t-13 -102.5t-24.5 -93t-39.5 -77.5t-56.5 -61t-76.5 -38.5t-99.5 -14q-116 0 -181 64t-65 154q0 59 33 91.5t81 32.5q44 0 77.5 -26.5t33.5 -81.5q0 -40 -34.5 -74.5t-82.5 -34.5
q-35 0 -62.5 15.5t-37.5 43.5q12 -77 72.5 -127t154.5 -50q29 0 52 10t38.5 31t27 45t17 61.5t9 70t4 80t0 83t-1.5 87.5t-1 85v875h-162v5h341z" />
    <glyph glyph-name="uni0136" unicode="&#x136;" horiz-adv-x="1357" 
d="M38 5h179v1490h-179v5h570v-5h-200v-824l611 824h-241v5h479v-5h-230l-403 -543l565 -947h158v-5h-619v5h221l-445 784l-96 -128v-656h200v-5h-570v5zM557 -295q0 40 31 67.5t76 27.5q49 0 80.5 -42.5t31.5 -115.5q0 -98 -60 -174t-162 -76v4q76 0 131.5 48t75.5 119.5
t2 142.5q1 -35 -29.5 -65t-75.5 -30q-49 0 -75 26.5t-26 67.5z" />
    <glyph glyph-name="uni0137" unicode="&#x137;" horiz-adv-x="1181" 
d="M64 5h162v1490h-162v5h341v-966l482 381h-225v5h407v-5h-175l-365 -290l528 -620h81v-5h-455v5h147l-425 500v-500h140v-5h-481v5zM503 -295q0 40 30.5 67.5t76.5 27.5q48 0 80 -42.5t32 -115.5q0 -98 -60.5 -174t-162.5 -76v4q77 0 132 48t75 119.5t2 142.5
q2 -34 -29 -64.5t-76 -30.5q-49 0 -74.5 26.5t-25.5 67.5z" />
    <glyph glyph-name="kgreenlandic" unicode="&#x138;" horiz-adv-x="1172" 
d="M51 5h180v910h-180v5h360v-385l481 380h-263v5h446v-5h-175l-365 -290l527 -620h81v-5h-474v5h167l-425 499v-499h140v-5h-500v5z" />
    <glyph glyph-name="Lacute" unicode="&#x139;" horiz-adv-x="1139" 
d="M566 1817l-274 -124l-2 3l191 230q30 30 63 23.5t49 -34.5q15 -25 6.5 -56t-33.5 -42zM1098 0h-1060v5h179v1490h-179v5h549v-5h-179v-1490h309q92 0 159.5 22.5t108.5 60.5t65.5 96.5t33 121t8.5 144.5h6v-450z" />
    <glyph glyph-name="lacute" unicode="&#x13a;" horiz-adv-x="628" 
d="M550 1817l-274 -124l-2 3l191 230q30 30 63 23.5t49 -34.5q15 -25 6.5 -56t-33.5 -42zM64 5h162v1490h-162v5h341v-1495h160v-5h-501v5z" />
    <glyph glyph-name="uni013B" unicode="&#x13b;" horiz-adv-x="1139" 
d="M1098 0h-1060v5h179v1490h-179v5h549v-5h-179v-1490h309q92 0 159.5 22.5t108.5 60.5t65.5 96.5t33 121t8.5 144.5h6v-450zM512 -295q0 40 30.5 67.5t76.5 27.5q49 0 80.5 -42.5t31.5 -115.5q0 -98 -60 -174t-162 -76v4q76 0 131.5 48t75.5 119.5t2 142.5
q1 -35 -29.5 -65t-75.5 -30q-49 0 -75 26.5t-26 67.5z" />
    <glyph glyph-name="uni013C" unicode="&#x13c;" horiz-adv-x="628" 
d="M64 5h162v1490h-162v5h341v-1495h160v-5h-501v5zM250 -295q0 40 30.5 67.5t76.5 27.5q49 0 80.5 -42.5t31.5 -115.5q0 -98 -60 -174t-162 -76v4q76 0 131.5 48t75.5 119.5t2 142.5q1 -35 -29.5 -65t-75.5 -30q-49 0 -75 26.5t-26 67.5z" />
    <glyph glyph-name="Lcaron" unicode="&#x13d;" horiz-adv-x="1139" 
d="M854 1403q0 50 38.5 84t95.5 34q61 0 100.5 -53t39.5 -145q0 -122 -75.5 -217t-202.5 -95v5q95 0 164.5 60t94 149.5t2.5 178.5q1 -44 -37 -81.5t-94 -37.5q-62 0 -94 33t-32 85zM1098 0h-1060v5h179v1490h-179v5h549v-5h-179v-1490h309q92 0 159.5 22.5t108.5 60.5
t65.5 96.5t33 121t8.5 144.5h6v-450z" />
    <glyph glyph-name="lcaron" unicode="&#x13e;" horiz-adv-x="919" 
d="M574 1382q0 50 38.5 84t95.5 34q61 0 100.5 -53t39.5 -145q0 -122 -75.5 -217t-202.5 -95v5q95 0 164.5 60t94 149.5t2.5 178.5q1 -44 -37 -81.5t-94 -37.5q-62 0 -94 33t-32 85zM64 5h162v1490h-162v5h341v-1495h160v-5h-501v5z" />
    <glyph glyph-name="Ldot" unicode="&#x13f;" horiz-adv-x="1139" 
d="M1098 0h-1060v5h179v1490h-179v5h549v-5h-179v-1490h309q92 0 159.5 22.5t108.5 60.5t65.5 96.5t33 121t8.5 144.5h6v-450zM740 980q0 50 35.5 85.5t84.5 35.5t84.5 -35.5t35.5 -85.5t-35 -85t-85 -35t-85 35t-35 85z" />
    <glyph glyph-name="ldot" unicode="&#x140;" horiz-adv-x="855" 
d="M64 5h162v1490h-162v5h341v-1495h160v-5h-501v5zM540 800q0 50 35.5 85.5t84.5 35.5t84.5 -35.5t35.5 -85.5t-35 -85t-85 -35t-85 35t-35 85z" />
    <glyph glyph-name="Lslash" unicode="&#x141;" horiz-adv-x="1139" 
d="M29 720l188 120v655h-179v5h549v-5h-179v-533l310 198v-8l-310 -197v-950h309q92 0 159.5 22.5t108.5 60.5t65.5 96.5t33 121t8.5 144.5h6v-450h-1060v5h179v828l-188 -121v8z" />
    <glyph glyph-name="lslash" unicode="&#x142;" horiz-adv-x="628" 
d="M64 5h162v904l-181 -115v6l181 114v581h-162v5h341v-473l210 133v-6l-210 -132v-1017h160v-5h-501v5z" />
    <glyph glyph-name="Nacute" unicode="&#x143;" horiz-adv-x="1465" 
d="M1058 1817l-274 -124l-2 3l191 230q30 30 63 23.5t49 -34.5q15 -25 6.5 -56t-33.5 -42zM38 5h198v1490h-198v5h430l745 -1196v1191h-240v5h455v-5h-210v-1515h-6l-970 1515v-1490h241v-5h-445v5z" />
    <glyph glyph-name="nacute" unicode="&#x144;" horiz-adv-x="1159" 
d="M808 1237l-274 -124l-2 3l191 230q30 30 63 23.5t49 -34.5q15 -25 6.5 -56t-33.5 -42zM64 5h122v910h-122v5h301v-352q32 372 326 372q85 0 143 -22t88 -64.5t42 -94t12 -121.5v-633h120v-5h-421v5h120v611q0 75 -3.5 122t-15 96t-37 72.5t-65.5 23.5q-309 0 -309 -484
v-441h120v-5h-421v5z" />
    <glyph glyph-name="uni0145" unicode="&#x145;" horiz-adv-x="1465" 
d="M38 5h198v1490h-198v5h430l745 -1196v1191h-240v5h455v-5h-210v-1515h-6l-970 1515v-1490h241v-5h-445v5zM672 -295q0 40 30.5 67.5t76.5 27.5q49 0 80.5 -42.5t31.5 -115.5q0 -98 -60 -174t-162 -76v4q76 0 131.5 48t75.5 119.5t2 142.5q1 -35 -29.5 -65t-75.5 -30
q-49 0 -75 26.5t-26 67.5z" />
    <glyph glyph-name="uni0146" unicode="&#x146;" horiz-adv-x="1159" 
d="M64 5h122v910h-122v5h301v-352q32 372 326 372q85 0 143 -22t88 -64.5t42 -94t12 -121.5v-633h120v-5h-421v5h120v611q0 75 -3.5 122t-15 96t-37 72.5t-65.5 23.5q-309 0 -309 -484v-441h120v-5h-421v5zM492 -295q0 40 30.5 67.5t76.5 27.5q49 0 80.5 -42.5t31.5 -115.5
q0 -98 -60 -174t-162 -76v4q76 0 131.5 48t75.5 119.5t2 142.5q1 -35 -29.5 -65t-75.5 -30q-49 0 -75 26.5t-26 67.5z" />
    <glyph glyph-name="Ncaron" unicode="&#x147;" horiz-adv-x="1465" 
d="M856 1790l281 133l5 -3l-220 -220h-130l-220 220l5 3zM38 5h198v1490h-198v5h430l745 -1196v1191h-240v5h455v-5h-210v-1515h-6l-970 1515v-1490h241v-5h-445v5z" />
    <glyph glyph-name="ncaron" unicode="&#x148;" horiz-adv-x="1159" 
d="M606 1210l281 133l5 -3l-220 -220h-130l-220 220l5 3zM64 5h122v910h-122v5h301v-352q32 372 326 372q85 0 143 -22t88 -64.5t42 -94t12 -121.5v-633h120v-5h-421v5h120v611q0 75 -3.5 122t-15 96t-37 72.5t-65.5 23.5q-309 0 -309 -484v-441h120v-5h-421v5z" />
    <glyph glyph-name="napostrophe" unicode="&#x149;" horiz-adv-x="1404" 
d="M19 1338q0 50 38.5 84t95.5 34q61 0 100.5 -53t39.5 -145q0 -122 -75.5 -217t-202.5 -95v5q95 0 164.5 60t94 149.5t2.5 178.5q1 -44 -37 -81.5t-94 -37.5q-62 0 -94 33t-32 85zM244 5h122v910h-122v5h301v-352q32 372 326 372q85 0 143 -22t88 -64.5t42 -94t12 -121.5
v-633h120v-5h-421v5h120v611q0 75 -3.5 122t-15 96t-37 72.5t-65.5 23.5q-309 0 -309 -484v-441h120v-5h-421v5z" />
    <glyph glyph-name="Eng" unicode="&#x14a;" horiz-adv-x="1553" 
d="M82 5h140v1490h-140v5h311v-404q8 56 26.5 111t54.5 112.5t84.5 101t122 71t161.5 27.5q123 0 220.5 -40.5t157 -109.5t91 -156t31.5 -184l-1 -1052q0 -497 -363 -497q-136 0 -216 68.5t-80 159.5q0 59 33 91.5t81 32.5q44 0 77.5 -26.5t33.5 -81.5q0 -41 -30 -75
t-77 -34q-36 0 -66.5 16t-42.5 44q14 -76 87 -130.5t189 -54.5q37 0 67 18t50.5 46t35 73t22.5 89.5t12.5 104t6 108t1.5 111.5v952q0 95 -22.5 184t-64.5 162.5t-111 117.5t-155 44q-88 0 -160.5 -33t-119 -84t-78 -115t-45 -124t-13.5 -113v-1026h138v-5h-449v5z" />
    <glyph glyph-name="eng" unicode="&#x14b;" horiz-adv-x="1223" 
d="M82 5h140v910h-140v5h311v-402q9 69 34 139t66.5 135t106 106t142.5 41q83 0 138 -21.5t83 -64.5t38.5 -93t10.5 -121l-1 -662q0 -84 -7.5 -152t-28 -134.5t-54.5 -111t-90.5 -72t-132.5 -27.5q-116 0 -181 64t-65 154q0 59 33 91.5t81 32.5q44 0 77.5 -26.5t33.5 -81.5
q0 -41 -30 -75t-77 -34q-37 0 -68 16.5t-42 46.5q11 -78 73.5 -130.5t164.5 -52.5q37 0 64 16.5t41.5 50.5t22.5 70.5t10 93.5t1 101.5t-3 113t-2 109.5v562q0 71 -4.5 122t-16.5 99t-37.5 73t-64.5 25q-73 0 -135.5 -49.5t-100.5 -123.5t-59 -152.5t-21 -144.5v-446h138v-5
h-449v5z" />
    <glyph glyph-name="Omacron" unicode="&#x14c;" horiz-adv-x="1448" 
d="M536 1705h480v-5h-480v5zM725 -20q-149 0 -271 60.5t-202.5 165t-124 244.5t-43.5 300q0 159 46.5 300t129 245t203 164.5t262.5 60.5t262.5 -60.5t202.5 -164.5t128 -245t46 -300q0 -160 -43.5 -300t-123.5 -244.5t-201.5 -165t-270.5 -60.5zM725 1515q-80 0 -144.5 -31
t-108.5 -87t-75.5 -127.5t-49 -160t-25.5 -176t-8 -183.5q0 -84 4.5 -157.5t16.5 -153t31 -144t51 -123.5t74 -99.5t101.5 -64t132.5 -23.5q84 0 150.5 30.5t110.5 87.5t74 127t45.5 160.5t22 175.5t6.5 184q0 96 -8 183.5t-25 176t-48.5 160t-75.5 127.5t-108 87t-144 31z
" />
    <glyph glyph-name="omacron" unicode="&#x14d;" horiz-adv-x="1105" 
d="M329 1125h480v-5h-480v5zM95 460q0 97 32.5 184.5t90.5 153t145 104t190 38.5t190 -38.5t145 -104t90.5 -153t32.5 -184.5t-32.5 -184.5t-90.5 -153t-145 -104t-190 -38.5t-190 38.5t-145 104t-90.5 153t-32.5 184.5zM305 460q0 -53 3.5 -101t12 -105t26.5 -102.5
t44.5 -84.5t68 -60.5t93.5 -21.5t93.5 21.5t68 60.5t44.5 84.5t27 102.5t12.5 105t3.5 101t-3.5 101t-12.5 105t-27 102.5t-44.5 84.5t-68 60.5t-93.5 21.5t-93.5 -21.5t-68 -60.5t-44.5 -84.5t-26.5 -102.5t-12 -105t-3.5 -101z" />
    <glyph glyph-name="Obreve" unicode="&#x14e;" horiz-adv-x="1448" 
d="M561 1938q0 -70 64 -109t151 -39t151 39t64 109h5q0 -50 -9.5 -92.5t-32.5 -81.5t-68.5 -61.5t-109.5 -22.5t-109.5 22.5t-68.5 61.5t-32.5 81.5t-9.5 92.5h5zM725 -20q-149 0 -271 60.5t-202.5 165t-124 244.5t-43.5 300q0 159 46.5 300t129 245t203 164.5t262.5 60.5
t262.5 -60.5t202.5 -164.5t128 -245t46 -300q0 -160 -43.5 -300t-123.5 -244.5t-201.5 -165t-270.5 -60.5zM725 1515q-80 0 -144.5 -31t-108.5 -87t-75.5 -127.5t-49 -160t-25.5 -176t-8 -183.5q0 -84 4.5 -157.5t16.5 -153t31 -144t51 -123.5t74 -99.5t101.5 -64
t132.5 -23.5q84 0 150.5 30.5t110.5 87.5t74 127t45.5 160.5t22 175.5t6.5 184q0 96 -8 183.5t-25 176t-48.5 160t-75.5 127.5t-108 87t-144 31z" />
    <glyph glyph-name="obreve" unicode="&#x14f;" horiz-adv-x="1105" 
d="M354 1358q0 -70 64 -109t151 -39t151 39t64 109h5q0 -50 -9.5 -92.5t-32.5 -81.5t-68.5 -61.5t-109.5 -22.5t-109.5 22.5t-68.5 61.5t-32.5 81.5t-9.5 92.5h5zM95 460q0 97 32.5 184.5t90.5 153t145 104t190 38.5t190 -38.5t145 -104t90.5 -153t32.5 -184.5t-32.5 -184.5
t-90.5 -153t-145 -104t-190 -38.5t-190 38.5t-145 104t-90.5 153t-32.5 184.5zM305 460q0 -53 3.5 -101t12 -105t26.5 -102.5t44.5 -84.5t68 -60.5t93.5 -21.5t93.5 21.5t68 60.5t44.5 84.5t27 102.5t12.5 105t3.5 101t-3.5 101t-12.5 105t-27 102.5t-44.5 84.5t-68 60.5
t-93.5 21.5t-93.5 -21.5t-68 -60.5t-44.5 -84.5t-26.5 -102.5t-12 -105t-3.5 -101z" />
    <glyph glyph-name="Ohungarumlaut" unicode="&#x150;" horiz-adv-x="1448" 
d="M1188 1817l-274 -124l-2 3l191 230q30 30 63 23.5t49 -34.5q15 -25 6.5 -56t-33.5 -42zM778 1817l-274 -124l-2 3l191 230q30 30 63 23.5t49 -34.5q15 -25 6.5 -56t-33.5 -42zM725 -20q-149 0 -271 60.5t-202.5 165t-124 244.5t-43.5 300q0 159 46.5 300t129 245
t203 164.5t262.5 60.5t262.5 -60.5t202.5 -164.5t128 -245t46 -300q0 -160 -43.5 -300t-123.5 -244.5t-201.5 -165t-270.5 -60.5zM725 1515q-80 0 -144.5 -31t-108.5 -87t-75.5 -127.5t-49 -160t-25.5 -176t-8 -183.5q0 -84 4.5 -157.5t16.5 -153t31 -144t51 -123.5
t74 -99.5t101.5 -64t132.5 -23.5q84 0 150.5 30.5t110.5 87.5t74 127t45.5 160.5t22 175.5t6.5 184q0 96 -8 183.5t-25 176t-48.5 160t-75.5 127.5t-108 87t-144 31z" />
    <glyph glyph-name="ohungarumlaut" unicode="&#x151;" horiz-adv-x="1105" 
d="M981 1237l-274 -124l-2 3l191 230q30 30 63 23.5t49 -34.5q15 -25 6.5 -56t-33.5 -42zM571 1237l-274 -124l-2 3l191 230q30 30 63 23.5t49 -34.5q15 -25 6.5 -56t-33.5 -42zM95 460q0 97 32.5 184.5t90.5 153t145 104t190 38.5t190 -38.5t145 -104t90.5 -153
t32.5 -184.5t-32.5 -184.5t-90.5 -153t-145 -104t-190 -38.5t-190 38.5t-145 104t-90.5 153t-32.5 184.5zM305 460q0 -53 3.5 -101t12 -105t26.5 -102.5t44.5 -84.5t68 -60.5t93.5 -21.5t93.5 21.5t68 60.5t44.5 84.5t27 102.5t12.5 105t3.5 101t-3.5 101t-12.5 105
t-27 102.5t-44.5 84.5t-68 60.5t-93.5 21.5t-93.5 -21.5t-68 -60.5t-44.5 -84.5t-26.5 -102.5t-12 -105t-3.5 -101z" />
    <glyph glyph-name="OE" unicode="&#x152;" horiz-adv-x="1901" 
d="M1472 556q0 97 -63 157t-152 60h-120v-768h320q100 0 173.5 33.5t117 94.5t64 140t20.5 177h6v-450h-1071q-304 1 -495.5 209t-191.5 541t192 541.5t495 208.5h1050v-410h-5q0 82 -20 153.5t-59.5 128.5t-105 90t-150.5 33h-340v-716h120q90 0 152.5 55.5t62.5 151.5h6
v-430h-6zM310 750q0 -115 14 -218t49 -201t88.5 -169t137.5 -114t191 -43h156v1490h-156q-107 0 -191 -43t-137.5 -114t-88.5 -169t-49 -201t-14 -218z" />
    <glyph glyph-name="oe" unicode="&#x153;" horiz-adv-x="1775" 
d="M95 460q0 97 32.5 184.5t90.5 153t145 104t190 38.5q114 0 205.5 -45t152.5 -125q62 82 156.5 126t208.5 44q107 0 189 -34.5t129.5 -94.5t71 -133t23.5 -158h-662q0 -10 -0.5 -30t-0.5 -30q0 -74 7 -137.5t25.5 -127t47.5 -108t77.5 -72.5t111.5 -28q148 0 249.5 83.5
t141.5 214.5h5q-41 -138 -145.5 -221.5t-263.5 -83.5q-115 0 -211 44.5t-159 127.5q-61 -81 -153 -126.5t-206 -45.5q-103 0 -190 38.5t-145 104t-90.5 153t-32.5 184.5zM305 460q0 -53 3.5 -101t12 -105t26.5 -102.5t44.5 -84.5t68 -60.5t93.5 -21.5t93.5 21.5t68 60.5
t44.5 84.5t27 102.5t12.5 105t3.5 101t-3.5 101t-12.5 105t-27 102.5t-44.5 84.5t-68 60.5t-93.5 21.5t-93.5 -21.5t-68 -60.5t-44.5 -84.5t-26.5 -102.5t-12 -105t-3.5 -101zM1276 935q-64 0 -112.5 -34t-76 -94t-41.5 -129t-18 -152h449q1 53 -2.5 102.5t-16.5 107.5
t-34 100t-59 70.5t-89 28.5z" />
    <glyph glyph-name="Racute" unicode="&#x154;" horiz-adv-x="1393" 
d="M888 1817l-274 -124l-2 3l191 230q30 30 63 23.5t49 -34.5q15 -25 6.5 -56t-33.5 -42zM38 5h219v1490h-219v5h660q236 0 368 -91t132 -279q0 -174 -105 -260.5t-313 -99.5q98 -6 169.5 -36.5t110.5 -76.5t62.5 -103.5t30 -120t8.5 -124.5t2.5 -117.5t7 -98t27.5 -67.5
t59 -25q61 0 109 24l2 -3q-57 -32 -180 -32q-74 0 -123 26.5t-71.5 71.5t-32.5 103.5t-11.5 123t-3.5 128.5t-13.5 122.5t-36.5 103.5t-77 71.5t-131 26.5h-240v-762h220v-5h-630v5zM698 1495h-250v-723h250q142 0 221 96t79 262t-79 265.5t-221 99.5z" />
    <glyph glyph-name="racute" unicode="&#x155;" horiz-adv-x="848" 
d="M658 1237l-274 -124l-2 3l191 230q30 30 63 23.5t49 -34.5q15 -25 6.5 -56t-33.5 -42zM64 5h122v910h-122v5h301v-350q30 370 255 370q81 0 131 -47.5t50 -114.5q0 -53 -31.5 -87.5t-84.5 -34.5q-55 0 -87.5 30.5t-32.5 76.5q0 56 36 87.5t83 31.5q35 0 63 -16.5
t42 -43.5q-15 50 -60 81.5t-109 31.5q-255 0 -255 -490v-440h120v-5h-421v5z" />
    <glyph glyph-name="uni0156" unicode="&#x156;" horiz-adv-x="1393" 
d="M38 5h219v1490h-219v5h660q236 0 368 -91t132 -279q0 -174 -105 -260.5t-313 -99.5q98 -6 169.5 -36.5t110.5 -76.5t62.5 -103.5t30 -120t8.5 -124.5t2.5 -117.5t7 -98t27.5 -67.5t59 -25q61 0 109 24l2 -3q-57 -32 -180 -32q-74 0 -123 26.5t-71.5 71.5t-32.5 103.5
t-11.5 123t-3.5 128.5t-13.5 122.5t-36.5 103.5t-77 71.5t-131 26.5h-240v-762h220v-5h-630v5zM698 1495h-250v-723h250q142 0 221 96t79 262t-79 265.5t-221 99.5zM672 -295q0 40 30.5 67.5t76.5 27.5q49 0 80.5 -42.5t31.5 -115.5q0 -98 -60 -174t-162 -76v4
q76 0 131.5 48t75.5 119.5t2 142.5q1 -35 -29.5 -65t-75.5 -30q-49 0 -75 26.5t-26 67.5z" />
    <glyph glyph-name="uni0157" unicode="&#x157;" horiz-adv-x="848" 
d="M64 5h122v910h-122v5h301v-350q30 370 255 370q81 0 131 -47.5t50 -114.5q0 -53 -31.5 -87.5t-84.5 -34.5q-55 0 -87.5 30.5t-32.5 76.5q0 56 36 87.5t83 31.5q35 0 63 -16.5t42 -43.5q-15 50 -60 81.5t-109 31.5q-255 0 -255 -490v-440h120v-5h-421v5zM212 -295
q0 40 30.5 67.5t76.5 27.5q49 0 80.5 -42.5t31.5 -115.5q0 -98 -60 -174t-162 -76v4q76 0 131.5 48t75.5 119.5t2 142.5q1 -35 -29.5 -65t-75.5 -30q-49 0 -75 26.5t-26 67.5z" />
    <glyph glyph-name="Rcaron" unicode="&#x158;" horiz-adv-x="1393" 
d="M686 1790l281 133l5 -3l-220 -220h-130l-220 220l5 3zM38 5h219v1490h-219v5h660q236 0 368 -91t132 -279q0 -174 -105 -260.5t-313 -99.5q98 -6 169.5 -36.5t110.5 -76.5t62.5 -103.5t30 -120t8.5 -124.5t2.5 -117.5t7 -98t27.5 -67.5t59 -25q61 0 109 24l2 -3
q-57 -32 -180 -32q-74 0 -123 26.5t-71.5 71.5t-32.5 103.5t-11.5 123t-3.5 128.5t-13.5 122.5t-36.5 103.5t-77 71.5t-131 26.5h-240v-762h220v-5h-630v5zM698 1495h-250v-723h250q142 0 221 96t79 262t-79 265.5t-221 99.5z" />
    <glyph glyph-name="rcaron" unicode="&#x159;" horiz-adv-x="848" 
d="M456 1210l281 133l5 -3l-220 -220h-130l-220 220l5 3zM64 5h122v910h-122v5h301v-350q30 370 255 370q81 0 131 -47.5t50 -114.5q0 -53 -31.5 -87.5t-84.5 -34.5q-55 0 -87.5 30.5t-32.5 76.5q0 56 36 87.5t83 31.5q35 0 63 -16.5t42 -43.5q-15 50 -60 81.5t-109 31.5
q-255 0 -255 -490v-440h120v-5h-421v5z" />
    <glyph glyph-name="Sacute" unicode="&#x15a;" horiz-adv-x="1117" 
d="M808 1817l-274 -124l-2 3l191 230q30 30 63 23.5t49 -34.5q15 -25 6.5 -56t-33.5 -42zM94 -20h-5v410h5q18 -92 52.5 -165t90 -130t138.5 -87.5t189 -30.5q163 0 259 86.5t96 246.5q0 65 -27.5 119t-74.5 92.5t-107.5 72.5t-128 64.5l-134.5 62t-127.5 72t-107.5 88.5
t-74.5 117t-27.5 152q0 161 121.5 265.5t292.5 104.5q210 0 323 -132l108 132h5v-410h-5q-29 201 -137 301t-274 100q-141 0 -217.5 -70.5t-76.5 -191.5q0 -59 27 -108t72.5 -84.5t105 -67.5t125 -62.5l131 -63.5t125 -76.5t105 -95.5t72.5 -126.5t27 -164.5
q0 -196 -124.5 -313t-335.5 -117q-250 0 -378 156z" />
    <glyph glyph-name="sacute" unicode="&#x15b;" horiz-adv-x="888" 
d="M618 1237l-274 -124l-2 3l191 230q30 30 63 23.5t49 -34.5q15 -25 6.5 -56t-33.5 -42zM109 -20h-5v280h5q4 -111 107.5 -192t234.5 -81q65 0 117.5 17t90 61.5t37.5 111.5q0 51 -31.5 87t-81.5 57t-110.5 39t-121 40.5t-110.5 53.5t-81.5 86t-31.5 130q0 106 73 187
t206 81q139 0 236 -87l89 89h6v-280h-6q0 103 -94 188t-229 85q-89 0 -146.5 -40.5t-57.5 -111.5q0 -48 33 -83.5t86 -58t116.5 -42.5t127.5 -44.5t117 -56t86 -86t33 -126.5q0 -133 -97.5 -218.5t-244.5 -85.5q-151 0 -259 93z" />
    <glyph glyph-name="Scircumflex" unicode="&#x15c;" horiz-adv-x="1117" 
d="M606 1849l-281 -135l-3 5l220 220h130l220 -220l-3 -5zM94 -20h-5v410h5q18 -92 52.5 -165t90 -130t138.5 -87.5t189 -30.5q163 0 259 86.5t96 246.5q0 65 -27.5 119t-74.5 92.5t-107.5 72.5t-128 64.5l-134.5 62t-127.5 72t-107.5 88.5t-74.5 117t-27.5 152
q0 161 121.5 265.5t292.5 104.5q210 0 323 -132l108 132h5v-410h-5q-29 201 -137 301t-274 100q-141 0 -217.5 -70.5t-76.5 -191.5q0 -59 27 -108t72.5 -84.5t105 -67.5t125 -62.5l131 -63.5t125 -76.5t105 -95.5t72.5 -126.5t27 -164.5q0 -196 -124.5 -313t-335.5 -117
q-250 0 -378 156z" />
    <glyph glyph-name="scircumflex" unicode="&#x15d;" horiz-adv-x="888" 
d="M416 1269l-281 -135l-3 5l220 220h130l220 -220l-3 -5zM109 -20h-5v280h5q4 -111 107.5 -192t234.5 -81q65 0 117.5 17t90 61.5t37.5 111.5q0 51 -31.5 87t-81.5 57t-110.5 39t-121 40.5t-110.5 53.5t-81.5 86t-31.5 130q0 106 73 187t206 81q139 0 236 -87l89 89h6v-280
h-6q0 103 -94 188t-229 85q-89 0 -146.5 -40.5t-57.5 -111.5q0 -48 33 -83.5t86 -58t116.5 -42.5t127.5 -44.5t117 -56t86 -86t33 -126.5q0 -133 -97.5 -218.5t-244.5 -85.5q-151 0 -259 93z" />
    <glyph glyph-name="Scedilla" unicode="&#x15e;" horiz-adv-x="1117" 
d="M94 -20h-5v410h5q18 -92 52.5 -165t90 -130t138.5 -87.5t189 -30.5q10 0 15 1l18 24h8l-18 -24q153 6 242.5 92t89.5 240q0 65 -27.5 119t-74.5 92.5t-107.5 72.5t-128 64.5l-134.5 62t-127.5 72t-107.5 88.5t-74.5 117t-27.5 152q0 161 121.5 265.5t292.5 104.5
q210 0 323 -132l108 132h5v-410h-5q-29 201 -137 301t-274 100q-141 0 -217.5 -70.5t-76.5 -191.5q0 -59 27 -108t72.5 -84.5t105 -67.5t125 -62.5l131 -63.5t125 -76.5t105 -95.5t72.5 -126.5t27 -164.5q0 -196 -124.5 -313t-334.5 -117l-87 -118q78 -3 142 -19t110 -53
t46 -90q0 -165 -338 -165v6q87 0 141.5 33.5t54.5 85.5q0 38 -16 63.5t-48.5 37.5t-69 16.5t-90.5 4.5l147 198q-244 1 -371 156z" />
    <glyph glyph-name="scedilla" unicode="&#x15f;" horiz-adv-x="888" 
d="M109 -20h-5v280h5q3 -93 79.5 -167t184.5 -97l5 6h8l-6 -8q40 -7 71 -7q65 0 117.5 17t90 61.5t37.5 111.5q0 51 -31.5 87t-81.5 57t-110.5 39t-121 40.5t-110.5 53.5t-81.5 86t-31.5 130q0 106 73 187t206 81q139 0 236 -87l89 89h6v-280h-6q0 103 -94 188t-229 85
q-89 0 -146.5 -40.5t-57.5 -111.5q0 -48 33 -83.5t86 -58t116.5 -42.5t127.5 -44.5t117 -56t86 -86t33 -126.5q0 -133 -97.5 -218.5t-244.5 -85.5q-44 0 -86 9l-101 -137q78 -3 142 -19t110 -53t46 -90q0 -165 -338 -165v6q87 0 141.5 33.5t54.5 85.5q0 38 -16 63.5
t-48.5 37.5t-69 16.5t-90.5 4.5l162 218q-97 23 -166 83z" />
    <glyph glyph-name="Scaron" unicode="&#x160;" horiz-adv-x="1117" 
d="M606 1790l281 133l5 -3l-220 -220h-130l-220 220l5 3zM94 -20h-5v410h5q18 -92 52.5 -165t90 -130t138.5 -87.5t189 -30.5q163 0 259 86.5t96 246.5q0 65 -27.5 119t-74.5 92.5t-107.5 72.5t-128 64.5l-134.5 62t-127.5 72t-107.5 88.5t-74.5 117t-27.5 152
q0 161 121.5 265.5t292.5 104.5q210 0 323 -132l108 132h5v-410h-5q-29 201 -137 301t-274 100q-141 0 -217.5 -70.5t-76.5 -191.5q0 -59 27 -108t72.5 -84.5t105 -67.5t125 -62.5l131 -63.5t125 -76.5t105 -95.5t72.5 -126.5t27 -164.5q0 -196 -124.5 -313t-335.5 -117
q-250 0 -378 156z" />
    <glyph glyph-name="scaron" unicode="&#x161;" horiz-adv-x="888" 
d="M416 1210l281 133l5 -3l-220 -220h-130l-220 220l5 3zM109 -20h-5v280h5q4 -111 107.5 -192t234.5 -81q65 0 117.5 17t90 61.5t37.5 111.5q0 51 -31.5 87t-81.5 57t-110.5 39t-121 40.5t-110.5 53.5t-81.5 86t-31.5 130q0 106 73 187t206 81q139 0 236 -87l89 89h6v-280
h-6q0 103 -94 188t-229 85q-89 0 -146.5 -40.5t-57.5 -111.5q0 -48 33 -83.5t86 -58t116.5 -42.5t127.5 -44.5t117 -56t86 -86t33 -126.5q0 -133 -97.5 -218.5t-244.5 -85.5q-151 0 -259 93z" />
    <glyph glyph-name="uni0162" unicode="&#x162;" horiz-adv-x="1266" 
d="M319 5h220v1490h-201q-85 0 -144.5 -33t-91.5 -95.5t-45.5 -139t-13.5 -177.5h-5v450h1191v-450h-6q0 101 -13.5 177.5t-45.5 139t-91.5 95.5t-144.5 33h-199v-1490h220v-5h-265l-109 -148q78 -3 142 -19t110 -53t46 -90q0 -165 -338 -165v6q87 0 141.5 33.5t54.5 85.5
q0 38 -16 63.5t-48.5 37.5t-69 16.5t-90.5 4.5l169 228h-357v5z" />
    <glyph glyph-name="uni0163" unicode="&#x163;" horiz-adv-x="678" 
d="M391 -350q0 38 -16 63.5t-48.5 37.5t-69 16.5t-90.5 4.5l162 217q-44 7 -73.5 30t-43 58.5t-18 68.5t-4.5 76v693h-146v5h146v200q43 0 96 18t84 42v-260h214v-5h-214v-770q0 -73 17 -99.5t59 -26.5q54 0 108.5 54t85.5 130h5q-37 -98 -110 -157.5t-163 -59.5
q-14 0 -36 2l-101 -136q78 -3 142 -19t110 -53t46 -90q0 -165 -338 -165v6q87 0 141.5 33.5t54.5 85.5z" />
    <glyph glyph-name="Tcaron" unicode="&#x164;" horiz-adv-x="1266" 
d="M715 1790l281 133l5 -3l-220 -220h-130l-220 220l5 3zM319 5h220v1490h-201q-85 0 -144.5 -33t-91.5 -95.5t-45.5 -139t-13.5 -177.5h-5v450h1191v-450h-6q0 101 -13.5 177.5t-45.5 139t-91.5 95.5t-144.5 33h-199v-1490h220v-5h-630v5z" />
    <glyph glyph-name="tcaron" unicode="&#x165;" horiz-adv-x="809" 
d="M480 1482q0 50 38.5 84t95.5 34q61 0 100.5 -53t39.5 -145q0 -122 -75.5 -217t-202.5 -95v5q95 0 164.5 60t94 149.5t2.5 178.5q1 -44 -37 -81.5t-94 -37.5q-62 0 -94 33t-32 85zM645 203q-37 -98 -110 -157.5t-163 -59.5q-47 0 -81.5 14.5t-53.5 36.5t-30 55t-14 62.5
t-3 67.5v693h-146v5h146v200q43 0 96 18t84 42v-260h214v-5h-214v-770q0 -73 17 -99.5t59 -26.5q54 0 108.5 54t85.5 130h5z" />
    <glyph glyph-name="Tbar" unicode="&#x166;" horiz-adv-x="1266" 
d="M319 5h220v742h-112v6h112v742h-201q-85 0 -144.5 -33t-91.5 -95.5t-45.5 -139t-13.5 -177.5h-5v450h1191v-450h-6q0 101 -13.5 177.5t-45.5 139t-91.5 95.5t-144.5 33h-199v-742h282v-6h-282v-742h220v-5h-630v5z" />
    <glyph glyph-name="tbar" unicode="&#x167;" horiz-adv-x="678" 
d="M26 613h164v302h-146v5h146v200q43 0 96 18t84 42v-260h214v-5h-214v-302h240v-6h-240v-462q0 -73 17 -99.5t59 -26.5q54 0 108.5 54t85.5 130h5q-37 -98 -110 -157.5t-163 -59.5q-47 0 -81.5 14.5t-53.5 36.5t-30 55t-14 62.5t-3 67.5v385h-164v6z" />
    <glyph glyph-name="Utilde" unicode="&#x168;" horiz-adv-x="1395" 
d="M589 1838q-58 0 -100 -33t-42 -105h-5q0 120 59 187t139 67q47 0 98.5 -24.5t88.5 -54.5t82 -54.5t82 -24.5q69 0 105.5 32t36.5 106h5q0 -138 -43 -196t-135 -58q-37 0 -77.5 16.5t-76 39.5l-71 46t-74 39.5t-72.5 16.5zM38 1500h570v-5h-200v-1015q0 -85 8.5 -154
t31.5 -135t61 -111t101 -72t147 -27q201 0 299.5 118.5t98.5 360.5v1035h-189v5h392v-5h-198v-1035q0 -251 -104.5 -370.5t-338.5 -119.5q-261 0 -380.5 116t-119.5 374v1035h-179v5z" />
    <glyph glyph-name="utilde" unicode="&#x169;" horiz-adv-x="1159" 
d="M369 1258q-58 0 -100 -33t-42 -105h-5q0 120 59 187t139 67q47 0 98.5 -24.5t88.5 -54.5t82 -54.5t82 -24.5q69 0 105.5 32t36.5 106h5q0 -138 -43 -196t-135 -58q-37 0 -77.5 16.5t-76 39.5l-71 46t-74 39.5t-72.5 16.5zM976 5h120v-5h-301v342q-36 -362 -326 -362
q-69 0 -119.5 15t-81.5 40.5t-49.5 65.5t-25.5 82.5t-7 98.5v633h-122v5h301v-616q0 -58 2 -98t9 -84t19.5 -70.5t35.5 -44t56 -17.5q308 0 308 484v441h-140v5h321v-915z" />
    <glyph glyph-name="Umacron" unicode="&#x16a;" horiz-adv-x="1395" 
d="M546 1705h480v-5h-480v5zM38 1500h570v-5h-200v-1015q0 -85 8.5 -154t31.5 -135t61 -111t101 -72t147 -27q201 0 299.5 118.5t98.5 360.5v1035h-189v5h392v-5h-198v-1035q0 -251 -104.5 -370.5t-338.5 -119.5q-261 0 -380.5 116t-119.5 374v1035h-179v5z" />
    <glyph glyph-name="umacron" unicode="&#x16b;" horiz-adv-x="1159" 
d="M326 1125h480v-5h-480v5zM976 5h120v-5h-301v342q-36 -362 -326 -362q-69 0 -119.5 15t-81.5 40.5t-49.5 65.5t-25.5 82.5t-7 98.5v633h-122v5h301v-616q0 -58 2 -98t9 -84t19.5 -70.5t35.5 -44t56 -17.5q308 0 308 484v441h-140v5h321v-915z" />
    <glyph glyph-name="Ubreve" unicode="&#x16c;" horiz-adv-x="1395" 
d="M571 1938q0 -70 64 -109t151 -39t151 39t64 109h5q0 -50 -9.5 -92.5t-32.5 -81.5t-68.5 -61.5t-109.5 -22.5t-109.5 22.5t-68.5 61.5t-32.5 81.5t-9.5 92.5h5zM38 1500h570v-5h-200v-1015q0 -85 8.5 -154t31.5 -135t61 -111t101 -72t147 -27q201 0 299.5 118.5
t98.5 360.5v1035h-189v5h392v-5h-198v-1035q0 -251 -104.5 -370.5t-338.5 -119.5q-261 0 -380.5 116t-119.5 374v1035h-179v5z" />
    <glyph glyph-name="ubreve" unicode="&#x16d;" horiz-adv-x="1159" 
d="M351 1358q0 -70 64 -109t151 -39t151 39t64 109h5q0 -50 -9.5 -92.5t-32.5 -81.5t-68.5 -61.5t-109.5 -22.5t-109.5 22.5t-68.5 61.5t-32.5 81.5t-9.5 92.5h5zM976 5h120v-5h-301v342q-36 -362 -326 -362q-69 0 -119.5 15t-81.5 40.5t-49.5 65.5t-25.5 82.5t-7 98.5v633
h-122v5h301v-616q0 -58 2 -98t9 -84t19.5 -70.5t35.5 -44t56 -17.5q308 0 308 484v441h-140v5h321v-915z" />
    <glyph glyph-name="Uring" unicode="&#x16e;" horiz-adv-x="1395" 
d="M606 1860q0 76 52 128t128 52t128 -52t52 -128t-52 -128t-128 -52t-128 52t-52 128zM676 1860q0 -175 110 -175t110 175t-110 175t-110 -175zM38 1500h570v-5h-200v-1015q0 -85 8.5 -154t31.5 -135t61 -111t101 -72t147 -27q201 0 299.5 118.5t98.5 360.5v1035h-189v5
h392v-5h-198v-1035q0 -251 -104.5 -370.5t-338.5 -119.5q-261 0 -380.5 116t-119.5 374v1035h-179v5z" />
    <glyph glyph-name="uring" unicode="&#x16f;" horiz-adv-x="1159" 
d="M386 1280q0 76 52 128t128 52t128 -52t52 -128t-52 -128t-128 -52t-128 52t-52 128zM456 1280q0 -175 110 -175t110 175t-110 175t-110 -175zM976 5h120v-5h-301v342q-36 -362 -326 -362q-69 0 -119.5 15t-81.5 40.5t-49.5 65.5t-25.5 82.5t-7 98.5v633h-122v5h301v-616
q0 -58 2 -98t9 -84t19.5 -70.5t35.5 -44t56 -17.5q308 0 308 484v441h-140v5h321v-915z" />
    <glyph glyph-name="Uhungarumlaut" unicode="&#x170;" horiz-adv-x="1395" 
d="M1198 1817l-274 -124l-2 3l191 230q30 30 63 23.5t49 -34.5q15 -25 6.5 -56t-33.5 -42zM788 1817l-274 -124l-2 3l191 230q30 30 63 23.5t49 -34.5q15 -25 6.5 -56t-33.5 -42zM38 1500h570v-5h-200v-1015q0 -85 8.5 -154t31.5 -135t61 -111t101 -72t147 -27
q201 0 299.5 118.5t98.5 360.5v1035h-189v5h392v-5h-198v-1035q0 -251 -104.5 -370.5t-338.5 -119.5q-261 0 -380.5 116t-119.5 374v1035h-179v5z" />
    <glyph glyph-name="uhungarumlaut" unicode="&#x171;" horiz-adv-x="1159" 
d="M978 1237l-274 -124l-2 3l191 230q30 30 63 23.5t49 -34.5q15 -25 6.5 -56t-33.5 -42zM568 1237l-274 -124l-2 3l191 230q30 30 63 23.5t49 -34.5q15 -25 6.5 -56t-33.5 -42zM976 5h120v-5h-301v342q-36 -362 -326 -362q-69 0 -119.5 15t-81.5 40.5t-49.5 65.5
t-25.5 82.5t-7 98.5v633h-122v5h301v-616q0 -58 2 -98t9 -84t19.5 -70.5t35.5 -44t56 -17.5q308 0 308 484v441h-140v5h321v-915z" />
    <glyph glyph-name="Uogonek" unicode="&#x172;" horiz-adv-x="1395" 
d="M979 -273q-14 -27 -29.5 -47.5t-42.5 -45.5t-67.5 -39t-90.5 -14q-54 0 -101.5 17t-81 57.5t-33.5 97.5q0 130 133 218q-233 11 -341 127t-108 362v1035h-179v5h570v-5h-200v-1015q0 -78 7 -141.5t26 -126.5t50 -107.5t81.5 -76.5t117.5 -42q52 30 121 53l4 -5
q-31 -17 -52 -53q198 2 295 120.5t97 358.5v1035h-189v5h392v-5h-198v-1035q0 -241 -95.5 -360t-307.5 -129q-38 -70 -38 -188q0 -71 32 -118t82 -47q48 0 78 27.5t65 84.5z" />
    <glyph glyph-name="uogonek" unicode="&#x173;" horiz-adv-x="1159" 
d="M976 5h120v-5h-145q-56 -72 -56 -217q0 -71 32 -118t82 -47q48 0 78 27.5t65 84.5l3 -3q-14 -27 -29.5 -47.5t-42.5 -45.5t-67.5 -39t-90.5 -14q-54 0 -101.5 17t-81 57.5t-33.5 97.5q0 153 183 247h-97v342q-36 -362 -326 -362q-69 0 -119.5 15t-81.5 40.5t-49.5 65.5
t-25.5 82.5t-7 98.5v633h-122v5h301v-616q0 -58 2 -98t9 -84t19.5 -70.5t35.5 -44t56 -17.5q308 0 308 484v441h-140v5h321v-885q5 3 11 4l4 -5q-10 -6 -15 -10v-19z" />
    <glyph glyph-name="Wcircumflex" unicode="&#x174;" horiz-adv-x="1941" 
d="M1096 1849l-281 -135l-3 5l220 220h130l220 -220l-3 -5zM1421 1495h-155l-179 -532l212 -685l441 1217h-218v5h399v-5h-173l-550 -1515h-5l-233 752l-284 -752h-6l-470 1515h-179v5h1400v-5zM780 278l176 465l-232 752h-324zM923 1495l160 -520l174 520h-334z" />
    <glyph glyph-name="wcircumflex" unicode="&#x175;" horiz-adv-x="1537" 
d="M776 1269l-281 -135l-3 5l220 220h130l220 -220l-3 -5zM543 218l316 722h5l218 -686l221 661h-197v5h387v-5h-182l-313 -935h-6l-245 689l-302 -689h-6l-302 935h-113v5h461v-5h-162z" />
    <glyph glyph-name="Ycircumflex" unicode="&#x176;" horiz-adv-x="1411" 
d="M776 1849l-281 -135l-3 5l220 220h130l220 -220l-3 -5zM450 5h180v715l-467 775h-142v5h580v-5h-218l432 -724l391 724h-235v5h420v-5h-178l-393 -729v-761h201v-5h-571v5z" />
    <glyph glyph-name="ycircumflex" unicode="&#x177;" horiz-adv-x="1104" 
d="M596 1269l-281 -135l-3 5l220 220h130l220 -220l-3 -5zM470 915h-156l352 -721l294 721h-171v5h311v-5h-133l-532 -1311q-31 -70 -59 -100.5t-81 -30.5q-43 0 -78 27.5t-35 79.5q0 49 31.5 80t79.5 31q45 0 81.5 -33.5t38.5 -83.5l158 389l-457 952h-90v5h446v-5z" />
    <glyph glyph-name="Ydieresis" unicode="&#x178;" horiz-adv-x="1411" 
d="M839 1786q0 40 28 68.5t68 28.5t68 -28.5t28 -68.5t-28 -68t-68 -28t-68 28t-28 68zM519 1786q0 40 28 68.5t68 28.5t68 -28.5t28 -68.5t-28 -68t-68 -28t-68 28t-28 68zM450 5h180v715l-467 775h-142v5h580v-5h-218l432 -724l391 724h-235v5h420v-5h-178l-393 -729v-761
h201v-5h-571v5z" />
    <glyph glyph-name="Zacute" unicode="&#x179;" horiz-adv-x="1099" 
d="M758 1817l-274 -124l-2 3l191 230q30 30 63 23.5t49 -34.5q15 -25 6.5 -56t-33.5 -42zM70 1500h960v-5l-790 -1490h449q199 0 277 88.5t78 286.5h5v-380h-1019v5l790 1490h-389q-101 0 -171 -21.5t-110 -66t-57.5 -104.5t-17.5 -143h-5v340z" />
    <glyph glyph-name="zacute" unicode="&#x17a;" horiz-adv-x="928" 
d="M678 1237l-274 -124l-2 3l191 230q30 30 63 23.5t49 -34.5q15 -25 6.5 -56t-33.5 -42zM407 915q-161 0 -226 -87t-65 -252h-6v344h722v-5l-561 -910h250q102 0 168.5 21t103.5 68.5t51.5 111.5t14.5 162h5v-368h-809v5l559 910h-207z" />
    <glyph glyph-name="Zdotaccent" unicode="&#x17b;" horiz-adv-x="1099" 
d="M460 1776q0 40 28 68.5t68 28.5t68 -28.5t28 -68.5t-28 -68t-68 -28t-68 28t-28 68zM70 1500h960v-5l-790 -1490h449q199 0 277 88.5t78 286.5h5v-380h-1019v5l790 1490h-389q-101 0 -171 -21.5t-110 -66t-57.5 -104.5t-17.5 -143h-5v340z" />
    <glyph glyph-name="zdotaccent" unicode="&#x17c;" horiz-adv-x="928" 
d="M380 1196q0 40 28 68.5t68 28.5t68 -28.5t28 -68.5t-28 -68t-68 -28t-68 28t-28 68zM407 915q-161 0 -226 -87t-65 -252h-6v344h722v-5l-561 -910h250q102 0 168.5 21t103.5 68.5t51.5 111.5t14.5 162h5v-368h-809v5l559 910h-207z" />
    <glyph glyph-name="Zcaron" unicode="&#x17d;" horiz-adv-x="1099" 
d="M556 1790l281 133l5 -3l-220 -220h-130l-220 220l5 3zM70 1500h960v-5l-790 -1490h449q199 0 277 88.5t78 286.5h5v-380h-1019v5l790 1490h-389q-101 0 -171 -21.5t-110 -66t-57.5 -104.5t-17.5 -143h-5v340z" />
    <glyph glyph-name="zcaron" unicode="&#x17e;" horiz-adv-x="928" 
d="M476 1210l281 133l5 -3l-220 -220h-130l-220 220l5 3zM407 915q-161 0 -226 -87t-65 -252h-6v344h722v-5l-561 -910h250q102 0 168.5 21t103.5 68.5t51.5 111.5t14.5 162h5v-368h-809v5l559 910h-207z" />
    <glyph glyph-name="longs" unicode="&#x17f;" horiz-adv-x="770" 
d="M55 5h161v1018q0 134 43 245t134.5 181.5t216.5 70.5q114 0 180 -60.5t66 -137.5q0 -59 -33 -91.5t-82 -32.5q-44 0 -77.5 27t-33.5 82q0 49 35 80t76 31q34 0 64 -17t42 -46q-14 69 -77.5 114.5t-159.5 45.5q-214 0 -214 -435v-1075h220v-5h-561v5z" />
    <glyph glyph-name="florin" unicode="&#x192;" horiz-adv-x="691" 
d="M63 920h166l11 103q10 96 44.5 184.5t89.5 158.5t136 112t175 42q111 0 169 -62t58 -136q0 -59 -32.5 -91.5t-80.5 -32.5q-44 0 -79.5 27t-35.5 82q0 49 35 80t76 31q32 0 63.5 -15t44.5 -45q-14 65 -69.5 111t-148.5 46q-101 0 -165.5 -120t-85.5 -315l-18 -160h288v-5
h-288l-104 -938q-11 -97 -44 -184t-86.5 -158t-132.5 -113t-173 -42q-111 0 -168.5 62t-57.5 136q0 59 33 91.5t81 32.5q44 0 78 -27t34 -82q0 -49 -34 -80t-74 -31q-32 0 -64 15.5t-45 45.5q14 -64 68.5 -111t148.5 -47q101 0 166 120.5t85 314.5l102 995h-166v5z" />
    <glyph glyph-name="uni0212" unicode="&#x212;" horiz-adv-x="1393" 
d="M855 1680q0 70 -64 109t-151 39t-151 -39t-64 -109h-5q0 50 9.5 92.5t32.5 81.5t68.5 61.5t109.5 22.5t109.5 -22.5t68.5 -61.5t32.5 -81.5t9.5 -92.5h-5zM38 5h219v1490h-219v5h660q236 0 368 -91t132 -279q0 -174 -105 -260.5t-313 -99.5q98 -6 169.5 -36.5
t110.5 -76.5t62.5 -103.5t30 -120t8.5 -124.5t2.5 -117.5t7 -98t27.5 -67.5t59 -25q61 0 109 24l2 -3q-57 -32 -180 -32q-74 0 -123 26.5t-71.5 71.5t-32.5 103.5t-11.5 123t-3.5 128.5t-13.5 122.5t-36.5 103.5t-77 71.5t-131 26.5h-240v-762h220v-5h-630v5zM698 1495h-250
v-723h250q142 0 221 96t79 262t-79 265.5t-221 99.5z" />
    <glyph glyph-name="uni0213" unicode="&#x213;" horiz-adv-x="848" 
d="M714 1100q0 70 -64 109t-152 39q-87 0 -151 -39t-64 -109h-5q0 50 9.5 92.5t32.5 81.5t68.5 61.5t109.5 22.5t109.5 -22.5t68.5 -61.5t32.5 -81.5t9.5 -92.5h-4zM64 5h122v910h-122v5h301v-350q30 370 255 370q81 0 131 -47.5t50 -114.5q0 -53 -31.5 -87.5t-84.5 -34.5
q-55 0 -87.5 30.5t-32.5 76.5q0 56 36 87.5t83 31.5q35 0 63 -16.5t42 -43.5q-15 50 -60 81.5t-109 31.5q-255 0 -255 -490v-440h120v-5h-421v5z" />
    <glyph glyph-name="uni0218" unicode="&#x218;" horiz-adv-x="1117" 
d="M94 -20h-5v410h5q18 -92 52.5 -165t90 -130t138.5 -87.5t189 -30.5q163 0 259 86.5t96 246.5q0 65 -27.5 119t-74.5 92.5t-107.5 72.5t-128 64.5l-134.5 62t-127.5 72t-107.5 88.5t-74.5 117t-27.5 152q0 161 121.5 265.5t292.5 104.5q210 0 323 -132l108 132h5v-410h-5
q-29 201 -137 301t-274 100q-141 0 -217.5 -70.5t-76.5 -191.5q0 -59 27 -108t72.5 -84.5t105 -67.5t125 -62.5l131 -63.5t125 -76.5t105 -95.5t72.5 -126.5t27 -164.5q0 -196 -124.5 -313t-335.5 -117q-250 0 -378 156zM465 -295q0 40 31 67.5t77 27.5q48 0 80 -42.5
t32 -115.5q0 -98 -60.5 -174t-162.5 -76v4q76 0 131.5 48t75.5 119.5t2 142.5q2 -34 -29 -64.5t-76 -30.5q-49 0 -75 26.5t-26 67.5z" />
    <glyph glyph-name="uni0219" unicode="&#x219;" horiz-adv-x="888" 
d="M109 -20h-5v280h5q4 -111 107.5 -192t234.5 -81q65 0 117.5 17t90 61.5t37.5 111.5q0 51 -31.5 87t-81.5 57t-110.5 39t-121 40.5t-110.5 53.5t-81.5 86t-31.5 130q0 106 73 187t206 81q139 0 236 -87l89 89h6v-280h-6q0 103 -94 188t-229 85q-89 0 -146.5 -40.5
t-57.5 -111.5q0 -48 33 -83.5t86 -58t116.5 -42.5t127.5 -44.5t117 -56t86 -86t33 -126.5q0 -133 -97.5 -218.5t-244.5 -85.5q-151 0 -259 93zM341 -295q0 40 31 67.5t77 27.5q48 0 80 -42.5t32 -115.5q0 -98 -60.5 -174t-162.5 -76v4q77 0 132 48t75 119.5t2 142.5
q2 -34 -29 -64.5t-76 -30.5q-49 0 -75 26.5t-26 67.5z" />
    <glyph glyph-name="uni021A" unicode="&#x21a;" horiz-adv-x="1266" 
d="M319 5h220v1490h-201q-85 0 -144.5 -33t-91.5 -95.5t-45.5 -139t-13.5 -177.5h-5v450h1191v-450h-6q0 101 -13.5 177.5t-45.5 139t-91.5 95.5t-144.5 33h-199v-1490h220v-5h-630v5zM535 -295q0 40 30.5 67.5t76.5 27.5q48 0 80 -42.5t32 -115.5q0 -98 -60.5 -174
t-162.5 -76v4q77 0 132 48t75 119.5t2 142.5q2 -34 -29 -64.5t-76 -30.5q-49 0 -74.5 26.5t-25.5 67.5z" />
    <glyph glyph-name="uni021B" unicode="&#x21b;" horiz-adv-x="678" 
d="M645 203q-37 -98 -110 -157.5t-163 -59.5q-47 0 -81.5 14.5t-53.5 36.5t-30 55t-14 62.5t-3 67.5v693h-146v5h146v200q43 0 96 18t84 42v-260h214v-5h-214v-770q0 -73 17 -99.5t59 -26.5q54 0 108.5 54t85.5 130h5zM272 -295q0 40 30.5 67.5t76.5 27.5q49 0 80.5 -42.5
t31.5 -115.5q0 -98 -60 -174t-162 -76v4q76 0 131.5 48t75.5 119.5t2 142.5q1 -35 -29.5 -65t-75.5 -30q-49 0 -75 26.5t-26 67.5z" />
    <glyph glyph-name="uni0237" unicode="&#x237;" horiz-adv-x="583" 
d="M405 920v-943q0 -60 -3.5 -110.5t-13 -102.5t-24.5 -93t-39.5 -77.5t-56.5 -61t-76.5 -38.5t-99.5 -14q-116 0 -181 64t-65 154q0 59 33 91.5t81 32.5q44 0 77.5 -26.5t33.5 -81.5q0 -40 -34.5 -74.5t-82.5 -34.5q-35 0 -62.5 15.5t-37.5 43.5q12 -77 72.5 -127
t154.5 -50q29 0 52 10t38.5 31t27 45t17 61.5t9 70t4 80t0 83t-1.5 87.5t-1 85v875h-162v5h341z" />
    <glyph glyph-name="circumflex" unicode="&#x2c6;" horiz-adv-x="769" 
d="M384 1849l-281 -135l-3 5l220 220h130l220 -220l-3 -5z" />
    <glyph glyph-name="caron" unicode="&#x2c7;" horiz-adv-x="769" 
d="M384 1790l281 133l5 -3l-220 -220h-130l-220 220l5 3z" />
    <glyph glyph-name="breve" unicode="&#x2d8;" horiz-adv-x="559" 
d="M64 1938q0 -70 64 -109t151 -39t151 39t64 109h5q0 -50 -9.5 -92.5t-32.5 -81.5t-68.5 -61.5t-109.5 -22.5t-109.5 22.5t-68.5 61.5t-32.5 81.5t-9.5 92.5h5z" />
    <glyph glyph-name="dotaccent" unicode="&#x2d9;" horiz-adv-x="342" 
d="M75 1776q0 40 28 68.5t68 28.5t68 -28.5t28 -68.5t-28 -68t-68 -28t-68 28t-28 68z" />
    <glyph glyph-name="ring" unicode="&#x2da;" horiz-adv-x="639" 
d="M140 1860q0 76 52 128t128 52t128 -52t52 -128t-52 -128t-128 -52t-128 52t-52 128zM210 1860q0 -175 110 -175t110 175t-110 175t-110 -175z" />
    <glyph glyph-name="ogonek" unicode="&#x2db;" horiz-adv-x="1099" 
d="M776 -226q-14 -27 -29.5 -47.5t-42.5 -45.5t-67.5 -39t-90.5 -14q-54 0 -101.5 17t-81 57.5t-33.5 97.5t25.5 106t69 83t88 57t95.5 40l4 -5q-96 -53 -96 -251q0 -71 32 -118t82 -47q48 0 78 27.5t65 84.5z" />
    <glyph glyph-name="tilde" unicode="&#x2dc;" horiz-adv-x="895" 
d="M247 1838q-58 0 -100 -33t-42 -105h-5q0 120 59 187t139 67q47 0 98.5 -24.5t88.5 -54.5t82 -54.5t82 -24.5q69 0 105.5 32t36.5 106h5q0 -138 -43 -196t-135 -58q-37 0 -77.5 16.5t-76 39.5l-71 46t-74 39.5t-72.5 16.5z" />
    <glyph glyph-name="hungarumlaut" unicode="&#x2dd;" horiz-adv-x="0" 
d="M-100 1817l-274 -124l-2 3l191 230q30 30 63 23.5t49 -34.5q15 -25 6.5 -56t-33.5 -42zM-510 1817l-274 -124l-2 3l191 230q30 30 63 23.5t49 -34.5q15 -25 6.5 -56t-33.5 -42z" />
    <glyph glyph-name="gravecomb" unicode="&#x300;" horiz-adv-x="0" 
d="M-380 1817q-25 11 -33.5 42t6.5 56q16 28 49 34.5t63 -23.5l191 -230l-2 -3z" />
    <glyph glyph-name="acutecomb" unicode="&#x301;" horiz-adv-x="0" 
d="M-210 1817l-274 -124l-2 3l191 230q30 30 63 23.5t49 -34.5q15 -25 6.5 -56t-33.5 -42z" />
    <glyph glyph-name="uni0302" unicode="&#x302;" horiz-adv-x="0" 
d="M0 1849l-281 -135l-3 5l220 220h130l220 -220l-3 -5z" />
    <glyph glyph-name="tildecomb" unicode="&#x303;" horiz-adv-x="0" 
d="M-201 1838q-58 0 -100 -33t-42 -105h-5q0 120 59 187t139 67q47 0 98.5 -24.5t88.5 -54.5t82 -54.5t82 -24.5q69 0 105.5 32t36.5 106h5q0 -138 -43 -196t-135 -58q-37 0 -77.5 16.5t-76 39.5l-71 46t-74 39.5t-72.5 16.5z" />
    <glyph glyph-name="uni0304" unicode="&#x304;" horiz-adv-x="0" 
d="M-658 1705h480v-5h-480v5z" />
    <glyph glyph-name="uni0306" unicode="&#x306;" horiz-adv-x="0" 
d="M-216 1938q0 -70 64 -109t151 -39t151 39t64 109h5q0 -50 -9.5 -92.5t-32.5 -81.5t-68.5 -61.5t-109.5 -22.5t-109.5 22.5t-68.5 61.5t-32.5 81.5t-9.5 92.5h5z" />
    <glyph glyph-name="uni0307" unicode="&#x307;" horiz-adv-x="0" 
d="M-460 1152q0 35 33.5 65.5t70.5 30.5q39 0 67.5 -33t28.5 -71q0 -33 -32 -64.5t-72 -31.5q-36 0 -66 32.5t-30 71.5z" />
    <glyph glyph-name="uni0308" unicode="&#x308;" horiz-adv-x="0" 
d="M64 1786q0 40 28 68.5t68 28.5t68 -28.5t28 -68.5t-28 -68t-68 -28t-68 28t-28 68zM-256 1786q0 40 28 68.5t68 28.5t68 -28.5t28 -68.5t-28 -68t-68 -28t-68 28t-28 68z" />
    <glyph glyph-name="uni030A" unicode="&#x30a;" horiz-adv-x="0" 
d="M-180 1860q0 76 52 128t128 52t128 -52t52 -128t-52 -128t-128 -52t-128 52t-52 128zM-110 1860q0 -175 110 -175t110 175t-110 175t-110 -175z" />
    <glyph glyph-name="uni030B" unicode="&#x30b;" horiz-adv-x="0" 
d="M-100 1817l-274 -124l-2 3l191 230q30 30 63 23.5t49 -34.5q15 -25 6.5 -56t-33.5 -42zM-510 1817l-274 -124l-2 3l191 230q30 30 63 23.5t49 -34.5q15 -25 6.5 -56t-33.5 -42z" />
    <glyph glyph-name="uni030C" unicode="&#x30c;" horiz-adv-x="0" 
d="M-80 1790l281 133l5 -3l-220 -220h-130l-220 220l5 3z" />
    <glyph glyph-name="uni0311" unicode="&#x311;" horiz-adv-x="0" 
d="M218 1680q0 70 -64 109t-151 39t-151 -39t-64 -109h-5q0 50 9.5 92.5t32.5 81.5t68.5 61.5t109.5 22.5t109.5 -22.5t68.5 -61.5t32.5 -81.5t9.5 -92.5h-5z" />
    <glyph glyph-name="uni0312" unicode="&#x312;" horiz-adv-x="0" 
d="M108 1775q0 -40 -30.5 -67.5t-76.5 -27.5q-49 0 -80.5 42.5t-31.5 115.5q0 98 60 174t162 76v-4q-76 0 -131.5 -48t-75.5 -119.5t-2 -142.5q-1 35 29.5 65t75.5 30q49 0 75 -26.5t26 -67.5z" />
    <glyph glyph-name="uni0326" unicode="&#x326;" horiz-adv-x="0" 
d="M-108 -295q0 40 30.5 67.5t76.5 27.5q49 0 80.5 -42.5t31.5 -115.5q0 -98 -60 -174t-162 -76v4q76 0 131.5 48t75.5 119.5t2 142.5q1 -35 -29.5 -65t-75.5 -30q-49 0 -75 26.5t-26 67.5z" />
    <glyph glyph-name="uni0327" unicode="&#x327;" horiz-adv-x="0" 
d="M28 -350q0 38 -16 63.5t-48.5 37.5t-69 16.5t-90.5 4.5l171 230h8l-111 -150q78 -3 142 -19t110 -53t46 -90q0 -165 -338 -165v6q87 0 141.5 33.5t54.5 85.5z" />
    <glyph glyph-name="uni0328" unicode="&#x328;" horiz-adv-x="1099" 
d="M776 -226q-14 -27 -29.5 -47.5t-42.5 -45.5t-67.5 -39t-90.5 -14q-54 0 -101.5 17t-81 57.5t-33.5 97.5t25.5 106t69 83t88 57t95.5 40l4 -5q-96 -53 -96 -251q0 -71 32 -118t82 -47q48 0 78 27.5t65 84.5z" />
    <glyph glyph-name="uni0394" unicode="&#x394;" horiz-adv-x="1267" 
d="M677 1529l530 -1529h-1118l542 1529h46zM553 1287l-454 -1282h885z" />
    <glyph glyph-name="uni03A9" unicode="&#x3a9;" horiz-adv-x="1552" 
d="M192 300q0 -72 32 -104.5t108 -32.5h289v138q-87 20 -171 71t-155 126t-114.5 180.5t-43.5 221.5q0 282 174.5 451t464.5 169t465 -169t175 -451q0 -116 -43.5 -220t-114.5 -177.5t-155 -123t-171 -69.5v-147h289q76 0 108 32.5t32 104.5h5v-300h-439v314
q122 51 191 215.5t69 370.5q0 82 -8 154.5t-25.5 143.5t-49 127t-76 99.5t-108.5 67t-144 23.5q-95 0 -168 -34.5t-118 -91t-73.5 -138t-39.5 -166.5t-11 -185q0 -207 69.5 -375.5t190.5 -219.5v-305h-439v300h5z" />
    <glyph glyph-name="uni03BC" unicode="&#x3bc;" horiz-adv-x="1159" 
d="M510 -246q50 0 86.5 -39t36.5 -95q0 -62 -42 -101t-125 -39q-113 0 -196.5 75t-83.5 203v1157h-122v5h301v-616q0 -58 2 -98t9 -84t19.5 -70.5t35.5 -44t56 -17.5q308 0 308 484v441h-140v5h321v-915h120v-5h-301v342q-36 -362 -326 -362q-136 0 -199.5 55.5t-78.5 159.5
v-437q0 -121 76.5 -193.5t186.5 -78.5q-30 12 -48.5 54t-18.5 88q0 50 37 88t86 38z" />
    <glyph glyph-name="pi" unicode="&#x3c0;" horiz-adv-x="1161" 
d="M208 -20q-58 0 -88 27.5t-30 68.5q0 27 12.5 48.5t32 38l43.5 35.5t48 48t43.5 67.5t32 101.5t12.5 143v182h-227v-150h-5v330h970v-180h-180v-577q0 -31 19.5 -51.5t54.5 -20.5q43 0 76.5 27.5t64.5 91.5l5 -4q-36 -111 -88 -168.5t-128 -57.5q-78 0 -131 41.5
t-53 124.5v594h-266v-254q0 -237 -58 -371.5t-160 -134.5z" />
    <glyph glyph-name="Wgrave" unicode="&#x1e80;" horiz-adv-x="1941" 
d="M825 1817q-25 11 -33.5 42t6.5 56q16 28 49 34.5t63 -23.5l192 -230l-3 -3zM1421 1495h-155l-179 -532l212 -685l441 1217h-218v5h399v-5h-173l-550 -1515h-5l-233 752l-284 -752h-6l-470 1515h-179v5h1400v-5zM780 278l176 465l-232 752h-324zM923 1495l160 -520
l174 520h-334z" />
    <glyph glyph-name="wgrave" unicode="&#x1e81;" horiz-adv-x="1537" 
d="M535 1237q-25 11 -33.5 42t6.5 56q16 28 49 34.5t63 -23.5l191 -230l-3 -3zM543 218l316 722h5l218 -686l221 661h-197v5h387v-5h-182l-313 -935h-6l-245 689l-302 -689h-6l-302 935h-113v5h461v-5h-162z" />
    <glyph glyph-name="Wacute" unicode="&#x1e82;" horiz-adv-x="1941" 
d="M1229 1817l-273 -124l-3 3l191 230q30 30 63 23.5t49 -34.5q15 -25 6.5 -56t-33.5 -42zM1421 1495h-155l-179 -532l212 -685l441 1217h-218v5h399v-5h-173l-550 -1515h-5l-233 752l-284 -752h-6l-470 1515h-179v5h1400v-5zM780 278l176 465l-232 752h-324zM923 1495
l160 -520l174 520h-334z" />
    <glyph glyph-name="wacute" unicode="&#x1e83;" horiz-adv-x="1537" 
d="M939 1237l-274 -124l-3 3l192 230q30 30 63 23.5t49 -34.5q14 -25 6 -56t-33 -42zM543 218l316 722h5l218 -686l221 661h-197v5h387v-5h-182l-313 -935h-6l-245 689l-302 -689h-6l-302 935h-113v5h461v-5h-162z" />
    <glyph glyph-name="Wdieresis" unicode="&#x1e84;" horiz-adv-x="1941" 
d="M1090 1786q0 40 28.5 68.5t67.5 28.5q40 0 68 -28.5t28 -68.5t-28 -68t-68 -28q-39 0 -67.5 28t-28.5 68zM770 1786q0 40 28.5 68.5t67.5 28.5q40 0 68 -28.5t28 -68.5t-28 -68t-68 -28q-39 0 -67.5 28t-28.5 68zM1421 1495h-155l-179 -532l212 -685l441 1217h-218v5h399
v-5h-173l-550 -1515h-5l-233 752l-284 -752h-6l-470 1515h-179v5h1400v-5zM780 278l176 465l-232 752h-324zM923 1495l160 -520l174 520h-334z" />
    <glyph glyph-name="wdieresis" unicode="&#x1e85;" horiz-adv-x="1537" 
d="M800 1206q0 40 28 68.5t68 28.5t68 -28.5t28 -68.5t-28 -68t-68 -28t-68 28t-28 68zM480 1206q0 40 28 68.5t68 28.5t68 -28.5t28 -68.5t-28 -68t-68 -28t-68 28t-28 68zM543 218l316 722h5l218 -686l221 661h-197v5h387v-5h-182l-313 -935h-6l-245 689l-302 -689h-6
l-302 935h-113v5h461v-5h-162z" />
    <glyph glyph-name="uni1E86" unicode="&#x1e86;" horiz-adv-x="1941" 
d="M931 1776q0 40 28.5 68.5t67.5 28.5q40 0 68 -28.5t28 -68.5t-28 -68t-68 -28q-39 0 -67.5 28t-28.5 68zM1421 1495h-155l-179 -532l212 -685l441 1217h-218v5h399v-5h-173l-550 -1515h-5l-233 752l-284 -752h-6l-470 1515h-179v5h1400v-5zM780 278l176 465l-232 752
h-324zM923 1495l160 -520l174 520h-334z" />
    <glyph glyph-name="uni1E87" unicode="&#x1e87;" horiz-adv-x="1537" 
d="M641 1196q0 40 28 68.5t68 28.5t68 -28.5t28 -68.5t-28 -68t-68 -28t-68 28t-28 68zM543 218l316 722h5l218 -686l221 661h-197v5h387v-5h-182l-313 -935h-6l-245 689l-302 -689h-6l-302 935h-113v5h461v-5h-162z" />
    <glyph glyph-name="uni1E88" unicode="&#x1e88;" horiz-adv-x="1941" 
d="M1000 1776q0 40 28 68.5t68 28.5t68 -28.5t28 -68.5t-28 -68t-68 -28t-68 28t-28 68zM1421 1495h-155l-179 -532l212 -685l441 1217h-218v5h399v-5h-173l-550 -1515h-5l-233 752l-284 -752h-6l-470 1515h-179v5h1400v-5zM780 278l176 465l-232 752h-324zM923 1495
l160 -520l174 520h-334z" />
    <glyph glyph-name="uni1E89" unicode="&#x1e89;" horiz-adv-x="1537" 
d="M680 1196q0 40 28 68.5t68 28.5t68 -28.5t28 -68.5t-28 -68t-68 -28t-68 28t-28 68zM543 218l316 722h5l218 -686l221 661h-197v5h387v-5h-182l-313 -935h-6l-245 689l-302 -689h-6l-302 935h-113v5h461v-5h-162z" />
    <glyph glyph-name="uni1E9E" unicode="&#x1e9e;" horiz-adv-x="1601" 
d="M29 5h181v877q0 149 54.5 270.5t151 201.5t227 123t283.5 43q108 0 202.5 -20.5t159.5 -54.5t105.5 -63.5t68.5 -59.5l-409 -523q116 -13 201.5 -43t135.5 -68t80.5 -91t40.5 -103.5t10 -113.5q0 -189 -140.5 -294.5t-359.5 -105.5q-103 0 -184 25t-129.5 66.5
t-73.5 92.5t-25 107q0 60 33.5 95.5t87.5 35.5q47 0 77.5 -30t30.5 -82q0 -47 -34 -78.5t-79 -31.5q-37 0 -67.5 18.5t-41.5 46.5q12 -111 115.5 -183.5t250.5 -72.5q69 0 125.5 23t93.5 60.5t62.5 88.5t36.5 106t11 113q0 39 -2.5 71t-13.5 77.5t-29 81t-53 73.5t-83 63.5
t-120.5 41.5t-163.5 16v6l492 602q-185 103 -412 103q-126 0 -226.5 -53.5t-162.5 -145t-94.5 -208t-32.5 -247.5v-856h180v-5h-561v5z" />
    <glyph glyph-name="Ygrave" unicode="&#x1ef2;" horiz-adv-x="1411" 
d="M574 1817q-25 11 -33.5 42t6.5 56q16 28 49 34.5t63 -23.5l191 -230l-2 -3zM450 5h180v715l-467 775h-142v5h580v-5h-218l432 -724l391 724h-235v5h420v-5h-178l-393 -729v-761h201v-5h-571v5z" />
    <glyph glyph-name="ygrave" unicode="&#x1ef3;" horiz-adv-x="1104" 
d="M394 1237q-25 11 -33.5 42t6.5 56q16 28 49 34.5t63 -23.5l191 -230l-2 -3zM470 915h-156l352 -721l294 721h-171v5h311v-5h-133l-532 -1311q-31 -70 -59 -100.5t-81 -30.5q-43 0 -78 27.5t-35 79.5q0 49 31.5 80t79.5 31q45 0 81.5 -33.5t38.5 -83.5l158 389l-457 952
h-90v5h446v-5z" />
    <glyph glyph-name="uni2000" unicode="&#x2000;" horiz-adv-x="1000" 
 />
    <glyph glyph-name="uni2001" unicode="&#x2001;" horiz-adv-x="2000" 
 />
    <glyph glyph-name="uni2002" unicode="&#x2002;" horiz-adv-x="1000" 
 />
    <glyph glyph-name="uni2003" unicode="&#x2003;" horiz-adv-x="2000" 
 />
    <glyph glyph-name="uni2004" unicode="&#x2004;" horiz-adv-x="666" 
 />
    <glyph glyph-name="uni2005" unicode="&#x2005;" horiz-adv-x="500" 
 />
    <glyph glyph-name="uni2006" unicode="&#x2006;" horiz-adv-x="333" 
 />
    <glyph glyph-name="uni2007" unicode="&#x2007;" 
 />
    <glyph glyph-name="uni2008" unicode="&#x2008;" horiz-adv-x="399" 
 />
    <glyph glyph-name="uni2009" unicode="&#x2009;" horiz-adv-x="333" 
 />
    <glyph glyph-name="uni200A" unicode="&#x200a;" horiz-adv-x="200" 
 />
    <glyph glyph-name="uni200B" unicode="&#x200b;" horiz-adv-x="0" 
 />
    <glyph glyph-name="uni2010" unicode="&#x2010;" horiz-adv-x="719" 
d="M120 553h480v-6h-480v6z" />
    <glyph glyph-name="uni2011" unicode="&#x2011;" horiz-adv-x="719" 
d="M120 553h480v-6h-480v6z" />
    <glyph glyph-name="figuredash" unicode="&#x2012;" horiz-adv-x="934" 
d="M120 553h695v-6h-695v6z" />
    <glyph glyph-name="endash" unicode="&#x2013;" horiz-adv-x="1081" 
d="M119 553h842v-6h-842v6z" />
    <glyph glyph-name="emdash" unicode="&#x2014;" horiz-adv-x="1569" 
d="M119 553h1330v-6h-1330v6z" />
    <glyph glyph-name="uni2015" unicode="&#x2015;" horiz-adv-x="1715" 
d="M120 553h1476v-6h-1476v6z" />
    <glyph glyph-name="quoteleft" unicode="&#x2018;" horiz-adv-x="429" 
d="M350 1150q0 -50 -38.5 -84t-95.5 -34q-61 0 -100.5 53t-39.5 145q0 122 75.5 217t202.5 95v-5q-95 0 -164.5 -60t-94 -149.5t-2.5 -178.5q-1 44 37 81.5t94 37.5q62 0 94 -33t32 -85z" />
    <glyph glyph-name="quoteright" unicode="&#x2019;" horiz-adv-x="429" 
d="M80 1422q0 50 38.5 84t95.5 34q61 0 100.5 -53t39.5 -145q0 -122 -75.5 -217t-202.5 -95v5q95 0 164.5 60t94 149.5t2.5 178.5q1 -44 -37 -81.5t-94 -37.5q-62 0 -94 33t-32 85z" />
    <glyph glyph-name="quotesinglbase" unicode="&#x201a;" horiz-adv-x="677" 
d="M80 98q0 50 38.5 84t95.5 34q61 0 100.5 -53t39.5 -145q0 -122 -75.5 -217t-202.5 -95v5q95 0 164.5 60t94 149.5t2.5 178.5q1 -44 -37 -81.5t-94 -37.5q-62 0 -94 33t-32 85z" />
    <glyph glyph-name="quotedblleft" unicode="&#x201c;" horiz-adv-x="819" 
d="M740 1150q0 -50 -38.5 -84t-95.5 -34q-61 0 -100.5 53t-39.5 145q0 122 75.5 217t202.5 95v-5q-95 0 -164.5 -60t-94 -149.5t-2.5 -178.5q-1 44 37 81.5t94 37.5q62 0 94 -33t32 -85zM350 1150q0 -50 -38.5 -84t-95.5 -34q-61 0 -100.5 53t-39.5 145q0 122 75.5 217
t202.5 95v-5q-95 0 -164.5 -60t-94 -149.5t-2.5 -178.5q-1 44 37 81.5t94 37.5q62 0 94 -33t32 -85z" />
    <glyph glyph-name="quotedblright" unicode="&#x201d;" horiz-adv-x="819" 
d="M80 1422q0 50 38.5 84t95.5 34q61 0 100.5 -53t39.5 -145q0 -122 -75.5 -217t-202.5 -95v5q95 0 164.5 60t94 149.5t2.5 178.5q1 -44 -37 -81.5t-94 -37.5q-62 0 -94 33t-32 85zM470 1422q0 50 38.5 84t95.5 34q61 0 100.5 -53t39.5 -145q0 -122 -75.5 -217t-202.5 -95v5
q95 0 164.5 60t94 149.5t2.5 178.5q1 -44 -37 -81.5t-94 -37.5q-62 0 -94 33t-32 85z" />
    <glyph glyph-name="quotedblbase" unicode="&#x201e;" horiz-adv-x="819" 
d="M80 98q0 50 38.5 84t95.5 34q61 0 100.5 -53t39.5 -145q0 -122 -75.5 -217t-202.5 -95v5q95 0 164.5 60t94 149.5t2.5 178.5q1 -44 -37 -81.5t-94 -37.5q-62 0 -94 33t-32 85zM470 98q0 50 38.5 84t95.5 34q61 0 100.5 -53t39.5 -145q0 -122 -75.5 -217t-202.5 -95v5
q95 0 164.5 60t94 149.5t2.5 178.5q1 -44 -37 -81.5t-94 -37.5q-62 0 -94 33t-32 85z" />
    <glyph glyph-name="dagger" unicode="&#x2020;" horiz-adv-x="1186" 
d="M457 500q57 81 95 207.5t38 266.5q-50 0 -100.5 -19.5l-110 -43.5t-120.5 -33q-14 -2 -37 -2q-57 0 -89.5 27.5t-32.5 72.5t32.5 72.5t89.5 27.5q23 0 37 -2q72 -10 171 -52t160 -42q0 74 -12.5 130.5t-27.5 85.5t-31.5 73t-23.5 92q-2 14 -2 37q0 57 27.5 89.5
t72.5 32.5t72.5 -32.5t27.5 -89.5q0 -23 -2 -37q-7 -48 -23.5 -92t-32 -73t-27.5 -85.5t-12 -130.5q50 0 100.5 19l110 42.5t120.5 32.5q14 2 37 2q57 0 89.5 -27.5t32.5 -72.5t-32.5 -72.5t-89.5 -27.5q-23 0 -37 2q-72 10 -171 53t-160 43q1 -141 39 -267.5t94 -206.5
q-72 -108 -102.5 -356.5t-30.5 -643.5h-6q0 395 -30.5 643.5t-102.5 356.5z" />
    <glyph glyph-name="daggerdbl" unicode="&#x2021;" horiz-adv-x="1186" 
d="M259 122q72 -10 171 -53t160 -43q-1 141 -39 267.5t-94 206.5q57 81 95 207.5t38 266.5q-50 0 -100.5 -19.5l-110 -43.5t-120.5 -33q-14 -2 -37 -2q-57 0 -89.5 27.5t-32.5 72.5t32.5 72.5t89.5 27.5q23 0 37 -2q72 -10 171 -52t160 -42q0 74 -12.5 130.5t-27.5 85.5
t-31.5 73t-23.5 92q-2 14 -2 37q0 57 27.5 89.5t72.5 32.5t72.5 -32.5t27.5 -89.5q0 -23 -2 -37q-7 -48 -23.5 -92t-32 -73t-27.5 -85.5t-12 -130.5q50 0 100.5 19l110 42.5t120.5 32.5q14 2 37 2q57 0 89.5 -27.5t32.5 -72.5t-32.5 -72.5t-89.5 -27.5q-23 0 -37 2
q-72 10 -171 53t-160 43q1 -141 39 -267.5t94 -206.5q-57 -81 -95 -207.5t-38 -266.5q50 0 100.5 19.5l110 43.5t120.5 33q14 2 37 2q57 0 89.5 -27.5t32.5 -72.5t-32.5 -72.5t-89.5 -27.5q-23 0 -37 2q-72 10 -171 52t-160 42q0 -74 12.5 -130.5t27.5 -85.5t31.5 -73
t23.5 -92q2 -14 2 -37q0 -57 -27.5 -89.5t-72.5 -32.5t-72.5 32.5t-27.5 89.5q0 23 2 37q7 48 23.5 92t32 73t27.5 85.5t12 130.5q-50 0 -100.5 -19l-110 -42.5t-120.5 -32.5q-14 -2 -37 -2q-57 0 -89.5 27.5t-32.5 72.5t32.5 72.5t89.5 27.5q23 0 37 -2z" />
    <glyph glyph-name="bullet" unicode="&#x2022;" horiz-adv-x="399" 
d="M80 730q0 50 35.5 85.5t84.5 35.5t84.5 -35.5t35.5 -85.5t-35 -85t-85 -35t-85 35t-35 85z" />
    <glyph glyph-name="ellipsis" unicode="&#x2026;" horiz-adv-x="1199" 
d="M880 100q0 50 35.5 85.5t84.5 35.5t84.5 -35.5t35.5 -85.5t-35 -85t-85 -35t-85 35t-35 85zM480 100q0 50 35.5 85.5t84.5 35.5t84.5 -35.5t35.5 -85.5t-35 -85t-85 -35t-85 35t-35 85zM80 100q0 50 35.5 85.5t84.5 35.5t84.5 -35.5t35.5 -85.5t-35 -85t-85 -35t-85 35
t-35 85z" />
    <glyph glyph-name="perthousand" unicode="&#x2030;" horiz-adv-x="2939" 
d="M70 1080q0 208 112 324t288 116t288 -116t112 -324q0 -103 -36 -188.5t-94.5 -139t-128.5 -83t-141 -29.5q-176 0 -288 116t-112 324zM290 1080q0 -435 180 -435t180 435t-180 435t-180 -435zM1523 1500h7l-1053 -1500h-7zM2070 420q0 208 112 324t288 116t288 -116
t112 -324q0 -103 -36 -188.5t-94.5 -139t-128.5 -83t-141 -29.5q-176 0 -288 116t-112 324zM1130 420q0 208 112 324t288 116t288 -116t112 -324q0 -103 -36 -188.5t-94.5 -139t-128.5 -83t-141 -29.5q-176 0 -288 116t-112 324zM2290 420q0 -435 180 -435t180 435t-180 435
t-180 -435zM1350 420q0 -435 180 -435t180 435t-180 435t-180 -435z" />
    <glyph glyph-name="uni2031" unicode="&#x2031;" horiz-adv-x="3899" 
d="M70 1080q0 208 112 324t288 116t288 -116t112 -324q0 -103 -36 -188.5t-94.5 -139t-128.5 -83t-141 -29.5q-176 0 -288 116t-112 324zM290 1080q0 -435 180 -435t180 435t-180 435t-180 -435zM1523 1500h7l-1053 -1500h-7zM3030 420q0 208 112 324t288 116t288 -116
t112 -324q0 -103 -36 -188.5t-94.5 -139t-128.5 -83t-141 -29.5q-176 0 -288 116t-112 324zM2070 420q0 208 112 324t288 116t288 -116t112 -324q0 -103 -36 -188.5t-94.5 -139t-128.5 -83t-141 -29.5q-176 0 -288 116t-112 324zM1130 420q0 208 112 324t288 116t288 -116
t112 -324q0 -103 -36 -188.5t-94.5 -139t-128.5 -83t-141 -29.5q-176 0 -288 116t-112 324zM3250 420q0 -435 180 -435t180 435t-180 435t-180 -435zM2290 420q0 -435 180 -435t180 435t-180 435t-180 -435zM1350 420q0 -435 180 -435t180 435t-180 435t-180 -435z" />
    <glyph glyph-name="guilsinglleft" unicode="&#x2039;" horiz-adv-x="828" 
d="M302 776l411 -483l-3 -3l-660 460v50l660 460l3 -3z" />
    <glyph glyph-name="guilsinglright" unicode="&#x203a;" horiz-adv-x="828" 
d="M526 774l-411 483l3 3l660 -460v-50l-660 -460l-3 3z" />
    <glyph glyph-name="uni203D" unicode="&#x203d;" horiz-adv-x="1199" 
d="M141 1082q0 71 35 146.5t98 141t162.5 108t215.5 42.5q227 0 358 -112.5t131 -307.5q0 -116 -71 -216.5t-183 -157t-232 -56.5q-58 -184 -58 -254h-5q0 76 -43.5 272t-52.5 280q-2 14 -2 38t5.5 48t18 48t37.5 39t58 15t58 -15t38 -39t19 -48t6 -48t-2 -38
q-10 -92 -75 -294q82 11 153 83.5t109.5 171t38.5 191.5q0 96 -41.5 182t-124 143t-187.5 57q-89 0 -171.5 -35.5t-140.5 -91.5t-96 -123.5t-47 -133.5q13 31 43 46.5t61 15.5q47 0 80.5 -30t33.5 -80q0 -55 -35 -83.5t-79 -28.5q-48 0 -80.5 32.5t-32.5 91.5zM478 100
q0 50 35.5 85.5t84.5 35.5t84.5 -35.5t35.5 -85.5t-35 -85t-85 -35t-85 35t-35 85z" />
    <glyph glyph-name="uni203E" unicode="&#x203e;" horiz-adv-x="719" 
d="M-10 1582h740v-6h-740v6z" />
    <glyph glyph-name="fraction" unicode="&#x2044;" horiz-adv-x="1072" 
d="M955 1560h6l-876 -1860h-5z" />
    <glyph glyph-name="uni2074" unicode="&#x2074;" horiz-adv-x="781" 
d="M680 922v-3h-318v3h114v253h-414l432 644h96v-640h132v-4h-132v-253h90zM69 1179h407v607z" />
    <glyph glyph-name="Euro" unicode="&#x20ac;" horiz-adv-x="1419" 
d="M59 582h206q-15 80 -15 168q0 61 8 127h-199v6h200q19 134 74 250.5t139 202.5t199 135t247 49q87 0 163.5 -30t125 -75t76.5 -94t28 -89q0 -59 -33.5 -92t-82.5 -33q-43 0 -78 29.5t-35 84.5q0 50 33 79.5t80 29.5q72 0 102 -50q-30 86 -130 158.5t-229 72.5
q-86 0 -158 -35.5t-121.5 -95t-86.5 -142t-57.5 -170.5t-28.5 -185h453v-6h-454q-5 -70 -5 -127q0 -89 10 -168h449v-6h-449q20 -163 71.5 -293t137.5 -211t192 -81q77 0 146 30t120.5 81.5t88 116t56.5 136.5h5q-20 -75 -57.5 -140.5t-91 -119t-129 -84.5t-163.5 -31
q-132 0 -256 72.5t-217.5 210t-126.5 313.5h-207v6z" />
    <glyph glyph-name="uni2116" unicode="&#x2116;" horiz-adv-x="2173" 
d="M1442 1140q0 178 92 279t245 101q154 0 246.5 -101t92.5 -279t-92.5 -279t-246.5 -101q-153 0 -245 101t-92 279zM1612 1140q0 -375 167 -375q86 0 127 98.5t41 276.5t-41 276.5t-127 98.5q-167 0 -167 -375zM38 5h198v1490h-198v5h430l745 -1196v1191h-240v5h455v-5
h-210v-1515h-6l-970 1515v-1490h241v-5h-445v5zM1540 633h480v-6h-480v6z" />
    <glyph glyph-name="partialdiff" unicode="&#x2202;" horiz-adv-x="1119" 
d="M549 1512q-87 0 -164.5 -36t-109.5 -95q33 45 87 45q46 0 80 -29t34 -77q0 -56 -34 -85t-80 -29q-48 0 -78.5 29t-30.5 81q0 89 97.5 147t218.5 57q214 0 332 -202.5t118 -567.5q0 -211 -58 -385t-170.5 -279.5t-259.5 -105.5q-221 0 -347 144.5t-126 375.5
q0 98 29.5 180t77.5 136.5t110 92t125.5 54.5t126.5 17q114 0 189.5 -73.5t98.5 -200.5l-7 194q0 43 -0.5 70t-2.5 80.5t-6.5 90.5t-13.5 89t-21.5 88t-32.5 75.5t-45 63.5t-60 39.5t-77 15.5zM260 500q0 -75 6.5 -142t24.5 -137.5t46.5 -121t76.5 -82.5t111 -32t114 38.5
t84 100.5t55 144.5t31.5 165.5t9.5 167l-2 46q-11 147 -86 236.5t-190 89.5q-130 0 -205.5 -133t-75.5 -340z" />
    <glyph glyph-name="emptyset" unicode="&#x2205;" horiz-adv-x="1140" 
d="M83 286l156 157q-127 130 -127 327q0 126 55 229.5t161 166.5t243 63q200 0 326 -128l157 156l3 -3l-156 -157q127 -129 127 -327q0 -126 -54.5 -230t-160 -167t-242.5 -63q-201 0 -328 129l-157 -156zM118 770q0 -195 125 -323l651 651q-127 125 -323 125
q-205 0 -329 -131.5t-124 -321.5zM1022 770q0 195 -124 324l-651 -651q124 -127 324 -127q137 0 241 63t157 165t53 226z" />
    <glyph glyph-name="product" unicode="&#x220f;" horiz-adv-x="1572" 
d="M86 5h181v1490h-181v5h1400v-5h-179v-1490h179v-5h-570v5h200v1490h-659v-1490h199v-5h-570v5z" />
    <glyph glyph-name="summation" unicode="&#x2211;" horiz-adv-x="1305" 
d="M86 1500h1084v-410h-5q0 81 -25 154t-71 129t-116.5 89t-155.5 33h-501l396 -652l-625 -838h709q133 0 226.5 59t137.5 158t44 228h5v-450h-1133l524 704l-494 791v5z" />
    <glyph glyph-name="minus" unicode="&#x2212;" horiz-adv-x="934" 
d="M120 553h695v-6h-695v6z" />
    <glyph glyph-name="uni2215" unicode="&#x2215;" horiz-adv-x="1072" 
d="M955 1560h6l-876 -1860h-5z" />
    <glyph glyph-name="uni2219" unicode="&#x2219;" horiz-adv-x="399" 
d="M80 730q0 50 35.5 85.5t84.5 35.5t84.5 -35.5t35.5 -85.5t-35 -85t-85 -35t-85 35t-35 85z" />
    <glyph glyph-name="radical" unicode="&#x221a;" horiz-adv-x="1130" 
d="M913 1495l-349 -1515h-25l-317 527l-108 -61l-3 4l231 130l254 -429l313 1349h221v-5h-217z" />
    <glyph glyph-name="infinity" unicode="&#x221e;" horiz-adv-x="1813" 
d="M903 560q-11 14 -45.5 62l-53 72t-54 66.5t-63.5 66t-65 50t-75 38t-78 11.5q-41 0 -74.5 -18.5t-54 -50.5t-35 -69t-21.5 -81t-10 -78.5t-3 -68.5t3 -68.5t10 -78.5t21.5 -81t35 -69t54 -50.5t74.5 -18.5q40 0 78 11.5t75 38t65 50t64 66.5l54 66t53 71.5zM449 181
q-79 0 -143.5 21.5t-107.5 57.5t-72.5 85t-42.5 102.5t-13 112.5t13 112.5t42.5 102.5t72.5 85t107.5 57.5t143.5 21.5q39 0 75.5 -9.5t65.5 -23t61.5 -39.5t54 -47t52.5 -59t48.5 -61.5l50.5 -68.5l49 -67l49 67l50.5 69l49 61.5t53 59t54 47t61.5 39.5t65.5 22.5t75.5 9.5
q79 0 143.5 -21.5t107.5 -57.5t72.5 -85t42.5 -102.5t13 -112.5t-13 -112.5t-42.5 -102.5t-72.5 -85t-107.5 -57.5t-143.5 -21.5q-33 0 -64 6t-61 21.5t-54 29.5t-53 42l-47.5 46t-47.5 55.5l-43 55.5l-45 60.5l-43 58.5l-48.5 -66.5l-49.5 -68.5t-48.5 -61.5t-53 -59
t-54.5 -47t-62 -40t-65.5 -23t-75.5 -9.5zM1344 194q41 0 74.5 18.5t54 50.5t35 69t21.5 81t10 78.5t3 68.5t-3 68.5t-10 78.5t-21.5 81t-35 69t-54 50.5t-74.5 18.5q-40 0 -78 -11.5t-75 -38t-65 -49.5t-64 -66.5l-54 -66.5t-53.5 -72l-45.5 -62l39.5 -54.5l45 -61.5
t47 -59.5t53 -60t55 -50t61.5 -43t64 -26.5t70 -11z" />
    <glyph glyph-name="integral" unicode="&#x222b;" horiz-adv-x="699" 
d="M386 -23q-4 -128 -57 -240.5t-152.5 -184.5t-224.5 -72q-111 0 -168.5 61.5t-57.5 135.5q0 59 33 91.5t81 32.5q44 0 78 -27t34 -82q0 -49 -34 -80t-74 -31q-31 0 -63 15.5t-46 45.5q14 -64 68.5 -110.5t148.5 -46.5q104 0 174.5 125t74.5 310l24 1103q3 127 58 240
t157.5 185t227.5 72q111 0 169 -61.5t58 -135.5q0 -59 -32.5 -91.5t-80.5 -32.5q-44 0 -79.5 27t-35.5 82q0 49 35 80t76 31q32 0 63.5 -15t44.5 -45q-14 65 -70 110.5t-148 45.5q-104 0 -174 -124t-75 -311z" />
    <glyph glyph-name="approxequal" unicode="&#x2248;" horiz-adv-x="1200" 
d="M798 772q-74 0 -120.5 31.5t-92.5 94.5q-44 58 -70 79q-56 43 -148 43q-113 0 -183.5 -78t-41.5 -180h-6q-19 68 8 129.5t87.5 98t135.5 36.5q39 0 71.5 -8t53 -17.5t41 -30t30 -32.5t27.5 -37q43 -61 90.5 -92t117.5 -31q105 0 169.5 75.5t38.5 182.5h6
q26 -109 -40.5 -186.5t-173.5 -77.5zM798 272q-74 0 -120.5 31.5t-92.5 94.5q-44 58 -70 79q-56 43 -148 43q-113 0 -183.5 -78t-41.5 -180h-6q-19 68 8 129.5t87.5 98t135.5 36.5q39 0 71.5 -8t53 -17.5t41 -30t30 -32.5t27.5 -37q43 -61 90.5 -92t117.5 -31
q105 0 169.5 75.5t38.5 182.5h6q26 -109 -40.5 -186.5t-173.5 -77.5z" />
    <glyph glyph-name="notequal" unicode="&#x2260;" horiz-adv-x="1119" 
d="M237 407l217 310h-334v6h338l207 295h-545v6h549l210 300l4 -3l-208 -297h325v-6h-329l-207 -295h536v-6h-539l-220 -313z" />
    <glyph glyph-name="lessequal" unicode="&#x2264;" horiz-adv-x="1119" 
d="M120 771v8l880 421v-5l-877 -420l877 -420v-5zM120 83h880v-6h-880v6z" />
    <glyph glyph-name="greaterequal" unicode="&#x2265;" horiz-adv-x="1119" 
d="M1000 779v-8l-880 -421v5l877 420l-877 420v5zM120 83h880v-6h-880v6z" />
    <glyph glyph-name="lozenge" unicode="&#x25ca;" horiz-adv-x="1200" 
d="M612 30l-412 682l412 680l388 -680zM612 39l382 673l-382 671l-406 -671z" />
    <glyph glyph-name="uni2761" unicode="&#x2761;" horiz-adv-x="1322" 
d="M686 619q-272 0 -413.5 98.5t-141.5 292.5t141.5 293t413.5 99h186v198h6v-198h296v-5h-296v-940q0 -89 -15 -169t-47.5 -150.5t-79 -121.5t-113.5 -80.5t-148 -29.5t-149.5 28.5t-111.5 74t-67 100t-24 108.5q0 105 51.5 160t126.5 55q65 0 111 -45t46 -120
q0 -60 -47.5 -99t-109.5 -39q-57 0 -105 26.5t-67 60.5q1 -53 25 -106.5t66.5 -98t109.5 -72.5t145 -28q98 0 175.5 44t125 120t72 171.5t24.5 204.5v168h-186zM715 624h157v773h-157q-78 0 -136 -108t-58 -279t58 -278.5t136 -107.5z" />
    <glyph glyph-name="uniF8E8" unicode="&#xf8e8;" horiz-adv-x="1122" 
d="M99 1130q0 192 135.5 327t326.5 135q192 0 327 -135t135 -327t-135 -327t-327 -135q-191 0 -326.5 135t-135.5 327zM103 1130q0 -124 61.5 -230t167 -167.5t229.5 -61.5t230 61.5t167.5 167.5t61.5 230t-61.5 230t-167.5 167.5t-230 61.5t-229.5 -61.5t-167 -167.5
t-61.5 -230zM338 860h79v536h-79v2h238q180 0 180 -134q0 -120 -151 -129q52 -3 83.5 -25t40.5 -53t12.5 -66t2 -64.5t6 -49t27.5 -19.5q21 0 39 9l1 -1q-21 -12 -65 -12q-46 0 -65.5 29t-20.5 70l-2 82t-22 70t-70 29h-86v-274h79v-2h-227v2zM576 1396h-90v-260h90
q51 0 79.5 34.5t28.5 93.5q0 60 -28.5 96t-79.5 36z" />
    <glyph glyph-name="uniF8E9" unicode="&#xf8e9;" horiz-adv-x="1120" 
d="M98 1130q0 192 135.5 327t326.5 135q192 0 327 -135t135 -327t-135 -327t-327 -135q-191 0 -326.5 135t-135.5 327zM101 1130q0 -124 61.5 -230t167.5 -167.5t230 -61.5t230 61.5t167.5 167.5t61.5 230t-61.5 230t-167.5 167.5t-230 61.5t-230 -61.5t-167.5 -167.5
t-61.5 -230zM744 1008v-148h-2l-40 45q-49 -52 -135 -52q-109 0 -177 78t-68 199t68 199t177 78q75 0 124 -49l44 42h2v-148h-2q-1 64 -49.5 107.5t-111.5 43.5q-45 0 -79 -24t-53 -64t-28 -86.5t-9 -98.5t9 -98.5t28 -86.5t53 -64t79 -24q73 0 120.5 44.5t47.5 106.5h2z
" />
    <glyph glyph-name="uniF8EA" unicode="&#xf8ea;" horiz-adv-x="1233" 
d="M593 976h52v536h-55v2h125l165 -447l159 447h120v-2h-50v-536h50v-2h-177v2h58v536l-192 -545h-2l-199 544v-535h56v-2h-110v2zM185 976h79v536h-72q-59 0 -82.5 -42t-23.5 -118h-2v162h429v-162h-3q0 76 -23.5 118t-82.5 42h-72v-536h79v-2h-226v2z" />
    <glyph glyph-name="uniFF10" unicode="&#xff10;" 
d="M581 -20q-144 0 -257 103.5t-173 278.5t-60 388q0 210 64 387t177 280t249 103t249 -103t177 -280t64 -387q0 -213 -60 -388t-173 -278.5t-257 -103.5zM581 1515q-81 0 -138.5 -66.5t-87.5 -181.5t-43 -241.5t-13 -275.5q0 -85 3 -157.5t10.5 -152.5t20.5 -144t35 -124
t51 -99.5t70 -63.5t92 -24q59 0 105 30.5t76 88t50.5 126.5t31 160.5t14.5 175.5t4 184q0 117 -7.5 220t-27 205.5t-50 175.5t-81 118.5t-115.5 45.5z" />
    <glyph glyph-name="uniFF11" unicode="&#xff11;" 
d="M246 5h260v1490h-226v5h416v-1495h220v-5h-670v5z" />
    <glyph glyph-name="uniFF12" unicode="&#xff12;" 
d="M1059 0h-949v130l481 427q119 106 173 247.5t54 295.5q0 162 -86.5 280t-213.5 118q-182 0 -289 -114t-87 -308q9 38 44 63t78 25q47 0 84 -31t37 -81q0 -59 -35.5 -93.5t-89.5 -34.5q-51 0 -83 36.5t-40 94.5q-29 216 93 340.5t350 124.5q103 0 187 -31.5t138 -84.5
t83.5 -121t29.5 -144q0 -57 -16.5 -112.5t-39 -97t-60.5 -87t-66 -72.5l-70 -65l-590 -525h878v150h5v-330z" />
    <glyph glyph-name="uniFF13" unicode="&#xff13;" 
d="M1022 400q0 -191 -142 -305.5t-358 -114.5q-200 0 -306 84.5t-106 203.5q0 60 33 94t87 34q47 0 77 -29.5t30 -81.5q0 -46 -33.5 -75.5t-79.5 -29.5q-36 0 -66.5 17.5t-40.5 45.5q10 -106 106 -177t259 -71q86 0 152.5 32.5t106 89t59.5 128t20 155.5q0 60 -8 111.5
t-33.5 108t-67 96.5t-115 66t-170.5 26v6q66 0 118.5 11.5t87 29.5t59.5 48.5t38 59t20.5 70t9 73t1.5 76.5q0 150 -65.5 237.5t-182.5 87.5q-122 0 -220.5 -68.5t-114.5 -163.5q12 29 43 46t65 17q47 0 80 -28t33 -78q0 -55 -34.5 -83t-78.5 -28q-49 0 -82.5 32.5
t-33.5 91.5q0 109 110.5 191t262.5 82q114 0 208 -37t153 -115t59 -184q0 -63 -10 -111t-40 -97t-81 -81.5t-137.5 -55t-204.5 -26.5q125 -5 220 -29t153.5 -61t95 -90t50.5 -108.5t14 -122.5z" />
    <glyph glyph-name="uniFF14" unicode="&#xff14;" 
d="M1086 5v-5h-530v5h190v422h-690l720 1073h160v-1067h220v-6h-220v-422h150zM66 433h680v1012z" />
    <glyph glyph-name="uniFF15" unicode="&#xff15;" 
d="M950 1320h-731v-560q33 66 132 122.5t233 56.5q198 0 316.5 -128t118.5 -351q0 -130 -63 -239t-180 -175t-264 -66q-151 0 -261 84t-110 194q0 59 32.5 91.5t80.5 32.5q44 0 79 -28.5t35 -83.5q0 -50 -33.5 -80t-80.5 -30q-30 0 -59 16t-42 42q21 -96 123.5 -164.5
t235.5 -68.5q74 0 129.5 29.5t87 74.5t50.5 111t25 126.5t6 133.5q0 202 -83 329t-216 127q-99 0 -180 -52t-109 -110h-8v746h731v109h5v-289z" />
    <glyph glyph-name="uniFF16" unicode="&#xff16;" 
d="M1080 500q0 -231 -125.5 -375.5t-346.5 -144.5q-230 0 -359 164.5t-129 475.5q0 179 64.5 345t173 287.5t258.5 194.5t314 73v-5q-168 0 -308 -117t-219.5 -311t-82.5 -420q8 71 28.5 126t57 98t96.5 66t140 23q79 0 154 -28t140 -83.5t104.5 -151t39.5 -217.5zM880 500
q0 206 -75.5 335.5t-206.5 129.5q-75 0 -130 -31.5t-86.5 -87.5t-46.5 -126t-15 -156v-4q0 -106 16 -203.5t49 -183.5t92 -137t137 -51q53 0 95.5 22t70.5 61.5t48.5 88t31.5 109t15.5 117t4.5 117.5z" />
    <glyph glyph-name="uniFF17" unicode="&#xff17;" 
d="M412 152q0 71 38.5 159t119.5 226t112 199q123 236 282 574h-803v-150h-5v340h910l-376 -768q-27 -54 -61 -115.5l-48 -88t-25 -60t-11 -64.5q0 -49 20 -90.5t43.5 -66t43.5 -59.5t20 -72q0 -59 -32.5 -97.5t-95.5 -38.5q-61 0 -96.5 43t-35.5 129z" />
    <glyph glyph-name="uniFF18" unicode="&#xff18;" 
d="M110 380q0 176 106 278.5t318 112.5q-187 10 -285.5 101t-98.5 248q0 83 28 155.5t81 127t135.5 86t185.5 31.5t185.5 -31.5t135.5 -86t81 -127t28 -155.5q0 -157 -98.5 -248t-285.5 -101q212 -10 318 -112.5t106 -278.5q0 -186 -118 -293t-352 -107t-352 107t-118 293z
M350 1120q0 -67 11.5 -125.5t36.5 -109.5t71.5 -80.5t110.5 -29.5t110.5 29.5t71.5 80.5t36.5 109.5t11.5 125.5q0 54 -6.5 106t-23.5 105.5t-42 93.5t-66 65t-92 25t-92 -25t-66 -65t-42 -93.5t-23.5 -105.5t-6.5 -106zM310 380q0 -74 15 -141.5t45.5 -126t84.5 -93
t125 -34.5t125 34.5t84.5 93t45.5 126t15 141.5t-15 140.5t-45.5 123t-84.5 90t-125 33.5t-125 -33.5t-84.5 -90t-45.5 -123t-15 -140.5z" />
    <glyph glyph-name="uniFF19" unicode="&#xff19;" 
d="M1040 880q0 -179 -64.5 -345t-173 -287.5t-258.5 -194.5t-314 -73v5q168 0 308 117t219.5 311t82.5 420q-8 -71 -28.5 -126t-57 -98t-96.5 -66t-140 -23q-79 0 -154 28t-140 83.5t-104.5 151t-39.5 217.5q0 231 125.5 375.5t346.5 144.5q230 0 359 -164.5t129 -475.5z
M280 1000q0 -206 75.5 -335.5t206.5 -129.5q75 0 130 31.5t86.5 87.5t46.5 126t15 156v4q0 106 -16 203.5t-49 183.5t-92 137t-137 51q-53 0 -95.5 -22t-70.5 -61.5t-48.5 -88t-31.5 -109t-15.5 -117t-4.5 -117.5z" />
    <glyph glyph-name="zero.oldtab" 
d="M105 460q0 97 32.5 184.5t90.5 153t145 104t190 38.5t190 -38.5t145 -104t90.5 -153t32.5 -184.5t-32.5 -184.5t-90.5 -153t-145 -104t-190 -38.5t-190 38.5t-145 104t-90.5 153t-32.5 184.5zM315 460q0 -53 3.5 -101t12 -105t26.5 -102.5t44.5 -84.5t68 -60.5
t93.5 -21.5t93.5 21.5t68 60.5t44.5 84.5t27 102.5t12.5 105t3.5 101t-3.5 101t-12.5 105t-27 102.5t-44.5 84.5t-68 60.5t-93.5 21.5t-93.5 -21.5t-68 -60.5t-44.5 -84.5t-26.5 -102.5t-12 -105t-3.5 -101z" />
    <glyph glyph-name="one.oldtab" 
d="M245 5h259v910h-225v5h416v-915h220v-5h-670v5z" />
    <glyph glyph-name="two.oldtab" 
d="M974 0h-779v130l312 207q68 45 111 86.5t62.5 82.5t26 74.5t6.5 79.5q0 112 -61 184.5t-147 72.5q-98 0 -181 -70t-94 -160q14 24 49 40.5t74 16.5q47 0 82 -31t35 -81q0 -58 -35 -88t-90 -30t-89 37.5t-34 112.5q0 105 99.5 190.5t243.5 85.5q163 0 255.5 -66t92.5 -173
q0 -36 -19.5 -72.5t-46.5 -65t-70.5 -61t-77.5 -53.5l-82 -49.5t-69 -42.5l-270 -177h691v150h5v-330z" />
    <glyph glyph-name="three.oldtab" 
d="M1022 -122q0 -181 -142 -289.5t-358 -108.5q-103 0 -183.5 23t-129.5 62t-74 87t-25 101q0 57 33 89t87 32q47 0 77 -27.5t30 -77.5q0 -44 -33.5 -71.5t-79.5 -27.5q-36 0 -66.5 16.5t-40.5 42.5q10 -100 106 -167.5t259 -67.5q86 0 152.5 30.5t106 84.5t59.5 122t20 147
q0 387 -394 387v5q66 0 118.5 11t87 28.5t59.5 46t38 55.5t20.5 66.5t9 69.5t1.5 73q0 141 -65.5 224t-182.5 83q-122 0 -220.5 -64.5t-114.5 -154.5q12 28 43 43.5t65 15.5q47 0 80 -26.5t33 -73.5q0 -52 -34.5 -78.5t-78.5 -26.5q-49 0 -82.5 31t-33.5 86
q0 104 110.5 181.5t262.5 77.5q114 0 208 -35t153 -108.5t59 -174.5q0 -60 -10 -105.5t-40 -92t-81 -77.5t-137.5 -52t-204.5 -25q125 -5 220 -28t153.5 -58t95 -85t50.5 -102.5t14 -116.5z" />
    <glyph glyph-name="four.oldtab" 
d="M890 -500h-190v500h-611l641 920h160v-915h220v-5h-220v-500zM100 5h600v860z" />
    <glyph glyph-name="five.oldtab" 
d="M950 749h-731v-532q33 62 132 116t233 54q198 0 316.5 -122t118.5 -334q0 -123 -63 -227t-180 -166.5t-264 -62.5q-151 0 -261 79.5t-110 184.5q0 56 32.5 87t80.5 31q44 0 79 -27t35 -79q0 -48 -33.5 -76.5t-80.5 -28.5q-30 0 -58.5 15t-42.5 40q21 -91 123.5 -156
t235.5 -65q74 0 129.5 28t87 70.5t50.5 105.5t25 120.5t6 126.5q0 192 -83 313t-216 121q-99 0 -180 -49.5t-109 -104.5h-8v709h731v104h5v-275z" />
    <glyph glyph-name="seven.oldtab" 
d="M412 -357q0 52 28.5 123t63.5 130l91 150.5t87 149.5q122 223 282 544h-803v-142h-5v322h910l-376 -727q-27 -51 -61 -109.5l-48 -84t-25 -57t-11 -61.5q0 -46 20 -85.5t43.5 -62.5t43.5 -56t20 -68q0 -56 -32.5 -92.5t-95.5 -36.5q-61 0 -96.5 41t-35.5 122z" />
    <glyph glyph-name="nine.oldtab" 
d="M1040 333q0 -170 -64.5 -327t-173 -272.5t-258.5 -184.5t-314 -69v5q126 0 239 65t193 174.5t128 257t50 307.5q-16 -140 -91 -218.5t-231 -78.5q-63 0 -123.5 16t-118 52t-100.5 87.5t-69.5 129t-26.5 170.5q0 219 125.5 356t346.5 137q230 0 359 -156.5t129 -450.5z
M280 447q0 -195 75.5 -317.5t206.5 -122.5q60 0 107.5 20t79 54t52.5 83t30 104t9 120v2q0 101 -16 193.5t-49 173.5t-92 129.5t-137 48.5q-63 0 -111 -30.5t-77 -78.5t-47 -114.5t-24.5 -130t-6.5 -134.5z" />
    <glyph glyph-name="zero.oldstyle" horiz-adv-x="1105" 
d="M95 460q0 97 32.5 184.5t90.5 153t145 104t190 38.5t190 -38.5t145 -104t90.5 -153t32.5 -184.5t-32.5 -184.5t-90.5 -153t-145 -104t-190 -38.5t-190 38.5t-145 104t-90.5 153t-32.5 184.5zM305 460q0 -53 3.5 -101t12 -105t26.5 -102.5t44.5 -84.5t68 -60.5t93.5 -21.5
t93.5 21.5t68 60.5t44.5 84.5t27 102.5t12.5 105t3.5 101t-3.5 101t-12.5 105t-27 102.5t-44.5 84.5t-68 60.5t-93.5 21.5t-93.5 -21.5t-68 -60.5t-44.5 -84.5t-26.5 -102.5t-12 -105t-3.5 -101z" />
    <glyph glyph-name="one.oldstyle" horiz-adv-x="869" 
d="M100 5h259v910h-225v5h416v-915h220v-5h-670v5z" />
    <glyph glyph-name="two.oldstyle" horiz-adv-x="929" 
d="M859 0h-779v130l312 207q68 45 111 86.5t62.5 82.5t26 74.5t6.5 79.5q0 112 -61 184.5t-147 72.5q-98 0 -181 -70t-94 -160q14 24 49 40.5t74 16.5q47 0 82 -31t35 -81q0 -58 -35 -88t-90 -30t-89 37.5t-34 112.5q0 105 99.5 190.5t243.5 85.5q163 0 255.5 -66t92.5 -173
q0 -36 -19.5 -72.5t-46.5 -65t-70.5 -61t-77.5 -53.5l-82 -49.5t-69 -42.5l-270 -177h691v150h5v-330z" />
    <glyph glyph-name="three.oldstyle" horiz-adv-x="1041" 
d="M962 -122q0 -181 -142 -289.5t-358 -108.5q-103 0 -183.5 23t-129.5 62t-74 87t-25 101q0 57 33 89t87 32q47 0 77 -27.5t30 -77.5q0 -44 -33.5 -71.5t-79.5 -27.5q-36 0 -66.5 16.5t-40.5 42.5q10 -100 106 -167.5t259 -67.5q86 0 152.5 30.5t106 84.5t59.5 122t20 147
q0 387 -394 387v5q66 0 118.5 11t87 28.5t59.5 46t38 55.5t20.5 66.5t9 69.5t1.5 73q0 141 -65.5 224t-182.5 83q-122 0 -220.5 -64.5t-114.5 -154.5q12 28 43 43.5t65 15.5q47 0 80 -26.5t33 -73.5q0 -52 -34.5 -78.5t-78.5 -26.5q-49 0 -82.5 31t-33.5 86
q0 104 110.5 181.5t262.5 77.5q114 0 208 -35t153 -108.5t59 -174.5q0 -60 -10 -105.5t-40 -92t-81 -77.5t-137.5 -52t-204.5 -25q125 -5 220 -28t153.5 -58t95 -85t50.5 -102.5t14 -116.5z" />
    <glyph glyph-name="four.oldstyle" horiz-adv-x="1099" 
d="M860 -500h-190v500h-611l641 920h160v-915h220v-5h-220v-500zM70 5h600v860z" />
    <glyph glyph-name="five.oldstyle" horiz-adv-x="1000" 
d="M870 749h-731v-532q33 62 132 116t233 54q198 0 316.5 -122t118.5 -334q0 -123 -63 -227t-180 -166.5t-264 -62.5q-151 0 -261 79.5t-110 184.5q0 56 32.5 87t80.5 31q44 0 79 -27t35 -79q0 -48 -33.5 -76.5t-80.5 -28.5q-30 0 -58.5 15t-42.5 40q21 -91 123.5 -156
t235.5 -65q74 0 129.5 28t87 70.5t50.5 105.5t25 120.5t6 126.5q0 192 -83 313t-216 121q-99 0 -180 -49.5t-109 -104.5h-8v709h731v104h5v-275z" />
    <glyph glyph-name="seven.oldstyle" horiz-adv-x="1009" 
d="M336 -357q0 52 28.5 123t63.5 130l91 150.5t87 149.5q122 223 282 544h-803v-142h-5v322h910l-376 -727q-27 -51 -61 -109.5l-48 -84t-25 -57t-11 -61.5q0 -46 20 -85.5t43.5 -62.5t43.5 -56t20 -68q0 -56 -32.5 -92.5t-95.5 -36.5q-61 0 -96.5 41t-35.5 122z" />
    <glyph glyph-name="nine.oldstyle" horiz-adv-x="1119" 
d="M1020 333q0 -170 -64.5 -327t-173 -272.5t-258.5 -184.5t-314 -69v5q126 0 239 65t193 174.5t128 257t50 307.5q-16 -140 -91 -218.5t-231 -78.5q-63 0 -123.5 16t-118 52t-100.5 87.5t-69.5 129t-26.5 170.5q0 219 125.5 356t346.5 137q230 0 359 -156.5t129 -450.5z
M260 447q0 -195 75.5 -317.5t206.5 -122.5q60 0 107.5 20t79 54t52.5 83t30 104t9 120v2q0 101 -16 193.5t-49 173.5t-92 129.5t-137 48.5q-63 0 -111 -30.5t-77 -78.5t-47 -114.5t-24.5 -130t-6.5 -134.5z" />
    <glyph glyph-name="a.smcp" 
d="M0 5h100l470 1034h36l457 -1034h97v-5h-500v5h182l-144 336h-439l-152 -336h214v-5h-321v5zM485 838l-223 -492h434z" />
    <glyph glyph-name="agrave.smcp" 
d="M397 1327q-25 11 -33.5 42t6.5 56q16 28 49 34.5t63 -23.5l191 -230l-3 -3zM0 5h100l470 1034h36l457 -1034h97v-5h-500v5h182l-144 336h-439l-152 -336h214v-5h-321v5zM485 838l-223 -492h434z" />
    <glyph glyph-name="aacute.smcp" 
d="M801 1327l-274 -124l-3 3l192 230q30 30 63 23.5t49 -34.5q14 -25 6 -56t-33 -42zM0 5h100l470 1034h36l457 -1034h97v-5h-500v5h182l-144 336h-439l-152 -336h214v-5h-321v5zM485 838l-223 -492h434z" />
    <glyph glyph-name="acircumflex.smcp" 
d="M599 1359l-282 -135l-2 5l220 220h130l220 -220l-3 -5zM0 5h100l470 1034h36l457 -1034h97v-5h-500v5h182l-144 336h-439l-152 -336h214v-5h-321v5zM485 838l-223 -492h434z" />
    <glyph glyph-name="atilde.smcp" 
d="M402 1348q-58 0 -100 -33t-42 -105h-5q0 120 59 187t139 67q39 0 79 -16.5t74 -39.5l66 -46t66.5 -39.5t65.5 -16.5q69 0 105 32t36 106h6q0 -138 -43.5 -196t-135.5 -58q-45 0 -97 24.5t-91.5 54.5t-89.5 54.5t-92 24.5zM0 5h100l470 1034h36l457 -1034h97v-5h-500v5
h182l-144 336h-439l-152 -336h214v-5h-321v5zM485 838l-223 -492h434z" />
    <glyph glyph-name="adieresis.smcp" 
d="M662 1296q0 40 28 68.5t68 28.5t68 -28.5t28 -68.5t-28 -68t-68 -28t-68 28t-28 68zM342 1296q0 40 28 68.5t68 28.5t68 -28.5t28 -68.5t-28 -68t-68 -28t-68 28t-28 68zM0 5h100l470 1034h36l457 -1034h97v-5h-500v5h182l-144 336h-439l-152 -336h214v-5h-321v5z
M485 838l-223 -492h434z" />
    <glyph glyph-name="aring.smcp" 
d="M418 1367q0 77 52 128.5t128 51.5t128 -51.5t52 -128.5t-52 -128.5t-128 -51.5t-128 51.5t-52 128.5zM488 1367q0 -175 110 -175t110 175q0 174 -110 174t-110 -174zM0 5h100l470 1034h36l457 -1034h97v-5h-500v5h182l-144 336h-439l-152 -336h214v-5h-321v5zM485 838
l-223 -492h434z" />
    <glyph glyph-name="abreve.smcp" 
d="M423 1448q0 -70 64 -109t151 -39t151 39t64 109h5q0 -50 -9.5 -92.5t-32.5 -81.5t-68.5 -61.5t-109.5 -22.5t-109.5 22.5t-68.5 61.5t-32.5 81.5t-9.5 92.5h5zM0 5h100l470 1034h36l457 -1034h97v-5h-500v5h182l-144 336h-439l-152 -336h214v-5h-321v5zM485 838
l-223 -492h434z" />
    <glyph glyph-name="aogonek.smcp" 
d="M0 5h100l470 1034h36l457 -1034h97v-5h-209q-56 -70 -56 -217q0 -71 31.5 -118t81.5 -47q49 0 79 27.5t65 84.5l3 -3q-14 -27 -29.5 -47.5t-42.5 -45.5t-67.5 -39t-90.5 -14q-54 0 -101.5 17t-81 57.5t-33.5 97.5q0 154 183 247h-232v5h182l-144 336h-439l-152 -336h214
v-5h-321v5zM485 838l-223 -492h434z" />
    <glyph glyph-name="b.smcp" horiz-adv-x="1146" 
d="M646 0h-561v5h161v1010h-161v5h490q420 0 420 -230q0 -110 -82.5 -169.5t-257.5 -69.5q188 -2 294.5 -62.5t106.5 -188.5q0 -151 -100 -225.5t-310 -74.5zM575 1015h-139v-462h139q95 0 158 64t63 172q0 118 -60.5 172t-160.5 54zM626 547h-190v-542h190q96 0 152.5 85.5
t56.5 209.5q0 118 -55 182.5t-154 64.5z" />
    <glyph glyph-name="c.smcp" horiz-adv-x="1138" 
d="M1013 330v-330h-5l-100 122q-59 -64 -135.5 -103t-153.5 -39q-74 0 -145 16.5t-139.5 56.5t-120 99t-83 151.5t-31.5 206.5t32.5 206.5t84.5 151.5t120 99t136 56.5t136 16.5q157 0 280 -130l109 110h5v-330h-5q-10 74 -61 151.5t-132.5 132.5t-165.5 55
q-141 0 -225.5 -142t-84.5 -377q0 -233 89 -373t231 -140q117 0 230 105t129 228h5z" />
    <glyph glyph-name="ccedilla.smcp" horiz-adv-x="1138" 
d="M654 -369q0 38 -16 63t-48.5 37t-69 16.5t-90.5 4.5l169 228q-73 3 -141 21t-134 59t-115 99.5t-79 149t-30 201.5q0 114 32.5 206.5t84.5 151.5t120 99t136 56.5t136 16.5q157 0 280 -130l109 110h5v-330h-5q-10 74 -61 151.5t-132.5 132.5t-165.5 55
q-141 0 -225.5 -142t-84.5 -377q0 -233 89 -373t231 -140q117 0 230 105t129 228h5v-330h-5l-100 122q-59 -64 -135.5 -103t-153.5 -39h-12l-109 -148q78 -3 142 -19t110 -53t46 -90q0 -164 -338 -164v5q87 0 141.5 34t54.5 86z" />
    <glyph glyph-name="cacute.smcp" horiz-adv-x="1138" 
d="M831 1337l-274 -124l-2 3l191 230q30 30 63 23.5t49 -34.5q15 -25 6.5 -56t-33.5 -42zM1013 330v-330h-5l-100 122q-59 -64 -135.5 -103t-153.5 -39q-74 0 -145 16.5t-139.5 56.5t-120 99t-83 151.5t-31.5 206.5t32.5 206.5t84.5 151.5t120 99t136 56.5t136 16.5
q157 0 280 -130l109 110h5v-330h-5q-10 74 -61 151.5t-132.5 132.5t-165.5 55q-141 0 -225.5 -142t-84.5 -377q0 -233 89 -373t231 -140q117 0 230 105t129 228h5z" />
    <glyph glyph-name="ccaron.smcp" horiz-adv-x="1138" 
d="M629 1310l281 133l5 -3l-220 -220h-130l-220 220l5 3zM1013 330v-330h-5l-100 122q-59 -64 -135.5 -103t-153.5 -39q-74 0 -145 16.5t-139.5 56.5t-120 99t-83 151.5t-31.5 206.5t32.5 206.5t84.5 151.5t120 99t136 56.5t136 16.5q157 0 280 -130l109 110h5v-330h-5
q-10 74 -61 151.5t-132.5 132.5t-165.5 55q-141 0 -225.5 -142t-84.5 -377q0 -233 89 -373t231 -140q117 0 230 105t129 228h5z" />
    <glyph glyph-name="d.smcp" horiz-adv-x="1235" 
d="M595 0h-510v5h161v1010h-161v5h510q245 0 387.5 -129t142.5 -381q0 -129 -43.5 -229t-118.5 -160t-168.5 -90.5t-199.5 -30.5zM595 1015h-159v-1010h159q150 0 225.5 137.5t75.5 367.5q0 146 -31 257t-100 179.5t-170 68.5z" />
    <glyph glyph-name="dcaron.smcp" horiz-adv-x="1235" 
d="M610 1310l282 133l4 -3l-220 -220h-130l-220 220l5 3zM595 0h-510v5h161v1010h-161v5h510q245 0 387.5 -129t142.5 -381q0 -129 -43.5 -229t-118.5 -160t-168.5 -90.5t-199.5 -30.5zM595 1015h-159v-1010h159q150 0 225.5 137.5t75.5 367.5q0 146 -31 257t-100 179.5
t-170 68.5z" />
    <glyph glyph-name="e.smcp" horiz-adv-x="1078" 
d="M684 377q0 72 -69 118.5t-140 46.5h-69v-537h229q68 0 125 18.5t103.5 58t73 108t26.5 160.5h5v-350h-883v5h131v1010h-131v5h874v-310h-5q0 77 -26 137.5t-68.5 96t-92 53.5t-101.5 18h-260v-467h69q44 0 91 17t82.5 54.5t35.5 86.5h5v-329h-5z" />
    <glyph glyph-name="egrave.smcp" horiz-adv-x="1078" 
d="M372 1337q-25 11 -33.5 42t6.5 56q16 28 49 34.5t63 -23.5l191 -230l-2 -3zM684 377q0 72 -69 118.5t-140 46.5h-69v-537h229q68 0 125 18.5t103.5 58t73 108t26.5 160.5h5v-350h-883v5h131v1010h-131v5h874v-310h-5q0 77 -26 137.5t-68.5 96t-92 53.5t-101.5 18h-260
v-467h69q44 0 91 17t82.5 54.5t35.5 86.5h5v-329h-5z" />
    <glyph glyph-name="eacute.smcp" horiz-adv-x="1078" 
d="M776 1337l-274 -124l-2 3l191 230q30 30 63 23.5t49 -34.5q15 -25 6.5 -56t-33.5 -42zM684 377q0 72 -69 118.5t-140 46.5h-69v-537h229q68 0 125 18.5t103.5 58t73 108t26.5 160.5h5v-350h-883v5h131v1010h-131v5h874v-310h-5q0 77 -26 137.5t-68.5 96t-92 53.5
t-101.5 18h-260v-467h69q44 0 91 17t82.5 54.5t35.5 86.5h5v-329h-5z" />
    <glyph glyph-name="ecircumflex.smcp" horiz-adv-x="1078" 
d="M623 1369l-281 -135l-3 5l220 220h130l220 -220l-3 -5zM684 377q0 72 -69 118.5t-140 46.5h-69v-537h229q68 0 125 18.5t103.5 58t73 108t26.5 160.5h5v-350h-883v5h131v1010h-131v5h874v-310h-5q0 77 -26 137.5t-68.5 96t-92 53.5t-101.5 18h-260v-467h69q44 0 91 17
t82.5 54.5t35.5 86.5h5v-329h-5z" />
    <glyph glyph-name="edieresis.smcp" horiz-adv-x="1078" 
d="M686 1306q0 40 28 68.5t68 28.5t68 -28.5t28 -68.5t-28 -68t-68 -28t-68 28t-28 68zM366 1306q0 40 28 68.5t68 28.5t68 -28.5t28 -68.5t-28 -68t-68 -28t-68 28t-28 68zM684 377q0 72 -69 118.5t-140 46.5h-69v-537h229q68 0 125 18.5t103.5 58t73 108t26.5 160.5h5
v-350h-883v5h131v1010h-131v5h874v-310h-5q0 77 -26 137.5t-68.5 96t-92 53.5t-101.5 18h-260v-467h69q44 0 91 17t82.5 54.5t35.5 86.5h5v-329h-5z" />
    <glyph glyph-name="eogonek.smcp" horiz-adv-x="1078" 
d="M684 377q0 72 -69 118.5t-140 46.5h-69v-537h229q68 0 125 18.5t103.5 58t73 108t26.5 160.5h5v-350h-114q-56 -72 -56 -217q0 -71 32 -118t82 -47q48 0 78 27.5t65 84.5l3 -3q-14 -27 -29.5 -47.5t-42.5 -45.5t-67.5 -39t-90.5 -14q-54 0 -101.5 17t-81 57.5t-33.5 97.5
q0 153 183 247h-710v5h131v1010h-131v5h874v-310h-5q0 77 -26 137.5t-68.5 96t-92 53.5t-101.5 18h-260v-467h69q44 0 91 17t82.5 54.5t35.5 86.5h5v-329h-5z" />
    <glyph glyph-name="ecaron.smcp" horiz-adv-x="1078" 
d="M623 1310l281 133l5 -3l-220 -220h-130l-220 220l5 3zM684 377q0 72 -69 118.5t-140 46.5h-69v-537h229q68 0 125 18.5t103.5 58t73 108t26.5 160.5h5v-350h-883v5h131v1010h-131v5h874v-310h-5q0 77 -26 137.5t-68.5 96t-92 53.5t-101.5 18h-260v-467h69q44 0 91 17
t82.5 54.5t35.5 86.5h5v-329h-5z" />
    <glyph glyph-name="f.smcp" horiz-adv-x="998" 
d="M85 5h131v1009h-131v6h853v-310h-5q0 134 -90.5 219t-217.5 85h-219v-505h80q93 0 155.5 41.5t62.5 104.5h5v-309h-5q0 64 -63 110.5t-155 46.5h-80v-498h149v-5h-470v5z" />
    <glyph glyph-name="g.smcp" horiz-adv-x="1215" 
d="M649 433h501v-6h-101v-167q-26 -53 -59.5 -98t-83.5 -88.5t-121 -68.5t-155 -25q-74 0 -145 16.5t-140 56.5t-120.5 99t-83 151.5t-31.5 206.5t32.5 206.5t84.5 151.5t120 99t136 56.5t136 16.5q142 0 261 -110l128 90h5v-330h-5q-8 54 -40 114t-79.5 109.5t-111.5 82
t-128 32.5q-141 0 -225.5 -141.5t-84.5 -376.5q0 -231 87 -378t214 -147q39 0 72 15t52.5 34t36.5 50.5t23.5 49.5t15.5 46v247h-191v6z" />
    <glyph glyph-name="gbreve.smcp" horiz-adv-x="1215" 
d="M404 1458q0 -70 64 -109t151 -39t151 39t64 109h5q0 -50 -9.5 -92.5t-32.5 -81.5t-68.5 -61.5t-109.5 -22.5t-109.5 22.5t-68.5 61.5t-32.5 81.5t-9.5 92.5h5zM649 433h501v-6h-101v-167q-26 -53 -59.5 -98t-83.5 -88.5t-121 -68.5t-155 -25q-74 0 -145 16.5t-140 56.5
t-120.5 99t-83 151.5t-31.5 206.5t32.5 206.5t84.5 151.5t120 99t136 56.5t136 16.5q142 0 261 -110l128 90h5v-330h-5q-8 54 -40 114t-79.5 109.5t-111.5 82t-128 32.5q-141 0 -225.5 -141.5t-84.5 -376.5q0 -231 87 -378t214 -147q39 0 72 15t52.5 34t36.5 50.5t23.5 49.5
t15.5 46v247h-191v6z" />
    <glyph glyph-name="h.smcp" horiz-adv-x="1330" 
d="M85 5h131v1010h-131v5h470v-5h-149v-482h519v482h-150v5h470v-5h-129v-1010h129v-5h-470v5h150v522h-519v-522h149v-5h-470v5z" />
    <glyph glyph-name="i.smcp" horiz-adv-x="720" 
d="M85 5h171v1010h-171v5h550v-5h-190v-1010h190v-5h-550v5z" />
    <glyph glyph-name="igrave.smcp" horiz-adv-x="720" 
d="M153 1337q-25 11 -33.5 42t6.5 56q16 28 49 34.5t63 -23.5l191 -230l-2 -3zM85 5h171v1010h-171v5h550v-5h-190v-1010h190v-5h-550v5z" />
    <glyph glyph-name="iacute.smcp" horiz-adv-x="720" 
d="M557 1337l-274 -124l-2 3l191 230q30 30 63 23.5t49 -34.5q15 -25 6.5 -56t-33.5 -42zM85 5h171v1010h-171v5h550v-5h-190v-1010h190v-5h-550v5z" />
    <glyph glyph-name="icircumflex.smcp" horiz-adv-x="720" 
d="M355 1369l-281 -135l-3 5l220 220h130l220 -220l-3 -5zM85 5h171v1010h-171v5h550v-5h-190v-1010h190v-5h-550v5z" />
    <glyph glyph-name="idieresis.smcp" horiz-adv-x="720" 
d="M418 1306q0 40 28 68.5t68 28.5t68 -28.5t28 -68.5t-28 -68t-68 -28t-68 28t-28 68zM98 1306q0 40 28 68.5t68 28.5t68 -28.5t28 -68.5t-28 -68t-68 -28t-68 28t-28 68zM85 5h171v1010h-171v5h550v-5h-190v-1010h190v-5h-550v5z" />
    <glyph glyph-name="j.smcp" horiz-adv-x="857" 
d="M212 1020h580v-5h-150v-704q-18 -47 -36.5 -85.5t-51.5 -86.5t-70.5 -81t-92.5 -55.5t-119 -22.5q-122 0 -197 67t-75 173q0 69 43.5 114.5t104.5 45.5q58 0 98 -32t40 -96q0 -51 -43.5 -88t-96.5 -37q-46 0 -86.5 23.5t-53.5 52.5q7 -98 79.5 -158t186.5 -60q39 0 69 18
t49.5 54.5t32 79.5t19 106t8.5 121t2 136v515h-240v5z" />
    <glyph glyph-name="k.smcp" horiz-adv-x="1205" 
d="M85 5h131v1010h-131v5h470v-5h-149v-583l550 583h-191v5h381v-5h-183l-292 -310l425 -700h89v-5h-500v5h171l-319 559l-131 -140v-419h149v-5h-470v5z" />
    <glyph glyph-name="l.smcp" horiz-adv-x="989" 
d="M969 0h-884v5h131v1010h-131v5h451v-5h-130v-1010h160q114 0 194 26t123.5 74.5t62 108t18.5 136.5h5v-350z" />
    <glyph glyph-name="lacute.smcp" horiz-adv-x="989" 
d="M515 1337l-274 -124l-2 3l191 230q30 30 63 23.5t49 -34.5q15 -25 6.5 -56t-33.5 -42zM969 0h-884v5h131v1010h-131v5h451v-5h-130v-1010h160q114 0 194 26t123.5 74.5t62 108t18.5 136.5h5v-350z" />
    <glyph glyph-name="lcaron.smcp" horiz-adv-x="999" 
d="M688 1008q0 50 38.5 84t95.5 34q61 0 100.5 -53t39.5 -145q0 -122 -75.5 -217t-202.5 -95v5q95 0 164.5 60t94 149.5t2.5 178.5q1 -44 -37 -81.5t-94 -37.5q-62 0 -94 33t-32 85zM969 0h-884v5h131v1010h-131v5h451v-5h-130v-1010h160q114 0 194 26t123.5 74.5t62 108
t18.5 136.5h5v-350z" />
    <glyph glyph-name="m.smcp" horiz-adv-x="1484" 
d="M95 5h90v1010h-100v5h295l386 -875l350 875h283v-5h-90v-1010h90v-5h-390v5h110v1012l-414 -1037h-61l-454 1032v-1007h90v-5h-185v5z" />
    <glyph glyph-name="n.smcp" horiz-adv-x="1222" 
d="M85 5h161v1010h-161v5h392l506 -706v701h-171v5h340v-5h-163v-1035h-33l-705 1034v-1009h202v-5h-368v5z" />
    <glyph glyph-name="ntilde.smcp" horiz-adv-x="1222" 
d="M508 1358q-58 0 -100 -33t-42 -105h-5q0 120 59 187t139 67q47 0 98.5 -24.5t88.5 -54.5t82 -54.5t82 -24.5q69 0 105.5 32t36.5 106h5q0 -138 -43 -196t-135 -58q-37 0 -77.5 16.5t-76 39.5l-71 46t-74 39.5t-72.5 16.5zM85 5h161v1010h-161v5h392l506 -706v701h-171v5
h340v-5h-163v-1035h-33l-705 1034v-1009h202v-5h-368v5z" />
    <glyph glyph-name="nacute.smcp" horiz-adv-x="1222" 
d="M885 1337l-273 -124l-3 3l191 230q30 30 63 23.5t49 -34.5q15 -25 6.5 -56t-33.5 -42zM85 5h161v1010h-161v5h392l506 -706v701h-171v5h340v-5h-163v-1035h-33l-705 1034v-1009h202v-5h-368v5z" />
    <glyph glyph-name="ncaron.smcp" horiz-adv-x="1222" 
d="M705 1310l281 133l5 -3l-220 -220h-130l-220 220l5 3zM85 5h161v1010h-161v5h392l506 -706v701h-171v5h340v-5h-163v-1035h-33l-705 1034v-1009h202v-5h-368v5z" />
    <glyph glyph-name="o.smcp" horiz-adv-x="1239" 
d="M619 -20q-234 0 -386.5 145t-152.5 385q0 119 44 220t118 168t171.5 104.5t205.5 37.5q145 0 267 -63.5t197.5 -186t75.5 -280.5q0 -240 -153 -385t-387 -145zM619 1035q-145 0 -227.5 -146t-82.5 -379q0 -156 31 -271t102 -184.5t177 -69.5t177 69.5t102.5 184.5
t31.5 271q0 232 -83 378.5t-228 146.5z" />
    <glyph glyph-name="ograve.smcp" horiz-adv-x="1239" 
d="M417 1337q-25 11 -33.5 42t6.5 56q16 28 49 34.5t63 -23.5l191 -230l-2 -3zM619 -20q-234 0 -386.5 145t-152.5 385q0 119 44 220t118 168t171.5 104.5t205.5 37.5q145 0 267 -63.5t197.5 -186t75.5 -280.5q0 -240 -153 -385t-387 -145zM619 1035q-145 0 -227.5 -146
t-82.5 -379q0 -156 31 -271t102 -184.5t177 -69.5t177 69.5t102.5 184.5t31.5 271q0 232 -83 378.5t-228 146.5z" />
    <glyph glyph-name="oacute.smcp" horiz-adv-x="1239" 
d="M821 1337l-274 -124l-2 3l191 230q30 30 63 23.5t49 -34.5q15 -25 6.5 -56t-33.5 -42zM619 -20q-234 0 -386.5 145t-152.5 385q0 119 44 220t118 168t171.5 104.5t205.5 37.5q145 0 267 -63.5t197.5 -186t75.5 -280.5q0 -240 -153 -385t-387 -145zM619 1035
q-145 0 -227.5 -146t-82.5 -379q0 -156 31 -271t102 -184.5t177 -69.5t177 69.5t102.5 184.5t31.5 271q0 232 -83 378.5t-228 146.5z" />
    <glyph glyph-name="ocircumflex.smcp" horiz-adv-x="1239" 
d="M619 1369l-281 -135l-3 5l220 220h130l220 -220l-3 -5zM619 -20q-234 0 -386.5 145t-152.5 385q0 119 44 220t118 168t171.5 104.5t205.5 37.5q145 0 267 -63.5t197.5 -186t75.5 -280.5q0 -240 -153 -385t-387 -145zM619 1035q-145 0 -227.5 -146t-82.5 -379
q0 -156 31 -271t102 -184.5t177 -69.5t177 69.5t102.5 184.5t31.5 271q0 232 -83 378.5t-228 146.5z" />
    <glyph glyph-name="otilde.smcp" horiz-adv-x="1239" 
d="M422 1358q-58 0 -100 -33t-42 -105h-5q0 120 59 187t139 67q47 0 98.5 -24.5t88.5 -54.5t82 -54.5t82 -24.5q69 0 105.5 32t36.5 106h5q0 -138 -43 -196t-135 -58q-37 0 -77.5 16.5t-76 39.5l-71 46t-74 39.5t-72.5 16.5zM619 -20q-234 0 -386.5 145t-152.5 385
q0 119 44 220t118 168t171.5 104.5t205.5 37.5q145 0 267 -63.5t197.5 -186t75.5 -280.5q0 -240 -153 -385t-387 -145zM619 1035q-145 0 -227.5 -146t-82.5 -379q0 -156 31 -271t102 -184.5t177 -69.5t177 69.5t102.5 184.5t31.5 271q0 232 -83 378.5t-228 146.5z" />
    <glyph glyph-name="odieresis.smcp" horiz-adv-x="1239" 
d="M682 1306q0 40 28 68.5t68 28.5t68 -28.5t28 -68.5t-28 -68t-68 -28t-68 28t-28 68zM362 1306q0 40 28 68.5t68 28.5t68 -28.5t28 -68.5t-28 -68t-68 -28t-68 28t-28 68zM619 -20q-234 0 -386.5 145t-152.5 385q0 119 44 220t118 168t171.5 104.5t205.5 37.5
q145 0 267 -63.5t197.5 -186t75.5 -280.5q0 -240 -153 -385t-387 -145zM619 1035q-145 0 -227.5 -146t-82.5 -379q0 -156 31 -271t102 -184.5t177 -69.5t177 69.5t102.5 184.5t31.5 271q0 232 -83 378.5t-228 146.5z" />
    <glyph glyph-name="ohungarumlaut.smcp" horiz-adv-x="1239" 
d="M1031 1337l-274 -124l-2 3l191 230q30 30 63 23.5t49 -34.5q15 -25 6.5 -56t-33.5 -42zM621 1337l-274 -124l-2 3l191 230q30 30 63 23.5t49 -34.5q15 -25 6.5 -56t-33.5 -42zM619 -20q-234 0 -386.5 145t-152.5 385q0 119 44 220t118 168t171.5 104.5t205.5 37.5
q145 0 267 -63.5t197.5 -186t75.5 -280.5q0 -240 -153 -385t-387 -145zM619 1035q-145 0 -227.5 -146t-82.5 -379q0 -156 31 -271t102 -184.5t177 -69.5t177 69.5t102.5 184.5t31.5 271q0 232 -83 378.5t-228 146.5z" />
    <glyph glyph-name="p.smcp" horiz-adv-x="1085" 
d="M85 5h131v1010h-131v5h490q450 0 450 -316q0 -315 -450 -315h-169v-384h130v-5h-451v5zM575 1015h-169v-621h169q116 0 173.5 85t57.5 225t-57.5 225.5t-173.5 85.5z" />
    <glyph glyph-name="q.smcp" horiz-adv-x="1279" 
d="M966 -495v-5q-79 0 -141 6.5t-109.5 23t-81 36.5t-57 53.5t-37.5 67.5t-21.5 86t-10 101t-2.5 120q-183 38 -294.5 175.5t-111.5 340.5q0 119 44 220t118 168t171.5 104.5t205.5 37.5q145 0 267 -63.5t197.5 -186t75.5 -280.5q0 -213 -122.5 -353t-319.5 -170
q0 -111 6.5 -186.5t21 -135t41 -93t65.5 -50.5t95 -17zM639 1035q-95 0 -167.5 -77.5t-107.5 -195t-35 -252.5q0 -102 18.5 -193.5t54.5 -167t97 -120t140 -44.5t140 44.5t97.5 120t55 167t18.5 193.5q0 135 -35.5 253t-108 195t-167.5 77z" />
    <glyph glyph-name="r.smcp" horiz-adv-x="1085" 
d="M85 5h121v1010h-121v5h500q184 0 287 -77.5t103 -201.5q0 -114 -83 -172.5t-261 -64.5q90 -5 153.5 -30t94.5 -62.5t48.5 -83.5t18 -92.5t1.5 -91.5t1 -79.5t12.5 -55.5t40.5 -21q38 0 83 27l1 -5q-53 -30 -120 -30q-69 0 -114 18t-65 48t-27 69t-6 82.5l2 86.5t-6 82
t-26.5 69t-64 48t-113.5 18h-150v-496h121v-5h-431v5zM585 1015h-190v-508h190q98 0 144.5 67.5t46.5 166.5q0 47 -10.5 93t-32 88t-60 67.5t-88.5 25.5z" />
    <glyph glyph-name="racute.smcp" horiz-adv-x="1085" 
d="M747 1337l-274 -124l-2 3l191 230q30 30 63 23.5t49 -34.5q15 -25 6.5 -56t-33.5 -42zM85 5h121v1010h-121v5h500q184 0 287 -77.5t103 -201.5q0 -114 -83 -172.5t-261 -64.5q90 -5 153.5 -30t94.5 -62.5t48.5 -83.5t18 -92.5t1.5 -91.5t1 -79.5t12.5 -55.5t40.5 -21
q38 0 83 27l1 -5q-53 -30 -120 -30q-69 0 -114 18t-65 48t-27 69t-6 82.5l2 86.5t-6 82t-26.5 69t-64 48t-113.5 18h-150v-496h121v-5h-431v5zM585 1015h-190v-508h190q98 0 144.5 67.5t46.5 166.5q0 47 -10.5 93t-32 88t-60 67.5t-88.5 25.5z" />
    <glyph glyph-name="rcaron.smcp" horiz-adv-x="1085" 
d="M545 1310l281 133l5 -3l-220 -220h-130l-220 220l5 3zM85 5h121v1010h-121v5h500q184 0 287 -77.5t103 -201.5q0 -114 -83 -172.5t-261 -64.5q90 -5 153.5 -30t94.5 -62.5t48.5 -83.5t18 -92.5t1.5 -91.5t1 -79.5t12.5 -55.5t40.5 -21q38 0 83 27l1 -5q-53 -30 -120 -30
q-69 0 -114 18t-65 48t-27 69t-6 82.5l2 86.5t-6 82t-26.5 69t-64 48t-113.5 18h-150v-496h121v-5h-431v5zM585 1015h-190v-508h190q98 0 144.5 67.5t46.5 166.5q0 47 -10.5 93t-32 88t-60 67.5t-88.5 25.5z" />
    <glyph glyph-name="s.smcp" horiz-adv-x="1012" 
d="M135 -20h-5v341h5q18 -55 53.5 -112.5t85.5 -109t118.5 -84.5t140.5 -33q114 0 174.5 64t60.5 154q0 57 -32.5 100t-84 71.5t-114 53.5t-125 54t-114 64.5t-84 93.5t-32.5 133q0 126 86.5 198t228.5 72q145 0 254 -107l109 107h5v-311h-5q-31 125 -126.5 211.5
t-217.5 86.5q-92 0 -140 -52t-48 -125q0 -43 25 -78t66 -58.5t93.5 -48.5t107.5 -46t107.5 -52.5t93.5 -66.5t66 -89.5t25 -120.5q0 -153 -96 -236t-253 -83q-176 0 -307 138z" />
    <glyph glyph-name="sacute.smcp" horiz-adv-x="1012" 
d="M761 1337l-274 -124l-2 3l191 230q30 30 63 23.5t49 -34.5q15 -25 6.5 -56t-33.5 -42zM135 -20h-5v341h5q18 -55 53.5 -112.5t85.5 -109t118.5 -84.5t140.5 -33q114 0 174.5 64t60.5 154q0 57 -32.5 100t-84 71.5t-114 53.5t-125 54t-114 64.5t-84 93.5t-32.5 133
q0 126 86.5 198t228.5 72q145 0 254 -107l109 107h5v-311h-5q-31 125 -126.5 211.5t-217.5 86.5q-92 0 -140 -52t-48 -125q0 -43 25 -78t66 -58.5t93.5 -48.5t107.5 -46t107.5 -52.5t93.5 -66.5t66 -89.5t25 -120.5q0 -153 -96 -236t-253 -83q-176 0 -307 138z" />
    <glyph glyph-name="scedilla.smcp" horiz-adv-x="1012" 
d="M135 -20h-5v341h5q18 -55 53.5 -112.5t85.5 -109t118.5 -84.5t140.5 -33q114 0 174.5 64t60.5 154q0 57 -32.5 100t-84 71.5t-114 53.5t-125 54t-114 64.5t-84 93.5t-32.5 133q0 126 86.5 198t228.5 72q145 0 254 -107l109 107h5v-311h-5q-31 125 -126.5 211.5
t-217.5 86.5q-92 0 -140 -52t-48 -125q0 -43 25 -78t66 -58.5t93.5 -48.5t107.5 -46t107.5 -52.5t93.5 -66.5t66 -89.5t25 -120.5q0 -153 -96 -236t-253 -83q-35 0 -70 6l-106 -145q78 -3 142 -19t110 -53t46 -90q0 -164 -338 -164v5q87 0 141.5 34t54.5 86q0 38 -16 63
t-48.5 37t-69 16.5t-90.5 4.5l168 226q-129 24 -231 131z" />
    <glyph glyph-name="scaron.smcp" horiz-adv-x="1012" 
d="M559 1310l281 133l5 -3l-220 -220h-130l-220 220l5 3zM135 -20h-5v341h5q18 -55 53.5 -112.5t85.5 -109t118.5 -84.5t140.5 -33q114 0 174.5 64t60.5 154q0 57 -32.5 100t-84 71.5t-114 53.5t-125 54t-114 64.5t-84 93.5t-32.5 133q0 126 86.5 198t228.5 72
q145 0 254 -107l109 107h5v-311h-5q-31 125 -126.5 211.5t-217.5 86.5q-92 0 -140 -52t-48 -125q0 -43 25 -78t66 -58.5t93.5 -48.5t107.5 -46t107.5 -52.5t93.5 -66.5t66 -89.5t25 -120.5q0 -153 -96 -236t-253 -83q-176 0 -307 138z" />
    <glyph glyph-name="t.smcp" horiz-adv-x="1197" 
d="M333 5h170v1010h-149q-135 0 -207 -101.5t-72 -273.5h-5v380h1057v-380h-5q0 173 -71.5 274t-206.5 101h-150v-1010h169v-5h-530v5z" />
    <glyph glyph-name="uni0163.smcp" horiz-adv-x="1197" 
d="M333 5h170v1010h-149q-135 0 -207 -101.5t-72 -273.5h-5v380h1057v-380h-5q0 173 -71.5 274t-206.5 101h-150v-1010h169v-5h-299l-109 -148q78 -3 142 -19t110 -53t46 -90q0 -165 -338 -165v6q87 0 141.5 33.5t54.5 85.5q0 38 -16 63.5t-48.5 37.5t-69 16.5t-90.5 4.5
l170 228h-224v5z" />
    <glyph glyph-name="tcaron.smcp" horiz-adv-x="1197" 
d="M601 1310l282 133l4 -3l-220 -220h-130l-220 220l5 3zM333 5h170v1010h-149q-135 0 -207 -101.5t-72 -273.5h-5v380h1057v-380h-5q0 173 -71.5 274t-206.5 101h-150v-1010h169v-5h-530v5z" />
    <glyph glyph-name="u.smcp" horiz-adv-x="1129" 
d="M50 1020h471v-5h-151v-605q0 -82 13.5 -153.5t44 -135t87.5 -100.5t135 -37q294 0 294 406v625h-128v5h263v-5h-130v-625q0 -209 -80 -314t-259 -105q-210 0 -320 104t-110 315v625h-130v5z" />
    <glyph glyph-name="ugrave.smcp" horiz-adv-x="1129" 
d="M440 1337q-25 11 -33.5 42t6.5 56q16 28 49 34.5t63 -23.5l191 -230l-2 -3zM50 1020h471v-5h-151v-605q0 -82 13.5 -153.5t44 -135t87.5 -100.5t135 -37q294 0 294 406v625h-128v5h263v-5h-130v-625q0 -209 -80 -314t-259 -105q-210 0 -320 104t-110 315v625h-130v5z" />
    <glyph glyph-name="uacute.smcp" horiz-adv-x="1129" 
d="M844 1337l-274 -124l-2 3l191 230q30 30 63 23.5t49 -34.5q15 -25 6.5 -56t-33.5 -42zM50 1020h471v-5h-151v-605q0 -82 13.5 -153.5t44 -135t87.5 -100.5t135 -37q294 0 294 406v625h-128v5h263v-5h-130v-625q0 -209 -80 -314t-259 -105q-210 0 -320 104t-110 315v625
h-130v5z" />
    <glyph glyph-name="ucircumflex.smcp" horiz-adv-x="1129" 
d="M642 1369l-281 -135l-3 5l220 220h130l220 -220l-3 -5zM50 1020h471v-5h-151v-605q0 -82 13.5 -153.5t44 -135t87.5 -100.5t135 -37q294 0 294 406v625h-128v5h263v-5h-130v-625q0 -209 -80 -314t-259 -105q-210 0 -320 104t-110 315v625h-130v5z" />
    <glyph glyph-name="udieresis.smcp" horiz-adv-x="1129" 
d="M705 1306q0 40 28 68.5t68 28.5t68 -28.5t28 -68.5t-28 -68t-68 -28t-68 28t-28 68zM385 1306q0 40 28 68.5t68 28.5t68 -28.5t28 -68.5t-28 -68t-68 -28t-68 28t-28 68zM50 1020h471v-5h-151v-605q0 -82 13.5 -153.5t44 -135t87.5 -100.5t135 -37q294 0 294 406v625
h-128v5h263v-5h-130v-625q0 -209 -80 -314t-259 -105q-210 0 -320 104t-110 315v625h-130v5z" />
    <glyph glyph-name="uring.smcp" horiz-adv-x="1129" 
d="M462 1380q0 76 52 128t128 52t128 -52t52 -128t-52 -128t-128 -52t-128 52t-52 128zM532 1380q0 -175 110 -175t110 175t-110 175t-110 -175zM50 1020h471v-5h-151v-605q0 -82 13.5 -153.5t44 -135t87.5 -100.5t135 -37q294 0 294 406v625h-128v5h263v-5h-130v-625
q0 -209 -80 -314t-259 -105q-210 0 -320 104t-110 315v625h-130v5z" />
    </font>
</defs>
</svg>
