<?xml version="1.0" standalone="no"?>
<!DOCTYPE svg PUBLIC "-//W3C//DTD SVG 1.1//EN" "http://www.w3.org/Graphics/SVG/1.1/DTD/svg11.dtd" >
<svg>
<metadata>
Created by FontForge 20090622 at Wed Jul 29 22:12:32 2020
 By deploy user
Copyright (c) 2020 by Garisman Studio. All rights reserved.
</metadata>
<defs>
<font id="Barnett" horiz-adv-x="444" >
  <font-face 
    font-family="Barnett"
    font-weight="400"
    font-stretch="normal"
    units-per-em="1000"
    panose-1="0 0 0 0 0 0 0 0 0 0"
    ascent="750"
    descent="-250"
    x-height="291"
    cap-height="726"
    bbox="-363 -379.125 2171 864"
    underline-thickness="50"
    underline-position="-50"
    unicode-range="U+0020-U+FB00"
  />
<missing-glyph horiz-adv-x="202" 
 />
    <glyph glyph-name="a_s" unicode="as" horiz-adv-x="523" 
d="M526 171q-15 -11 -50 -41l-18 -15l-17 -14t-8 -7q-8 -7 -16 -31q-42 -120 -136 -214q-52 -52 -100 -76q-39 -19 -71 -24q-16 -2 -28 0q-30 6 -36 31q-8 29 26 66q25 27 114 86q126 86 190 140l11 9l6 24q13 44 13 95q0 21 -3.5 53t-5.5 34l-9 -9q-26 -33 -68 -73
q-104 -91 -162 -73q-45 14 -16 85q2 5 -3 3q-14 -8 -52 -52l-39 -42q-46 -42 -60 -10q-10 23 6 64.5t48 70.5q32 30 61.5 36t48.5 -14q12 -12 16 -34q2 -12 -6 -30q-17 -34 -12 -47q5 -14 28 -14q35 1 88.5 39t102.5 98q19 24 23 30.5t6 21.5q5 37 21 61q11 17 23.5 22.5
t19.5 -2.5q12 -14 -23 -69q-15 -23 -15 -32q0 -10 7 -47q13 -71 6 -126l-3 -24q18 13 38 30q53 43 61 42q5 0 6 -6q0 -4 -13 -15zM116 226q13 10 13 13q0 1 -6 4t-9 3q-14 0 -38 -17t-40 -39q-12 -15 -20.5 -36.5t-6.5 -27.5q1 -4 7 0q2 1 14 11l41 43q29 32 45 46zM327 -45
q6 9 17 30l20 39l8 18q-1 1 -26 -18q-75 -57 -158 -112q-64 -43 -86.5 -62t-31.5 -38q-13 -26 4 -37q17 -10 58 4q27 9 55 28q35 23 73.5 63.5t66.5 84.5z" />
    <glyph glyph-name="a_t_t" unicode="att" horiz-adv-x="431" 
d="M290 16q-39 -85 -45 -128q-2 -15 2 -22q10 -15 -4 -15q-5 0 -7 2q-17 21 -4 70q13 46 40 106q48 105 172 320q40 69 39 70q-8 0 -17 -1l-15 -1l-47 -75l-108 -173q-119 -191 -145 -220t-39 -14q-26 28 63 210l15 36q-37 -47 -51 -51q-13 -3 -20 10q-10 22 10 68
q6 12 4 12h-2t-36 -36q-36 -40 -46 -47q-32 -29 -51 -16q-22 14 -10.5 60.5t45.5 78.5q31 30 62 32t49 -24q9 -10 12 -12q13 -5 0 -35q-9 -18 -15 -35t-7 -26.5t3 -10.5q2 0 14 12q34 38 129 196q31 52 28 54q-1 0 -12 -0.5l-32 -1.5t-38 -2q-156 -11 -176 -8
q-26 5 -37.5 16t-1.5 23q7 10 25 0q19 -9 92 -9q35 0 117 3t83 4l25 40q80 131 118 178q4 5 10.5 6.5t8.5 -2.5q4 -7 -5.5 -25.5t-61.5 -104.5l-52 -87q-1 -2 3 -3q6 -1 32 -1q35 0 37 2q1 1 45 67q86 132 124.5 183t54.5 51q6 0 9 -5.5t2 -12.5q-3 -17 -98 -184
q-56 -99 -56 -100q17 -1 37 -2q83 -5 113 -25q19 -12 10 -19q-4 -3 -20 5q-33 17 -130 21l-22 1l-45 -77q-130 -225 -177 -326zM91 205l29 31l-3 5q-2 3 -7 8q-25 12 -68 -38q-13 -15 -24 -39.5t-9 -31.5q2 -4 17 3q15 10 65 62zM429 415l-7 2q-6 0 -26 -1q-7 0 -17 -0.5
t-15 -1t-6 -0.5q-9 -5 -98 -168q-51 -92 -88 -172.5t-41 -108.5l-1 -8l9 10q8 8 28 36q26 36 127 198l41 66l41.5 65.5l23.5 36.5q28 45 29 46zM475 439q20 -2 22 1l30 52l72 124q44 76 45 78q2 4 1.5 4t-5.5 -5q-43 -48 -153 -220l-21 -33z" />
    <glyph glyph-name="a_l" unicode="al" horiz-adv-x="383" 
d="M269 20q-67 -79 -93 -69q-4 2 -9 7q-5 6 -5 21q-3 66 70 214l10 20l10 19.5t6 10.5t3.5 6.5t2.5 4.5v1l-17 -21q-39 -48 -61 -62q-18 -11 -29 -4q-15 9 -8 40q2 5 2 9q-1 0 -35 -36q-40 -43 -56.5 -56t-31.5 -13q-28 0 -28.5 38.5t27.5 85.5q10 16 28.5 35t31.5 25
q22 11 44.5 5t35.5 -28q6 -9 12 -15q9 -8 -2 -32q-15 -31 -11 -39q1 -3 7 0q7 4 26.5 23.5t32.5 35.5q46 57 194 300q71 115 112 175q35 54 40 55q12 2 12 -10q1 -14 -97 -178q-198 -328 -250 -430q-53 -108 -62 -168q-2 -17 1 -20t10 0q24 11 126 139q67 85 73 87q1 0 3 -1
q4 -1 5 -5.5t-1 -7.5q-46 -62 -129 -162zM59 148q8 7 45 48t37 43q0 3 -10 12.5t-15 12.5q-25 7 -56.5 -32t-34.5 -80q-2 -14 0 -17q2 -8 16 1z" />
    <glyph glyph-name="a_i" unicode="ai" horiz-adv-x="453" 
d="M263 52q35 106 119 248l1 1v1l1 1l1 2l19 35q-1 0 -5 -4l-1 -1q-16 -13 -64 -64q-63 -65 -90 -86t-38 -16q-24 10 13 94l10 26q-1 1 -27.5 -26.5l-60.5 -65.5q-105 -120 -140 -120q-33 0 -27 51q6 58 53 121q19 25 49 51.5t56 40.5q29 15 51 15q44 0 58 -27q6 -10 9 -13
q8 -5 -13 -54q-31 -75 -22 -75t104 94q60 60 80 77.5t30 17.5q14 0 14 -17q0 -13 -54 -112q-105 -190 -114 -236q-2 -12 -1 -15.5t7 -1.5q25 9 126 136q50 61 51 62q4 4 8 2t4 -7t-43 -59q-73 -91 -103.5 -121.5t-47.5 -30.5q-9 0 -12 3q-9 7 -8 34q0 18 7 39zM191 278
l25 26l-8 4q-7 5 -25 5q-16 0 -33 -8q-25 -13 -57 -40t-51 -52q-38 -50 -46 -94q-3 -14 0 -19q4 -6 18 1q27 14 109 104q64 69 68 73zM488 479q6 -6 6 -10t-11.5 -22t-15.5 -20q-10 -5 -17 3q-7 7 4 30q11 22 21 24q8 1 13 -5z" />
    <glyph glyph-name="a_r" unicode="ar" horiz-adv-x="542" 
d="M387 105q19 91 113 246q32 51 29 56q-2 7 -38 7q-50 0 -59 -6q-4 -4 -17 -32q-37 -75 -88.5 -141t-88.5 -85q-26 -13 -39 0.5t-5 44.5q6 26 28 74q1 3 3 7.5t3.5 6.5t2.5 4.5t1 3.5v1q-7 0 -81 -86q-67 -79 -93 -97q-31 -24 -52 -23q-16 1 -23 16q-4 9 -4 26
q1 50 38.5 113t85.5 95q64 42 112 19q22 -12 27 -27q3 -5 7 -4q5 1 9 -3t4 -9q0 -8 -19 -44q-48 -98 -29 -106q1 -1 12 3q43 19 113 116q15 22 32 50.5t27.5 50t7.5 21.5q-8 0 -43 -8q-42 -8 -68 -9q-41 -1 -53 12q-8 7 -8 18q0 28 39 62.5t89 51.5q73 24 91 -6
q13 -23 -10 -82l-4 -12q0 -1 2.5 -1t7.5 0.5t10 1.5q53 7 78 -3q29 -13 8 -56q-1 -4 -32 -60q-96 -168 -106 -231q-5 -29 5 -29q11 0 43.5 33.5t72.5 86.5q21 28 27 23q5 -4 0 -13t-31 -43q-49 -62 -73 -84.5t-41 -22.5q-9 0 -12 3q-22 14 -11 70zM195 283q21 21 21 23t-8 8
q-8 5 -26 5q-28 0 -64 -24q-38 -26 -72 -74.5t-41 -88.5q-3 -19 1.5 -23t20.5 4q20 10 40.5 29.5t68.5 75.5q30 36 59 65zM430 457q10 32 10 45.5t-10 17.5q-13 5 -45.5 -4t-60.5 -25t-49 -38.5t-21 -36.5q0 -6 15 -11q17 -4 60 4q89 15 90 18q3 6 11 30z" />
    <glyph glyph-name="a_h" unicode="ah" horiz-adv-x="626" 
d="M143 201q-67 -77 -99 -101q-26 -20 -45 -20q-12 0 -19 8q-18 19 -4 66t50 97q37 55 91 84q32 17 60 16t45 -17l10 -9l7 6q21 16 28 8q6 -8 -13 -45q-25 -45 -36 -81q-11 -35 -6 -37q5 -3 30 22q59 63 202 272q139 200 194 253q26 25 37 20q12 -7 9 -22q-2 -13 -104 -183
q-248 -415 -244 -415l4 5q4 6 12.5 16.5l15.5 19.5q61 76 102 114q28 28 55.5 48t38.5 20q3 0 9 -3q5 -3 4 -17q-1 -17 -46 -108q-89 -186 -89 -229q0 -6 1 -7.5t5 -0.5q36 10 167 194q17 24 19 24q4 1 7.5 -2.5t2.5 -7.5q-3 -8 -53 -76t-73 -96q-64 -75 -90 -55
q-25 20 3 95q21 60 90 184q43 79 40 85q0 1 -2 0t-5.5 -3t-7.5 -5q-69 -45 -182 -187q-52 -64 -59 -68q-6 -4 -10 -1.5t-4 8.5q0 18 119 222l185 317q56 99 54 100q-1 0 -15 -15q-49 -52 -185 -249q-116 -169 -169 -232.5t-73 -56.5q-34 13 11 108l10 22h-6q-5 -1 -79 -85z
M15 109q34 17 157 155q21 24 26 30.5t4 7.5q-25 17 -63 -2q-57 -29 -101 -98q-37 -58 -37 -89q0 -7 2.5 -7.5t11.5 3.5z" />
    <glyph glyph-name="a_b" unicode="ab" horiz-adv-x="739" 
d="M625 101q11 8 14.5 12.5t11.5 20.5q40 82 28 137q-5 24 -17 27q-31 10 -112 -71q-63 -63 -148 -179q-62 -84 -80 -105q-26 -31 -38 -16q-13 16 18 80.5t131 231.5q96 161 209 333q2 4 1 4l-62 -82q-193 -256 -278 -336q-76 -73 -120 -73q-20 0 -24 17q-9 32 54 137
q13 19 13 23q-3 0 -36 -37q-102 -106 -131 -129q-18 -15 -33 -22q-14 -7 -24 -6q-23 2 -30 22t4 52q16 48 51.5 96.5t74.5 75.5q33 22 63 30q20 4 43 -2t35 -20q9 -10 14 -8q15 5 17 -10q0 -9 -16 -34q-44 -71 -55 -95q-24 -48 -24 -63q0 -7 5 -7q9 0 31.5 12t39.5 26
q91 75 274 317q133 176 160.5 210t34.5 34q12 0 12 -12q0 -19 -148 -261l-119 -197.5l-104.5 -179t-39.5 -72.5l61 80q91 121 147 177q53 53 86 70q60 30 76 -21q17 -54 -12 -131q-6 -16 -4 -16l2 2q2 1 26 19l32 24q17 15 22 5q4 -6 -5.5 -14.5t-57.5 -45.5l-41 -31
l-12 -20q-28 -44 -67 -83q-85 -85 -120 -67q-5 4 -7 10q-5 17 22 45t100 80zM563 12q15 14 30 32t15 20q0 3 -71 -51q-66 -48 -66 -64q0 -3 19 6q29 14 73 57zM99 165q123 123 119 126q-6 9 -29 13q-49 3 -114 -63q-31 -31 -53.5 -70t-26.5 -65q-1 -10 2 -13q7 -7 22 1
q20 11 80 71z" />
    <glyph glyph-name="b_e" unicode="be" horiz-adv-x="526" 
d="M517 176q24 22 30 16q5 -7 -24 -35q-54 -54 -94 -73q-55 -24 -82 7q-6 8 -9 7t-13 -11q-24 -24 -66 -55q-76 -57 -163 -94q-22 -10 -40 -23q-55 -42 -89 -42q-8 0 -12 4q-6 10 9 22t53 28q17 6 34 22q56 52 98 113q40 57 68 120.5t31 102.5q1 21 -4 27.5t-20 4.5
q-57 -9 -189 -184q-48 -63 -58.5 -74t-17.5 -6q-8 5 2 42q18 57 54 136q33 69 87 169l12 23q0 1 -3.5 -1t-9.5 -5q-48 -27 -95 -27q-13 0 -17 4q-9 10 -1 20q5 6 26 8q51 4 104 35l23 13l23 39q49 83 95.5 141t72.5 72q15 8 26 2t9 -27q-2 -37 -68.5 -115.5t-133.5 -125.5
q-9 -7 -37 -57q-101 -181 -134 -277q-8 -19 -5 -19q2 4 36 47q56 74 95 114q87 92 131 72q31 -14 26.5 -68.5t-44.5 -135.5q-44 -87 -102 -149l-15 -16l24 13q93 47 173 123l21 21v12q0 44 35 92q36 49 61 40q28 -8 9 -42q-19 -32 -61 -83q-19 -20 -21 -25q-2 -3 2.5 -10.5
t9.5 -11.5q41 -27 148 80zM362 158l-2 -6l5 6q4 4 20 26q7 9 15 21t12.5 20.5t3.5 8.5h-1.5t-3 -2.5t-6.5 -7l-10 -11.5q-25 -30 -33 -55zM191 510l-2 -6q2 1 24 20q49 42 93 98.5t44 77.5q0 18 -41 -24q-51 -54 -118 -166z" />
    <glyph glyph-name="b_h" unicode="bh" horiz-adv-x="594" 
d="M602 201q8 0 8 -9q0 -4 -29 -33.5t-41 -37.5q-22 -15 -34 -10q-12 6 -15 24q-5 25 21 98q13 39 13 43t-5 2q-20 -11 -58 -47q-56 -56 -134 -162q-38 -50 -50 -63.5t-19 -13.5q-13 0 -13 15q0 30 76.5 179.5t182.5 325.5q57 95 113 177l35 51l4 6l-9 -6q-20 -15 -59 -53.5
t-67 -70.5q-67 -76 -191 -253l-19 -27l1 -14q4 -35 -22.5 -103.5t-68.5 -131.5q-59 -88 -123 -138q-40 -30 -54 -22q-15 8 4 46q41 82 193 298q44 62 44 65t-5.5 4t-14.5 -1.5t-18 -6.5q-38 -19 -92 -73q-53 -51 -136 -156q-26 -33 -34 -40t-16 -4q-18 6 1 62q12 36 51 114
q82 162 181.5 307.5t154.5 182.5q34 23 49 7q12 -12 -1 -46q-36 -100 -227 -335q-77 -94 -119 -127q-12 -8 -26 -38q-34 -68 -32 -70q12 13 26 31q75 95 135 149q42 37 73 52q22 11 36 11q14 1 22 -2l6 -3l9 13q107 150 162.5 219.5t109.5 120.5q85 82 103 64q7 -7 -1 -25
t-44 -77q-139 -227 -261 -449q-86 -161 -75 -149q3 5 35 46q60 77 103 120q51 50 74 60q18 8 27 0q5 -4 5 -19q0 -16 -8 -39q-27 -74 -27 -92q0 -17 3 -18q10 -1 55 43q29 29 32 29zM86 286l-11 -21l13 13q11 11 33 35l106 131q109 140 149 223q21 47 14 47t-44 -37
q-49 -53 -124 -165t-136 -226zM289 297l1 8l-5 -8q-30 -40 -95 -137t-86 -133l-29 -51t-8 -18q1 0 19 14q92 73 158 205q35 68 45 120z" />
    <glyph glyph-name="b_l" unicode="bl" horiz-adv-x="426" 
d="M311 179q-65 -129 -80 -185q-10 -39 -4 -43q5 -3 31 20t51 54q16 19 57 74t53 74q16 24 24 23q11 -1 -8 -30q-13 -20 -54 -76q-71 -95 -103 -127q-38 -38 -57 -33q-21 5 -21 42q0 59 79 220q71 143 178 312q83 134 78 139q0 1 -9.5 -7t-22.5 -20.5l-25 -24.5
q-58 -60 -138 -166q-78 -105 -83 -116q-2 -5 -4 -22q-11 -55 -62 -137.5t-115 -148.5q-31 -32 -39 -27q-11 5 -4 19q7 17 65.5 109.5l107.5 166.5q28 41 27 45q-3 23 -63 -35l-13 -13q-40 -40 -107 -128q-51 -67 -62 -67q-35 0 0 103q22 65 67 149q59 111 133 216.5
t126 153.5q44 41 62 26q5 -4 5 -16q0 -21 -29 -79q-37 -73 -110 -171q-108 -142 -169 -195l-29 -25l-10 -20q-30 -65 -38 -106l-2 -7l6 5q5 5 42 53q90 114 135 152q34 28 52 28q10 0 15 -4l4 -4l20 28q61 87 109 145q58 73 105 119t64 46q14 0 14 -18q0 -28 -78 -161
q-109 -188 -171 -310zM75 293l-9 -16l10 9q16 13 28 28q52 55 115.5 141t97.5 145q46 82 41 94q0 1 -6.5 -4t-16 -14t-17.5 -18q-46 -50 -113 -150q-66 -95 -130 -215zM198 215q3 5 5 10t3 7l1 3q-1 -1 -50 -78l-37.5 -59t-8.5 -15t16 20q44 58 71 112z" />
    <glyph glyph-name="b_r" unicode="br" horiz-adv-x="494" 
d="M343 23q-15 14 -3 57.5t59 146.5q34 76 34 84q0 3 -3 3h-2q-3 1 -4 1q-3 1 -7 -6q-60 -92 -102 -139q-47 -54 -90 -89q-14 -12 -24 -30q-49 -89 -117 -146q-62 -54 -100 -46q-17 3 -28 17q-5 7 -6 20q-3 45 84 88q71 36 113 64l19 13l19 37q71 144 71 212q0 16 -3 21
t-10 4q-68 -11 -216 -226q-21 -31 -32 -41t-19 -5q-19 11 4 87t72 167q142 263 250 375q58 61 85 47q23 -12 -16 -92q-71 -136 -189 -273q-42 -48 -115 -117l-20 -18l-13 -28q-23 -52 -34 -88q-1 -5 -2.5 -11.5t-2.5 -9.5l-1 -4q0 -2 5 5q3 3 28 39q92 132 155 184
q55 45 82 28q15 -12 20 -41q8 -60 -44 -181l-7 -18q1 0 15.5 14t32 33t25.5 29q57 67 89 129q13 24 18 26q13 9 37 -3q17 -7 16 -28q-1 -11 -41 -89l-20.5 -41.5l-19 -39t-9.5 -20.5q-35 -82 -22 -87q7 -3 26.5 17.5t60.5 71.5q40 52 49.5 62.5t13.5 10.5q3 0 7 -4
q2 -6 -65 -90q-47 -59 -69.5 -76.5t-33.5 -5.5zM82 305l-8 -14l6 5q6 4 33 31q121 124 208 272q56 93 52 110q0 4 -16 -9q-44 -35 -123 -148.5t-152 -246.5zM125 -4q16 24 15 25l-24 -13q-6 -4 -67 -37q-62 -32 -75 -53q-11 -19 0 -30q10 -12 35 0q17 10 28 18
q17 12 44.5 40.5t43.5 49.5z" />
    <glyph glyph-name="c_s" unicode="cs" horiz-adv-x="434" 
d="M445 195q7 0 7 -9q0 -7 -34.5 -31.5t-68.5 -42.5l-15 -8l-3 -15q-5 -23 -16 -46q-27 -52 -69 -38q-9 3 -20.5 14t-17.5 22q-2 4 -16 39q-16 45 -20 45q-2 0 -20 -11q-64 -39 -97 -36q-37 5 -54 35q-22 43 0 115q16 50 48.5 86t66.5 42q25 4 40 -12q17 -17 12 -46
q-6 -47 -22 -63q-4 -4 -11.5 -4.5t-10.5 3.5q-7 7 -1 31q12 41 5 48q-10 11 -47 -23q-60 -58 -60 -136q0 -19 5 -28q10 -21 31 -22q35 -3 104 43q32 21 110 92q69 65 106 107q36 44 48 44q6 0 9 -5q3 -6 -1 -12q-3 -6 -24 -29q-35 -40 -53 -77q-11 -23 -14 -39t-4 -55
l-1 -44l15 8l53 33q36 25 40 25zM294 59q9 29 7 31h-2q-2 0 -5.5 -0.5t-6.5 -1.5q-12 -3 -34 -2t-34 5l-12 4v-1l1 -4q1 -3 2 -5q18 -47 41 -58q11 -4 20 1q13 8 23 31zM310 233q3 11 3 14q0 1 -6 -4.5l-17 -15.5q-65 -59 -84 -75q-14 -10 -14 -14q0 -6 12.5 -14.5
t29.5 -12.5q31 -9 59 2l11 3l2 53q0 48 4 64z" />
    <glyph glyph-name="c_l" unicode="cl" horiz-adv-x="570" 
d="M580 193q6 5 11 2t3 -11q-3 -7 -59 -70.5l-89 -98.5q-42 -43 -70 -59t-55 -11q-46 6 -60 67q-11 53 11 120l-7 -3q-4 -2 -8 -5q-102 -79 -186 -76q-25 1 -37 7q-63 30 -47 109q16 77 72 139.5t101 52.5q27 -6 32 -29.5t-14 -59.5q-7 -13 -19.5 -27.5t-19.5 -15.5
q-8 -2 -14.5 3.5t-4.5 13.5q2 5 11 18q11 14 18.5 33t5.5 25q-5 10 -41 -11q-30 -19 -61 -64q-41 -62 -41 -113q0 -21 11 -36q31 -42 120 -11q46 16 116 68l25 20l9 21q63 158 260 422q102 137 160 165q28 14 42 0l8 -6v-20q0 -19 -6 -37q-33 -99 -231 -329
q-86 -101 -189 -197l-20 -19l-10 -31q-41 -121 -2 -160q29 -29 82 11q25 19 53 48t89 98q39 45 51 57zM380 296q-40 -69 -40 -77q0 -1 31.5 30l57.5 57q139 146 242 295q73 105 73 151q0 10 -2 12t-10 0q-38 -11 -109 -98q-52 -64 -121.5 -169.5t-121.5 -200.5z" />
    <glyph glyph-name="c_l_l" unicode="cll" horiz-adv-x="796" 
d="M892 698q17 14 27 4q11 -11 -15 -65q-23 -50 -133 -228q-90 -146 -150 -257q-94 -179 -91 -241l1 -10l8 1q18 0 53 35t111 128q22 26 69 87q6 8 15 19l13.5 16.5t5.5 6.5q11 4 11 -7q1 -8 -82.5 -115t-126.5 -151q-57 -60 -90 -43q-6 3 -12 13q-5 8 -5 31q0 37 19 94
q51 154 262 475q91 142 105 171q3 7 -4 -1q-26 -26 -90 -108q-50 -64 -120 -163q-217 -305 -274 -337q-19 -12 -31 -2q-32 28 47 196q4 8 9 19l2 6q-3 -1 -31 -37q-51 -65 -112 -126q-151 -151 -233 -133q-27 5 -47 25.5t-27 51.5q-8 29 1 76q18 91 71 154q23 27 56.5 45
t61.5 18q26 0 42 -15.5t16 -42.5q0 -24 -10.5 -45.5t-23.5 -21.5q-4 0 -9 4.5t-5 7.5q0 1 4 17q11 38 1 50q-4 4 -17 4q-39 -3 -80 -44q-31 -31 -56 -88.5t-25 -97.5q0 -41 26 -63t63 -12q50 12 121 72q56 46 118 118q35 40 96.5 118.5t79.5 106.5q13 18 58 95
q117 192 123 196q3 2 8.5 2t7.5 -2q3 -3 3 -7q0 -20 -120 -204q-68 -104 -123.5 -210t-72.5 -164q-12 -41 -6 -45q3 -3 21 13t44.5 46t53.5 64q61 77 164 222q163 230 224 278z" />
    <glyph glyph-name="c_r" unicode="cr" horiz-adv-x="614" 
d="M625 200q6 0 6 -7q0 -6 -28 -39q-107 -131 -155 -151q-29 -12 -41 5t-5 57q12 56 75 188q36 73 36 86v5h-22q-19 0 -35 2l-15 1l-11 -20q-39 -69 -89 -131q-142 -178 -247 -212q-38 -12 -68 -2q-36 11 -53 43q-32 66 23 174q27 53 67 92.5t79 52.5q34 13 61 1
q22 -12 29 -29q7 -16 3 -44t-15 -39q-6 -5 -12.5 -6t-12 2.5t-7.5 10.5q-2 5 3 17q7 25 0.5 37t-28.5 10q-42 -3 -88 -51q-50 -51 -73 -115q-13 -38 -13 -67q0 -45 33 -63q76 -40 223 108q108 111 164 219q11 19 7 22q-10 7 -8 23q2 17 22 27q10 5 17 3q17 -4 12 -22
q-1 -5 2 -6t34 -4q35 -4 43 -21q5 -9 3 -20q-6 -27 -50 -116q-49 -102 -60 -142q-17 -53 -5 -60q6 -5 33 13q41 27 133 136q19 23 24 28t9 4z" />
    <glyph glyph-name="c_e" unicode="ce" horiz-adv-x="575" 
d="M567 179q24 25 30 17t-30 -43q-42 -42 -80 -65q-50 -30 -95 -30q-42 0 -67 22l-9 9l-22 -18q-121 -97 -208 -110q-22 -3 -40 -1q-33 6 -53 28q-31 31 -28 89q7 95 56 167q73 109 149 101q35 -3 50 -31q7 -17 6.5 -36.5t-8.5 -34.5t-19 -11q-11 5 -10 27q0 17 -2 25
q-6 25 -40 17q-46 -9 -98 -76q-59 -79 -56 -169q0 -22 7 -37q10 -19 32 -31q10 -5 37 -5q25 0 44 6q77 23 173 101q17 15 17 20t-2 21q-2 30 14 70t45 69q32 33 62 33q22 0 30 -16q7 -16 -9 -49q-22 -46 -83 -108l-25 -25l9 -8q19 -17 53 -16q31 0 67 19q52 24 103 79z
M330 133q0 -5 4 -1l4 4q17 17 27 29q59 68 64 98q2 7 -2 7q-3 0 -15 -6q-39 -20 -66 -78q-16 -34 -16 -53z" />
    <glyph glyph-name="c_c" unicode="cc" horiz-adv-x="618" 
d="M633 198q5 0 5 -6q1 -4 -4 -9.5t-27 -25.5q-76 -67 -117.5 -97t-72.5 -38q-12 -4 -36 -4q-21 1 -30 7q-28 16 -30 55.5t24 91.5q6 15 25 43l15 22l-21 -18l-81 -79q-75 -72 -116 -107q-58 -48 -98 -60q-29 -8 -52 1q-26 10 -42 42q-33 69 24 184q23 48 64 88
q47 45 89.5 54.5t68.5 -19.5q15 -18 14 -49q-1 -18 -6.5 -26.5t-14.5 -6.5q-10 3 -13 27q-1 22 -9.5 30.5t-26.5 7.5q-39 -3 -88 -57q-34 -35 -55 -79q-55 -117 -10 -164q28 -28 85 4q56 32 171 145q83 82 121.5 115t70.5 48q19 9 34 9q30 0 45.5 -14.5t13.5 -39.5
q-2 -19 -9.5 -35t-16.5 -21t-17 1t2 30q11 27 4 36t-30 -3q-42 -21 -91 -95q-28 -43 -39 -82t2 -54q10 -12 34.5 -11t49.5 14q38 18 118 88l59 50.5t14 6.5z" />
    <glyph glyph-name="d_t" unicode="dt" horiz-adv-x="260" 
d="M623 550q-56 0 -85 -4q-47 -5 -107 -17l-10 -2l-36 -56q-161 -250 -209 -357q-37 -80 -40 -132q-1 -23 3 -36q5 -11 2 -16q-4 -8 -14 2q-11 14 -8 59q2 43 24 99q31 77 98 192q84 144 142 232q3 5 2 5q-4 0 -33 -8l-30 -7l-15 -29q-50 -106 -124 -208q-22 -33 -23 -35
l-5 -7q-2 0 -24 -28q-60 -74 -101 -87q-17 -5 -30 2q-19 9 -18 37q0 25 18 61q22 38 48 63q33 30 62 30q16 0 24 -4q6 -3 14 -11.5t10 -13.5q2 -3 3 0q19 22 59 89l45 80.5t27 52.5h-4q-3 -1 -12 -3.5t-16 -3.5q-118 -28 -206 -34q-48 -4 -67.5 5.5t-18.5 34.5q1 23 28 55
q39 49 105 91.5t120 54.5q40 9 75 1q39 -11 52 -38q17 -37 -6 -106l-6 -16l68 15q4 1 82 123q24 37 26 39q3 3 10 5q6 1 12 -5q7 -9 1.5 -19.5t-53.5 -79.5q-10 -14 -18 -26.5l-13 -20t-4 -7.5q4 0 31 5q78 13 145 13q60 1 80 -12q17 -11 10 -21q-4 -7 -22 -1q-12 5 -68 5z
M125 225q6 9 5 18q-2 8 -8.5 15t-12.5 6q-19 0 -47 -28t-45 -63q-12 -26 -7 -38q5 -11 32 5q36 24 83 85zM319 552q34 96 -16 119q-65 29 -176 -41q-75 -47 -115 -102q-22 -31 -15 -38q7 -8 79 -3q71 7 153 25q77 17 79 19q1 1 11 21z" />
    <glyph glyph-name="d_i" unicode="di" horiz-adv-x="589" 
d="M528 434q16 31 33 14q10 -10 -3 -29q-13 -17 -24 -13q-17 6 -6 28zM605 197q2 0 5 -3.5t3 -6.5t-32 -35t-50 -46q-46 -36 -75 -36q-33 0 -43 38q-7 24 2 58l3 12q-8 -9 -17 -21l-101 -127q-22 -26 -50 -54q-65 -65 -106 -77q-20 -7 -35 -1q-25 12 -26 62q-1 42 14 102
q19 68 42 123l11 27q-2 0 -18 -21q-48 -58 -74 -79q-50 -38 -70 3q-23 46 31 125q11 16 30.5 35t33.5 29q67 43 92 -17l4 -11l22 40q104 199 253 351q95 95 130 95q10 0 17 -7q6 -7 6 -21q0 -26 -29 -83q-49 -96 -154 -235q-120 -160 -198 -198q-15 -6 -26 -8q-14 -2 -15 -2
q-5 -2 -37 -88q-25 -69 -33.5 -123t2.5 -72q3 -5 14 -4q19 2 53.5 27t67.5 60q34 36 103.5 123.5t101.5 134.5q9 14 15 14q14 0 12 -15q-4 -15 -17 -43q-29 -67 -30 -93q-3 -53 39 -35q27 11 98 76q29 27 31 27zM264 367q-13 -22 -41.5 -77.5t-28.5 -58.5q0 -4 15 2
q32 11 89 68q60 60 117 137q112 150 157 248q21 45 14 52q-10 10 -85 -62q-58 -57 -122.5 -141t-114.5 -168zM117 205q28 34 31.5 39.5t1.5 13.5q-5 23 -13 27q-14 10 -49.5 -19t-58.5 -68q-11 -18 -16.5 -38t-3.5 -32.5t10 -12.5q2 0 14 6q24 11 84 84z" />
    <glyph glyph-name="d_e" unicode="de" horiz-adv-x="488" 
d="M458 167q43 31 46 23q1 -1 1 -3q1 -6 -23 -23q-98 -73 -135 -72q-23 0 -37 13q-6 6 -8 6l-22 -27q-78 -102 -113 -130q-22 -18 -40 -18q-9 0 -17 5q-22 14 -19 77q2 79 46 194l-9 -8q-63 -71 -100 -71q-18 0 -29.5 14t-11.5 35q0 22 14.5 53t33.5 50q22 22 48.5 30
t45.5 -2q18 -8 26 -26l4 -7q6 0 31 54q27 57 79.5 153t88.5 154q66 105 94 105q2 0 9 -5q6 -6 3 -18t-21 -48q-46 -92 -189 -298q-55 -78 -65 -100q-74 -158 -79 -264q0 -30 3 -40l5 -14q7 -9 26 3q33 22 120 136l27 36l1 26q0 36 18 72q13 27 33.5 51.5t36.5 31.5
q10 5 18 3q16 -5 13 -23q-2 -12 -30 -61t-52 -84l-12 -18l4 -7q15 -22 45 -11q32 11 92 53zM373 268q-6 -4 -29 -44t-23 -46q0 -2 4 4q3 4 13 20l16 28t14.5 27.5t4.5 10.5zM270 441l-3 -6l4 4l45 67q37 54 61 94q16 25 37 65t19 42l-7 -7q-6 -7 -14.5 -18.5t-15.5 -22.5
q-20 -30 -67 -111t-59 -107zM127 235l11 15l-4 8q-5 9 -11 14q-7 7 -19 7q-44 0 -78 -72q-8 -17 -9 -30t4 -18q9 -7 27 2q32 16 79 74z" />
    <glyph glyph-name="d_l" unicode="dl" horiz-adv-x="583" 
d="M595 195q9 0 9 -8q0 -7 -49.5 -68.5t-86.5 -100.5q-66 -74 -106 -53q-18 10 -27 36q-4 12 -4 48q0 46 15 96l5 21q-10 -8 -22 -19q-64 -58 -107 -79q-16 -7 -32 -8q-17 0 -23 3q-22 15 -22 58q0 59 42 168q0 1 1 3l3 9q-5 -5 -32 -42q-67 -89 -120 -144q-30 -33 -47 -38
q-9 -1 -15 2q-35 17 17 117q37 74 86 121q37 36 75 40q25 3 42 -13q10 -10 11 -6q0 1 2.5 6t6.5 14t8 17q100 206 215 293q36 29 50 13q10 -11 3 -37.5t-37 -88.5q-28 -56 -62 -108q-45 -68 -86 -109q-49 -50 -83 -53q-9 0 -11 -2q-7 -10 -28 -78q-32 -100 -9 -121
q9 -9 38 5q48 23 120 94l35 35l10 24q28 68 80 161q73 131 136 217q75 102 118 124q14 7 25 2q10 -5 8 -24q-7 -54 -90 -179q-37 -56 -110.5 -149.5t-122.5 -148.5q-16 -18 -33 -61q-18 -45 -29 -90q-5 -25 -5 -54q0 -32 4 -41q12 -26 44 -11q34 18 133 141l19.5 24.5
t19.5 23.5q14 18 18 18zM534 462l-55 -97t-27 -53l32 39q161 200 217 313q24 47 22 54q0 1 -7 -4t-16 -14t-17 -18q-63 -74 -149 -220zM240 341q-16 -32 -16 -34q0 -1 2 -1t6 1t8 3q61 27 154 173q49 76 74 148q3 8 5 15t2 11.5t-1 4.5q-6 0 -29.5 -21t-45.5 -46
q-88 -102 -159 -254zM17 128q19 18 58.5 64.5l71 86.5t29.5 42q-6 4 -23.5 -0.5t-30.5 -13.5q-40 -29 -79 -93q-12 -19 -24.5 -44t-19 -43t-3.5 -18z" />
    <glyph glyph-name="d_d" unicode="dd" horiz-adv-x="622" 
d="M705 637q10 -6 -3 -25q-51 -75 -139.5 -246t-126.5 -265q-44 -111 -30 -139q4 -11 25 2q44 26 163 182q38 48 39 48q3 1 7 0q6 -5 1 -13.5t-32 -44.5q-67 -88 -103 -128t-62 -58q-27 -18 -45 -10q-27 15 -14 80q15 65 91 228l7 17q-1 -1 -41 -61q-71 -107 -84 -112
q-14 -6 -20 7t1 35l1 8l-1 -1q-133 -144 -172 -166q-25 -13 -38 -2t-8 43q10 74 100 246l19 37q-4 2 -8 5q-8 4 -11 1q-40 -57 -124 -148q-44 -47 -70 -62t-42 -3t-10 43q7 40 48 100.5t80 90.5q31 24 61 31q29 7 53 -1q11 -4 15 -2l181 248q14 20 20.5 25t11.5 2q2 -1 4 -9
q0 -6 -60 -110q-97 -169 -130 -232q-110 -210 -115 -275q-1 -13 2 -13q10 0 41 25q23 19 100 100.5t97 108.5q17 23 23.5 29t12.5 5q6 0 10 -6q4 -5 1 -12q-10 -16 -16 -22q-6 -7 -14 -21l-14 -24t-5 -11t22.5 31l91.5 136q97 146 134 211q54 92 65 98q5 3 10 -1zM188 296
q18 24 12 25q-2 1 -7 1q-51 0 -112 -71q-57 -69 -73 -119q-6 -16 -2.5 -18.5t17.5 7.5q55 37 165 175zM302 413q-56 -75 -56 -76t3.5 -6t4.5 -5t18 30l1 1v1l1 1v1l1 1v1l1 1l27 50h-1z" />
    <glyph glyph-name="e_r" unicode="er" horiz-adv-x="307" 
d="M319 196q14 0 4 -20q-12 -23 -53 -75.5t-60 -70.5q-37 -34 -57 -15q-13 11 -10 41q3 58 65 172q36 66 36 89q0 15 -6 19q-14 9 -46 12l-15 2l1 -12q5 -47 -27 -115t-79 -109q-26 -23 -51 -22t-35 25q-10 25 2 58.5t40 58.5q17 16 37 16q12 0 17 -5q12 -12 -1 -31
q-24 -35 -51 -43q-14 -4 -17 -31q-1 -14 2 -19t12 -5t17 5q9 5 26.5 21.5t28.5 31.5q33 43 50 98q7 21 8 49v27h-23q-17 0 -93 -2q-72 -1 -85 2q-37 9 -37 32q0 22 36 41.5t81 22.5q43 2 79.5 -15t51.5 -48l5 -10h12q48 0 72 -19q23 -17 16 -55q-6 -29 -35 -83
q-35 -65 -50 -106q-7 -17 -12 -35t-5.5 -28.5t3.5 -11.5q8 0 23 12q13 11 54.5 63t54.5 74q8 14 14 14zM148 372l-3 5q-3 5 -7.5 10.5t-7.5 7.5q-44 32 -103 26q-28 -4 -54 -15.5t-30 -22.5q-5 -9 13 -13q26 -6 138 -1q13 0 26 1t20 2h8zM49 209l-6 -6l9 6q10 8 8 11z" />
    <glyph glyph-name="e_h" unicode="eh" horiz-adv-x="540" 
d="M582 755q8 3 12 -2.5t0 -14.5q-5 -15 -222 -345q-123 -188 -168 -264q-68 -112 -81 -155q-3 -8 -1 -8l2 1q8 5 103 103q166 172 205 172q8 0 13 -5q7 -6 5.5 -16.5t-11.5 -38.5q-17 -46 -17 -66q0 -12 5 -14q15 -7 109 78q22 21 27 12q2 -5 -3 -11.5t-30 -30.5
q-52 -49 -77 -62.5t-42 -1.5q-31 22 0 104l6 19q-2 2 -48 -34q-46 -37 -130 -125q-96 -100 -112 -109q-15 -8 -22 -3q-9 5 -9 20q0 40 66 153q54 92 253 391l1 1v1l1 1l1 1l1 2v1l1 1l1 1l1 1v1l1 1l1 1l1 1v1l1 1l1 2v1l1 1l1 1l1 1v1l1 1l1 1v1l1 1l1 1l1 1v1l1 1l1 1v1
l1 2l1 1v1l1 1l1 1l1 1v1l1 1l1 1v1l1 1l1 1v1l1 1l1 1v1l74 112l-1 -1q-41 -46 -193 -248q-160 -209 -224 -273q-51 -51 -81 -59q-21 -5 -36 8q-25 25 7 91q16 30 39 51t42 21q12 0 16 -5q6 -6 6 -16q0 -18 -27 -45q-26 -26 -46 -30q-6 -1 -8 -3t-5 -10q-11 -28 -5 -38
q11 -11 51 21q32 25 100 104q37 43 146 184l161 208q98 122 118 131zM29 183l-3 -6l8 5q6 2 22 16q20 22 20 29q0 5 -16 -8t-31 -36z" />
    <glyph glyph-name="e_t_t" unicode="ett" horiz-adv-x="425" 
d="M455 340q-154 -277 -192 -395q-14 -43 -6 -47q2 -2 1.5 -7t-4.5 -7q-5 -4 -11 -1q-8 3 -11 27q-6 57 92 254l29 61q-140 -195 -181 -216q-24 -12 -30 15q-13 53 86 248q1 1 2 3q10 20 9 20l-27 -31l-1 -1l-1 -1q-139 -171 -201 -176q-11 -1 -19 3q-27 17 -14 67
q12 43 38 76q30 41 65 56.5t49 -6.5q15 -24 -30 -69q-34 -34 -71 -34h-8l-7 -14q-16 -36 -10 -52q2 -8 24 2q35 16 77.5 58t112.5 130q101 124 101 131q0 1 -10 1q-4 -1 -43 -3q-171 -6 -217 -26q-9 -4 -15.5 0.5t-5.5 14.5q1 12 40 20q73 15 209 18q53 0 57 2q3 3 22 34
q51 82 97 142t63 67q7 2 12 -1.5t5 -10.5t-79 -112q-56 -77 -68 -97l-14 -21l19 -1q7 -1 57 -3l38 -1l16 27q58 93 87 133q91 131 98 136q6 5 13 2.5t7 -10.5q0 -6 -70 -109q-56 -83 -93 -145l-22 -37l11 -1q74 -11 108 -18q7 -1 18 -3.5t16 -3.5t6 -1q8 -4 3 -14
q-1 -4 -9 -3.5t-51 7.5q-92 15 -112 15q-4 0 -55 -92zM36 207q-2 -4 3 -4t15 5q9 4 24.5 19t21.5 25l4 9l-6 -1q-9 -2 -16 -8q-7 -4 -25 -22t-21 -23zM200 65q83 94 237 321l32 46l-8 2q-5 1 -57 1h-49l-24 -42q-90 -157 -128 -248q-34 -79 -36 -109q0 -7 33 29z" />
    <glyph glyph-name="e_l_l" unicode="ell" horiz-adv-x="438" 
d="M643 649q1 -7 -17 -36q-133 -209 -235 -414q-39 -74 -44 -116q-1 -12 -6 -14q-5 -1 -9 3q-12 12 -7 33q6 30 27 79l9 22q-3 -3 -17 -24q-69 -95 -98 -129q-40 -48 -71 -69q-22 -13 -35 -5q-34 19 16 154l11 28l-19 -17q-66 -58 -106 -70q-23 -6 -41.5 3t-24.5 29
q-7 27 14.5 71.5t60.5 84.5q57 54 90 40q19 -10 6 -36q-6 -10 -25 -30t-31 -28q-28 -19 -48 -19q-11 0 -26 -30q-16 -32 -12.5 -47.5t25.5 -13.5q41 3 139 98l26 26l16 32q52 104 132.5 231t150.5 215q70 87 91 77q12 -4 9 -24q-9 -46 -115 -206q-42 -63 -111 -153.5
t-111 -136.5q-22 -25 -39 -59q-45 -91 -60 -152q-3 -12 -5 -22.5t-1 -17t3 -6.5q8 0 36 27t57 63q52 66 126 172.5t106 161.5q46 79 101 161q45 68 49 70t8.5 0t4.5 -6zM316 381q-13 -21 -20 -34t-9 -17t-1 -4q11 12 23 27q142 179 231 332q29 52 27 59q0 1 -2 -1t-5.5 -5
t-6.5 -7q-41 -45 -108.5 -144.5t-128.5 -205.5zM52 215v-3q1 0 3 1t7 3t7 3q28 13 54 49q5 9 1 8q-4 0 -18 -9q-11 -8 -30.5 -26.5t-23.5 -25.5z" />
    <glyph glyph-name="e_l" unicode="el" horiz-adv-x="398" 
d="M416 194q6 -2 2.5 -11t-20.5 -33q-109 -161 -184 -236q-71 -73 -103 -60q-13 4 -22 21q-4 10 -4 40q0 45 16 95q14 48 44 120q3 7 6.5 14t5.5 11.5t2 5.5h-1l-1.5 -1.5t-3 -2.5t-4 -3.5l-4.5 -4.5t-5.5 -5t-6.5 -6q-63 -61 -99 -78q-35 -16 -54.5 -1.5t-13.5 51.5
q7 44 35.5 89t59.5 60q29 14 47 0t5 -39q-13 -26 -49.5 -48.5t-47.5 -11.5q-1 1 -2 1.5t-2 -1t-2.5 -4t-3.5 -7.5q-23 -54 -11 -68q3 -4 12 -3q46 5 150 118l34 36l28 55q63 125 132 242t109 167q47 59 69 47q10 -4 10 -20q0 -37 -69 -148t-184 -260l-45 -57
q-16 -20 -23 -33t-33 -69q-56 -128 -72 -198q-4 -19 -5 -44t3 -32q7 -13 25 -5q49 23 135 133q43 53 118 160q19 28 27 24zM278 345l-5 -12q2 1 22 28q111 144 168 239q17 28 31.5 57t21 48t1.5 19t-28.5 -29t-44.5 -61q-28 -42 -84.5 -140t-81.5 -149zM24 184
q-1 -4 -0.5 -4t6.5 1q5 1 19 8q9 4 24.5 19t17.5 21q5 12 -6 11q-13 -1 -31 -18q-22 -22 -30 -38z" />
    <glyph glyph-name="f_o" unicode="fo" horiz-adv-x="278" 
d="M296 178q-5 -6 -21.5 -22t-25.5 -22q-28 -19 -51 -25q-7 -1 -10.5 -4t-13.5 -17q-42 -55 -70 -55q-20 0 -23.5 21.5t10.5 56.5q6 16 7 18l-16 -7q-38 -21 -81 -39q-6 -3 -9.5 -4.5l-7 -3t-4.5 -2.5t-1 -2q0 -4 5 -16q6 -14 6 -35q0 -32 -18 -69q-38 -78 -68 -53
q-11 9 -10 44q3 55 52 155q30 57 62 112q76 127 144 208q29 34 43 43.5t22 0.5q17 -18 -36 -99q-77 -121 -146 -182q-13 -11 -18 -17.5t-18 -30.5q-18 -33 -17 -34q3 -3 48.5 20t79.5 44q16 10 24 23q11 19 30.5 34.5t32.5 15.5q14 0 21 -11q7 -10 3.5 -34.5t-15.5 -47.5
q-4 -10 -3 -10q1 -1 15.5 6.5t24.5 14.5q12 8 28 24q20 22 26 12q3 -4 -1 -11zM101 298l-32 -48.5t-7 -12.5q7 7 14 16q64 75 108 157l4 7l-6 -7q-34 -39 -81 -112zM-71 -75q17 18 28.5 46.5t11.5 50.5q0 10 -3 22t-5 12t-15 -31t-18 -50q-3 -12 -5.5 -25.5t-3 -21.5t1.5 -9
q3 0 8 6zM128 73q30 27 30 35q-1 1 -3 1l-2 1q-2 1 -5.5 3t-5.5 3q-10 7 -11 7q-3 -7 -7 -15q-15 -26 -15 -45q0 -4 5 0q9 6 14 10zM184 149q16 33 16 54q0 10 -3 10q-11 0 -28 -19q-19 -19 -17 -28q0 -7 -3 -13q0 -1 -1 -3t-1.5 -3.5t-0.5 -2.5q0 -5 7.5 -10.5t15.5 -6.5
q3 0 15 22z" />
    <glyph glyph-name="g_o_o" unicode="goo" horiz-adv-x="641" 
d="M660 195q3 -2 2.5 -7t-4.5 -7q-8 -5 -52 -5h-19l1 -9q5 -27 -32 -51q-23 -16 -40.5 -12.5t-23.5 23.5q-5 21 12 67q7 20 6 23q0 3 -15 3h-15l-7 -19q-12 -35 -33.5 -68t-38.5 -41q-14 -8 -28 -2q-31 14 -13 73l4 14q-2 2 -77 -48l-23 -16l-11 -27q-39 -97 -92 -168
q-35 -46 -76 -79q-60 -47 -95 -36q-19 5 -27.5 21.5t-3.5 39.5q12 41 61 92q45 46 169 134l54 39l9 24q44 121 30 146q-2 4 -6 4q-7 0 -30 -16t-43 -35q-15 -15 -33 -31l-48 -47q-70 -70 -104 -71q-20 -1 -29 17q-13 26 14 80q38 74 105 96q10 4 27 4t25 -3q17 -5 26 -19
l4 -7l7 7q55 45 78 45q18 0 27 -15q3 -6 3 -31q0 -34 -17 -93q-4 -13 -6 -21t-1 -8t3.5 2t6.5 4.5l7 4.5q15 10 54 33.5t43 24.5t9.5 -2.5t5.5 -8.5q0 -4 -9 -24q-19 -38 -19 -63q0 -5 2 -7.5t5 -0.5q12 6 30 33q22 33 32 63l1 6h-13q-39 0 -39 22q0 14 16 29q22 21 44 21
q11 0 17 -6q12 -10 10 -33l-1 -11l12 -1q38 0 38 -25q0 -8 -8 -32q-16 -54 -4 -55h3q12 3 26 14.5t14 18.5q0 5 -4 11q-8 14 -1 21q3 3 50 3q46 0 48 -2zM137 222q20 20 23.5 24.5t1.5 8.5q-5 8 -21.5 7.5t-34.5 -9.5q-31 -15 -55 -50q-31 -45 -31 -66q0 -4 6 -3q2 0 4.5 1
t5.5 2.5l5 2.5q24 13 96 82zM186 10q37 64 37 73l-4 -3q-4 -2 -12.5 -8l-21.5 -15l-32 -23q-178 -129 -167 -191q5 -21 45 -1q37 18 78.5 63t76.5 105zM459 243q2 4 3.5 14t-0.5 12q-2 3 -12 -1q-7 -2 -18 -11.5t-10 -11.5q2 -5 26 -5q10 0 11 3z" />
    <glyph glyph-name="g_h" unicode="gh" horiz-adv-x="717" 
d="M736 198q9 -5 -13 -34q-56 -74 -93 -101q-11 -9 -23 -10q-11 -1 -18 5q-12 13 -9 41q1 29 24 88q18 51 16 55q-6 9 -50 -25q-16 -13 -59 -56t-74 -77q-51 -57 -68 -74t-25 -17q-6 0 -10.5 5.5t-4.5 12.5q0 36 93 208.5t211 354.5l19 31q-1 0 -30 -38l-131 -186
q-141 -203 -237 -324l-26 -32l-10 -32q-62 -185 -153 -275q-62 -64 -114 -80q-18 -6 -29 0q-10 4 -15.5 16t-3.5 24q4 21 23.5 45t89.5 97q179 185 193 216q8 18 24.5 86t20.5 100q6 40 2 55q-1 4 -9 2q-14 -4 -108 -98q-98 -98 -124 -111q-31 -15 -45.5 4t-1.5 57
q16 47 53.5 101.5t74.5 84.5q34 27 65 35q28 8 52.5 -0.5t37.5 -29.5q2 -3 4.5 -6t4.5 -6l1 -2q13 -11 16 -23q9 -43 -24 -170l-9 -38q1 -1 29 36l56 75l160 223q117 169 174 239q39 47 49 47q20 0 2 -39q-10 -20 -83 -142q-145 -241 -238 -423l-24 -52l18 18
q145 160 199 193q32 19 48 4q5 -5 5 -16q0 -16 -18 -66q-28 -75 -22 -96q2 -7 7 -7q10 0 42.5 33t63.5 75q12 15 16 18t8 1zM210 283l16 13l-7 6q-32 26 -85 -10q-49 -33 -98 -105q-16 -25 -29.5 -53t-13.5 -38q0 -5 0.5 -6t4.5 0q9 3 12 5q19 10 111 102q74 76 89 86z
M160 -99q32 71 29 75q0 1 -2 -1l-7 -7q-28 -36 -145 -162q-71 -76 -95 -114q-14 -21 -8 -29q4 -8 31 4q41 16 87 64q62 60 110 170z" />
    <glyph glyph-name="m_m" unicode="mm" horiz-adv-x="766" 
d="M774 198q2 2 6.5 -1.5t4.5 -7.5t-41.5 -41t-60.5 -50q-20 -14 -32 -14q-24 0 -26 28q-4 33 47 116l11 16.5t7 11.5l2 5q-5 0 -65 -57q-65 -62 -84 -62q-7 -1 -10.5 3.5t-3.5 15.5q0 17 19 54q10 18 10 22q-2 2 -53 -46l-49 -51q-45 -51 -62 -64q-16 -10 -24 -1q-9 9 5 41
t59 105l19 31l-24 -25q-96 -102 -114 -111q-29 -14 -37 13q-7 26 17 82q7 16 7 17q0 2 -16.5 -10t-53.5 -41q-43 -34 -54 -41t-19 -4q-25 10 17 95l13 32q-17 -12 -106 -100q-86 -84 -91 -86q-14 -9 -23 0q-11 12 -2 42.5t41 93.5q70 138 86 149q4 3 11.5 3t10.5 -4
q9 -10 -8 -40q-22 -39 -63 -118t-45 -90q-2 -5 11 6q16 15 73 73q77 78 107 96q19 11 28 3q8 -6 4.5 -20t-22.5 -49q-22 -40 -27 -58q-1 -3 -0.5 -3.5t2.5 1.5q1 0 6 4l14 11l17 13q82 66 100 69q7 1 12 -4t4 -14q-3 -13 -10 -29q-11 -25 -17 -49t-2 -26q9 -6 116 112
q46 52 65 71q23 23 30 23t11 -4q6 -9 -3 -27.5t-61 -105.5q-38 -63 -36 -64q2 0 28 27q36 37 71.5 68t45.5 34q16 3 19 -7q2 -12 -18 -56q-17 -32 -17 -38q0 -3 12.5 7.5t38.5 35.5q70 66 97 81q17 11 26 2q5 -5 4 -13q-3 -15 -29 -59q-47 -80 -51 -105q-1 -9 2 -10
q13 -5 90 64l15.5 13.5t13.5 11.5z" />
    <glyph glyph-name="m_r" unicode="mr" horiz-adv-x="616" 
d="M576 151q28 33 36 39.5t12 2.5q5 -4 -2 -15.5t-45 -58.5q-47 -55 -72 -73q-29 -18 -45 -11q-21 11 -13 56q9 55 70 185q19 41 19.5 59t-16.5 27q-10 6 -40 12l-8 1l1 -15q5 -55 -41 -142q-26 -50 -59.5 -84t-56.5 -34q-9 0 -17 8q-16 16 -10 46q4 28 37 101l5 11l-7 -5
q-40 -28 -84 -65q-47 -41 -66 -51q-8 -5 -15 -2.5t-8 10.5q-4 16 29 86q9 23 9 24q-1 1 -20.5 -16t-50.5 -47l-63 -63q-54 -56 -64 -62q-17 -12 -26 -1q-5 5 -5 19q2 54 103 208q25 38 32 40q17 5 22 -12q2 -7 -4.5 -19.5t-33.5 -54.5q-44 -71 -63 -111l-16 -31l71 70
q69 69 91 87.5t35 18.5q8 0 12 -5q6 -8 3.5 -19t-19.5 -51q-16 -38 -14 -39q1 0 7 5q4 3 34 28q45 38 96 74q17 11 25 11q7 0 11 -5q8 -11 -13 -59q-24 -57 -27 -79q-2 -7 -0.5 -16.5t4.5 -10.5q8 -2 33.5 21.5t41.5 48.5q42 64 55 121q4 13 4.5 32.5t-1.5 25.5q-1 5 -18 5
q-57 0 -94 7q-55 10 -39 40q11 19 42 26q32 6 60 -1q38 -8 57 -40q7 -9 10 -9q1 0 4.5 -0.5t9.5 -1.5t11 -2q49 -7 66 -38q4 -7 4 -28q0 -19 -5.5 -36.5t-31.5 -76.5q-53 -117 -54 -149q0 -9 0.5 -10.5t4.5 -1.5q25 3 100 95zM428 401h9l-8 8q-26 26 -75 20q-29 -4 -33 -14
q0 -2 10.5 -5t30.5 -5t43 -3q4 0 12.5 -0.5t10.5 -0.5z" />
    <glyph glyph-name="n_o" unicode="no" horiz-adv-x="486" 
d="M480 189q11 3 15.5 4t6.5 -0.5t3 -6.5q1 -6 -12 -12q-23 -11 -50 -10q-17 1 -19 -4q-14 -29 -36 -60q-25 -32 -42 -41q-15 -6 -27 -1q-11 5 -16 20.5t-2 34.5q5 36 26 79l5 12q-2 0 -21 -14q-47 -33 -79 -48q-27 -15 -41 -10q-16 5 -16 30q0 40 36 104l9 19
q0 1 -5.5 -3.5l-14.5 -11.5q-32 -25 -134 -131q-40 -42 -54.5 -53.5t-25.5 -11.5q-14 0 -18 19q-4 20 14 63.5t49 89.5q52 79 69 83q10 2 16.5 -5t3.5 -17q-2 -7 -27 -44l-40 -61q-9 -14 -21.5 -37l-21 -39t-7.5 -17t83 79q100 100 132 120q18 11 27 4q4 -3 4 -14
q-1 -9 -21 -51q-31 -62 -31 -83q-1 -8 0 -9.5t5 -1.5q26 2 134 80l15.5 12.5t10.5 8.5q8 7 16 5t8 -11q0 -4 -15 -36q-14 -27 -23 -51q-9 -22 -13.5 -46.5t-0.5 -26.5q5 -4 30 28q11 14 24.5 36t14.5 27q2 5 -2 14q-3 10 -2 24q2 34 24 49q16 10 25 -5q9 -14 -5 -54
q-7 -19 -7 -22q1 -1 8 -1t17.5 1.5t18.5 3.5zM422 223q2 4 2 7l-2 -1q-2 -6 -2 -7l1 -1z" />
    <glyph glyph-name="o_o" unicode="oo" horiz-adv-x="383" 
d="M366 197q30 1 33 -2q4 -4 4 -7q0 -6 -8 -8.5t-35 -4.5l-33 -2v-8q0 -20 -14 -48q-14 -27 -34.5 -46.5t-38.5 -21.5q-20 -2 -30 16q-13 22 1 64q14 46 32 78l10 20q-22 -3 -48 -8l-48 -8l-10 -21q-21 -43 -53 -87t-60 -68q-41 -37 -63 -22q-27 18 -15 73q10 49 41 106.5
t65 89.5q24 23 39 17q7 -2 9 -4q0 -2 13 9q28 26 45 17q9 -4 10.5 -23t-5.5 -41l-3.5 -13.5t-0.5 -5.5q1 -1 45 6q56 10 63 3q5 -4 4 -13l-1 -10l8 -2q19 -5 28 -18q6 -9 50 -7zM94 146q36 53 36 63q0 3 -8 3q-22 4 -29 18q-3 8 -4 15l-1 9l-16 -20q-47 -62 -74 -140
q-9 -28 -9 -41t2.5 -14t12.5 6q41 27 90 101zM155 275q6 24 0 24q-5 0 -18 -14t-20 -26q-6 -11 -4.5 -16t12.5 -7q15 -4 17 0q6 9 13 39zM255 85q19 13 33.5 39.5t14.5 45.5q0 6 -1.5 8t-11.5 6q-13 6 -19 10l-5 4l-5 -10q-15 -31 -24 -65q-11 -38 -4 -45q5 -5 22 7z" />
    <glyph glyph-name="s_s" unicode="ss" horiz-adv-x="370" 
d="M384 191q7 0 7 -6q3 -16 -91 -111q-44 -45 -49 -58q-18 -49 -56 -85q-39 -39 -57 -20q-10 9 1 27t49 55l34 34l4 14q8 34 4 113l-2 29l-10 -12q-32 -37 -130 -127q-46 -41 -46 -47q0 -23 -19 -63q-19 -38 -49 -68q-44 -44 -76 -44q-12 0 -18 6q-16 17 16 61q23 30 93 93
q27 25 27 28q5 11 -12 103q-7 37 -7 67q0 36 10 62q26 65 101 103q66 33 88 10q7 -10 3.5 -18.5t-16.5 -10.5q-40 -5 -80 -37q-32 -23 -49 -52q-16 -26 -18 -51t5 -93q0 -7 1 -17t1.5 -17.5t0.5 -10.5q0 -14 1 -14t22.5 18.5t50 45.5l47.5 46q59 60 67 82q8 26 18 38
q16 14 24 5q7 -6 -3 -25q-8 -15 -9 -29.5t2 -58.5q2 -57 1 -69l-1 -19l41 40q46 47 65 74q8 9 14 9zM-4 -67q19 39 15 41q-2 2 -70 -63q-48 -50 -48 -67q0 -1 2.5 -1.5t6.5 0t8 2.5q17 6 43 30q26 27 43 58z" />
    <glyph glyph-name="u_i" unicode="ui" horiz-adv-x="378" 
d="M398 359q9 -7 3 -23t-42 -78q-40 -67 -82 -158l-27 -61q-4 -9 -10 -10q-6 0 -8 2q-8 6 -1 22q6 18 52 120l20 43l-24 -29q-35 -43 -54.5 -55t-33.5 0l-7 6l-3 22q-4 27 9 74l5 18l-16 -19l-58 -69q-57 -66 -83 -77q-18 -8 -34 5q-8 7 -12 20q-9 29 0 74t32 89
q35 67 55 46q7 -9 -9 -34q-55 -92 -53 -155q-1 -24 8 -24q12 0 38 26q15 13 53.5 58t68.5 85q41 52 41 53q9 7 17 1t1 -22q-2 -9 -15 -37q-34 -83 -29 -115q2 -12 5 -12q9 -3 50 45q42 47 109 148q14 19 20.5 23t13.5 -2zM445 469q5 -1 10 -6.5t4 -10.5q-4 -11 -25 -44
q-5 -7 -12 -7t-10 3q-10 9 6 38q10 18 15 23t12 4z" />
    <glyph glyph-name="Barnett" unicode="Barnett" horiz-adv-x="1900" 
d="M1315 108q-27 44 20 136l14 29q-4 -2 -9 -5q-31 -19 -123 -111q-62 -62 -79.5 -74.5t-30.5 -6.5q-23 10 -12 54q-44 -56 -67 -77t-40 -21q-9 0 -12 3q-22 14 -11 70q19 91 113 246q32 51 29 56q-2 7 -38 7q-50 0 -59 -6q-4 -4 -17 -32q-37 -75 -88.5 -141t-88.5 -85
q-26 -13 -39 0.5t-5 44.5q6 26 28 74q1 3 3 7.5t3.5 6.5t2.5 4.5t1 3.5v1q-7 0 -81 -86q-67 -79 -93 -97q-31 -24 -52 -23q-16 1 -23 16q-4 9 -4 26q1 50 38.5 113t85.5 95q64 42 112 19q22 -12 27 -27q3 -5 7 -4q5 1 9 -3t4 -9q0 -8 -19 -44q-48 -98 -29 -106q1 -1 12 3
q43 19 113 116q15 22 32 50.5t27.5 50t7.5 21.5q-8 0 -43 -8q-42 -8 -68 -9q-41 -1 -53 12q-8 7 -8 18q0 28 39 62.5t89 51.5q73 24 91 -6q13 -23 -10 -82l-4 -12q0 -1 2.5 -1t7.5 0.5t10 1.5q53 7 78 -3q29 -13 8 -56q-1 -4 -32 -60q-96 -168 -106 -231q-5 -29 5 -29
q11 0 43.5 33.5t72.5 86.5l7 9q19 43 45.5 83t44.5 53t27 1q6 -7 4 -13t-18 -26q-44 -56 -76 -128q-19 -40 -19 -51q0 -8 105 94q55 55 88 80q38 28 52 23q6 -2 8 -6q5 -11 -16 -53q-27 -56 -30 -80q-4 -22 4 -38.5t22 -13.5q28 5 81 63l19 20q14 29 26 43q30 41 65 56.5
t49 -6.5q15 -24 -30 -69q-34 -34 -71 -34h-8l-7 -14q-16 -36 -10 -52q2 -8 24 2q35 16 77.5 58t112.5 130q101 124 101 131q0 1 -10 1q-4 -1 -43 -3q-171 -6 -217 -26q-9 -4 -15.5 0.5t-5.5 14.5q1 12 40 20q73 15 209 18q53 0 57 2q3 3 22 34q51 82 97 142t63 67
q7 2 12 -1.5t5 -10.5t-79 -112q-56 -77 -68 -97l-14 -21l19 -1l57 -3l38 -1l16 27q59 93 87 133q91 131 98 136q6 5 13 2.5t7 -10.5q0 -6 -70 -109q-56 -83 -93 -145l-22 -37l11 -1q74 -11 108 -18q7 -1 18 -3.5t16 -3.5t6 -1q8 -4 3 -14q-2 -4 -9 -3.5t-51 7.5
q-92 15 -112 15q-4 0 -55 -92q-154 -277 -192 -395q-14 -43 -6 -47q2 -2 1.5 -7t-4.5 -7q-5 -4 -11 -1q-8 3 -11 27q-6 57 92 254l29 61q-140 -195 -181 -216q-24 -12 -30 15q-13 53 86 248q0 1 2 3q10 20 9 20l-27 -31l-1 -1l-1 -1q-139 -171 -201 -176q-11 -1 -19 3
q-24 15 -16 59q-15 -17 -29 -29q-24 -20 -36 -27q-17 -8 -28 -7q-19 1 -32 23zM379 530q-36 -46 -59 -78l-25 -36l-25.5 -37.5t-10.5 -16.5q1 -1 46 19q6 3 24 30q49 71 95 126q63 75 124.5 126.5t105.5 65.5q31 10 44 -2q22 -22 -5 -74q-25 -47 -90 -105.5t-154 -113.5
q-39 -24 -104 -59l-23 -11l28 -1q72 -3 114 -31t61 -85q18 -53 3 -111q-21 -87 -109 -162q-77 -66 -162 -84q-15 -4 -51 -5t-51 1q-46 7 -82 30q-43 29 -51 72q-5 25 3 59q19 67 91 125l17 14l9 22q15 40 44 91l7 13q0 1 -21 -5q-47 -14 -62 -8q-11 4 -6 14q5 8 32 19t59 17
l22 5l16 27q59 92 93 138q38 50 47 55q16 10 24 -4q6 -12 -18 -40zM344 344q-28 2 -35 -3.5t-33 -46.5q-30 -48 -30 -50q8 3 18 5q19 6 50 6q32 0 43 -6q10 -5 20 -15q8 -8 15.5 -22.5t7.5 -20.5q0 -8 -7 -11.5t-12 2.5q-1 2 -6 15q-5 20 -14.5 29t-28.5 12q-34 6 -92 -15
l-10 -4l-29 -49q-50 -83 -61 -91q-13 -9 -22 0q-3 4 -3 24q0 13 3 34q3 12 3 15q-1 1 -17.5 -15.5t-25.5 -28.5q-14 -17 -22 -36q-37 -77 12 -123q58 -53 169 -36q98 15 188 105q47 48 70 99q15 34 15 75t-17 75q-18 38 -53 56t-96 21zM1666 65q83 94 237 321l32 46l-8 2
q-5 1 -57 1h-49l-24 -42q-90 -157 -128 -248q-34 -79 -36 -109q0 -7 33 29zM400 475q-52 -64 -52 -71q0 -1 16 7.5l45 24.5q68 41 135.5 94.5t101.5 93.5q49 61 41 83q-4 10 -22 5q-47 -11 -116 -73t-149 -164zM773 283q21 21 21 23t-8 8q-8 5 -26 5q-28 0 -64 -24
q-38 -26 -72 -74.5t-41 -88.5q-3 -19 1.5 -23t20.5 4q20 10 40.5 29.5t68.5 75.5q30 36 59 65zM1008 457q10 32 10 45.5t-10 17.5q-13 5 -45.5 -4t-60.5 -25t-49 -38.5t-21 -36.5q0 -6 15 -11q17 -4 60 4q89 15 90 18zM283 340q0 1 -4.5 1t-11.5 -2l-14 -4l-15 -6l-17 -29
q-36 -60 -44 -80l-3 -7l44 22l32 52zM164 184q-6 -5 -17 -36.5t-11 -41.5q0 -4 8 8q9 13 33 52q22 37 21 38t-15.5 -7.5t-18.5 -12.5zM1502 207q-2 -4 3 -4t15 5q9 4 24.5 19t21.5 25l4 9l-6 -1q-9 -2 -16 -8q-7 -4 -25 -22t-21 -23z" />
    <glyph glyph-name="c_h" unicode="ch" horiz-adv-x="659" 
d="M699 780q9 -6 -1 -25q-2 -7 -46 -81l-116 -200q-188 -322 -215 -373l-17 -34.5t-5 -12.5q12 12 25 28q70 80 129 139q68 68 102 91q22 14 31.5 17t16.5 -4q8 -7 3 -24t-32 -74q-27 -54 -29 -75q-1 -12 3 -19q13 -26 87 40q29 26 34 26q9 0 9 -8q0 -4 -33 -32.5t-49 -38.5
q-21 -13 -35 -13q-37 0 -37 49q0 32 35 101q23 44 23 47q-1 2 -12.5 -6t-29.5 -23q-47 -41 -133 -131q-21 -23 -62 -72q-44 -51 -57.5 -63.5t-22.5 -8.5q-4 1 -8 9q-3 8 0 22q11 48 60 133q52 96 245 415l34 57q-3 -3 -27 -37l-68 -93l-172 -235q-96 -132 -150 -198
q-75 -89 -121 -107q-29 -12 -52 -2q-9 3 -20.5 14t-16.5 22q-12 27 -12 63q0 61 31 124.5t87 116.5q28 30 65 41q18 5 34 4q37 -1 49 -29q6 -14 3 -41.5t-12 -36.5q-10 -12 -21 -1q-5 4 -5 36q0 24 -4 29q-4 4 -18 4q-36 -3 -80 -47q-78 -78 -95 -168q-9 -42 1 -74
q27 -91 154 49q49 53 198 257l91 123l144 196q88 123 108 134q7 3 12 0z" />
    <glyph glyph-name="t_t" unicode="tt" horiz-adv-x="215" 
d="M379 486q-37 -3 -40 -8l-94 -147q-94 -150 -156.5 -269t-70.5 -164q-3 -13 -3 -23q0 -7 -3 -9q-2 -2 -6.5 -2t-6.5 3q-7 7 3 57q2 13 18 51q53 136 249 455l29 49h-2l-6 -1h-10.5t-12 -1t-13.5 -1q-9 -1 -22 -2t-19 -1.5t-7 -0.5q-7 0 -79 -113.5t-125 -207.5
q-64 -114 -93 -210q-3 -9 -8 -9q-6 -1 -9 3t-2 12q10 46 39 114q47 109 196 347q7 12 17 27.5t14 22.5l4 7q1 1 0.5 1.5t-3.5 0.5q-1 0 -33 -4q-164 -19 -295 -47q-24 -5 -38 -5q-17 3 -17 18q0 13 17 19.5t62 11.5q7 1 28.5 3.5t29.5 3.5q9 1 68 8l66 7q59 7 77 8
q41 3 52 6q6 1 20 24q48 76 69 114q11 22 17 24q13 7 22 -6q6 -10 -3 -28.5t-50 -79.5q-27 -41 -27 -44h6q7 1 18.5 1.5t21.5 0.5q46 4 48 6q0 1 40 63q80 127 91 132q14 9 22 -6q5 -10 -2 -23t-59 -91l-49 -74h7.5t19 1t26.5 1q68 4 148 4q97 0 107 -4q22 -6 16 -18
q-3 -8 -15 -8.5t-56 3.5q-24 2 -106 1t-127 -3z" />
    <glyph glyph-name="f_h" unicode="fh" horiz-adv-x="519" 
d="M534 183q-12 -18 -49 -57t-58 -56q-28 -22 -44 -24q-20 -2 -27 17q-9 17 -1 79q4 28 2 32q-1 3 -7 0q-20 -11 -70.5 -60t-102.5 -109q-43 -51 -50 -55q-10 -6 -19 1q-5 4 -4 15q3 32 79.5 182.5t154.5 278.5l2 4l-2 -1q-1 -1 -4.5 -5.5t-9.5 -11.5t-12 -13
q-198 -235 -315 -322q-19 -14 -22 -17.5t-2 -8.5q1 -3 3 -23q5 -32 -5.5 -71.5t-29.5 -58.5q-8 -8 -16 -8t-13 6q-13 15 -7 56q9 60 48 152t90 173q30 48 65.5 93t51.5 57q16 11 27 2q8 -10 -8 -26q-26 -24 -63.5 -75t-66.5 -102q-19 -33 -43.5 -83t-22.5 -52q3 -3 63 52
q51 46 136 138q108 119 195 229q50 62 93 127q59 89 67 94q4 2 8 2q3 0 6.5 -4t3.5 -8l-26 -41q-90 -136 -192.5 -315t-168.5 -315q-21 -43 -18 -43l2 2q1 2 6.5 8l14 15.5l15.5 17.5q103 115 152 142q20 10 30 0t6 -39q0 -4 -2 -18.5l-3 -21.5q-6 -36 3 -47q4 -4 10 -3
q31 6 124 113q8 9 12.5 13.5t8 6.5t5 1.5t3.5 -3.5q2 -4 -3 -12zM-42 6v22q-3 0 -13.5 -39.5t-12.5 -56.5v-9l2 2q0 1 8 14q14 27 16 67z" />
    <glyph glyph-name="e_e" unicode="ee" horiz-adv-x="435" 
d="M444 201q3 0 6 -3t3 -6q0 -7 -33 -40.5t-61 -54.5q-35 -26 -64 -31q-23 -5 -42.5 7t-26.5 36l-2 8l-19 -17q-50 -44 -85 -68q-32 -22 -54 -28q-7 -2 -20 -2t-18 2q-52 16 -55 81q-3 31 10 70q21 64 67.5 119t93.5 73q22 8 35.5 1.5t13.5 -26.5q0 -21 -25 -56t-58 -59
q-49 -38 -84 -38h-9l-6 -14q-19 -52 -13 -84q4 -26 20.5 -39.5t38.5 -9.5q41 9 132 88q33 29 35 41q5 32 29.5 70t47.5 50q18 9 29.5 -1.5t2.5 -27.5q-11 -19 -55 -67q-21 -23 -24.5 -29t-3.5 -19q0 -26 17 -37q9 -5 22 -4q42 3 123 84zM70 257q-8 -10 -21 -29.5t-13 -21.5
q0 -1 2.5 0t9 3t15.5 6q15 6 24 11q27 15 51.5 41t31.5 46q5 15 -6 15q-16 0 -43 -20.5t-51 -50.5z" />
    <glyph glyph-name="g_i" unicode="gi" horiz-adv-x="496" 
d="M514 193q2 -6 -3 -12t-25 -22q-41 -33 -62.5 -42.5t-41.5 -4.5q-39 11 -39 62q0 24 9 51l-24 -20q-29 -27 -60 -53q-26 -22 -31 -27.5t-10 -16.5q-22 -52 -67 -97q-33 -35 -57 -50q-21 -12 -27 -1q-6 7 2 26q23 47 120 135l15 14l8 25q18 53 20 86q1 19 -2 24q-2 4 -9 0
q-28 -13 -111 -92q-65 -63 -91.5 -83.5t-42.5 -20.5q-24 0 -24 29q0 22 23 66.5t51 76.5q47 52 95 80q60 34 96 11q21 -12 21 -34q0 -10 5 -14q13 -9 11 -44q-2 -31 -13 -69l-2 -11q2 -2 59 49q33 31 73 76q13 16 16 18q2 2 7.5 1t7.5 -4q7 -7 -8 -39q-30 -66 -30 -100
q0 -23 13.5 -30.5t36.5 4.5q25 12 68 48q18 17 23 5zM222 291l-2 3q-1 2 -4.5 5t-6.5 4q-17 8 -47 -7q-33 -17 -70 -50.5t-60 -67.5q-10 -15 -20 -33.5t-16 -31.5t-4 -13l8 4q21 10 103 88q78 73 119 99zM159 43q30 35 26 39l-14 -14q-14 -13 -30 -31l-24 -27
q-18 -22 -16.5 -22.5t24.5 19.5q19 17 34 36zM434 385q6 23 19 23t13 -13t-13 -29q-4 -4 -10.5 -3t-9.5 5q-3 5 1 17z" />
    <glyph glyph-name="g_g" unicode="gg" horiz-adv-x="558" 
d="M576 186q0 -6 -64 -70q-48 -47 -58 -58t-18 -27q-50 -88 -106 -126q-14 -9 -22 -9q-14 0 -14 12q0 18 83 98q39 38 47 49.5t23 50.5q30 77 33 124l1 22l-13 -22q-25 -43 -48 -65q-38 -37 -54 -21q-4 6 -3 18v13l-33 -34q-122 -124 -127 -138q-62 -145 -151 -236
q-36 -36 -54 -33q-4 0 -8 6q-27 39 164 246q33 35 35 38q5 10 13 30q44 111 50 197q1 32 -3 32q-10 0 -114 -98q-87 -82 -113 -98q-39 -25 -50 2q-13 26 11.5 76.5t72.5 98.5q64 65 127 82q30 7 52 0q22 -8 30 -30l7 -18q3 -8 3 -36.5t-4 -48.5q-8 -47 -29 -109l-11 -37
l41 43l87 91l71 73q23 25 34 31.5t18 -1.5q2 -2 2.5 -8t-1.5 -8q-3 -2 -2.5 -3.5t3.5 -1.5q9 0 15 -16q6 -21 -2 -68q-9 -44 -25 -86q-1 -2 -2 -6l-4 -10l48 48q35 34 42.5 40.5t11.5 5.5q7 0 8 -5zM220 287q11 8 12 10t-2 5q-16 16 -65 -10q-54 -26 -109 -93
q-19 -22 -36 -49.5t-20 -40.5q-1 -6 2 -7q3 0 13 8q27 17 113 96q66 62 92 81zM152 -56l13 24l-12 -13q-71 -75 -114 -140q-32 -46 -32 -58q0 -7 30 25q65 65 115 162zM440 222q10 16 18.5 31.5t7.5 16.5t-16.5 -16.5t-25.5 -30.5q-31 -43 -31 -50q0 -4 22 18q13 13 25 31z
M384 -14l-36 -34q-17 -17 -21 -22l-3 -5l12 10q3 3 5 4q21 18 43 47z" />
    <glyph glyph-name="l_l" unicode="ll" horiz-adv-x="267" 
d="M530 698q-1 -12 -64 -108q-326 -501 -373 -653q-7 -24 -8 -38q-2 -16 -4 -21q-2 -2 -7 -2t-8 3t-2 19q3 34 15 71q38 115 185 354l28 46q5 9 -4 -3l-35 -49q-122 -171 -180.5 -243.5t-89.5 -91.5q-13 -7 -22 -7q-29 0 -29 40q0 22 14 61q14 42 38.5 89.5t88.5 155.5
q201 338 244 376q15 13 23 3q8 -9 -9 -35q-40 -56 -174 -272q-101 -164 -136 -226t-52 -108q-22 -62 -6 -62q12 0 46 36q65 66 201 258q296 414 306 418q2 1 9 -1q5 -2 5 -10z" />
    <glyph glyph-name="f_f" unicode="ff" horiz-adv-x="380" 
d="M478 599q39 37 55 21q6 -6 6 -16q0 -46 -82 -160q-66 -92 -182 -212l-48 -49l-16 -29q-88 -154 -123 -277q-9 -32 -12.5 -62.5t-1.5 -49.5t10 -19q4 0 16 12t21 26q42 63 62 145q26 98 13 151q-4 16 -2 21q4 7 11.5 5.5t12.5 -10.5q9 -17 34 -12q52 9 116 92q16 21 20 21
q9 0 9 -10q0 -2 -20.5 -27t-33.5 -38q-34 -35 -63 -49q-16 -8 -37 -8h-21v-18q0 -59 -22 -137q-18 -61 -50 -116.5t-55 -65.5q-12 -6 -22 -2q-44 17 -14 150q21 87 78 205q16 33 14 34l-3 -2q-96 -78 -186 -120l-15.5 -7.5t-15 -7.5t-7.5 -3q-12 -7 -7 -27q4 -13 4 -50
q0 -40 -5 -59q-12 -50 -30 -64q-19 -17 -28 13q-6 19 -2 49q7 48 22 94q10 28 8 32q-2 3 -11 5q-11 3 -15.5 10.5t1.5 15.5q2 3 11 2t15 -5q5 -4 10 -4q2 2 13 27q49 118 147 280q55 91 104 158q58 79 88.5 103t49.5 4q6 -7 6 -18q0 -21 -11 -27q-7 -4 -12.5 0.5t-5.5 12.5
q0 7 -16 -9q-2 -2 -5 -4q-36 -37 -92 -114t-107 -162q-90 -151 -121 -228l-5 -10l5 1q14 3 94 51q53 34 103 75t60 59q102 177 204 315q44 60 82 98zM-101 -136q5 37 1 59q-6 -14 -18 -66q-2 -9 -3.5 -24t-2 -24.5t0.5 -11.5q2 0 6 11q11 22 16 56zM516 596l1 7l-8 -6
q-28 -22 -88.5 -107t-128.5 -197q-16 -26 -15 -27q1 -2 30 30q6 6 13 14q9 11 29 33t25 28q46 56 86 115q20 29 37 63t19 47z" />
    <glyph glyph-name=".notdef" horiz-adv-x="202" 
 />
    <glyph glyph-name=".null" horiz-adv-x="0" 
 />
    <glyph glyph-name="nonmarkingreturn" horiz-adv-x="333" 
 />
    <glyph glyph-name="space" unicode=" " horiz-adv-x="202" 
 />
    <glyph glyph-name="exclam" unicode="!" horiz-adv-x="157" 
d="M29 61q-5 2 -7 9q-5 10 4 18t20 4t11 -15t-11 -16q-8 -4 -17 0zM81 149q-7 -7 -13 1q-2 3 -2 8l83 159l51 95l93 167l59 103q19 35 28 38q9 2 16 -3t7 -14q0 -7 -19 -39q-15 -26 -25 -39q-2 -4 -43 -69t-51 -82q-75 -123 -141 -247q-39 -72 -43 -78z" />
    <glyph glyph-name="quotedbl" unicode="&#x22;" horiz-adv-x="168" 
d="M217 694q12 0 16.5 -11t-3.5 -22q-1 -2 -8 -13l-11 -17q-19 -32 -27 -32q-1 0 -7 2q-4 2 -6 7q-2 6 10 31q2 5 6 13.5t6 13.5t3 8q6 20 21 20zM164 684q22 -12 2 -34q-1 -2 -7.5 -11t-9.5 -15q-3 -4 -6 -9t-5 -8t-2 -4q-3 -4 -9.5 -4t-10.5 3q-3 3 -3 13q0 3 27 60
q2 4 10 8q6 4 14 1z" />
    <glyph glyph-name="numbersign" unicode="#" horiz-adv-x="356" 
d="M293 248l-22 -38l-22 -39l10 -1q11 -1 15 -5.5t-1 -9.5q-3 -3 -18 -3q-16 0 -19 -4q-1 0 -28 -47q-53 -91 -69 -115.5t-22 -24.5q-4 0 -7 3q-7 3 -7 10t6 10q8 5 76 127l22 38h-16q-9 1 -53 -1l-37 -1l-31 -52q-28 -51 -34 -57q-4 -4 -10 -2q-9 3 -1 18q4 10 23 43
q27 49 27 50t-18 1q-27 0 -27 11q0 7 5.5 9t26.5 2h27l16 28q3 6 8.5 15.5t9 15t4.5 8.5l6 9h-15q-21 -1 -21 10q0 12 28 13q18 0 21 3q4 2 14 21l71 116.5t45 69.5q10 7 19 3q9 -6 9 -15q0 -7 -21 -36l-35.5 -52l-48.5 -73l-22 -34q1 -1 48 -1t49 1q12 15 109 203
q15 30 21 36q14 8 22 -2q11 -11 -4 -37q-26 -50 -94 -164l-22 -38l22 -1q23 -1 26 -6q3 -4 1 -8q-4 -5 -32 -6zM240 209l21 39l-48 1q-49 0 -52 -3q-2 -2 -24 -38t-22 -37q0 -2 30 -2q25 0 42 1h31z" />
    <glyph glyph-name="dollar" unicode="$" horiz-adv-x="278" 
d="M320 519l-77 -127q-45 -74 -45 -76q0 -3 18 -28q30 -42 30 -64t-18 -37q-33 -25 -123 -36l-9 -1l-30 -50q-30 -50 -34 -51q-3 -2 -8 1q-4 4 -4 6q0 4 27 47l26 44l-17 1q-13 1 -17 3t-3 8q1 7 28 8l22 2l43 69l43 74q1 2 -10 20q-35 54 -35 95.5t34 84.5q48 60 123 86
q31 11 52 11q12 0 17 5.5t30 45.5q28 48 33 50q10 4 12 -6q1 -4 -26 -49l-26 -45q0 -2 14 -6q25 -8 38.5 -26t6.5 -34q-4 -9 -13 -9t-14 9q-12 25 -46 28l-9 2zM225 240q-2 5 -18 28t-20 28l-2 -2q-2 -1 -4.5 -5t-4.5 -8q-3 -4 -16.5 -26.5l-22.5 -36.5q-28 -46 -24 -46
q1 0 23 4q68 14 82 28q17 15 7 36zM185 335q1 0 61 98l71 117q11 20 10 21t-21.5 -4.5t-34.5 -10.5q-52 -22 -90 -63q-30 -34 -31 -66t26 -80q7 -12 9 -12z" />
    <glyph glyph-name="percent" unicode="%" horiz-adv-x="351" 
d="M254 251q21 11 33 1q16 -10 8 -56q-8 -42 -33.5 -85.5t-48.5 -53.5q-19 -9 -32 -1q-33 21 -15 86q7 27 24 51.5t32 30.5q9 6 15 13q8 9 17 14zM281 220q0 13 -3 16.5t-12 -0.5q-6 -2 -10.5 -6t-6 -6.5t0.5 -4.5q8 -9 -3 -20q-5 -5 -7 -5q-6 0 -28 -39q-13 -23 -19 -46.5
t-1 -31.5q4 -7 16 -1q22 11 47 60.5t26 83.5zM439 545q-22 -29 -87 -106l-128 -155l-76 -91l-41 -49l-61 -73q-17 -21 -24 -14q-4 4 4.5 16.5t50.5 63.5l65 77l69 84l168 203q141 170 141 195q0 4 -1.5 4.5t-11.5 0.5q-11 0 -60 -8.5t-54 -10.5q-1 -1 3 -8q11 -17 -1 -46
q-21 -56 -67 -105q-32 -33 -55 -24q-12 5 -16.5 20t0.5 35q8 32 30 63q26 38 41 48q12 7 22.5 2.5t10.5 -16.5q0 -8 -16 -26q-25 -30 -46 -67q-17 -33 -13 -37q2 -2 8 0q18 4 54.5 57.5t36.5 76.5q0 8 -8 16t-7 13q1 10 45 21q70 14 95 13q18 0 24 -7q10 -12 0 -35
q-25 -48 -95 -131z" />
    <glyph glyph-name="ampersand" unicode="&#x26;" horiz-adv-x="374" 
d="M282 362q-35 -12 -80 -41.5t-50 -43.5q-1 -6 2 -10q11 -10 70 -11q30 -1 36.5 -2.5t4.5 -8.5q-1 -5 -22 -12q-28 -8 -74 -33.5t-77 -48.5q-49 -36 -52 -57q-2 -7 5 -14q15 -15 55 -14q25 0 49 6q40 11 82 37q37 25 46 37q5 7 -3 8q-5 0 -23 -1q-25 -1 -27 2q-3 3 -0.5 8
t7.5 6q3 0 29 2q25 1 31 -3q7 -6 8 -14q1 -15 -27 -38q-60 -47 -118 -62q-25 -5 -27 -9q0 -1 -3.5 -6l-9 -13.5t-10.5 -15.5q-16 -26 -21 -31.5t-11 -1.5q-3 1 -3 6t16 32q17 27 17 30q0 2 -12 2q-45 0 -63 23q-4 6 -6 18q-1 32 48 70q46 36 111 70q18 7 18 10q-8 1 -17 2
q-47 3 -52 30q-6 33 67 84q58 42 93 49q8 2 30 38q13 22 19 28t12 4q10 -5 -10 -36q-15 -23 -15 -24q0 -3 9 -3q23 0 34 -17q14 -22 0 -40q-8 -8 -16.5 -5.5t-11.5 13.5q-3 12 -27 8q-15 -2 -31 -7z" />
    <glyph glyph-name="quotesingle" unicode="'" horiz-adv-x="111" 
d="M160 694q12 0 16.5 -11t-3.5 -22q-1 -2 -8 -13l-11 -17q-19 -32 -27 -32q-1 0 -7 2q-4 2 -6 7q-2 6 10 31q2 5 6 13.5t6 13.5t3 8q6 20 21 20z" />
    <glyph glyph-name="parenleft" unicode="(" horiz-adv-x="193" 
d="M25 -68q-5 6 -4 42t8 73q9 54 23 105q45 155 132 307q71 124 177 238t170 135q17 5 27.5 1.5t10.5 -14.5q0 -7 -4.5 -10t-18.5 -8q-88 -28 -225 -192q-96 -114 -162 -246q-79 -157 -108 -298q-11 -55 -12 -103q0 -27 -2 -31q-1 -2 -5.5 -1.5t-6.5 2.5z" />
    <glyph glyph-name="parenright" unicode=")" horiz-adv-x="223" 
d="M-98 -56q-25 -21 -31 -11q-2 5 0 8q5 8 57 46q86 60 207 210q75 95 135.5 206t87.5 205q25 85 24 172l-1 42l5 4q11 10 22 -1q5 -5 5 -43q0 -47 -11 -103q-39 -184 -178 -394q-79 -120 -188 -229q-54 -54 -96 -84l-18 -13.5t-20 -14.5z" />
    <glyph glyph-name="asterisk" unicode="*" horiz-adv-x="195" 
d="M245 643q-16 -11 -12 -12q15 -9 5 -19q-5 -5 -20 -6q-16 -2 -16 -3t0.5 -3.5t1.5 -6t1 -6.5q7 -31 -8 -31q-9 0 -13 17q-2 10 -4 10q-1 0 -15 -21q-10 -18 -18 -28q-8 -12 -16 -4q-5 5 3 18q1 2 5 8t5 8l5 8l-11 -8q-7 -5 -12.5 -7t-9 0t-3.5 8t21 20q13 9 9 12
q-4 2 -5 2t-3 5.5t-2 7.5t4 8q6 6 18 7q3 0 5.5 0.5t4.5 1t3 1.5h2q0 7 -2 14q-3 13 0 16q4 8 11 7t11 -11q3 -7 4 -7q2 -1 8 9q3 5 10 18q13 23 16 25q7 4 15 -5q5 -7 -10 -29l-11 -17l15 9q16 10 17 10q3 -1 5 -3q8 -7 -14 -23z" />
    <glyph glyph-name="plus" unicode="+" horiz-adv-x="196" 
d="M105 156l-15 -27q-16 -27 -18 -29q-3 -2 -7.5 -1.5t-5.5 3.5q-3 5 11 30q11 20 11 21q-5 1 -12 1q-20 -2 -20 11t26 13h6t5 0.5t4 0.5h2q2 2 15 26q9 18 14 23.5t12 3.5q3 -1 6.5 -5t3.5 -8q0 -2 -12 -20l-12 -18l11 -2q11 -2 14 -4t2 -8q-1 -11 -26 -11h-15z" />
    <glyph glyph-name="comma" unicode="," horiz-adv-x="81" 
d="M-20 27q-5 5 1 16q5 9 3 13q-4 10 1.5 19t16.5 11q9 1 14 -5q4 -6 4 -9q0 -7 -14 -28t-19 -21q-1 0 -7 4z" />
    <glyph glyph-name="hyphen" unicode="-" horiz-adv-x="214" 
d="M161 175q9 -9 0 -18q-4 -4 -49.5 -6t-53.5 1t-8 10.5t7 12.5q5 4 52 4t52 -4z" />
    <glyph glyph-name="period" unicode="." horiz-adv-x="81" 
d="M3 88q4 0 9 -5q7 -6 4.5 -16.5t-11.5 -13.5l-7 -2l-4 2q-9 4 -9 16q0 4 7 11.5t11 7.5z" />
    <glyph glyph-name="slash" unicode="/" horiz-adv-x="276" 
d="M31 -105q-4 0 -9 5q-2 3 2 12q2 4 133 214l249 398l38.5 62l38.5 62.5t22 34.5q6 9 13.5 21.5l12 19.5t5.5 9q7 15 17 7q7 -5 -11 -32l-104 -167l-143 -229l-101 -164q-43 -65 -103 -166q-55 -86 -60 -87z" />
    <glyph glyph-name="zero" unicode="0" horiz-adv-x="273" 
d="M35 130q-13 21 -14 61q-1 28 4 55q18 109 97 223q39 56 61 66q6 3 26 32q45 68 89 87q21 8 36 0q19 -10 28.5 -41.5t4.5 -74.5q-11 -100 -86 -238q-90 -163 -168 -193q-25 -10 -49 -2q-18 6 -29 25zM111 398q-42 -68 -60 -141.5t-2 -110.5q16 -39 58 -21q24 9 50 34
q53 49 109.5 155t74.5 190q5 22 5 57t-4 49q-8 21 -18 27q-14 7 -43.5 -16.5t-54.5 -60.5l-17 -25l5 -5q12 -12 7 -26q-4 -11 -12 -14t-15 4l-4 5l-17 -17q-28 -29 -62 -84z" />
    <glyph glyph-name="one" unicode="1" horiz-adv-x="149" 
d="M33 80q-1 -2 -6 -2t-6 2q-3 4 8 22q2 3 39 68l69 122l63 110q56 100 120 197q47 73 45 73l-10 -8q-62 -56 -119 -127q-20 -25 -33 -22q-8 1 -11 10t2 19q14 27 99 104q44 39 65.5 51.5t31.5 3.5q9 -8 -1 -28q-18 -30 -52 -81q-69 -104 -122 -198l-63 -111l-67 -119
q-47 -84 -52 -86z" />
    <glyph glyph-name="two" unicode="2" horiz-adv-x="352" 
d="M180 221q-142 -125 -142 -135q0 -3 3.5 -4t16.5 0t32.5 3.5l56.5 7.5q97 15 103 9q3 -2 3 -6t-4 -5q-2 -2 -19 -4q-13 -1 -124 -16q-65 -10 -76 -3q-15 7 -6 29q12 24 150 143q61 51 144 128t108 105q86 93 96 147q5 20 -3 32q-9 14 -34 13q-69 0 -170 -99
q-20 -20 -34 -38q-13 -16 -16 -18q-8 -4 -15.5 0t-9.5 13q-4 20 46 69q73 73 150 98q22 8 44 8q34 0 53 -16q31 -26 12 -77q-23 -62 -103 -145q-88 -90 -262 -239z" />
    <glyph glyph-name="three" unicode="3" horiz-adv-x="358" 
d="M270 137q-52 -52 -142 -64q-36 -3 -86 -1q-16 0 -19 3q-2 2 -2 6.5t2 6.5q1 1 54 3q51 1 71 5q65 14 105.5 50t26.5 68q-10 25 -66 48q-25 10 -32.5 15.5t-7.5 16.5q0 10 16 26q23 23 125 95q105 73 143 111q47 46 54 83q4 22 -7 33q-12 12 -35 6q-42 -9 -85 -41.5
t-66 -70.5q-7 -12 -11.5 -15.5t-12.5 -2.5q-11 2 -13.5 13t4.5 28q9 19 31 42.5t46 40.5q42 27 82 38t63 1q21 -10 30.5 -30t4.5 -43q-10 -47 -56 -93q-39 -40 -156 -119q-120 -82 -132 -97q-5 -5 -3 -6q2 -3 23 -12q61 -24 76 -55q6 -11 6 -28q0 -30 -31 -61z" />
    <glyph glyph-name="four" unicode="4" horiz-adv-x="250" 
d="M297 378l-70 -122l-22 -37q0 -1 2.5 -1.5t8 0.5t12.5 3q21 4 21 -7q0 -8 -35 -13q-22 -4 -23 -5l-3 -6q-4 -5 -10.5 -16.5t-12.5 -20.5q-50 -82 -55 -86q-4 -4 -10 -1q-4 1 1.5 13t31.5 55l17 29.5t12 21.5l4 8q0 1 -9.5 0.5t-22.5 -2.5q-30 -3 -58 -3q-28 1 -37 6
q-19 9 -19 28q0 29 35.5 83t160.5 212q102 130 124 162q14 20 26 13q18 -8 -1 -41q-22 -36 -74 -99l-168 -204q-78 -99 -82 -124q-1 -8 4 -12q12 -10 52 -7q11 0 31.5 2.5t35.5 4t16 2.5q3 3 101 172l91 154q78 127 84 142q11 20 19 13q7 -4 -1 -20t-44 -74z" />
    <glyph glyph-name="five" unicode="5" horiz-adv-x="323" 
d="M266 289q31 -83 -27 -143q-30 -31 -72.5 -49.5t-80.5 -17.5q-17 0 -27 2q-24 6 -32 20q-14 24 4.5 62t86.5 121q15 19 23.5 28.5t14.5 15t8 5t5 -2.5q2 -4 2 -6q0 -3 -32 -42q-101 -127 -98 -160q1 -15 20 -21q43 -13 113 22q48 26 67 58q19 31 15 63.5t-34 84.5
q-22 37 -32 64q-15 47 4.5 100t79.5 128q23 29 19 30q-1 0 -5 -3q-6 -4 -17.5 -2t-16.5 7q-6 9 1 16q3 5 32 4h27l12 12q13 12 19 12q14 0 17 -11l3 -7l11 1q3 0 9 0.5t15 1.5t15 1q4 0 26 1.5t32 2.5q32 2 35 1q13 -4 7 -13q-1 -4 -15 -4q-15 0 -75.5 -6t-69.5 -8
q-6 -2 -44 -51q-65 -84 -84 -124.5t-11 -79.5q4 -19 27 -65q17 -34 23 -48z" />
    <glyph glyph-name="six" unicode="6" horiz-adv-x="320" 
d="M113 367q-34 -52 -54 -109q-25 -67 -16 -110q6 -28 23 -39q7 -4 18.5 -8.5t13.5 -2.5q3 3 8 25q35 121 111 196q22 22 38 30q40 21 58 -5q14 -21 4.5 -59.5t-40.5 -81.5q-10 -14 -38 -42.5t-43 -40.5q-33 -23 -67 -34l-16 -5l-4 -15q-5 -23 -1 -27t-1 -12t-11 -8
q-4 0 -6 2q-5 6 -1 28q2 19 4 25l1 8l-10 1q-15 2 -30.5 13t-22.5 25q-11 23 -11 59q0 59 37 142q46 101 114.5 187.5t132.5 124.5q82 48 100 8q4 -10 1 -14q-3 -5 -10 -4q-6 2 -19 2q-20 0 -57 -24q-50 -32 -105 -95.5t-101 -139.5zM159 210q-10 -19 -25 -58.5t-15 -47.5
q0 -6 31 9q48 23 93 75.5t57 99.5q7 28 0 42q-8 19 -36 4q-24 -12 -54.5 -48.5t-50.5 -75.5z" />
    <glyph glyph-name="seven" unicode="7" horiz-adv-x="169" 
d="M156 285l-16 -24l-4 -6l15 1q25 1 26 -8q1 -6 -3.5 -8t-19.5 -3q-24 -2 -30 -7t-30 -45q-33 -57 -44 -78q-18 -34 -23 -35q-2 0 -5 3q-5 5 12 37q35 70 62 112l4 5l-19 -1q-20 -1 -24 2q-11 7 -5 17q4 8 18 10t20 -4q4 -4 13 -3q7 1 12 4q2 2 22 35l127 190
q85 124 95 145q20 39 -2 45q-23 8 -77 -4q-27 -6 -31 5q-8 18 27 28q12 4 38 4q26 1 39 -3q37 -11 38 -37q2 -20 -14 -49t-78 -117q-106 -151 -143 -211z" />
    <glyph glyph-name="eight" unicode="8" horiz-adv-x="309" 
d="M281 482q-36 -39 -38 -44q-7 -19 -7 -74v-35l9 -26q14 -42 14 -72q0 -45 -28 -83q-16 -20 -45 -39.5t-53 -25.5q-32 -8 -61 -1q-32 9 -46 36q-10 22 -3 59q20 93 181 267l26 29l7 20q21 60 64 106q27 29 53.5 45t38.5 12q11 -4 11.5 -13t-12.5 -29.5t-39 -51zM290 554
q-23 -38 -23 -42q0 -1 16.5 16l36 37t27.5 29q8 8 15.5 17t11.5 15.5t3 6.5q0 1 -4.5 -1t-11 -6t-12.5 -9q-33 -25 -59 -63zM236 269q-11 39 -16 47q-2 2 -4 10q-4 19 -13 32q-11 17 1 19q7 0 8 -2q3 7 3 10t0.5 10t0.5 9l2 8l-10 -11q-32 -35 -80 -95q-105 -134 -78 -183
q9 -15 31.5 -21t47.5 1q40 10 73 42q22 21 33 47q5 15 5 39q0 26 -4 38z" />
    <glyph glyph-name="nine" unicode="9" horiz-adv-x="148" 
d="M40 90q-11 -17 -17 -9q-3 1 -3 5q0 1 19 37l47 86l144 252q91 153 89 158q-7 -6 -73 -80q-75 -82 -108.5 -115t-54.5 -43q-17 -8 -27 -2t-10 24q0 17 13 44q32 64 103 135q44 44 83 70q71 47 99 32q6 -3 13 3q12 10 18 1q3 -5 -0.5 -13t-23.5 -43l-45 -79l-56 -97
l-159 -276q-46 -83 -51 -90zM316 644l2 2l-4 -1q-35 -13 -88 -55t-92 -87q-60 -71 -65 -98q-1 -7 3 -7q3 0 16 9q36 24 141 141q58 64 61 67q25 27 26 29z" />
    <glyph glyph-name="colon" unicode=":" horiz-adv-x="166" 
d="M103 221q4 0 9 -5q7 -6 4.5 -16.5t-11.5 -13.5l-7 -2l-4 2q-9 4 -9 16q0 4 7 11.5t11 7.5zM67 152q4 0 9 -5q7 -6 4.5 -16.5t-11.5 -13.5l-7 -2l-4 2q-9 4 -9 16q0 4 7 11.5t11 7.5z" />
    <glyph glyph-name="semicolon" unicode=";" horiz-adv-x="172" 
d="M109 221q4 0 9 -5q7 -6 4.5 -16.5t-11.5 -13.5l-7 -2l-4 2q-9 4 -9 16q0 4 7 11.5t11 7.5zM53 94q-5 5 1 16q5 9 3 13q-5 10 1 19.5t17 10.5q9 1 14 -5q4 -6 4 -9q0 -7 -14 -28t-19 -21q-1 0 -7 4z" />
    <glyph glyph-name="less" unicode="&#x3c;" horiz-adv-x="242" 
d="M147 202q-2 -1 -57 -35l-22 -13l21 -22q25 -27 18 -33q-1 -3 -5 -3q-3 0 -26 23q-24 24 -25 28q-4 10 4.5 19t45.5 36l46 33q22 16 27 18q7 3 13 -1t6 -12q0 -6 -7 -11.5t-39 -26.5z" />
    <glyph glyph-name="equal" unicode="=" horiz-adv-x="205" 
d="M153 174q-4 -4 -43 -5q-41 -1 -45 3q-5 5 0 12q4 5 41 5q45 1 48 -7q3 -4 -1 -8zM53 138q-4 2 -4 7t3 7q5 2 42 4q39 2 43 -2q5 -4 3 -9t-9 -7q-8 -2 -42 -2t-36 2z" />
    <glyph glyph-name="greater" unicode="&#x3e;" horiz-adv-x="226" 
d="M81 99q-23 -15 -30 -8q-5 7 20 24q38 27 73 56l6 4l-4 7q-4 8 -17 26q-12 17 -15 23q-4 14 9 18q7 3 14 -2.5t20 -24.5q28 -43 12 -57q-4 -4 -21.5 -17l-40 -29.5z" />
    <glyph glyph-name="question" unicode="?" horiz-adv-x="389" 
d="M33 89q9 3 17 -5t4 -16q-2 -7 -9.5 -10.5t-13.5 -0.5q-11 4 -10 17t12 15zM346 704q53 -2 53 -47q0 -39 -73 -139q-183 -249 -238 -338q-15 -26 -23 -18q-3 3 -3 7q0 19 180 268q94 129 107 151q43 70 17 84q-6 3 -22.5 3t-28.5 -4q-34 -9 -64 -32q-32 -24 -52 -54
q-18 -27 -26 -54q-4 -15 -4 -35q-1 -20 6 -41t4 -26q-4 -6 -9 -7q-10 -3 -19.5 6.5t-17.5 30.5q-11 35 0 76q17 57 63 101q25 27 66 47q46 24 84 21z" />
    <glyph glyph-name="at" unicode="@" horiz-adv-x="412" 
d="M266 120q17 15 22 3q4 -8 -4 -16q-60 -58 -110 -70q-37 -9 -69 0q-30 11 -50 36q-39 53 -26.5 131t71.5 163q17 24 50 57t51 44q68 46 106 0q9 -8 28 -10q29 0 49 -21q46 -48 19 -140q-39 -141 -135 -147q-11 0 -16 2q-37 17 -4 96q11 25 27 47q2 4 0 4q-5 0 -75 -71
q-41 -40 -55 -52t-24 -14q-6 -2 -13 1q-14 7 -10.5 32.5t23.5 58.5q18 31 46 57.5t53 36.5q12 4 24 4t20 -4q12 -5 21 -17l8 -10q6 -5 4 -12t-15 -28q-31 -52 -35 -88q-3 -27 14 -30q18 -4 51.5 18t49.5 58q42 80 27 144q-4 22 -15.5 37.5t-27.5 19.5q-12 3 -15.5 1.5
t-3.5 -11.5q0 -13 -8 -19.5t-18 -2.5t-15 16q-3 8 -10 8q-6 0 -8.5 4.5t0.5 9.5q2 5 -2 7t-15 2q-21 0 -53 -24t-64 -64q-53 -63 -77 -139q-21 -73 5 -126q14 -30 45.5 -43t62.5 -2q48 18 96 63zM257 301l9 9l-3 4q-13 13 -36 6q-15 -4 -38 -19q-9 -6 -26.5 -24t-25.5 -29
q-13 -20 -20.5 -41t-4.5 -29q3 -6 12 -1t71 64q56 56 62 60z" />
    <glyph glyph-name="A" unicode="A" 
d="M705 691q-8 -18 -127 -201q-149 -229 -215 -361q-82 -163 -82 -242q0 -20 -2 -22q-6 -7 -12 1q-10 10 -7 46t16 77q54 159 315 558q40 60 42 64q1 3 0.5 3.5t-5.5 0.5q-6 0 -27 -23q-71 -78 -275 -329q-115 -141 -154 -183q-41 -43 -69 -57q-33 -17 -58 8q-43 43 -12 150
q23 84 80 185.5t123 178.5q45 52 94 92q75 60 145 74q41 9 75 -2q45 -12 73 -45l10 -10q3 0 20 19q40 40 48 40q5 0 8 -5q3 -6 -4 -17zM585 600l27 30l-10 10q-29 31 -76 36t-102 -23q-107 -53 -210 -190q-111 -147 -154 -282q-16 -46 -16 -82q0 -37 15 -53q14 -17 38 -4
q28 14 71 62q62 69 170 203q186 228 247 293z" />
    <glyph glyph-name="B" unicode="B" horiz-adv-x="615" 
d="M379 530q-36 -46 -59 -78l-25 -36l-25.5 -37.5t-10.5 -16.5q1 -1 46 19q6 3 24 30q49 71 95 126q63 75 124.5 126.5t105.5 65.5q31 10 44 -2q22 -22 -5 -74q-25 -47 -90 -105.5t-154 -113.5q-39 -24 -104 -59l-23 -11l28 -1q72 -3 114 -31t61 -85q18 -53 3 -111
q-21 -87 -109 -162q-77 -66 -162 -84q-15 -4 -51 -5t-51 1q-46 7 -82 30q-43 29 -51 72q-5 25 3 59q19 67 91 125l17 14l9 22q15 40 44 91l7 13q0 1 -21 -5q-47 -14 -62 -8q-11 4 -6 14q5 8 32 19t59 17l22 5l16 27q59 92 93 138q38 50 47 55q16 10 24 -4q6 -12 -18 -40z
M400 475q-52 -64 -52 -71q0 -1 16 7.5l45 24.5q68 41 135.5 94.5t101.5 93.5q49 61 41 83q-4 10 -22 5q-47 -11 -116 -73t-149 -164zM164 184q-6 -5 -17 -36.5t-11 -41.5q0 -4 8 8q9 13 33 52q22 37 21 38t-15.5 -7.5t-18.5 -12.5zM344 344q-28 2 -35 -3.5t-33 -46.5
q-30 -48 -30 -50q8 3 18 5q19 6 50 6q32 0 43 -6q10 -5 20 -15q8 -8 15.5 -22.5t7.5 -20.5q0 -8 -7 -11.5t-12 2.5q-1 2 -6 15q-5 20 -14.5 29t-28.5 12q-34 6 -92 -15l-10 -4l-29 -49q-50 -83 -61 -91q-13 -9 -22 0q-3 4 -3 24q0 13 3 34q3 12 3 15q-1 1 -17.5 -15.5
t-25.5 -28.5q-14 -17 -22 -36q-37 -77 12 -123q58 -53 169 -36q98 15 188 105q47 48 70 99q15 34 15 75t-17 75q-18 38 -53 56t-96 21zM283 340q0 1 -4.5 1t-11.5 -2l-14 -4l-15 -6l-17 -29q-36 -60 -44 -80l-3 -7l22 11l22 11l32 52z" />
    <glyph glyph-name="C" unicode="C" horiz-adv-x="482" 
d="M580 721q52 -16 55 -78q3 -67 -58 -163t-155 -172q-83 -66 -153 -90q-51 -16 -51 10q0 7 24 15q51 16 120.5 65.5t120.5 106.5q125 136 125 227q0 39 -23 52q-27 17 -73 7q-114 -23 -252 -157t-217 -297q-94 -195 -38 -302q7 -14 22.5 -30t28.5 -22q68 -36 156 18
q55 34 137 116q63 63 115 128q19 24 25.5 29.5t10.5 1.5q3 -5 1 -9.5t-16 -22.5q-55 -72 -119.5 -137.5t-117.5 -103.5q-69 -49 -129 -52h-25q-2 1 -15 3q-27 6 -52 26t-39 48q-22 42 -21 104q0 43 5 66q25 117 114 254t207 238q116 100 218 122q41 10 69 -1z" />
    <glyph glyph-name="D" unicode="D" horiz-adv-x="653" 
d="M481 608q7 -8 4 -16t-26 -39q-16 -22 -58.5 -85.5t-41.5 -64.5q3 0 17 3q18 4 23 4q7 0 10 3q3 2 20 26q90 121 177.5 199.5t147.5 89.5q58 11 79 -36q26 -57 -14 -172q-28 -83 -96.5 -184.5t-157.5 -190.5q-155 -155 -303 -204q-73 -24 -125 -16q-76 10 -103 62
q-14 27 -14 59q1 63 51 138.5t132 137.5q35 26 80 49l22 11l17 29q37 59 82.5 125t55.5 73q12 8 21 -1zM419 395l-26 -38l-96 -146q-59 -91 -74 -102q-12 -9 -21 2q-5 6 -4 27q1 29 20 77q17 45 54 112q6 10 9.5 16.5t2.5 6.5q-1 1 -16 -8t-34.5 -22.5t-30.5 -22.5
q-127 -102 -155 -212q-12 -45 2 -78.5t50 -46.5q39 -14 97 -6q127 19 274 141q26 22 75 70.5t72 76.5q161 195 192 343q16 75 1 103q-8 17 -31 23q-12 1 -27 -2q-49 -13 -116 -68t-138 -142l-26.5 -34l-28.5 -37l-11 -15q1 -1 14 -3q25 -4 43 -21q41 -38 1 -99
q-7 -12 -23 -29.5t-19 -17.5t-8 5t-3 10.5t18 25.5q30 40 32 61q0 13 -5 21q-13 24 -51 28zM393 390l-24 -5l-14 -4q-12 -4 -18.5 -12.5t-34.5 -54.5q-60 -99 -77 -159q-6 -20 -5 -21t7 7l11 15q15 21 46 68q57 90 89 135l9.5 14t8 12t2.5 5z" />
    <glyph glyph-name="E" unicode="E" horiz-adv-x="583" 
d="M356 399l23 11h-2q-109 -15 -136 25q-9 12 -9 34q0 61 86 150q49 52 105 83t98 31q37 0 51 -28q6 -10 5 -28q0 -17 -8 -32q-15 -32 -62 -78q-47 -47 -90 -78q-22 -16 -54 -30t-46 -14q-11 0 -18 7t-5 15q3 10 21 13q56 6 146 77q69 56 89 98q13 28 3 44q-9 13 -38 13
q-20 0 -39 -7q-52 -17 -105.5 -61.5t-90.5 -101.5q-41 -62 -26 -93q17 -36 140 -19q23 3 34.5 4t18.5 0t8.5 -3t0.5 -7q-1 -7 -69 -33q-120 -47 -196 -104q-70 -52 -111 -116.5t-41 -120.5q0 -51 32 -83q25 -26 62.5 -39t76.5 -8q120 13 237 122q55 49 104 111q32 39 36 41
q5 2 6 1q9 -4 4 -11q-43 -57 -82 -98q-27 -30 -31 -34q-21 -23 -69 -61q-62 -48 -129 -72t-121 -17q-34 5 -56 16q-68 33 -85 95q-10 36 0 77q12 53 54 112q15 21 45.5 51.5t53.5 46.5q76 57 179 99z" />
    <glyph glyph-name="F" unicode="F" horiz-adv-x="552" 
d="M399 675q-78 -12 -187 -39l-29 -7l10 -6q39 -23 58 -74t14 -120q-7 -74 -27 -158l-2 -6l15 2q14 0 18 2q2 0 35 63q122 228 180 313q15 22 22 27.5t14 2.5q14 -4 10 -18q-2 -8 -18 -31q-39 -52 -63 -94q-27 -44 -87 -151t-59 -109q16 1 35 3q162 13 193 6q14 -3 14 -11
q0 -3 -1 -4.5t-7 -3t-16.5 -1.5h-33.5q-78 -3 -93 -4q-92 -7 -104 -10q-11 -6 -107 -199q-40 -79 -49 -104q-22 -65 -32 -70q-10 -4 -16 3q-3 6 0 13q3 13 38 88q11 23 37 101q47 150 45 152q-1 1 -31 -4t-34 -7q-7 -4 -14 0t-7 12q0 12 9 16.5t45 8.5q39 3 41 6q6 6 21 95
q9 61 8 108q-5 113 -69 144q-15 8 -21 9q-10 2 -94 -24q-12 -4 -19.5 -5.5t-12.5 -1t-6.5 2.5t-1.5 7q0 11 32 24q49 22 83 19q13 -1 38 6q104 26 174 40q87 18 199 29q40 4 121 4t112 -4q92 -11 106 -43q5 -11 -1 -14.5t-14 6.5q-17 20 -96 29q-169 17 -375 -19zM256 241
q-1 1 -12.5 -1.5t-13.5 -3.5q-2 -2 -11 -34l-15 -49q-5 -15 -5 -18l32 59z" />
    <glyph glyph-name="G" unicode="G" horiz-adv-x="662" 
d="M261 -106q77 33 152.5 103.5t128.5 159.5q16 27 41.5 79.5t23.5 54.5q-12 -12 -25 -27q-95 -100 -145 -140q-102 -83 -176 -83q-41 0 -71.5 28t-40.5 75q-9 46 3 106q20 91 95 210.5t154 182.5q90 74 179 92q37 7 66 0q32 -8 56 -32.5t32 -57.5q12 -47 -10 -114
q-19 -57 -43 -86q-12 -14 -24 -4q-8 6 7 37q56 119 27 182q-19 39 -62 49q-37 8 -100 -16q-67 -28 -119 -71q-78 -62 -150.5 -178.5t-89.5 -205.5q-11 -55 0 -96q11 -43 39 -64.5t69 -16.5q93 10 258 182q68 70 67 71q-2 2 -74 -4.5t-94 -11.5q-14 -2 -19 -2q-12 0 -15 13
q-1 6 4 11t31 6q36 3 76 4q42 3 80 3q29 0 33 5q8 11 18 1q6 -6 20 -6q24 0 24 -10q0 -7 -25 -8l-19 -1l-8 -19q-63 -170 -183 -290q-38 -38 -54 -50q-95 -76 -177 -94q-13 -3 -37.5 -3t-35.5 3q-49 12 -81 53.5t-43 105.5q-4 20 -4 59.5t3 60.5q12 100 58 193q11 20 15 25
t8 4q3 -1 4 -2.5t0 -6.5t-4.5 -13l-10.5 -23q-28 -55 -39 -102q-16 -64 -16 -131q0 -53 5 -74q24 -98 96 -127q18 -6 43 -6q37 0 79 17z" />
    <glyph glyph-name="H" unicode="H" horiz-adv-x="543" 
d="M418 597l-55 -83q-84 -139 -84 -141q0 -3 21 -1q20 2 105.5 1.5t121.5 -2.5q40 -1 42 1t101 158q109 173 123 187q7 7 18 3q4 -1 6.5 -7.5t0.5 -11.5q-1 -2 -32 -47q-33 -45 -66 -95q-113 -168 -124 -190v-1q1 0 3.5 -0.5l5 -1t5.5 -0.5q29 -2 40.5 -6.5t9.5 -12.5
q-2 -9 -24 -5q-18 4 -36 4h-19l-22 -34q-58 -91 -107 -177q-64 -109 -104 -189q-39 -75 -43 -76q-4 0 -8 2q-2 4 -2 5q0 4 39.5 84t57.5 112q60 109 145 248l16 26q0 4 -113 5t-153 -2l-23 -2l-8 -14q-86 -145 -154 -306q-30 -74 -20 -74t47 31q13 11 26 26q10 13 14 15.5
t9 0.5q11 -6 -22 -40q-23 -24 -52 -43q-14 -8 -24 -8q-9 0 -14 5q-4 5 -3 23q1 17 10 43q32 99 122 268l13 23q0 5 -59 10q-13 1 -71 1q-48 0 -51 1q-4 2 -6 6q-5 11 11 19q37 16 166 29q30 4 39 4l10 1l37 65q123 215 152 248q8 8 18 5t10 -13q1 -5 -4.5 -14t-41.5 -63z
M225 330q9 15 5 15q-9 0 -57.5 -6.5t-49.5 -7.5l19 -2q48 -4 66 -13q7 -4 8 -3l2 3l3 6z" />
    <glyph glyph-name="I" unicode="I" horiz-adv-x="242" 
d="M35 -98q-2 -2 -7 -2t-7 4t0 9q6 21 105 204q127 229 290 476q51 77 61 94q9 20 5 20h-2q-4 0 -8 -2q-35 -10 -92 -58q-44 -37 -91 -93q-42 -54 -42 -76q0 -11 -5 -16q-9 -9 -21 4q-24 24 44 104q55 64 121 111t97 45q31 -3 11 -44q-11 -20 -56 -89q-140 -210 -260 -421
q-104 -183 -134 -250q-4 -10 -9 -20z" />
    <glyph glyph-name="J" unicode="J" horiz-adv-x="538" 
d="M94 -74q-53 10 -69 71q-4 15 -4 48t5 55q22 110 98 203q69 85 159 116q17 6 37 7q28 0 38 -17q13 -22 -6 -71.5t-60 -103.5q-16 -22 -39 -48.5t-26 -28.5q-5 -1 -8 3q-4 5 -1 10q5 7 28 34q56 68 81 117q18 40 18 63q0 16 -5 20q-14 12 -58 -5t-86 -51
q-53 -43 -94 -109.5t-56 -135.5q-12 -56 -3 -94q13 -60 66 -63q39 -3 95 26q165 84 318 339q44 75 83 163.5t49 137.5q3 15 3 34t-2 26q-18 52 -108 30q-76 -19 -150 -75q-23 -17 -53.5 -49.5t-31.5 -39.5q0 -12 -12 -12q-10 0 -12.5 9.5t2.5 20.5q16 30 81 81q59 46 124 71
q99 38 149 10q20 -11 31 -36q4 -10 4 -41q0 -29 -6 -53q-20 -82 -77 -198q-45 -89 -94 -161q-108 -164 -234 -247q-106 -70 -174 -56z" />
    <glyph glyph-name="K" unicode="K" horiz-adv-x="530" 
d="M251 365q-17 -31 -22 -37q-4 -7 -2 -7t45 28q119 75 252 173q169 125 217 167q10 10 15 10q3 0 5.5 -4t1.5 -8q-4 -12 -219 -173q-156 -116 -277 -192q-32 -21 -32 -22q9 -15 21 -32q34 -48 54 -80q129 -193 174 -244q12 -15 7 -20q-6 -4 -15 2q-23 19 -180 250l-36 52.5
l-30 44t-11 15.5q-2 2 -8 -2q-7 -4 -26 -41l-19 -36l8 -9q12 -14 11 -41q-3 -48 -48 -113q-13 -20 -25 -31.5t-21 -12.5t-15 8q-17 25 40 145l8.5 19t7.5 15.5t3 6.5q1 2 -4 2t-20 -1q-33 0 -78 -14q-5 -1 -9 3q-10 8 3 16q42 22 127 73l29 18l19 36q66 123 125 217
q55 90 69 102q12 12 25 1q11 -11 -3 -26q-21 -23 -78 -109q-50 -79 -89 -149zM120 217h25l10 21l10 20l-9 -5q-2 -2 -7.5 -5l-13.5 -7.5l-13 -7.5l-25 -15h1q2 -1 5.5 -1h7h9.5zM160 134q12 33 2 50q-2 6 -4 6t-37 -74q-10 -23 -17.5 -44t-10.5 -34t0 -13q1 0 11 10
q14 15 31.5 45t24.5 54z" />
    <glyph glyph-name="L" unicode="L" horiz-adv-x="529" 
d="M375 490q-163 -229 -229 -408q-22 -60 -18 -64q13 2 28 4q125 23 261 20q60 -2 77 -4.5t17 -11.5q0 -10 -13 -7q-13 5 -86 5.5t-121 -4.5q-152 -14 -166 -26q-3 -3 -10 -2q-5 1 -34 -6t-40 -12q-11 -4 -17 1q-4 6 -4 7q0 6 11 10.5t48 14.5l30 7l4 23q13 64 71.5 182.5
t145.5 254.5q31 48 75 108q72 97 94 119q15 16 24 16q16 0 16 -15q0 -8 -17 -26q-73 -84 -147 -186z" />
    <glyph glyph-name="M" unicode="M" horiz-adv-x="730" 
d="M307 573q-53 -55 -119 -158t-104 -191q-15 -35 -29.5 -82t-11.5 -50t37 36q28 35 103 136q63 86 114 147q113 137 222 226q55 45 67 32q8 -8 -3 -34.5t-60 -112.5q-92 -160 -143 -273q-26 -60 -22 -62q2 -3 32.5 27l169.5 172q132 133 197 191q113 98 154 114
q34 13 34 -19q0 -36 -103 -209q-89 -151 -154 -290q-65 -138 -92 -231q-15 -53 -21 -53q-2 0 -5 2q-5 3 -5 6q0 14 29 105q27 81 95 220q61 124 139 255q90 151 99 187q3 10 0 11.5t-16 -4.5q-94 -46 -341 -303q-136 -141 -171 -173.5t-48 -32.5q-33 0 17 111q12 28 31 66
q38 75 107 193l49 87.5t15 31.5q-6 0 -47 -35q-108 -91 -221 -228q-43 -53 -119 -156q-76 -104 -102 -134q-36 -41 -54 -26q-5 4 -6 19q-1 27 16 79q34 108 102 224q77 131 137 193q26 28 38 25q5 -2 9 -7.5t3 -9.5q0 -3 -19 -22z" />
    <glyph glyph-name="N" unicode="N" horiz-adv-x="653" 
d="M28 -72q12 31 86 174q67 124 155.5 262t154.5 221q39 49 57.5 64.5t29.5 6.5q4 -4 5 -16q1 -24 -23 -95q-62 -181 -84.5 -257t-32.5 -140q-7 -39 -8 -80.5t4 -57.5q10 -31 32 -27q36 10 98 101t196 332l83 145l69 123q15 25 22 19q5 -4 -4 -22.5t-71 -127.5l-99 -175
q-118 -214 -169 -291q-37 -57 -70 -92q-34 -34 -63 -34q-54 0 -54 108q0 140 113 441l30 81l6 21.5t4 17t0 6.5q-6 0 -41 -45q-67 -82 -156.5 -221t-159.5 -268q-91 -169 -91 -188q0 -12 -9 -17q-9 -4 -15 2q-5 6 5 29z" />
    <glyph glyph-name="O" unicode="O" horiz-adv-x="495" 
d="M533 557q0 -80 -11 -139q-20 -105 -71.5 -209t-122.5 -182q-117 -129 -211 -109q-71 16 -92 97q-5 17 -5 61q0 59 14 116q23 92 75.5 195.5t114.5 179.5q36 46 90 93q61 49 106 60q18 7 20 8q7 7 21 9.5t24 -2.5q6 -2 14 -10q20 -22 29 -79q5 -24 5 -89zM507 468
q4 24 4.5 75t-1.5 73q-4 35 -13 63.5t-19 34.5l-1 -1q20 -16 7 -29q-9 -9 -22 0q-20 14 -68 -11q-76 -38 -153 -131.5t-132 -214.5q-48 -105 -61.5 -193.5t11.5 -140.5q14 -29 39 -43q37 -20 85 -4q51 19 110 78q60 60 106 136q87 147 108 308z" />
    <glyph glyph-name="P" unicode="P" horiz-adv-x="768" 
d="M24 397q11 45 50.5 93.5t98.5 90.5q100 71 221.5 108t227.5 28q124 -11 191 -75q40 -37 49 -78t-8 -106q-21 -84 -86 -164q-38 -48 -80 -80q-118 -96 -241 -104q-46 -4 -84 14.5t-55 53.5l-7 14l-33 -66q-34 -67 -38 -88q-8 -30 -22.5 -66t-23.5 -46q-11 -11 -19 -3
q-4 4 -4 7q-7 17 41 124q15 33 14 46q-4 51 -85 111q-53 39 -74 60.5t-31 48.5q-13 34 -2 77zM573 701q-67 0 -148 -22t-152 -60q-161 -84 -214 -189q-34 -67 -6 -118q17 -30 75 -74q56 -42 77 -67q9 -10 17.5 -26t8.5 -21q0 -8 8 7q4 7 10 20l34 64q16 31 19 39q0 2 5 10
q4 2 14 23q55 102 129 216q27 40 62 86t46 54q14 10 20 -1q6 -7 -16 -32q-84 -99 -220 -343l-20 -36v-15q0 -27 23 -50q65 -65 215 -2q63 27 122 77t99 109q33 50 50.5 112.5t8.5 98.5q-7 29 -32.5 57t-60.5 46q-72 37 -174 37z" />
    <glyph glyph-name="Q" unicode="Q" horiz-adv-x="544" 
d="M42 -58q-34 66 -15 182.5t84 249.5q37 75 86.5 147.5t95.5 116.5q46 43 85 52q10 1 31 12q59 29 105 4q34 -18 58 -67q29 -65 9.5 -180t-82.5 -245q-65 -133 -155 -226q-58 -61 -115 -90l-22 -12l-2 -22q-3 -19 -5 -50q-1 -27 -5 -31q-9 -7 -16 2q-4 4 -4 25q0 19 2 45
l1 24l-9 -1q-41 -7 -75 10t-52 54zM49 106q-11 -66 0 -114q10 -46 32.5 -69t63.5 -27q1 0 19 2q16 2 16 4q2 2 4 28q0 6 1 13.5t1.5 12.5t0.5 7q2 11 11.5 14t15.5 -5q4 -5 4 -9t-5 -31q-2 -11 -2 -20l18 8q38 20 84 65.5t87 102.5q75 106 124 241t45 224q-3 76 -44 117
q-15 16 -25 20t-33 4q-25 0 -37 -5q-13 -4 -13 -6q0 -3 3 -7q3 -7 0 -12q-5 -11 -16 -7q-4 3 -16 3q-41 0 -118 -90.5t-136 -208.5q-67 -135 -85 -255z" />
    <glyph glyph-name="R" unicode="R" horiz-adv-x="624" 
d="M73 230q-10 -5 -27 18t-23 49q-17 78 57 177q12 16 41.5 45.5t47.5 42.5q151 115 333 141q140 20 230 -10q94 -30 89 -100q-5 -69 -140 -157q-144 -95 -471 -266l-40 -21l-14 -24q-13 -25 -12 -26q51 1 113 2q126 2 194 2q80 0 84 -4q7 -7 0 -14q-3 -4 -130 -6
q-107 -2 -183 -4q-64 -2 -76 -2h-17l-12 -23q-26 -56 -41 -95q-8 -23 -10 -25q-3 -3 -8 -2.5t-6 4.5q-2 5 12 44.5t31 77.5q8 14 8 18q-12 1 -28 2q-41 1 -45 13q-2 5 0 11q3 5 63 37l59 30l17 29q60 104 160 245l81 108.5t60 75.5q6 7 13 7q18 0 16 -19q0 -3 -20 -27
q-76 -88 -153 -196l-85.5 -126t-47.5 -75q3 -3 202 105q149 82 225 130q108 65 150.5 114t23.5 87q-11 24 -43 39q-51 25 -138 25q-56 0 -111 -9q-208 -35 -351 -171q-54 -52 -82 -107q-43 -88 2 -151q10 -15 2 -19zM125 115l8 16l-30 -16q-31 -15 -31 -16v0v0h1h1h1h1h1h1
h1h1h1h1h1h1h1h9h23z" />
    <glyph glyph-name="S" unicode="S" horiz-adv-x="614" 
d="M25 233q11 36 61 105t103 126q91 97 209.5 166.5t225.5 88.5q53 11 101 0q80 -21 86 -93q3 -42 -25 -87q-23 -39 -58 -75t-64.5 -53t-39.5 -5q-6 10 0 16q2 2 16 10q27 14 65 53.5t57 73.5q20 33 20 64q0 53 -55 71q-15 5 -56 5q-42 0 -65 -5q-96 -21 -203.5 -85
t-191.5 -151q-43 -44 -88 -100.5t-63 -92.5q-48 -94 15 -122q42 -19 182 -19q84 0 122 -8q72 -14 93 -52q5 -10 5 -28q0 -17 -5 -28q-20 -44 -76 -82.5t-109 -46.5q-21 -2 -35 0q-24 4 -24 23q0 12 12.5 25.5t48.5 40.5q32 24 181.5 124.5t153.5 101.5q4 2 7 -1t2 -8
q-1 -4 -22 -20q-348 -239 -356 -248q-12 -15 -4 -18q29 -12 97 21q43 20 77 55.5t34 59.5q0 37 -60 56q-38 13 -161 15q-102 2 -111 4q-81 10 -102 53q-5 13 -5 33q0 22 5 37z" />
    <glyph glyph-name="T" unicode="T" 
d="M41 518q-15 18 -19 37q-11 43 65 78q80 36 238 54q71 7 172 14l37 3l6 6q15 15 26 1l6 -5l31 2q26 2 177 2t160 -2q5 -1 6.5 -6t-2.5 -8q-5 -3 -135 -2q-159 0 -232 -6l-13 -1l-21 -28q-163 -220 -311 -498q-87 -163 -110 -226q-3 -12 -7 -16q-6 -8 -14 0q-8 10 48 129
q70 145 158 298q90 156 183 293l29 45q-3 3 -128 -9q-127 -11 -219.5 -36.5t-115.5 -55.5q-15 -18 15 -52q18 -18 12 -28q-11 -16 -42 17z" />
    <glyph glyph-name="U" unicode="U" horiz-adv-x="572" 
d="M542 280l56 98q65 116 122 206q47 73 72 105q9 10 16 10q8 -2 10 -6q5 -8 -20 -54q-62 -113 -139 -229l-72 -105q-34 -47 -83 -139q-60 -109 -93 -194q-18 -43 -19 -65q0 -11 -2 -13t-6 -2t-7 2q-8 4 -4 32q6 42 74 177q4 9 9.5 19t9 17l6.5 13l4 8l1 3
q-135 -157 -251 -216q-110 -57 -165 -13q-41 33 -40 113q0 70 28 153q53 158 159 300q27 35 39 45.5t22 6.5t12 -13q1 -6 -12 -20q-43 -43 -103 -143q-90 -150 -113 -263q-15 -67 -5 -111q18 -89 124 -55q64 20 145 85q23 18 69 64t74 78q68 83 82 106z" />
    <glyph glyph-name="V" unicode="V" horiz-adv-x="338" 
d="M25 100q14 168 69 365q25 86 33 94q6 6 14.5 4t9.5 -10q2 -5 -10 -41q-59 -181 -83 -370q-10 -83 -10 -134q0 -46 5 -55q4 -10 12 -11q14 -1 49 32q38 38 84.5 110.5t158.5 267.5l117 201l70 118q34 57 36 58q3 4 7.5 4t6.5 -5t-39 -75l-71 -121l-104 -179l-100 -174
q-93 -159 -151 -220q-46 -49 -77 -38q-23 8 -29 49t2 130z" />
    <glyph glyph-name="W" unicode="W" horiz-adv-x="801" 
d="M21 164q-3 35 43.5 129.5t108.5 178.5q26 34 36.5 42t19.5 1q7 -7 -6 -29q-120 -172 -162 -284q-13 -36 -10 -39q6 -6 67 47q23 20 76 73t79 84q64 73 72 75q3 1 7 -2q4 -4 3 -11q0 -7 -20 -63q-53 -148 -63 -249q-7 -74 15 -127t67 -71q65 -27 142 11.5t150 134.5
q52 67 106 173q91 181 111 304q16 98 10 133q-3 13 0 15q6 8 14 -2q4 -6 3 -47q-2 -87 -22.5 -166.5t-67.5 -182.5q-159 -350 -345 -398q-12 -4 -38 -5t-37 1q-96 18 -124 126q-4 16 -5 54t1 61q12 100 68 252q1 3 3 7l1 7l-2 -2q-82 -97 -153 -167t-103 -86
q-19 -10 -31.5 -4t-13.5 26z" />
    <glyph glyph-name="X" unicode="X" horiz-adv-x="722" 
d="M20 -100q0 5 63 74q221 238 376 386l18 17l8 42q16 78 26 118q28 127 25 140q-2 21 11 23q18 5 18 -17q0 -16 -25 -126q-20 -92 -23 -104q-7 -43 -5 -43q3 2 38 35l168 147q188 159 193 159q4 1 8 -1.5t4 -6.5t-68 -61q-246 -207 -335 -292l-19 -18l-7 -40
q-23 -136 -30 -232q-2 -29 -1.5 -71.5t3.5 -56.5q8 -34 27 -37t53 24q39 32 127 156l46 66q11 17 16 17t7 -4t0 -8q-9 -18 -66 -96.5t-78 -102.5q-38 -47 -76 -65q-38 -17 -59 10q-11 16 -18 43q-10 47 -2 147q4 45 14 125t14 93q1 3 -6 -3q-15 -12 -106 -103l-244 -256
q-36 -39 -34 -42q1 -6 1 -8q0 -3 -22 -20t-27 -19q-4 -2 -8 2q-5 3 -5 9z" />
    <glyph glyph-name="Y" unicode="Y" horiz-adv-x="611" 
d="M20 207q0 34 18 89q45 139 145 265q34 43 48.5 54t25.5 2q7 -6 5 -11.5t-15 -18.5q-33 -32 -76 -94.5t-72 -119.5q-35 -68 -49 -121.5t-3 -74.5q20 -40 123 43q51 40 175 168q182 191 254 248q83 68 113 49q5 -2 12 -12q4 -8 4 -38q0 -29 -3 -45q-23 -93 -96.5 -229
t-164.5 -253l-20 -27q3 0 130 79q45 29 51 28t6 -7t-13 -14q-70 -47 -166 -103l-46 -28l-37 -37q-40 -41 -57 -54q-67 -55 -111 -66q-17 -5 -24 -1q-6 5 -6 13q0 13 25 34q36 31 137 89q58 35 62 39q50 50 128 169q84 126 137 241.5t53 171.5q0 30 -9 36q-8 5 -32 -7
q-43 -20 -111.5 -82.5t-200.5 -201.5q-118 -124 -164 -163q-60 -50 -99 -67q-25 -10 -45 -4q-17 7 -27 27q-5 11 -5 34zM232 -88q37 18 101 76q9 9 7 9q-3 0 -35 -20q-43 -25 -79 -50.5t-36 -30.5q0 -1 6 0.5t16 6t20 9.5z" />
    <glyph glyph-name="Z" unicode="Z" horiz-adv-x="489" 
d="M115 125l52 17l53 52q112 114 258 234q129 106 162 139q43 42 50 62q3 11 0 17q-9 19 -58.5 22.5t-114.5 -9.5q-37 -6 -50 -15q-11 -7 -20 1q-8 8 0 20q7 11 72.5 20t109.5 4q62 -6 77 -34q11 -21 -12 -56q-25 -38 -162 -151l-165 -141q-64 -58 -131 -125
q-22 -25 -20 -25q1 0 8.5 2t21.5 6.5t26 7.5q73 21 120 30q8 1 12 -3q9 -9 -9 -15q-7 -2 -19 -5q-38 -8 -139 -38q-45 -13 -53.5 -18.5t-39.5 -40.5q-102 -114 -102 -144q0 -7 24 -7q26 0 128 22q189 43 207 38q8 -2 9.5 -9.5t-5.5 -11.5q-3 -3 -56 -12l-67.5 -13l-67.5 -13
q-92 -16 -102 -18q-51 -8 -59 -4q-1 0 -9 2q-19 4 -23 20q-6 40 101 158q16 18 15 19q-16 -5 -34 -10q-35 -11 -42 -11q-11 0 -13 5.5t8 10.5q9 4 59 20z" />
    <glyph glyph-name="bracketleft" unicode="[" horiz-adv-x="301" 
d="M169 205q-125 -209 -128 -233q-1 -11 3 -14q10 -7 51 0q17 2 20 -2q3 -6 -1 -11q-4 -4 -28.5 -7t-37.5 -1t-23 12q-5 6 -5 18q0 25 51 114q69 121 210 349l181 297q60 101 67 105q8 4 42 4q31 0 40.5 -2t9.5 -10q0 -10 -17 -9h-32l-22 -1l-12 -18l-53 -83l-64 -102z" />
    <glyph glyph-name="bracketright" unicode="]" horiz-adv-x="218" 
d="M-27 -63q-61 -6 -68 1q-2 2 -2 6.5t3 6.5q7 3 28 5q10 2 42 5q29 2 45 25q22 32 95 159l54 91l185 317t131 239q6 13 -1 14q-5 2 -36 2q-32 0 -41 2t-11 9q-2 12 11 17q4 3 40 3q50 0 61 -11q5 -5 5 -17t-14 -38q-14 -29 -185 -328l-119 -203l-65 -111q-68 -116 -98 -162
q-12 -17 -25 -23q-12 -7 -35 -9z" />
    <glyph glyph-name="asciicircum" unicode="^" horiz-adv-x="191" 
d="M214 536q-4 0 -6 1t-2 7t2.5 15l7.5 28q20 72 20 80q0 2 -11.5 -11.5t-30.5 -39l-38 -53.5q-15 -21 -20.5 -25t-14.5 0q-4 2 -6 8q-3 5 1 14q6 13 30 44.5t47 54.5q47 51 61 35q6 -5 2.5 -26t-22.5 -83q-10 -36 -12.5 -42t-7.5 -7z" />
    <glyph glyph-name="underscore" unicode="_" horiz-adv-x="163" 
d="M30 73q68 0 71 -3q3 -2 3 -7.5t-3 -7.5q-1 -2 -73 -4l-71 -1l-3 5q-7 9 2 15q5 5 74 3z" />
    <glyph glyph-name="grave" unicode="`" horiz-adv-x="161" 
d="M112 546q-1 -5 -9 -4q-9 0 -22 5l-20 5q-12 3 -12 13q0 5 3.5 8.5t8.5 3.5q3 0 26.5 -11t24.5 -13v-7z" />
    <glyph glyph-name="a" unicode="a" horiz-adv-x="352" 
d="M192 201q14 33 38 69l1 6q-6 0 -109 -103q-61 -60 -81 -76.5t-34 -19.5q-9 -3 -18 1q-21 10 -16 47t34 86q26 45 66.5 83t77.5 52q16 6 34 6q19 0 30 -5q17 -7 30 -25q10 -13 12 -14q8 -7 5 -17.5t-21 -41.5q-45 -75 -51 -127q-5 -39 21 -44q38 -8 112 79q33 41 40 41
q5 0 7 -4t-2 -10q-5 -8 -28 -35t-38 -42q-47 -45 -82 -48q-14 0 -22 4q-55 25 -6 138zM204 279l13 13l-4 5q-17 19 -52 9q-21 -5 -55 -28q-13 -8 -38.5 -34.5t-36.5 -42.5q-20 -29 -30.5 -59t-6.5 -42q4 -8 17 -2q16 9 103 93q74 74 90 88z" />
    <glyph glyph-name="b" unicode="b" horiz-adv-x="364" 
d="M36 210q-5 -3 -14 -23q-28 -65 -30 -88q3 3 37 46q45 58 91 109q66 74 108 93q15 7 31 7q23 0 33 -16q17 -28 8 -75.5t-48 -130.5q-15 -34 -16 -35q-1 -3 25 14.5l56.5 39.5t41.5 32q11 9 13.5 10t7.5 -2q11 -7 -36 -42q-7 -6 -17 -13l-70 -49l-42 -28l-14 -22
q-47 -78 -101 -125q-50 -45 -95 -55q-20 -4 -33 0q-19 6 -21.5 22.5t13.5 37.5q18 24 51.5 47t119.5 70l39 22l9 15q68 120 85 195q7 26 5 46.5t-11 22.5q-28 7 -105 -70q-54 -56 -117 -137q-34 -44 -44 -54.5t-16 -10.5q-13 0 -13 18q0 54 69 194q80 163 194 317
q56 76 85 105.5t49 29.5q18 0 24 -17q13 -35 -48 -134.5t-182 -238.5q-37 -44 -73.5 -81.5t-48.5 -45.5zM58 262l-7 -13l31 32q34 34 61 66q98 114 158.5 205t66.5 134q2 12 -3 12q-2 0 -5 -2q-28 -18 -113 -136q-117 -161 -189 -298zM138 3q14 17 14 20q-3 -1 -6 -3
q-2 -1 -6.5 -4t-12.5 -7t-13 -7q-53 -29 -88 -53q-23 -16 -39 -34t-16 -29q0 -5 13 -4q10 1 29 9q64 31 125 112z" />
    <glyph glyph-name="c" unicode="c" horiz-adv-x="300" 
d="M54 -1q-42 10 -63 50q-39 82 33 189q44 67 98 89q12 5 29.5 6t25.5 -4q19 -11 27 -28q13 -25 3 -60q-15 -47 -42 -62q-9 -5 -17.5 -1.5t-8.5 11.5q0 5 7 14q18 23 23 50q7 43 -34 35q-38 -13 -72 -56.5t-44 -93.5q-9 -47 11 -80.5t57 -33.5t91 39.5t111 105.5
q20 23 26 23q6 -1 7 -7q0 -7 -16 -25q-71 -81 -140 -125.5t-112 -35.5z" />
    <glyph glyph-name="d" unicode="d" horiz-adv-x="412" 
d="M199 209q17 35 120 215q61 108 58 105q-23 -21 -154 -214q-33 -49 -33 -57q0 -14 -11 -14q-5 0 -11 -11q-66 -99 -109 -142q-24 -23 -43 -23q-18 0 -28 20q-14 27 -0.5 73.5t49.5 93.5q16 23 48 45q27 18 52 18q16 0 23 -5q8 -6 14 -14q7 -9 8 -9t15 21l68 100.5t63 88.5
q58 79 79 88q6 2 11 -1q5 -4 5 -11q0 -9 -22 -49.5l-118 -209.5q-57 -101 -75 -140q-43 -97 -31 -143q9 -34 39 -36q25 -2 61 30t96 109q47 61 53 61q6 -1 6 -7q1 -5 -38 -58q-76 -99 -117 -132q-33 -23 -56 -23q-15 -1 -29 5q-40 21 -37 85q3 58 44 141zM163 261
q5 10 -10 23q-7 6 -14 4q-13 -1 -32.5 -16.5t-33.5 -33.5q-34 -44 -51 -97q-12 -34 -6 -47q1 -6 16 3q16 9 57 60q67 89 74 104z" />
    <glyph glyph-name="e" unicode="e" horiz-adv-x="236" 
d="M193 103q-42 -45 -95 -69q-37 -13 -61 -3q-37 15 -50 57.5t4 92.5q10 30 33 62.5t44 47.5q35 25 57 13t9 -49q-8 -22 -25.5 -44t-32.5 -29q-10 -5 -26 -5l-16 -1l-5 -9q-13 -30 -11.5 -60.5t17.5 -44.5q14 -12 37 -11q13 1 33 10q60 31 128 117q13 17 20 12q6 -5 -1 -17
q-14 -22 -59 -70zM79 249q-37 -47 -33 -51q1 -2 10.5 0.5t15.5 7.5q18 12 34 43q12 25 5 25q-3 0 -14.5 -9t-17.5 -16z" />
    <glyph glyph-name="f" unicode="f" horiz-adv-x="173" 
d="M0 116q-10 -20 -28 -53q-37 -77 -37 -81q1 -1 19 8q85 43 176 146q49 54 53 54q9 0 7 -11q-2 -6 -36.5 -45t-56.5 -60q-73 -72 -145 -106q-25 -12 -28.5 -17.5t1.5 -19.5q12 -31 12 -83q0 -41 -4 -56q-7 -21 -10 -26q-17 -35 -40 -22q-42 28 -6 176q3 10 3.5 14.5t0.5 8
t-1.5 4.5t-5.5 1q-12 0 -22 12q-3 4 -3 11t4 10q15 15 33 4l8 -5l7 16q44 112 134 256q66 105 126 165q40 40 59 44q17 4 24 -11q8 -15 -4 -50q-28 -71 -82.5 -135t-120.5 -105l-19 -12zM44 190q-2 -3 2 -1q6 4 34 28q94 79 133 173q4 10 6.5 20t3 15t-1.5 6q-4 0 -29 -28.5
t-46 -56.5q-18 -23 -55 -80t-47 -76zM-131 -33q6 -3 7 0q-1 2 -6 2q-4 0 -1 -2zM-85 -198q4 16 3 49q-2 50 -7 55q-4 4 -14 -55q0 -4 -1 -8q-3 -16 -3.5 -34.5t1.5 -31t5 -12.5t6 10q3 6 10 27z" />
    <glyph glyph-name="g" unicode="g" horiz-adv-x="395" 
d="M185 19q10 8 26.5 72t18.5 102q3 63 -16 68q-14 4 -21 -8q-1 -6 -8 -6q-12 -3 -80 -82q-59 -66 -81.5 -86.5t-37.5 -20.5q-28 0 -29 39q0 38 37 93q29 45 61.5 75.5t58.5 38.5q41 13 67 -18q9 -10 13 -8q6 2 16 1.5t14 -2.5q31 -16 25 -91q-5 -54 -24 -119q-8 -24 -8 -29
q0 -1 5 2t16 11q65 43 129 106l21 20.5t12.5 9.5t7.5 2.5t4 -3.5q2 -5 -3 -11.5t-30 -31.5q-34 -35 -83 -73.5t-85 -58.5q-7 -3 -21 -31q-28 -55 -64 -90.5t-67 -38.5q-12 -1 -20 3q-16 7 -16 26q0 23 27 50q22 22 91 62q43 24 44 27zM141 -62q6 7 13.5 18.5t12.5 20t4 9.5
q0 1 -6.5 -2.5l-21.5 -11.5q-84 -46 -97 -77q-8 -17 0 -22.5t29 4.5q33 14 66 61zM147 242l20 20l-6 4q-16 10 -36 3q-22 -9 -59 -48t-58 -76t-23 -56q-1 -10 3 -10q3 0 15 8q19 13 91 96q38 44 53 59z" />
    <glyph glyph-name="h" unicode="h" horiz-adv-x="356" 
d="M223 165q-1 32 17 87q4 12 6 20t3 12.5t1 6.5t-1 2q-9 0 -42 -27q-55 -45 -183 -200q-46 -57 -63 -75t-24 -18q-5 0 -10 5q-13 14 21 106q28 74 116 227q110 192 201 314q39 52 65 66q16 8 26.5 1t8.5 -24q-3 -27 -30 -82t-66 -112q-43 -66 -110 -146t-107 -114
q-17 -14 -30 -40q-38 -65 -60 -120q-21 -48 -17 -52q1 -1 19 20.5l49 59.5q79 99 139 159q88 88 114 70q12 -8 12 -23t-12 -52q-25 -74 -17 -94q10 -25 41 -9q26 15 57 46q17 15 18 15t5 -2q2 -1 3 -2t1 -3t-1 -4t-3.5 -5t-6.5 -7l-9 -9q-34 -34 -57 -45q-13 -6 -27 -6
q-44 0 -47 54zM210 478l-30.5 -47l-36.5 -57.5l-34 -54t-25 -41.5t-8 -15q1 0 25 26q110 121 175 232q19 33 39.5 75.5t20.5 50.5q0 5 -18 -18l-23 -30q-40 -52 -85 -121z" />
    <glyph glyph-name="i" unicode="i" horiz-adv-x="185" 
d="M149 349q-13 -11 -30 -2q-13 8 -9 22.5t20 21.5q12 6 21 -0.5t9 -19t-11 -22.5zM62 231q-47 -65 -56 -101q-8 -32 1 -51q3 -7 13 -13q9 -3 20 -1q24 5 61 33.5t68 66.5q26 30 32 25q7 -5 -5 -20q-31 -38 -57 -62q-57 -53 -93 -62q-17 -5 -32 0q-23 7 -33 34q-5 12 -5 37
q0 24 6 42q7 25 24.5 56t31.5 43q10 8 20.5 4.5t10.5 -15.5q0 -8 -7 -16z" />
    <glyph glyph-name="j" unicode="j" horiz-adv-x="240" 
d="M-147 -186q-16 8 -13 27t23 39q22 22 71 50q47 26 76 46l21 14l12 20q28 48 56.5 111.5t35.5 91.5q10 32 2 38q-1 3 -10 3q-19 0 -57 -26t-64 -57q-15 -17 -19 -16q-11 1 -5 17q4 8 24 28t38 34q40 32 74 40q22 4 34.5 -7t12.5 -34q0 -21 -19 -77t-41 -99q-3 -6 -4 -9
t0 -3t42.5 39t54.5 53q20 19 33 36q18 19 23 19q6 -2 6 -6q1 -6 -49 -61q-47 -49 -115 -108q-18 -16 -27 -31q-67 -123 -146 -163q-45 -22 -70 -9zM-119 -130q-22 -22 -19 -31q1 -3 15 0q51 13 106 81q25 30 22 30q-6 -4 -11 -7q-10 -7 -43 -25q-53 -31 -70 -48zM219 365
q-6 -11 -15.5 -15.5t-18.5 0.5q-13 6 -13 21q3 23 15 32q4 3 15 3.5t15 -2.5q16 -13 2 -39z" />
    <glyph glyph-name="k" unicode="k" horiz-adv-x="283" 
d="M111 226q-1 0 -20 -22.5l-43.5 -53.5l-39.5 -50q-22 -29 -30 -29q-1 0 -6 5t-4 22q3 46 59 147q25 47 92 148q70 106 112 162q97 132 133 132q5 0 11 -6t5 -19q-2 -29 -34 -90q-62 -124 -183 -265l-17 -20l17 13q61 45 84 19q15 -18 -12 -47q-28 -29 -77 -32l-22 -1
l-1 -11q-3 -15 -1 -32q0 -37 13 -58.5t36 -21.5q30 0 80 50q25 25 27 25q4 1 8 -2.5t2 -7.5q-4 -9 -49 -52q-18 -16 -33 -23q-17 -8 -33 -9t-30 5q-15 8 -20 15q-26 29 -24 87v22zM176 286q-28 -20 -28 -23q0 -1 9.5 0t21.5 4q15 3 32 15q19 15 19 24q0 11 -32 -6
q-11 -6 -22 -14zM76 212q11 15 9 14q-3 -3 -17 -13q-16 -12 -26 -17q-13 -6 -23 -26q-14 -26 -25 -57l4 2q3 4 9 11l16 20.5t19 23.5q25 32 34 42zM51 227q0 -4 53 47q76 76 163 204q46 70 67 117q22 52 20 54l-7 -7q-7 -7 -17.5 -18.5t-19.5 -22.5q-68 -85 -167 -231
q-92 -136 -92 -143z" />
    <glyph glyph-name="l" unicode="l" horiz-adv-x="222" 
d="M21 155q-17 -45 -17 -81q0 -29 6 -39q11 -26 42 -14q42 15 141 130q35 40 38 42q7 2 10 -5q1 -6 -31 -45q-93 -114 -148 -140q-25 -12 -46 -5q-31 12 -40 63q-14 83 71 232q78 135 192 277q82 101 118 105q9 1 17 -6q7 -8 7 -21q0 -31 -36 -104q-46 -91 -140 -205
q-104 -125 -171 -161q-7 -3 -13 -23zM58 236q-13 -26 -13 -27q0 -3 21 15.5l45 41.5q50 50 94 105q74 93 106 152q44 81 47 116l2 11l-7 -4q-32 -19 -138.5 -167t-156.5 -243z" />
    <glyph glyph-name="m" unicode="m" horiz-adv-x="417" 
d="M288 147q7 26 27 66q3 5 5.5 10.5t3.5 8.5t0 3q0 1 -7.5 -3t-18 -10.5t-19.5 -13.5l-57 -47q-59 -51 -72 -52q-8 -1 -13 4q-23 25 28 111l13 23q-5 2 -59 -48q-14 -12 -72 -70q-43 -45 -56 -54t-23 -1q-6 5 -6 19q-1 15 6 36q24 69 100 167q23 29 33 33q8 3 15.5 -3.5
t5.5 -14.5q-2 -5 -22 -33q-72 -95 -102 -160q-8 -18 -5 -18l34 34q96 101 147 133q8 5 15 6.5t12 -1.5t6 -10q3 -10 -17 -43q-2 -4 -23 -41q-19 -41 -16 -48q1 -2 7.5 3l20 16l31.5 27q67 59 100 75q41 19 41 -13q1 -8 -15 -49q-25 -64 -25 -80q0 -6 1 -7.5t4 0.5
q20 5 74 59q34 33 39 33q5 -2 5 -7q1 -5 -37 -43q-54 -55 -78 -61q-24 -7 -32 20q-5 15 1 44z" />
    <glyph glyph-name="n" unicode="n" horiz-adv-x="326" 
d="M192 108q-27 44 20 136l14 29q-4 -2 -9 -5q-31 -19 -123 -111q-62 -62 -79.5 -74.5t-30.5 -6.5q-32 17 4 101q19 43 46.5 85t45.5 55t27 1q6 -7 4 -13t-18 -26q-44 -56 -76 -128q-19 -40 -19 -51q0 -8 105 94q55 55 88 80q38 28 52 23q6 -2 8 -6q5 -11 -16 -53
q-27 -56 -30 -80q-4 -23 4 -39t22 -13q28 5 81 63q22 23 26 23q8 0 8 -8q0 -4 -20.5 -26.5t-37.5 -38.5q-24 -20 -36 -27q-17 -8 -28 -7q-19 1 -32 23z" />
    <glyph glyph-name="o" unicode="o" horiz-adv-x="198" 
d="M167 326q17 -38 -30 -143q-7 -12 -7 -15q1 -1 7 -0.5t15 2.5t14 4q3 1 14.5 7.5t13.5 7.5q15 11 18 0q1 -3 -1 -7q-6 -10 -40 -27q-25 -9 -45 -9q-10 0 -16 -9q-52 -75 -88 -66q-22 5 -32.5 26t-6.5 49q7 48 39 84q13 15 13 23q0 24 16 56t42 45q25 12 46 1q19 -8 28 -29
zM51 104q7 5 18 16t17.5 21t4.5 11q-18 7 -33 24q-8 8 -12 16l-2 4t-2 3t-2 0q-3 -1 -10.5 -17.5t-10.5 -29.5q-11 -46 8 -55q8 -4 24 7zM117 193q33 69 33 107q0 22 -13 33t-31 4q-28 -10 -42 -53q-8 -27 -2 -28q11 -2 11 -15q0 -6 -7 -12q-7 -5 -7 -9q0 -13 18 -31
q9 -9 19 -14q9 -5 12 -1q3 3 9 19z" />
    <glyph glyph-name="p" unicode="p" horiz-adv-x="319" 
d="M162 134q9 47 60 127q35 58 33 60q-5 5 -40 -21q-53 -35 -121 -125q-65 -88 -161 -253q-63 -109 -79.5 -135t-24.5 -30q-9 -5 -16 1q-9 7 -5 31q12 86 113 271q61 111 120.5 196.5t80.5 92.5q8 1 13 -2q10 -7 7 -17q-2 -5 -16 -21q-30 -36 -91.5 -131t-106.5 -176
q-30 -53 -58 -116q-38 -84 -34 -88q1 -1 16.5 25l39.5 66.5l44 75.5q101 173 177 265q37 45 77.5 77.5t63.5 35.5q20 3 26 -13t-5 -41q0 -1 -32 -55q-33 -52 -44 -77.5t-13 -49.5q-1 -27 9 -31q26 -11 103 83q26 34 32 34q4 0 7 -5q2 -4 -7 -18q-10 -14 -37 -46.5t-36 -40.5
q-48 -44 -79 -21q-25 19 -16 72z" />
    <glyph glyph-name="q" unicode="q" horiz-adv-x="307" 
d="M135 121q-42 -61 -58 -95l-3 -7l7 -7l7 -7l17 9q77 39 170 139l22 23t13 11.5t7 3t4 -4.5q2 -5 -3 -12t-23 -27q-97 -108 -185 -153l-11 -5q0 -4 4 -13q4 -12 4 -35t-6 -40q-17 -51 -50 -83q-27 -26 -47 -17q-23 9 -23 50q0 45 36 117l8 16l-6 2q-10 3 -17 10.5t-7 14.5
q0 11 19 19q6 3 23 3l14 -1l20 34q34 57 99 146q31 41 29 42q-3 0 -66 -69q-6 -7 -13 -14q-56 -61 -82.5 -76.5t-44.5 3.5q-29 32 9 109q23 46 61 81.5t70 40.5q20 4 39.5 -6.5t26.5 -28.5q2 -7 4 -7q3 0 13 7q19 11 26 4q7 -8 -3 -27q-8 -15 -52 -77q-38 -52 -52 -73z
M131 216q36 39 41 46.5t-1 16.5q-17 20 -44 7q-23 -11 -47 -38t-39 -58q-7 -14 -13 -31.5t-7 -28t2 -12.5q3 0 15 8q24 17 93 90zM17 9q2 -5 16 -8l4 4q1 2 1 6q-4 5 -18 1zM78 -19q-2 1 -15 1l-11 -2l-12 -23q-37 -73 -35 -112q2 -25 11 -25q3 0 13 6q21 13 43 57
q15 30 15 57q0 32 -9 41z" />
    <glyph glyph-name="r" unicode="r" horiz-adv-x="231" 
d="M95 122q-6 43 36 128q19 40 19 43t-4 7q-6 2 -31.5 6.5t-26.5 3.5q-2 -2 -9 -21q-16 -42 -37 -72q-32 -47 -44 -47q-8 0 -9.5 6t5.5 10q14 10 37.5 52t31.5 71l3 11l-5 5q-6 5 -8 10q-4 14 9 18q10 3 21 -7q6 -7 29 -10q35 -4 48 -9t19 -16q5 -9 4 -20t-24 -59
q-36 -72 -36 -101q0 -61 60 -4q27 27 48 55q11 15 17 9t-9 -29q-39 -59 -76 -78q-24 -11 -38 -6q-22 7 -30 44z" />
    <glyph glyph-name="s" unicode="s" horiz-adv-x="185" 
d="M49 40q-3 -2 -5 -22q-6 -53 -33 -94q-23 -31 -44 -40q-18 -10 -37 -5q-13 4 -20 17q-20 37 79 121l18 15l-1 17q0 3 -1.5 12.5t-2.5 20.5t-2 20q-6 38 -6 52q-5 53 19 105q14 28 47 55.5t64 36.5q35 11 43 -13q6 -15 -16 -47q-14 -22 -46.5 -53.5t-51.5 -42.5
q-8 -4 -11 -7q-6 -8 -2 -53q3 -39 3 -46q2 -22 3 -22q4 0 136 115q9 9 15 7q13 -5 0 -21q-13 -15 -97 -85q-43 -35 -51 -43zM60 255q-14 -25 -14 -37q0 -3 11 6t30 26q19 18 35 38q22 30 19 33q-2 2 -31 -17q-11 -7 -27 -22.5t-23 -26.5zM-6 -40q13 39 10 42
q-1 1 -14.5 -11.5t-28 -28t-18.5 -22.5q-17 -24 -13 -33q1 -4 9.5 -3.5t14.5 3.5q26 17 40 53z" />
    <glyph glyph-name="t" unicode="t" horiz-adv-x="164" 
d="M141 386q-5 -5 -22 -32q-108 -171 -108 -244q0 -23 10 -32q5 -4 19 -4q20 0 39.5 14.5t50.5 52.5l32 42q5 8 11.5 9t8.5 -4t-1 -13q-4 -8 -34 -44.5t-42 -47.5q-15 -15 -31 -23q-15 -8 -32 -8q-16 -1 -26 2q-19 7 -27.5 29t-5.5 52q7 47 29 101q31 70 76 139l9 14h-67
q-138 0 -152 6q-9 4 -9 14t8 14q7 3 38 -1q67 -6 154 -8h44l19 27q23 34 33 41.5t18 -0.5q7 -7 4 -17t-18 -35l-13 -19h6q1 0 47 -2q58 -3 126 -4q85 -2 88 -5q8 -8 0 -14q-4 -3 -49 -2q-187 5 -207.5 5t-25.5 -3z" />
    <glyph glyph-name="u" unicode="u" horiz-adv-x="281" 
d="M159 80q-18 10 -21.5 40.5t8.5 67.5q1 2 2 5t2 5v2q-1 0 -17 -18q-18 -21 -49 -52.5t-39 -35.5q-31 -18 -49 1q-20 20 -8.5 67t50.5 106q29 43 43.5 55t25.5 3q10 -10 -12 -38q-84 -116 -81 -165q0 -13 5 -14q5 0 15 5q17 9 79.5 76.5t94.5 111.5q27 37 38 37
q12 0 12 -14q0 -6 -35 -62q-67 -105 -59 -150q1 -17 17 -16q33 6 84 72q20 23 24 24q6 0 6 -6q1 -5 -20 -34q-55 -73 -97 -76q-14 0 -19 3z" />
    <glyph glyph-name="v" unicode="v" horiz-adv-x="190" 
d="M4 65q-48 28 16 204l7 19t6.5 16.5t2.5 6.5q11 18 27 6q7 -6 5.5 -16t-18.5 -61q-52 -155 -31 -155q3 0 16 11q50 43 150 205q31 49 33 51q3 2 6.5 0t4.5 -6q1 -5 -46 -81.5t-73 -113.5q-56 -77 -81 -87q-15 -6 -25 1z" />
    <glyph glyph-name="w" unicode="w" horiz-adv-x="328" 
d="M146 106q-12 31 -1 84q5 23 4 24l-33 -40q-65 -81 -90 -95q-15 -7 -25 -4q-11 3 -16 15q-18 41 34 149q26 54 43 76q8 9 17 11t15 -5q8 -8 -8 -36q-50 -85 -68 -156q-2 -8 -3 -13t-1.5 -8.5t0 -5t1.5 -1.5q6 0 35 27l62 70q34 41 44 51.5t16 10.5q13 0 3 -33
q-16 -54 -14 -88q2 -36 14 -39q12 -4 40 31t100 143q44 67 50 67q11 -2 4 -17l-55 -82.5l-63 -93.5q-52 -74 -79 -68q-17 3 -26 26z" />
    <glyph glyph-name="x" unicode="x" horiz-adv-x="285" 
d="M304 189q3 -5 -0.5 -12.5t-20.5 -33.5q-70 -103 -106 -137q-33 -30 -57 -19q-20 9 -27 47q-7 31 -1 73q2 14 1 15q-6 -7 -12 -15q-19 -24 -28 -34.5t-16 -17.5t-9 -5.5t-6 2.5q-8 8 7 25l23 28.5l32.5 40.5t15.5 19q2 3 17 72t14 70q-4 4 -34 -26q-40 -38 -84 -109
q-10 -16 -18 -10q-3 6 -3 7q0 8 26.5 47t49.5 65q31 35 52 45q18 9 29 2t10 -29q0 -10 -5 -42q-2 -15 -3.5 -23.5t-0.5 -8.5l4 5q3 4 9.5 12l12.5 15q19 24 26 30t12 3q6 -5 -0.5 -15t-46.5 -60l-27 -34l-4 -24q-19 -114 -5 -140q6 -11 24 3q22 16 61.5 66.5t71.5 103.5
q3 4 8 4t8 -5z" />
    <glyph glyph-name="y" unicode="y" horiz-adv-x="310" 
d="M-115 -192q-12 3 -22 16q-14 22 13 62.5t78 73.5q40 24 68 39q78 44 92.5 53t18.5 15q32 45 89 169q26 55 23 55q-5 0 -91 -91q-52 -56 -76.5 -77.5t-43.5 -27.5q-27 -7 -40 19q-13 27 7 89q10 30 32 65t37 47q10 7 19 3.5t9 -13.5q0 -7 -13 -27q-23 -34 -41 -76.5
t-20 -66.5q-1 -13 1.5 -14t14.5 4q22 12 90 81q78 80 102 97.5t35 4.5q7 -10 0 -28q-7 -20 -39.5 -85.5t-52.5 -100.5l-3 -7q3 0 28 17q60 40 93 69q18 17 22 19.5t8 -0.5q4 -2 5 -4t-0.5 -5.5t-5.5 -8t-11 -11.5q-27 -24 -32 -28q-35 -28 -111 -75q-21 -12 -36 -33
q-46 -68 -83 -109q-71 -79 -117 -100q-27 -13 -39 -11q-4 0 -8 1zM-117 -142q-9 -20 2.5 -26t36.5 6q32 16 79 62.5t88 103.5q10 12 8 12q-1 0 -27.5 -14.5l-58 -33t-43.5 -26.5q-66 -42 -85 -84z" />
    <glyph glyph-name="z" unicode="z" horiz-adv-x="201" 
d="M109 208q-25 -37 -25 -39q-1 -6 10 -16q23 -21 23 -35q0 -5 2 -7q1 -2 9.5 4.5t22.5 19.5l30 29q26 26 30 26q5 0 7 -3.5t1 -8.5q-2 -5 -33 -35t-47 -43l-20 -16l-2 -11q-7 -35 -34 -70t-61 -52q-19 -10 -43 -13t-35 3q-29 20 17 61q16 16 77 52q19 10 46 28
q12 9 14 11.5t1 8.5q-1 23 -20 38q-20 16 -20 30t37 63q27 36 27 37q0 4 -22 -11q-34 -21 -84 -78q-18 -21 -23 -21q-4 0 -6.5 4t-0.5 8q4 11 34 44q38 44 78 67.5t51 7.5q5 -8 -2 -23.5t-39 -59.5zM88 48q7 14 7 17q-1 1 -15 -7q-33 -21 -50 -30q-35 -21 -51 -33
q-29 -22 -27 -35q0 -2 2 -3q10 -4 33 2q31 7 58 31.5t43 57.5z" />
    <glyph glyph-name="braceleft" unicode="{" horiz-adv-x="307" 
d="M59 39q-17 -36 -18 -59q-1 -17 5 -22q16 -16 50 -1q17 7 18 -2q1 -5 -3 -8.5t-15 -7.5q-25 -12 -47 -5q-19 6 -25 18q-4 5 -4 27q0 30 20 75q29 61 131 171q51 54 57 65l4 8l-6 5q-11 10 -58 19q-24 5 -32.5 9.5t-6.5 12.5q2 9 36 11q51 3 93 17q43 12 64.5 28.5
t31.5 45.5q7 25 11 72q6 85 14 125.5t26 75.5q23 46 60 74.5t72 26.5q16 -1 25 -10t5 -19q-4 -11 -24 -6q-13 3 -26 1q-26 -5 -52.5 -27.5t-42.5 -55.5q-30 -58 -38 -173q-6 -75 -20 -106q-14 -30 -47 -50q-28 -16 -87 -28q-27 -6 -28 -7l12 -5q41 -12 41 -36
q0 -12 -11.5 -27t-60.5 -68q-97 -104 -124 -164z" />
    <glyph glyph-name="bar" unicode="|" horiz-adv-x="166" 
d="M491 826q5 -5 3 -12t-15 -27q-50 -77 -280 -457l-88 -144l-70 -115q-57 -95 -71.5 -117.5t-19.5 -22.5q-6 0 -6 2q-6 4 3 19l358 596q140 231 159 268q5 10 13 13t14 -3z" />
    <glyph glyph-name="braceright" unicode="}" horiz-adv-x="226" 
d="M365 683q-30 -43 -75 -99q-141 -172 -95 -201q15 -9 49 -12q18 -2 23.5 -5t4.5 -10q-1 -5 -12 -10q-36 -18 -85 -64q-37 -35 -50 -60t-26 -119q-8 -62 -25 -91.5t-57 -48.5q-36 -18 -78 -18q-26 0 -30 4q-5 5 -1 12q3 4 26 4q59 0 97 28q24 16 33.5 38t15.5 75
q12 108 31 141q11 20 41.5 50t55.5 46q13 9 13 10q0 2 -9 2q-21 4 -36 17q-23 23 -10 62q18 55 106 165q109 137 99 171q-4 17 -22 22q-11 3 -14 10t4 14q7 8 23.5 3.5t26.5 -16.5q18 -21 13 -47t-37 -73z" />
    <glyph glyph-name="asciitilde" unicode="~" horiz-adv-x="220" 
d="M167 180q10 -6 -8 -23q-39 -34 -53 -16q-5 5 -5 12l-1 7q-4 0 -23 -17q-17 -16 -25 -4q-3 5 0 12q7 15 38 30q22 10 30 2q8 -6 2 -24v-4q1 0 3 1l17 12q18 15 25 12z" />
    <glyph glyph-name="exclamdown" unicode="&#xa1;" horiz-adv-x="203" 
d="M345 570q5 -2 7 -9q5 -10 -4 -18t-20 -4t-11 15t11 16q8 4 17 0zM293 482q7 7 13 -1q2 -3 2 -8l-83 -159l-51 -95l-93 -167l-59 -103q-19 -35 -28 -38q-9 -2 -16 3t-7 14q0 7 19 39q15 26 25 39q2 4 43 69t51 82q75 123 141 247q39 72 43 78z" />
    <glyph glyph-name="cent" unicode="&#xa2;" horiz-adv-x="398" 
d="M273 255q3 -2 4 -3.5t-1 -5t-6.5 -8t-12.5 -11.5q-80 -66 -143 -72q-14 -2 -14 -4q0 -1 -16 -28q-3 -6 -13.5 -23t-13.5 -23q-13 -21 -18.5 -26t-13.5 1q-10 7 0 19q7 14 12 22q7 15 22 40l13 26q-4 3 -8 5q-44 22 -44 83q0 8 3 32q11 51 57.5 125.5t100.5 128.5
q41 43 76 57q28 11 48 4q5 -2 9 3t22 37q46 85 59 85q5 0 9 -4t4 -9q0 -6 -15 -29q-15 -22 -36 -56q-4 -8 -9.5 -16.5l-9 -14t-3.5 -6.5q-3 -5 1 -9q19 -21 12 -48q-8 -25 -21 -21q-8 3 -8 22q0 21 -15 28q-29 12 -78 -26q-39 -30 -84 -87t-73 -111q-39 -76 -22 -122
q7 -20 29 -31q12 -6 31 -6t31 5q52 17 101 57q22 17 26 19.5t8 0.5z" />
    <glyph glyph-name="sterling" unicode="&#xa3;" horiz-adv-x="588" 
d="M223 64q-142 -2 -151 -3q-42 -7 -48 1q-8 8 0 15l4 3q5 2 11.5 5.5l12.5 6.5q47 23 80 56q32 32 44 51q2 1 -21 0q-12 -1 -26 -1q-8 2 -9 11.5t7 13.5q5 3 33 1q16 -2 31 -2q6 3 38 59q24 44 64 136q55 131 96 186q47 65 108 89q18 8 39 8t32 -5q15 -8 24 -27
q6 -13 6 -32q-1 -21 -6 -36q-7 -21 -28 -52.5t-40 -49.5q-43 -39 -79 -49q-23 -5 -26 8q-1 5 1.5 10t7.5 7q19 3 53 29q44 35 73 86q14 28 14 51q0 26 -15 33q-26 12 -69 -12t-80 -72q-41 -51 -88 -164q-53 -126 -86 -178q-13 -22 -12 -23q17 -1 37 -2q8 0 17 -1t14 -1l6 -1
q2 -1 2 -6t-2 -7q-1 -2 -34 -1q-37 0 -44 -1l-12 -1l-13 -18q-46 -60 -96 -92l-15 -10h50q56 2 140 2q91 1 93 -2q7 -7 0 -15q-3 -1 -138 -4z" />
    <glyph glyph-name="yen" unicode="&#xa5;" horiz-adv-x="427" 
d="M436 709q1 -5 -24 -41l-126 -187t-86 -134q9 0 20 1q42 2 45 -2q3 -2 2 -6t-5 -6q-5 -2 -39 -4l-35 -2l-7 -10q-41 -63 -38 -66q1 -1 33 1q40 4 40 -5q0 -6 -6.5 -8.5t-30.5 -3.5q-8 0 -17 -1t-15 -1.5t-8 -0.5q-7 -1 -14 -12.5t-49 -93.5q-37 -74 -41 -76q-5 -4 -11 0
t-0.5 18.5t37.5 78.5l20.5 40.5l14.5 30.5t4 11h-5q-5 -1 -13.5 -2t-16.5 -1q-34 -3 -36 -1q-4 2 -4 7t4 7q8 3 45 6l39 4l3 4q2 4 6.5 11.5l8.5 14.5l9 16l8 14.5t4 7.5l5 8l-29 -2q-41 -3 -43 -3q-22 -3 -22 7q0 6 8 8q12 3 81 8l17 1l37 58l75 115l11.5 18t11 16t8 12
t4.5 8l2 3l-41 -47q-83 -97 -117 -119q-30 -20 -42 -6q-24 24 25 190l20 68q5 17 8 23q9 12 20 7q11 -4 8 -21.5t-25 -90.5q-20 -65 -30.5 -112t-4.5 -47q5 0 44 33q30 26 110 120q119 138 131 145q10 3 12 -9z" />
    <glyph glyph-name="section" unicode="&#xa7;" horiz-adv-x="613" 
d="M590 845q33 -23 33 -71q0 -32 -18 -67q-25 -50 -43 -33q-7 7 9 39q25 51 18 84q-3 11 -13 20q-18 18 -52 18q-33 0 -72 -19q-51 -25 -90 -65q-44 -44 -45 -80q-1 -25 11 -49t56 -82q48 -60 48 -108q1 -38 -25.5 -77t-87.5 -89q-32 -27 -32 -28l9 -13q19 -26 18 -51
q-3 -36 -42 -64q-40 -27 -100 -39q-15 -2 -51.5 -3t-46.5 0q-1 0 -8 2.5t-11 4.5q-34 16 -35 49.5t31 76.5q54 69 65 78q4 3 9 1t5 -6q0 -2 -30 -40q-34 -41 -46.5 -62t-14.5 -41q-5 -33 40 -44q19 -3 43 -2q73 3 120 29q61 33 53 71q-7 29 -60 65q-50 35 -71 68t-21 78
q0 84 65 165q42 53 80 73l10 6l-1 19q-1 17 2 31q18 65 104 124q116 77 187 31zM323 593l-12 18l-17 -12q-25 -19 -52.5 -50.5t-44.5 -61.5q-21 -39 -26 -81q-7 -60 36 -103q11 -11 35.5 -31t28.5 -20q0 -1 9.5 6.5t24.5 20.5q53 44 77.5 75.5t30.5 63.5q3 15 0 31
q-7 28 -25 57l-30 39q-24 29 -35 48z" />
    <glyph glyph-name="dieresis" unicode="&#xa8;" horiz-adv-x="169" 
d="M57 548q-10 6 -7 18q2 8 11 11.5t17 -1.5q4 -3 4 -10.5t-4 -11.5q-11 -9 -15 -8zM94 548q-10 6 -7 18q2 8 11 11.5t17 -1.5q5 -3 5 -10.5t-5 -11.5q-11 -9 -15 -8q-1 0 -3 1t-3 1z" />
    <glyph glyph-name="copyright" unicode="&#xa9;" horiz-adv-x="316" 
d="M84 36q-23 8 -40 29q-31 41 -21 103t57 129q13 18 39 44.5t40 35.5q53 35 84 0q7 -7 22 -8q23 0 39 -17q36 -38 15 -110q-11 -41 -41 -86q-31 -46 -69 -79t-71 -41q-30 -7 -54 0zM47 187q-16 -56 4 -98q11 -23 35.5 -33t49.5 -2q45 17 87 62q46 47 69 100.5t14 92.5
q-6 37 -33 44q-6 2 -9.5 1.5t-4.5 -2.5t-1 -7q0 -16 -13 -18t-19 13q-3 7 -8 7t-6.5 3.5t0.5 7.5t-1 5.5t-12 1.5q-36 0 -92 -69q-42 -51 -60 -109zM107 103q-21 11 -21 35q0 30 32 80q12 16 36.5 40.5t35.5 29.5q35 17 54 -10q5 -8 5 -17q0 -16 -9 -16q-7 0 -10 11
q-2 7 -8 10q-18 16 -60 -30q-25 -26 -42.5 -58t-14.5 -46q6 -31 68 3q19 12 23 16q7 6 12 4q5 -1 5 -7q-1 -12 -39 -31q-45 -24 -67 -14z" />
    <glyph glyph-name="guillemotleft" unicode="&#xab;" horiz-adv-x="321" 
d="M147 202q-2 -1 -57 -35l-22 -13l21 -22q25 -27 18 -33q-1 -3 -5 -3q-3 0 -26 23q-24 24 -25 28q-4 10 4.5 19t45.5 36l46 33q22 16 27 18q7 3 13 -1t6 -12q0 -6 -7 -11.5t-39 -26.5zM226 202q-2 -1 -57 -35l-22 -13l21 -22q25 -27 18 -33q-2 -3 -5 -3t-26 23
q-23 24 -25 28q-4 10 4.5 19t45.5 36l46 33q22 16 27 18q7 3 13 -1t6 -12q0 -6 -7 -11.5t-39 -26.5z" />
    <glyph glyph-name="registered" unicode="&#xae;" horiz-adv-x="342" 
d="M368 746q27 -13 36 -38q5 -12 4 -34q0 -22 -5 -39q-14 -40 -46.5 -84.5t-69.5 -72.5q-35 -26 -64 -33q-30 -8 -53 0q-18 5 -36 23q-19 20 -20 54q-1 17 4 37q10 37 40 82.5t59 70.5q26 21 51 26q20 5 28 9q17 6 37 6q23 0 35 -7zM372 612q18 37 18 62q0 28 -17 45
q-25 25 -62 14q-11 -3 -11 -10q0 -5 -2 -9q-4 -2 -17 -2q-14 1 -23 -4q-12 -6 -13 -7q-25 -13 -58.5 -59t-47.5 -87q-12 -35 0 -59q24 -51 88 -29q37 12 79.5 54.5t65.5 90.5zM329 679q13 -6 14 -17q3 -15 -20 -36q-29 -25 -96 -53q-5 -2 5 -5q3 -1 11 -3q35 -9 35 -17
q0 -9 -17 -5l-11 2q-12 2 -17 3q-4 1 -9 2t-8 2h-3q-1 1 -6 -4.5t-13 -17.5q-18 -26 -21 -29q-8 -10 -15 -4q-6 6 16 37q17 25 15 29q-6 11 9 17q7 3 11 8t20 29l11 16.5t7 12.5l2 4h-1l-5 -2.5t-6 -2.5q-9 -6 -15 -6q-8 0 -6 10q2 4 19 14.5t27 13.5q6 2 9 6q3 3 11 2
q1 0 9.5 -0.5t13.5 -0.5q18 -2 24 -5zM261 608q23 11 43 27t20 22q0 7 -21 7q-14 0 -20 -7q-33 -47 -37 -54q-1 -2 0 -2q3 1 15 7z" />
    <glyph glyph-name="macron" unicode="&#xaf;" horiz-adv-x="178" 
d="M120 562q6 1 7.5 0t1.5 -5t-7 -8q-4 -3 -34 -6q-38 0 -38 4q1 4 8 10q6 4 18 5q10 -2 22 0q14 2 22 0z" />
    <glyph glyph-name="degree" unicode="&#xb0;" horiz-adv-x="156" 
d="M189 696l20 1l7 -7q7 -7 6 -22q0 -22 -21 -58q-8 -13 -20.5 -25t-21.5 -16q-15 -7 -25 -3q-15 8 -18 20q-7 19 8 55t36 49q8 5 29 6zM204 666q0 10 -5 10q-4 1 -4 -3t-12 -16q-19 -19 -31 -50q-9 -22 -6 -22q1 0 9 4q15 8 32 34.5t17 42.5z" />
    <glyph glyph-name="plusminus" unicode="&#xb1;" horiz-adv-x="238" 
d="M147 156l-15 -27q-16 -27 -18 -29q-3 -2 -7.5 -1.5t-5.5 3.5q-3 5 11 30q11 20 11 21q-5 1 -12 1q-20 -2 -20 11t26 13h6t5 0.5t4 0.5h2q2 2 15 26q9 18 14 23.5t12 3.5q3 -1 6.5 -5t3.5 -8q0 -2 -12 -20l-12 -18l11 -2q11 -2 14 -4t2 -8q-1 -11 -26 -11h-15zM161 89
q9 -9 0 -18q-4 -4 -49.5 -6t-53.5 1t-8 10.5t7 12.5q5 4 52 4t52 -4z" />
    <glyph glyph-name="acute" unicode="&#xb4;" horiz-adv-x="170" 
d="M104 579q9 3 13 -1q4 -3 2 -8q-1 -4 -27 -15q-24 -10 -30 -11.5t-10 2.5q-3 4 -2 10q3 5 13 9q6 1 21 7q11 6 20 7z" />
    <glyph glyph-name="cedilla" unicode="&#xb8;" horiz-adv-x="179" 
d="M75 -65q30 4 29 12l-2 2q-1 2 -14 2q-9 0 -13.5 1.5t-5 6.5t4 13.5t13.5 22.5q15 23 19.5 28.5t10.5 5.5q4 0 8.5 -4t4.5 -8q0 -7 -17 -29q-2 -3 -5 -6.5t-5 -5.5t-2 -3q-2 -2 5 -5q17 -8 15 -23q-3 -24 -40 -27q-16 -2 -18 -2q-6 0 -8 1q-6 2 -6 7.5t6 7.5q1 0 4 0.5
t7.5 1.5t8.5 1z" />
    <glyph glyph-name="guillemotright" unicode="&#xbb;" horiz-adv-x="298" 
d="M81 99q-23 -15 -30 -8q-5 7 20 24q38 27 73 56l6 4l-4 7q-4 8 -17 26q-12 17 -15 23q-4 14 9 18q7 3 14 -2.5t20 -24.5q28 -43 12 -57q-4 -4 -21.5 -17l-40 -29.5zM153 99q-23 -15 -30 -8q-5 7 20 24q38 27 73 56l6 4l-4 7q-4 8 -17 26q-12 17 -15 23q-4 14 9 18
q7 3 14 -2.5t20 -24.5q28 -43 12 -57q-4 -4 -21.5 -17l-40 -29.5z" />
    <glyph glyph-name="questiondown" unicode="&#xbf;" horiz-adv-x="389" 
d="M381 574q-9 -3 -17 5t-4 16q2 7 9.5 10.5t13.5 0.5q11 -4 10 -17t-12 -15zM68 -41q-53 2 -53 47q0 39 73 139q183 249 238 338q15 26 23 18q3 -3 3 -7q0 -19 -180 -268q-94 -129 -107 -151q-43 -70 -17 -84q6 -3 22.5 -3t28.5 4q34 9 64 32q32 24 52 54q18 27 26 54
q4 15 4 35q1 20 -6 41t-4 26q4 6 9 7q11 3 20.5 -6.5t16.5 -30.5q11 -35 0 -76q-17 -57 -63 -101q-25 -27 -66 -47q-46 -24 -84 -21z" />
    <glyph glyph-name="Agrave" unicode="&#xc0;" 
d="M705 691q-8 -18 -127 -201q-149 -229 -215 -361q-82 -163 -82 -242q0 -20 -2 -22q-6 -7 -12 1q-10 10 -7 46t16 77q54 159 315 558q40 60 42 64q1 3 0.5 3.5t-5.5 0.5q-6 0 -27 -23q-71 -78 -275 -329q-115 -141 -154 -183q-41 -43 -69 -57q-33 -17 -58 8q-43 43 -12 150
q23 84 80 185.5t123 178.5q45 52 94 92q75 60 145 74q41 9 75 -2q45 -12 73 -45l10 -10q3 0 20 19q40 40 48 40q5 0 8 -5q3 -6 -4 -17zM585 600l27 30l-10 10q-29 31 -76 36t-102 -23q-107 -53 -210 -190q-111 -147 -154 -282q-16 -46 -16 -82q0 -37 15 -53q14 -17 38 -4
q28 14 71 62q62 69 170 203q186 228 247 293zM594 746q-1 -5 -9 -4q-9 0 -22 5l-20 5q-12 3 -12 13q0 5 3.5 8.5t8.5 3.5q3 0 26.5 -11t24.5 -13v-7z" />
    <glyph glyph-name="Aacute" unicode="&#xc1;" 
d="M705 691q-8 -18 -127 -201q-149 -229 -215 -361q-82 -163 -82 -242q0 -20 -2 -22q-6 -7 -12 1q-10 10 -7 46t16 77q54 159 315 558q40 60 42 64q1 3 0.5 3.5t-5.5 0.5q-6 0 -27 -23q-71 -78 -275 -329q-115 -141 -154 -183q-41 -43 -69 -57q-33 -17 -58 8q-43 43 -12 150
q23 84 80 185.5t123 178.5q45 52 94 92q75 60 145 74q41 9 75 -2q45 -12 73 -45l10 -10q3 0 20 19q40 40 48 40q5 0 8 -5q3 -6 -4 -17zM585 600l27 30l-10 10q-29 31 -76 36t-102 -23q-107 -53 -210 -190q-111 -147 -154 -282q-16 -46 -16 -82q0 -37 15 -53q14 -17 38 -4
q28 14 71 62q62 69 170 203q186 228 247 293zM573 779q9 3 13 -1q4 -3 2 -8q-1 -4 -27 -15q-24 -10 -30 -11.5t-10 2.5q-3 4 -2 10q3 5 13 9q6 1 21 7q11 6 20 7z" />
    <glyph glyph-name="Acircumflex" unicode="&#xc2;" 
d="M705 691q-8 -18 -127 -201q-149 -229 -215 -361q-82 -163 -82 -242q0 -20 -2 -22q-6 -7 -12 1q-10 10 -7 46t16 77q54 159 315 558q40 60 42 64q1 3 0.5 3.5t-5.5 0.5q-6 0 -27 -23q-71 -78 -275 -329q-115 -141 -154 -183q-41 -43 -69 -57q-33 -17 -58 8q-43 43 -12 150
q23 84 80 185.5t123 178.5q45 52 94 92q75 60 145 74q41 9 75 -2q45 -12 73 -45l10 -10q3 0 20 19q40 40 48 40q5 0 8 -5q3 -6 -4 -17zM585 600l27 30l-10 10q-29 31 -76 36t-102 -23q-107 -53 -210 -190q-111 -147 -154 -282q-16 -46 -16 -82q0 -37 15 -53q14 -17 38 -4
q28 14 71 62q62 69 170 203q186 228 247 293zM594 746q-4 4 2 20l5 13l-17 -16q-14 -14 -20 -17q-3 -2 -7 2t-4 8q0 7 34 42q16 16 23 20t13 -1q6 -4 5 -11.5t-10 -30.5q-12 -32 -18 -32q-3 0 -6 3z" />
    <glyph glyph-name="Atilde" unicode="&#xc3;" 
d="M705 691q-8 -18 -127 -201q-149 -229 -215 -361q-82 -163 -82 -242q0 -20 -2 -22q-6 -7 -12 1q-10 10 -7 46t16 77q54 159 315 558q40 60 42 64q1 3 0.5 3.5t-5.5 0.5q-6 0 -27 -23q-71 -78 -275 -329q-115 -141 -154 -183q-41 -43 -69 -57q-33 -17 -58 8q-43 43 -12 150
q23 84 80 185.5t123 178.5q45 52 94 92q75 60 145 74q41 9 75 -2q45 -12 73 -45l10 -10q3 0 20 19q40 40 48 40q5 0 8 -5q3 -6 -4 -17zM585 600l27 30l-10 10q-29 31 -76 36t-102 -23q-107 -53 -210 -190q-111 -147 -154 -282q-16 -46 -16 -82q0 -37 15 -53q14 -17 38 -4
q28 14 71 62q62 69 170 203q186 228 247 293zM556 749q-13 -10 -21 -2q-9 9 -1 17q3 4 13 8.5t16 4.5q16 0 16 -11q0 -2 3 -5q3 -4 11 0q6 3 16 11q11 10 16 5q7 -7 -8 -20q-26 -22 -42 -14q-8 3 -9 7l-4 4z" />
    <glyph glyph-name="Adieresis" unicode="&#xc4;" 
d="M705 691q-8 -18 -127 -201q-149 -229 -215 -361q-82 -163 -82 -242q0 -20 -2 -22q-6 -7 -12 1q-10 10 -7 46t16 77q54 159 315 558q40 60 42 64q1 3 0.5 3.5t-5.5 0.5q-6 0 -27 -23q-71 -78 -275 -329q-115 -141 -154 -183q-41 -43 -69 -57q-33 -17 -58 8q-43 43 -12 150
q23 84 80 185.5t123 178.5q45 52 94 92q75 60 145 74q41 9 75 -2q45 -12 73 -45l10 -10q3 0 20 19q40 40 48 40q5 0 8 -5q3 -6 -4 -17zM585 600l27 30l-10 10q-29 31 -76 36t-102 -23q-107 -53 -210 -190q-111 -147 -154 -282q-16 -46 -16 -82q0 -37 15 -53q14 -17 38 -4
q28 14 71 62q62 69 170 203q186 228 247 293zM540 748q-10 6 -7 18q2 8 11 11.5t17 -1.5q5 -3 5 -10.5t-5 -11.5q-11 -9 -15 -8zM577 748q-10 6 -7 18q2 8 11 11.5t17 -1.5q4 -3 4 -10.5t-4 -11.5q-11 -9 -15 -8q-1 0 -3 1t-3 1z" />
    <glyph glyph-name="Aring" unicode="&#xc5;" 
d="M705 691q-8 -18 -127 -201q-149 -229 -215 -361q-82 -163 -82 -242q0 -20 -2 -22q-6 -7 -12 1q-10 10 -7 46t16 77q54 159 315 558q40 60 42 64q1 3 0.5 3.5t-5.5 0.5q-6 0 -27 -23q-71 -78 -275 -329q-115 -141 -154 -183q-41 -43 -69 -57q-33 -17 -58 8q-43 43 -12 150
q23 84 80 185.5t123 178.5q45 52 94 92q75 60 145 74q41 9 75 -2q45 -12 73 -45l10 -10q3 0 20 19q40 40 48 40q5 0 8 -5q3 -6 -4 -17zM585 600l27 30l-10 10q-29 31 -76 36t-102 -23q-107 -53 -210 -190q-111 -147 -154 -282q-16 -46 -16 -82q0 -37 15 -53q14 -17 38 -4
q28 14 71 62q62 69 170 203q186 228 247 293zM585 807q20 -9 11 -27q-9 -19 -29 -32q-19 -10 -31 0q-7 7 -7 18q1 23 19 36t37 5zM562 768q22 14 16 22q-6 6 -14 -2q-20 -23 -13 -26q1 0 11 6z" />
    <glyph glyph-name="AE" unicode="&#xc6;" horiz-adv-x="1083" 
d="M173 290q-10 -2 -13 -5q-8 -8 -58.5 -103t-56.5 -112q-4 -10 -8 -11q-11 -3 -15 6q-2 6 5 21q31 64 100 183q10 13 10 17q-4 1 -9 2q-15 1 -15 12q0 17 26 17q10 0 14 2q4 1 38 54q194 312 323 423q79 68 136 68q29 0 39 -19q3 -7 14 -7q15 0 33 3q87 11 182.5 12
t146.5 -9q26 -6 27 -12q1 -5 -3 -8.5t-8 -2.5q-24 6 -116 6q-100 0 -178 -9q-5 -1 -29.5 -3.5l-34.5 -3.5l-30 -3l-3 -14q-6 -34 -29 -86q-34 -80 -151 -299l-22 -46q17 1 38 2q93 8 188 9q105 0 113 -7q7 -7 0 -13q-5 -3 -19 -1q-29 5 -119 1t-178 -14l-39 -4l-38 -71
l-22 -41l-27.5 -50l-20.5 -36q-32 -55 -32 -57q1 -1 13 0t36.5 5.5l54.5 10.5q68 14 121 18q103 10 144 6q3 0 11.5 -0.5t20.5 -1.5t19 -1q34 -2 43 -4q5 -2 7 -6.5t-2 -8.5q-2 -3 -43 -1q-65 4 -127 0q-102 -5 -212 -28q-84 -16 -90 -15q-3 0 -9 2q-22 6 -14 34q6 22 38 78
l88 161q-3 3 -111 -14q-63 -10 -84 -15zM283 483q-100 -151 -100 -159q3 -1 6.5 -0.5t35.5 6.5q52 10 157 22q11 1 24.5 2.5l22 2.5t10.5 1l9 2l22 42l70 130q103 194 123 251q14 44 6 56t-33 7q-59 -11 -135 -85q-94 -91 -218 -278z" />
    <glyph glyph-name="Ccedilla" unicode="&#xc7;" horiz-adv-x="482" 
d="M46 -215q30 4 29 12l-2 2q-1 2 -14 2q-9 0 -13.5 1.5t-5 6.5t4 13.5t13.5 22.5l13 21q-55 17 -83 72q-22 42 -21 104q0 43 5 66q25 117 114 254t207 238q116 100 218 122q41 10 69 -1q52 -16 55 -78q3 -67 -58 -163t-155 -172q-83 -66 -153 -90q-51 -16 -51 10q0 7 24 15
q51 16 120.5 65.5t120.5 106.5q125 136 125 227q0 39 -23 52q-27 17 -73 7q-114 -23 -252 -157t-217 -297q-94 -195 -38 -302q7 -14 22.5 -30t28.5 -22q68 -36 156 18q55 34 137 116q63 63 115 128q19 24 25.5 29.5t10.5 1.5q3 -5 1 -9.5t-16 -22.5q-55 -72 -119.5 -137.5
t-117.5 -103.5q-69 -49 -129 -52h-20q-1 -4 -15 -23l-12 -15q-2 -2 5 -5q17 -8 15 -23q-3 -24 -40 -27q-16 -2 -18 -2q-6 0 -8 1q-6 2 -6 7.5t6 7.5q1 0 4 0.5t7.5 1.5t8.5 1z" />
    <glyph glyph-name="Egrave" unicode="&#xc8;" horiz-adv-x="583" 
d="M356 399l23 11h-2q-109 -15 -136 25q-9 12 -9 34q0 61 86 150q49 52 105 83t98 31q37 0 51 -28q6 -10 5 -28q0 -17 -8 -32q-15 -32 -62 -78q-47 -47 -90 -78q-22 -16 -54 -30t-46 -14q-11 0 -18 7t-5 15q3 10 21 13q56 6 146 77q69 56 89 98q13 28 3 44q-9 13 -38 13
q-20 0 -39 -7q-52 -17 -105.5 -61.5t-90.5 -101.5q-41 -62 -26 -93q17 -36 140 -19q23 3 34.5 4t18.5 0t8.5 -3t0.5 -7q-1 -7 -69 -33q-120 -47 -196 -104q-70 -52 -111 -116.5t-41 -120.5q0 -51 32 -83q25 -26 62.5 -39t76.5 -8q120 13 237 122q55 49 104 111q32 39 36 41
q5 2 6 1q9 -4 4 -11q-43 -57 -82 -98q-27 -30 -31 -34q-21 -23 -69 -61q-62 -48 -129 -72t-121 -17q-34 5 -56 16q-68 33 -85 95q-10 36 0 77q12 53 54 112q15 21 45.5 51.5t53.5 46.5q76 57 179 99zM578 746q-1 -5 -9 -4q-9 0 -22 5l-20 5q-12 3 -12 13q0 5 3.5 8.5
t8.5 3.5q3 0 26.5 -11t24.5 -13v-7z" />
    <glyph glyph-name="Eacute" unicode="&#xc9;" horiz-adv-x="583" 
d="M356 399l23 11h-2q-109 -15 -136 25q-9 12 -9 34q0 61 86 150q49 52 105 83t98 31q37 0 51 -28q6 -10 5 -28q0 -17 -8 -32q-15 -32 -62 -78q-47 -47 -90 -78q-22 -16 -54 -30t-46 -14q-11 0 -18 7t-5 15q3 10 21 13q56 6 146 77q69 56 89 98q13 28 3 44q-9 13 -38 13
q-20 0 -39 -7q-52 -17 -105.5 -61.5t-90.5 -101.5q-41 -62 -26 -93q17 -36 140 -19q23 3 34.5 4t18.5 0t8.5 -3t0.5 -7q-1 -7 -69 -33q-120 -47 -196 -104q-70 -52 -111 -116.5t-41 -120.5q0 -51 32 -83q25 -26 62.5 -39t76.5 -8q120 13 237 122q55 49 104 111q32 39 36 41
q5 2 6 1q9 -4 4 -11q-43 -57 -82 -98q-27 -30 -31 -34q-21 -23 -69 -61q-62 -48 -129 -72t-121 -17q-34 5 -56 16q-68 33 -85 95q-10 36 0 77q12 53 54 112q15 21 45.5 51.5t53.5 46.5q76 57 179 99zM562 779q9 3 13 -1q4 -3 2 -8q-1 -4 -27 -15q-24 -10 -30 -11.5t-10 2.5
q-3 4 -2 10q3 5 13 9q6 1 21 7q11 6 20 7z" />
    <glyph glyph-name="Ecircumflex" unicode="&#xca;" horiz-adv-x="583" 
d="M356 399l23 11h-2q-109 -15 -136 25q-9 12 -9 34q0 61 86 150q49 52 105 83t98 31q37 0 51 -28q6 -10 5 -28q0 -17 -8 -32q-15 -32 -62 -78q-47 -47 -90 -78q-22 -16 -54 -30t-46 -14q-11 0 -18 7t-5 15q3 10 21 13q56 6 146 77q69 56 89 98q13 28 3 44q-9 13 -38 13
q-20 0 -39 -7q-52 -17 -105.5 -61.5t-90.5 -101.5q-41 -62 -26 -93q17 -36 140 -19q23 3 34.5 4t18.5 0t8.5 -3t0.5 -7q-1 -7 -69 -33q-120 -47 -196 -104q-70 -52 -111 -116.5t-41 -120.5q0 -51 32 -83q25 -26 62.5 -39t76.5 -8q120 13 237 122q55 49 104 111q32 39 36 41
q5 2 6 1q9 -4 4 -11q-43 -57 -82 -98q-27 -30 -31 -34q-21 -23 -69 -61q-62 -48 -129 -72t-121 -17q-34 5 -56 16q-68 33 -85 95q-10 36 0 77q12 53 54 112q15 21 45.5 51.5t53.5 46.5q76 57 179 99zM554 746q-4 4 2 20l5 13l-17 -16q-14 -14 -20 -17q-3 -2 -7 2t-4 8
q0 7 34 42q16 16 23 20t13 -1q6 -4 5 -11.5t-10 -30.5q-12 -32 -18 -32q-3 0 -6 3z" />
    <glyph glyph-name="Edieresis" unicode="&#xcb;" horiz-adv-x="583" 
d="M356 399l23 11h-2q-109 -15 -136 25q-9 12 -9 34q0 61 86 150q49 52 105 83t98 31q37 0 51 -28q6 -10 5 -28q0 -17 -8 -32q-15 -32 -62 -78q-47 -47 -90 -78q-22 -16 -54 -30t-46 -14q-11 0 -18 7t-5 15q3 10 21 13q56 6 146 77q69 56 89 98q13 28 3 44q-9 13 -38 13
q-20 0 -39 -7q-52 -17 -105.5 -61.5t-90.5 -101.5q-41 -62 -26 -93q17 -36 140 -19q23 3 34.5 4t18.5 0t8.5 -3t0.5 -7q-1 -7 -69 -33q-120 -47 -196 -104q-70 -52 -111 -116.5t-41 -120.5q0 -51 32 -83q25 -26 62.5 -39t76.5 -8q120 13 237 122q55 49 104 111q32 39 36 41
q5 2 6 1q9 -4 4 -11q-43 -57 -82 -98q-27 -30 -31 -34q-21 -23 -69 -61q-62 -48 -129 -72t-121 -17q-34 5 -56 16q-68 33 -85 95q-10 36 0 77q12 53 54 112q15 21 45.5 51.5t53.5 46.5q76 57 179 99zM518 748q-10 6 -7 18q2 8 11 11.5t17 -1.5q5 -3 5 -10.5t-5 -11.5
q-11 -9 -15 -8q-1 0 -3 1t-3 1zM555 748q-10 6 -7 18q2 8 11 11.5t17 -1.5q4 -3 4 -10.5t-4 -11.5q-11 -9 -15 -8z" />
    <glyph glyph-name="Igrave" unicode="&#xcc;" horiz-adv-x="242" 
d="M35 -98q-2 -2 -7 -2t-7 4t0 9q6 21 105 204q127 229 290 476q51 77 61 94q9 20 5 20h-2q-4 0 -8 -2q-35 -10 -92 -58q-44 -37 -91 -93q-42 -54 -42 -76q0 -11 -5 -16q-9 -9 -21 4q-24 24 44 104q55 64 121 111t97 45q31 -3 11 -44q-11 -20 -56 -89q-140 -210 -260 -421
q-104 -183 -134 -250q-4 -10 -9 -20zM539 746q-1 -5 -9 -4q-9 0 -22 5l-20 5q-12 3 -12 13q0 5 4 8.5t8 3.5q3 0 26.5 -11t24.5 -13v-7z" />
    <glyph glyph-name="Iacute" unicode="&#xcd;" horiz-adv-x="242" 
d="M35 -98q-2 -2 -7 -2t-7 4t0 9q6 21 105 204q127 229 290 476q51 77 61 94q9 20 5 20h-2q-4 0 -8 -2q-35 -10 -92 -58q-44 -37 -91 -93q-42 -54 -42 -76q0 -11 -5 -16q-9 -9 -21 4q-24 24 44 104q55 64 121 111t97 45q31 -3 11 -44q-11 -20 -56 -89q-140 -210 -260 -421
q-104 -183 -134 -250q-4 -10 -9 -20zM524 779q9 3 13 -1q4 -3 2 -8q-1 -4 -27 -15q-24 -10 -30 -11.5t-10 2.5q-3 4 -2 10q3 5 13 9q6 1 21 7q11 6 20 7z" />
    <glyph glyph-name="Icircumflex" unicode="&#xce;" horiz-adv-x="242" 
d="M35 -98q-2 -2 -7 -2t-7 4t0 9q6 21 105 204q127 229 290 476q51 77 61 94q9 20 5 20h-2q-4 0 -8 -2q-35 -10 -92 -58q-44 -37 -91 -93q-42 -54 -42 -76q0 -11 -5 -16q-9 -9 -21 4q-24 24 44 104q55 64 121 111t97 45q31 -3 11 -44q-11 -20 -56 -89q-140 -210 -260 -421
q-104 -183 -134 -250q-4 -10 -9 -20zM511 746q-4 4 2 20l5 13l-17 -16q-14 -14 -20 -17q-3 -2 -7 2t-4 8q0 7 34 42q16 16 23 20t13 -1q6 -4 5 -11.5t-10 -30.5q-12 -32 -18 -32q-3 0 -6 3z" />
    <glyph glyph-name="Idieresis" unicode="&#xcf;" horiz-adv-x="242" 
d="M35 -98q-2 -2 -7 -2t-7 4t0 9q6 21 105 204q127 229 290 476q51 77 61 94q9 20 5 20h-2q-4 0 -8 -2q-35 -10 -92 -58q-44 -37 -91 -93q-42 -54 -42 -76q0 -11 -5 -16q-9 -9 -21 4q-24 24 44 104q55 64 121 111t97 45q31 -3 11 -44q-11 -20 -56 -89q-140 -210 -260 -421
q-104 -183 -134 -250q-4 -10 -9 -20zM479 748q-10 6 -7 18q2 8 11 11.5t17 -1.5q4 -3 4 -10.5t-4 -11.5q-11 -9 -15 -8q-1 0 -3 1t-3 1zM516 748q-10 6 -7 18q2 8 11 11.5t17 -1.5q5 -3 5 -10.5t-5 -11.5q-11 -9 -15 -8z" />
    <glyph glyph-name="Eth" unicode="&#xd0;" horiz-adv-x="653" 
d="M481 608q7 -8 4 -16t-26 -39q-16 -22 -58.5 -85.5t-41.5 -64.5q3 0 17 3q18 4 23 4q7 0 10 3q3 2 20 26q90 121 177.5 199.5t147.5 89.5q58 11 79 -36q26 -57 -14 -172q-28 -83 -96.5 -184.5t-157.5 -190.5q-155 -155 -303 -204q-73 -24 -125 -16q-76 10 -103 62
q-14 27 -14 59q1 63 51 138.5t132 137.5q35 26 80 49l22 11l17 29q37 59 82.5 125t55.5 73q12 8 21 -1zM362 258q12 -7 0 -16q-4 -2 -48 -4l-17 -27q-59 -91 -74 -102q-12 -9 -21 2q-5 6 -4 27q1 29 20 77q3 9 9 21q-3 0 -7.5 0.5t-7.5 1t-4 0.5q-7 1 -10 5t-0.5 8.5
t9.5 6.5q6 3 32 4q19 40 33 65q6 10 9.5 16.5t2.5 6.5q-1 1 -16 -8t-34.5 -22.5t-30.5 -22.5q-127 -102 -155 -212q-12 -45 2 -78.5t50 -46.5q39 -14 97 -6q127 19 274 141q26 22 75 70.5t72 76.5q161 195 192 343q16 75 1 103q-8 17 -31 23q-12 1 -27 -2q-49 -13 -116 -68
t-138 -142l-26.5 -34l-28.5 -37l-11 -15q1 -1 14 -3q25 -4 43 -21q41 -38 1 -99q-7 -12 -23 -29.5t-19 -17.5t-8 5t-3 10.5t18 25.5q30 40 32 61q0 13 -5 21q-13 24 -51 28l-13 1l-26 -38q-35 -49 -64 -95q27 -1 33 -4zM393 390l-24 -5l-14 -4q-12 -4 -18.5 -12.5
t-34.5 -54.5l-30 -52h12h24q34 54 65 97l9.5 14t8 12t2.5 5zM238 156l46 68l8 13q-12 -1 -33 -1q-24 -47 -34 -81q-6 -20 -5 -21t7 7z" />
    <glyph glyph-name="Ntilde" unicode="&#xd1;" horiz-adv-x="653" 
d="M28 -72q12 31 86 174q67 124 155.5 262t154.5 221q39 49 57.5 64.5t29.5 6.5q4 -4 5 -16q1 -24 -23 -95q-62 -181 -84.5 -257t-32.5 -140q-7 -39 -8 -80.5t4 -57.5q10 -31 32 -27q36 10 98 101t196 332l83 145l69 123q15 25 22 19q5 -4 -4 -22.5t-71 -127.5l-99 -175
q-118 -214 -169 -291q-37 -57 -70 -92q-34 -34 -63 -34q-54 0 -54 108q0 140 113 441l30 81l6 21.5t4 17t0 6.5q-6 0 -41 -45q-67 -82 -156.5 -221t-159.5 -268q-91 -169 -91 -188q0 -12 -9 -17q-9 -4 -15 2q-5 6 5 29zM653 749q-13 -10 -21 -2q-9 9 -1 17q3 4 13 8.5
t16 4.5q16 0 16 -11q0 -2 3 -5q3 -4 11 0q6 3 16 11q11 10 16 5q7 -7 -8 -20q-26 -22 -42 -14q-8 3 -9 7l-4 4z" />
    <glyph glyph-name="Ograve" unicode="&#xd2;" horiz-adv-x="495" 
d="M533 557q0 -80 -11 -139q-20 -105 -71.5 -209t-122.5 -182q-117 -129 -211 -109q-71 16 -92 97q-5 17 -5 61q0 59 14 116q23 92 75.5 195.5t114.5 179.5q36 46 90 93q61 49 106 60q18 7 20 8q7 7 21 9.5t24 -2.5q6 -2 14 -10q20 -22 29 -79q5 -24 5 -89zM507 468
q4 24 4.5 75t-1.5 73q-4 35 -13 63.5t-19 34.5l-1 -1q20 -16 7 -29q-9 -9 -22 0q-20 14 -68 -11q-76 -38 -153 -131.5t-132 -214.5q-48 -105 -61.5 -193.5t11.5 -140.5q14 -29 39 -43q37 -20 85 -4q51 19 110 78q60 60 106 136q87 147 108 308zM515 746q-1 -5 -9 -4
q-9 0 -22 5l-20 5q-12 3 -12 13q0 5 4 8.5t8 3.5q3 0 26.5 -11t24.5 -13v-7z" />
    <glyph glyph-name="Oacute" unicode="&#xd3;" horiz-adv-x="495" 
d="M533 557q0 -80 -11 -139q-20 -105 -71.5 -209t-122.5 -182q-117 -129 -211 -109q-71 16 -92 97q-5 17 -5 61q0 59 14 116q23 92 75.5 195.5t114.5 179.5q36 46 90 93q61 49 106 60q18 7 20 8q7 7 21 9.5t24 -2.5q6 -2 14 -10q20 -22 29 -79q5 -24 5 -89zM507 468
q4 24 4.5 75t-1.5 73q-4 35 -13 63.5t-19 34.5l-1 -1q20 -16 7 -29q-9 -9 -22 0q-20 14 -68 -11q-76 -38 -153 -131.5t-132 -214.5q-48 -105 -61.5 -193.5t11.5 -140.5q14 -29 39 -43q37 -20 85 -4q51 19 110 78q60 60 106 136q87 147 108 308zM514 779q9 3 13 -1q4 -3 2 -8
q-1 -4 -27 -15q-24 -10 -30 -11.5t-10 2.5q-3 4 -2 10q3 5 13 9q6 1 21 7q11 6 20 7z" />
    <glyph glyph-name="Ocircumflex" unicode="&#xd4;" horiz-adv-x="495" 
d="M533 557q0 -80 -11 -139q-20 -105 -71.5 -209t-122.5 -182q-117 -129 -211 -109q-71 16 -92 97q-5 17 -5 61q0 59 14 116q23 92 75.5 195.5t114.5 179.5q36 46 90 93q61 49 106 60q18 7 20 8q7 7 21 9.5t24 -2.5q6 -2 14 -10q20 -22 29 -79q5 -24 5 -89zM507 468
q4 24 4.5 75t-1.5 73q-4 35 -13 63.5t-19 34.5l-1 -1q20 -16 7 -29q-9 -9 -22 0q-20 14 -68 -11q-76 -38 -153 -131.5t-132 -214.5q-48 -105 -61.5 -193.5t11.5 -140.5q14 -29 39 -43q37 -20 85 -4q51 19 110 78q60 60 106 136q87 147 108 308zM504 746q-4 4 2 20l5 13
l-17 -16q-14 -14 -20 -17q-3 -2 -7 2t-4 8q0 7 34 42q16 16 23 20t13 -1q6 -4 5 -11.5t-10 -30.5q-12 -32 -18 -32q-3 0 -6 3z" />
    <glyph glyph-name="Otilde" unicode="&#xd5;" horiz-adv-x="495" 
d="M533 557q0 -80 -11 -139q-20 -105 -71.5 -209t-122.5 -182q-117 -129 -211 -109q-71 16 -92 97q-5 17 -5 61q0 59 14 116q23 92 75.5 195.5t114.5 179.5q36 46 90 93q61 49 106 60q18 7 20 8q7 7 21 9.5t24 -2.5q6 -2 14 -10q20 -22 29 -79q5 -24 5 -89zM507 468
q4 24 4.5 75t-1.5 73q-4 35 -13 63.5t-19 34.5l-1 -1q20 -16 7 -29q-9 -9 -22 0q-20 14 -68 -11q-76 -38 -153 -131.5t-132 -214.5q-48 -105 -61.5 -193.5t11.5 -140.5q14 -29 39 -43q37 -20 85 -4q51 19 110 78q60 60 106 136q87 147 108 308zM481 749q-13 -10 -21 -2
q-9 9 -1 17q3 4 13 8.5t16 4.5q16 0 16 -11q0 -2 3 -5q3 -4 11 0q6 3 16 11q11 10 16 5q7 -7 -8 -20q-26 -22 -42 -14q-8 3 -9 7l-4 4z" />
    <glyph glyph-name="Odieresis" unicode="&#xd6;" horiz-adv-x="495" 
d="M533 557q0 -80 -11 -139q-20 -105 -71.5 -209t-122.5 -182q-117 -129 -211 -109q-71 16 -92 97q-5 17 -5 61q0 59 14 116q23 92 75.5 195.5t114.5 179.5q36 46 90 93q61 49 106 60q18 7 20 8q7 7 21 9.5t24 -2.5q6 -2 14 -10q20 -22 29 -79q5 -24 5 -89zM507 468
q4 24 4.5 75t-1.5 73q-4 35 -13 63.5t-19 34.5l-1 -1q20 -16 7 -29q-9 -9 -22 0q-20 14 -68 -11q-76 -38 -153 -131.5t-132 -214.5q-48 -105 -61.5 -193.5t11.5 -140.5q14 -29 39 -43q37 -20 85 -4q51 19 110 78q60 60 106 136q87 147 108 308zM473 748q-10 6 -7 18
q2 8 11 11.5t17 -1.5q4 -3 4 -10.5t-4 -11.5q-11 -9 -15 -8q-1 0 -3 1t-3 1zM510 748q-10 6 -7 18q2 8 11 11.5t17 -1.5q5 -3 5 -10.5t-5 -11.5q-11 -9 -15 -8z" />
    <glyph glyph-name="multiply" unicode="&#xd7;" horiz-adv-x="212" 
d="M163 213q0 -6 -24 -30l-24 -25l2 -23q1 -24 -4 -27q-7 -6 -11 0q-3 2 -5 17l-2 14l-16 -17q-21 -19 -27 -13q-4 5 -0.5 11t20.5 21l22 20l-2 26l-1 26l5 4q5 2 9 1q6 -3 8 -22l1 -15l19 20q20 19 24 18q5 0 6 -6z" />
    <glyph glyph-name="Oslash" unicode="&#xd8;" horiz-adv-x="495" 
d="M44 -101q-4 0 -9 5q-2 3 2 12l21 36q-22 24 -33 63q-5 17 -5 61q0 59 14 116q23 92 75.5 195.5t114.5 179.5q36 46 90 93q61 49 106 60q18 7 20 8q7 7 21 9.5t24 -2.5q6 -2 14 -10q12 -15 19 -37l31 49q7 15 17 7q7 -5 -11 -32l-30 -49l3 -17q5 -24 5 -89q0 -80 -11 -139
q-20 -105 -71.5 -209t-122.5 -182q-117 -129 -211 -109q-24 6 -44 20q-24 -37 -29 -39zM59 -7q6 -12 13 -20l98 157l249 398l40.5 66.5t42.5 67.5q-11 44 -24 52l-1 -1q20 -16 7 -29q-9 -9 -22 0q-20 14 -68 -11q-76 -38 -153 -131.5t-132 -214.5q-48 -105 -61.5 -193.5
t11.5 -140.5zM507 468q4 24 4.5 75t-1.5 73l-3 18q-9 -16 -30 -48t-26 -41l-143 -229l-101 -164q-43 -65 -103 -166l-18 -27q6 -6 12 -9q37 -20 85 -4q51 19 110 78q60 60 106 136q87 147 108 308z" />
    <glyph glyph-name="Ugrave" unicode="&#xd9;" horiz-adv-x="572" 
d="M542 280l56 98q65 116 122 206q47 73 72 105q9 10 16 10q8 -2 10 -6q5 -8 -20 -54q-62 -113 -139 -229l-72 -105q-34 -47 -83 -139q-60 -109 -93 -194q-18 -43 -19 -65q0 -11 -2 -13t-6 -2t-7 2q-8 4 -4 32q6 42 74 177q4 9 9.5 19t9 17l6.5 13l4 8l1 3
q-135 -157 -251 -216q-110 -57 -165 -13q-41 33 -40 113q0 70 28 153q53 158 159 300q27 35 39 45.5t22 6.5t12 -13q1 -6 -12 -20q-43 -43 -103 -143q-90 -150 -113 -263q-15 -67 -5 -111q18 -89 124 -55q64 20 145 85q23 18 69 64t74 78q68 83 82 106zM599 746q-1 -5 -9 -4
q-9 0 -22 5l-20 5q-12 3 -12 13q0 5 4 8.5t8 3.5q3 0 26.5 -11t24.5 -13v-7z" />
    <glyph glyph-name="Uacute" unicode="&#xda;" horiz-adv-x="572" 
d="M542 280l56 98q65 116 122 206q47 73 72 105q9 10 16 10q8 -2 10 -6q5 -8 -20 -54q-62 -113 -139 -229l-72 -105q-34 -47 -83 -139q-60 -109 -93 -194q-18 -43 -19 -65q0 -11 -2 -13t-6 -2t-7 2q-8 4 -4 32q6 42 74 177q4 9 9.5 19t9 17l6.5 13l4 8l1 3
q-135 -157 -251 -216q-110 -57 -165 -13q-41 33 -40 113q0 70 28 153q53 158 159 300q27 35 39 45.5t22 6.5t12 -13q1 -6 -12 -20q-43 -43 -103 -143q-90 -150 -113 -263q-15 -67 -5 -111q18 -89 124 -55q64 20 145 85q23 18 69 64t74 78q68 83 82 106zM592 779q9 3 13 -1
q4 -3 2 -8q-1 -4 -27 -15q-24 -10 -30 -11.5t-10 2.5q-3 4 -2 10q3 5 13 9q6 1 21 7q11 6 20 7z" />
    <glyph glyph-name="Ucircumflex" unicode="&#xdb;" horiz-adv-x="572" 
d="M542 280l56 98q65 116 122 206q47 73 72 105q9 10 16 10q8 -2 10 -6q5 -8 -20 -54q-62 -113 -139 -229l-72 -105q-34 -47 -83 -139q-60 -109 -93 -194q-18 -43 -19 -65q0 -11 -2 -13t-6 -2t-7 2q-8 4 -4 32q6 42 74 177q4 9 9.5 19t9 17l6.5 13l4 8l1 3
q-135 -157 -251 -216q-110 -57 -165 -13q-41 33 -40 113q0 70 28 153q53 158 159 300q27 35 39 45.5t22 6.5t12 -13q1 -6 -12 -20q-43 -43 -103 -143q-90 -150 -113 -263q-15 -67 -5 -111q18 -89 124 -55q64 20 145 85q23 18 69 64t74 78q68 83 82 106zM569 746q-4 4 2 20
l5 13l-17 -16q-14 -14 -20 -17q-3 -2 -7 2t-4 8q0 7 34 42q16 16 23 20t13 -1q6 -4 5 -11.5t-10 -30.5q-12 -32 -18 -32q-3 0 -6 3z" />
    <glyph glyph-name="Udieresis" unicode="&#xdc;" horiz-adv-x="572" 
d="M542 280l56 98q65 116 122 206q47 73 72 105q9 10 16 10q8 -2 10 -6q5 -8 -20 -54q-62 -113 -139 -229l-72 -105q-34 -47 -83 -139q-60 -109 -93 -194q-18 -43 -19 -65q0 -11 -2 -13t-6 -2t-7 2q-8 4 -4 32q6 42 74 177q4 9 9.5 19t9 17l6.5 13l4 8l1 3
q-135 -157 -251 -216q-110 -57 -165 -13q-41 33 -40 113q0 70 28 153q53 158 159 300q27 35 39 45.5t22 6.5t12 -13q1 -6 -12 -20q-43 -43 -103 -143q-90 -150 -113 -263q-15 -67 -5 -111q18 -89 124 -55q64 20 145 85q23 18 69 64t74 78q68 83 82 106zM548 748q-10 6 -7 18
q2 8 11 11.5t17 -1.5q5 -3 5 -10.5t-5 -11.5q-11 -9 -15 -8q-1 0 -3 1t-3 1zM585 748q-10 6 -7 18q2 8 11 11.5t17 -1.5q4 -3 4 -10.5t-4 -11.5q-11 -9 -15 -8z" />
    <glyph glyph-name="Yacute" unicode="&#xdd;" horiz-adv-x="611" 
d="M20 207q0 34 18 89q45 139 145 265q34 43 48.5 54t25.5 2q7 -6 5 -11.5t-15 -18.5q-33 -32 -76 -94.5t-72 -119.5q-35 -68 -49 -121.5t-3 -74.5q20 -40 123 43q51 40 175 168q182 191 254 248q83 68 113 49q5 -2 12 -12q4 -8 4 -38q0 -29 -3 -45q-23 -93 -96.5 -229
t-164.5 -253l-20 -27q3 0 130 79q45 29 51 28t6 -7t-13 -14q-70 -47 -166 -103l-46 -28l-37 -37q-40 -41 -57 -54q-67 -55 -111 -66q-17 -5 -24 -1q-6 5 -6 13q0 13 25 34q36 31 137 89q58 35 62 39q50 50 128 169q84 126 137 241.5t53 171.5q0 30 -9 36q-8 5 -32 -7
q-43 -20 -111.5 -82.5t-200.5 -201.5q-118 -124 -164 -163q-60 -50 -99 -67q-25 -10 -45 -4q-17 7 -27 27q-5 11 -5 34zM232 -88q37 18 101 76q9 9 7 9q-3 0 -35 -20q-43 -25 -79 -50.5t-36 -30.5q0 -1 6 0.5t16 6t20 9.5zM538 779q9 3 13 -1q4 -3 2 -8q-1 -4 -27 -15
q-24 -10 -30 -11.5t-10 2.5q-3 4 -2 10q3 5 13 9q6 1 21 7q11 6 20 7z" />
    <glyph glyph-name="agrave" unicode="&#xe0;" horiz-adv-x="352" 
d="M192 201q14 33 38 69l1 6q-6 0 -109 -103q-61 -60 -81 -76.5t-34 -19.5q-9 -3 -18 1q-21 10 -16 47t34 86q26 45 66.5 83t77.5 52q16 6 34 6q19 0 30 -5q17 -7 30 -25q10 -13 12 -14q8 -7 5 -17.5t-21 -41.5q-45 -75 -51 -127q-5 -39 21 -44q38 -8 112 79q33 41 40 41
q5 0 7 -4t-2 -10q-5 -8 -28 -35t-38 -42q-47 -45 -82 -48q-14 0 -22 4q-55 25 -6 138zM204 279l13 13l-4 5q-17 19 -52 9q-21 -5 -55 -28q-13 -8 -38.5 -34.5t-36.5 -42.5q-20 -29 -30.5 -59t-6.5 -42q4 -8 17 -2q16 9 103 93q74 74 90 88zM268 397q-1 -5 -9 -4q-9 0 -22 5
l-20 5q-12 3 -12 13q0 4 3.5 8t8.5 4q3 0 26.5 -11t24.5 -13v-7z" />
    <glyph glyph-name="aacute" unicode="&#xe1;" horiz-adv-x="352" 
d="M192 201q14 33 38 69l1 6q-6 0 -109 -103q-61 -60 -81 -76.5t-34 -19.5q-9 -3 -18 1q-21 10 -16 47t34 86q26 45 66.5 83t77.5 52q16 6 34 6q19 0 30 -5q17 -7 30 -25q10 -13 12 -14q8 -7 5 -17.5t-21 -41.5q-45 -75 -51 -127q-5 -39 21 -44q38 -8 112 79q33 41 40 41
q5 0 7 -4t-2 -10q-5 -8 -28 -35t-38 -42q-47 -45 -82 -48q-14 0 -22 4q-55 25 -6 138zM204 279l13 13l-4 5q-17 19 -52 9q-21 -5 -55 -28q-13 -8 -38.5 -34.5t-36.5 -42.5q-20 -29 -30.5 -59t-6.5 -42q4 -8 17 -2q16 9 103 93q74 74 90 88zM276 428q9 3 13 -1q4 -3 2 -8
q-1 -4 -27 -15q-24 -10 -30 -11.5t-10 2.5q-3 5 -2 10q3 5 13 9q6 1 21 7q11 5 20 7z" />
    <glyph glyph-name="acircumflex" unicode="&#xe2;" horiz-adv-x="352" 
d="M192 201q14 33 38 69l1 6q-6 0 -109 -103q-61 -60 -81 -76.5t-34 -19.5q-9 -3 -18 1q-21 10 -16 47t34 86q26 45 66.5 83t77.5 52q16 6 34 6q19 0 30 -5q17 -7 30 -25q10 -13 12 -14q8 -7 5 -17.5t-21 -41.5q-45 -75 -51 -127q-5 -39 21 -44q38 -8 112 79q33 41 40 41
q5 0 7 -4t-2 -10q-5 -8 -28 -35t-38 -42q-47 -45 -82 -48q-14 0 -22 4q-55 25 -6 138zM204 279l13 13l-4 5q-17 19 -52 9q-21 -5 -55 -28q-13 -8 -38.5 -34.5t-36.5 -42.5q-20 -29 -30.5 -59t-6.5 -42q4 -8 17 -2q16 9 103 93q74 74 90 88zM257 389q-4 4 2 20l5 13l-17 -16
q-14 -14 -20 -17q-3 -2 -7 2t-4 8q0 7 34 42q16 16 23 20t13 -1q6 -4 5 -11.5t-10 -30.5q-12 -32 -18 -32q-3 0 -6 3z" />
    <glyph glyph-name="atilde" unicode="&#xe3;" horiz-adv-x="352" 
d="M192 201q14 33 38 69l1 6q-6 0 -109 -103q-61 -60 -81 -76.5t-34 -19.5q-9 -3 -18 1q-21 10 -16 47t34 86q26 45 66.5 83t77.5 52q16 6 34 6q19 0 30 -5q17 -7 30 -25q10 -13 12 -14q8 -7 5 -17.5t-21 -41.5q-45 -75 -51 -127q-5 -39 21 -44q38 -8 112 79q33 41 40 41
q5 0 7 -4t-2 -10q-5 -8 -28 -35t-38 -42q-47 -45 -82 -48q-14 0 -22 4q-55 25 -6 138zM204 279l13 13l-4 5q-17 19 -52 9q-21 -5 -55 -28q-13 -8 -38.5 -34.5t-36.5 -42.5q-20 -29 -30.5 -59t-6.5 -42q4 -8 17 -2q16 9 103 93q74 74 90 88zM224 400q-13 -10 -21 -2
q-9 9 -1 17q3 4 13 8.5t16 4.5q16 0 16 -11q0 -2 3 -5q3 -4 11 0q6 3 16 11q11 10 16 5q7 -7 -8 -20q-26 -22 -42 -14q-7 2 -9 7l-4 4z" />
    <glyph glyph-name="adieresis" unicode="&#xe4;" horiz-adv-x="352" 
d="M192 201q14 33 38 69l1 6q-6 0 -109 -103q-61 -60 -81 -76.5t-34 -19.5q-9 -3 -18 1q-21 10 -16 47t34 86q26 45 66.5 83t77.5 52q16 6 34 6q19 0 30 -5q17 -7 30 -25q10 -13 12 -14q8 -7 5 -17.5t-21 -41.5q-45 -75 -51 -127q-5 -39 21 -44q38 -8 112 79q33 41 40 41
q5 0 7 -4t-2 -10q-5 -8 -28 -35t-38 -42q-47 -45 -82 -48q-14 0 -22 4q-55 25 -6 138zM204 279l13 13l-4 5q-17 19 -52 9q-21 -5 -55 -28q-13 -8 -38.5 -34.5t-36.5 -42.5q-20 -29 -30.5 -59t-6.5 -42q4 -8 17 -2q16 9 103 93q74 74 90 88zM229 394q-10 6 -7 18q2 8 11 11.5
t17 -1.5q4 -3 4 -10.5t-4 -11.5q-11 -9 -15 -8q-1 0 -3 1t-3 1zM266 394q-10 6 -7 18q2 8 11 11.5t17 -1.5q5 -3 5 -10.5t-5 -11.5q-11 -9 -15 -8q-1 0 -3 1t-3 1z" />
    <glyph glyph-name="aring" unicode="&#xe5;" horiz-adv-x="352" 
d="M192 201q14 33 38 69l1 6q-6 0 -109 -103q-61 -60 -81 -76.5t-34 -19.5q-9 -3 -18 1q-21 10 -16 47t34 86q26 45 66.5 83t77.5 52q16 6 34 6q19 0 30 -5q17 -7 30 -25q10 -13 12 -14q8 -7 5 -17.5t-21 -41.5q-45 -75 -51 -127q-5 -39 21 -44q38 -8 112 79q33 41 40 41
q5 0 7 -4t-2 -10q-5 -8 -28 -35t-38 -42q-47 -45 -82 -48q-14 0 -22 4q-55 25 -6 138zM204 279l13 13l-4 5q-17 19 -52 9q-21 -5 -55 -28q-13 -8 -38.5 -34.5t-36.5 -42.5q-20 -29 -30.5 -59t-6.5 -42q4 -8 17 -2q16 9 103 93q74 74 90 88zM281 454q20 -9 11 -27
q-10 -19 -29 -32q-19 -10 -31 0q-7 7 -7 18q1 23 19 36t37 5zM258 415q22 14 16 22q-6 6 -14 -2q-20 -23 -13 -26q1 0 11 6z" />
    <glyph glyph-name="ae" unicode="&#xe6;" horiz-adv-x="418" 
d="M375 103q-42 -45 -95 -69q-37 -13 -61 -3q-15 6 -28.5 20t-24 47.5t6.5 82.5q10 32 38 70l-94 -92q-61 -60 -81 -76.5t-34 -19.5q-9 -3 -18 1q-21 10 -16 47t34 86q26 45 66.5 83t77.5 52q16 6 34 6q19 0 30 -5q17 -7 30 -25q10 -13 12 -14q0 -1 1 -1q34 23 55 10.5
t8 -48.5q-8 -22 -25.5 -44t-32.5 -29q-10 -5 -26 -5l-16 -1l-5 -9q-13 -30 -11.5 -60.5t17.5 -44.5q14 -12 37 -11q13 1 33 10q60 31 128 117q13 17 20 12q6 -5 -1 -17q-14 -22 -59 -70zM199 265l13 13l-4 5q-17 19 -52 9q-21 -5 -55 -28q-13 -8 -38.5 -34.5t-36.5 -42.5
q-20 -29 -30.5 -59t-6.5 -42q4 -8 17 -2q16 9 103 93q74 74 90 88zM261 249q-37 -47 -33 -51q1 -2 10.5 0.5t15.5 7.5q18 12 34 43q12 25 5 25q-3 0 -14.5 -9t-17.5 -16z" />
    <glyph glyph-name="ccedilla" unicode="&#xe7;" horiz-adv-x="300" 
d="M22 -74q30 4 29 12l-2 2q-1 2 -14 2q-9 0 -13.5 1.5t-5 6.5t4 13.5t13.5 22.5l10 16q-36 13 -53 47q-39 82 33 189q44 67 98 89q12 5 29.5 6t25.5 -4q19 -11 27 -28q13 -25 3 -60q-15 -47 -42 -62q-9 -5 -17.5 -1.5t-8.5 11.5q0 5 7 14q18 23 23 50q7 43 -34 35
q-38 -13 -72 -56.5t-44 -93.5q-9 -47 11 -80.5t57 -33.5t91 39.5t111 105.5q20 23 26 23q6 -1 7 -7q0 -7 -16 -25q-64 -73 -126.5 -117t-106.5 -45l-13 -19l-12 -15q-2 -2 5 -5q17 -8 15 -23q-3 -24 -40 -27q-16 -2 -18 -2q-6 0 -8 1q-6 2 -6 8t6 7q1 0 4 0.5t7.5 1.5t8.5 1
z" />
    <glyph glyph-name="egrave" unicode="&#xe8;" horiz-adv-x="236" 
d="M193 103q-42 -45 -95 -69q-37 -13 -61 -3q-37 15 -50 57.5t4 92.5q10 30 33 62.5t44 47.5q35 25 57 13t9 -49q-8 -22 -25.5 -44t-32.5 -29q-10 -5 -26 -5l-16 -1l-5 -9q-13 -30 -11.5 -60.5t17.5 -44.5q14 -12 37 -11q13 1 33 10q60 31 128 117q13 17 20 12q6 -5 -1 -17
q-14 -22 -59 -70zM79 249q-37 -47 -33 -51q1 -2 10.5 0.5t15.5 7.5q18 12 34 43q12 25 5 25q-3 0 -14.5 -9t-17.5 -16zM189 400q-1 -5 -9 -4q-9 0 -22 5l-20 5q-12 3 -12 13q0 5 4 8.5t8 3.5q3 0 26.5 -11t24.5 -13v-7z" />
    <glyph glyph-name="eacute" unicode="&#xe9;" horiz-adv-x="236" 
d="M193 103q-42 -45 -95 -69q-37 -13 -61 -3q-37 15 -50 57.5t4 92.5q10 30 33 62.5t44 47.5q35 25 57 13t9 -49q-8 -22 -25.5 -44t-32.5 -29q-10 -5 -26 -5l-16 -1l-5 -9q-13 -30 -11.5 -60.5t17.5 -44.5q14 -12 37 -11q13 1 33 10q60 31 128 117q13 17 20 12q6 -5 -1 -17
q-14 -22 -59 -70zM79 249q-37 -47 -33 -51q1 -2 10.5 0.5t15.5 7.5q18 12 34 43q12 25 5 25q-3 0 -14.5 -9t-17.5 -16zM172 427q9 3 13 -1q4 -3 2 -8q-1 -4 -27 -15q-24 -10 -30 -11.5t-10 2.5q-3 4 -2 10q3 5 13 9q6 1 21 7q11 6 20 7z" />
    <glyph glyph-name="ecircumflex" unicode="&#xea;" horiz-adv-x="236" 
d="M193 103q-42 -45 -95 -69q-37 -13 -61 -3q-37 15 -50 57.5t4 92.5q10 30 33 62.5t44 47.5q35 25 57 13t9 -49q-8 -22 -25.5 -44t-32.5 -29q-10 -5 -26 -5l-16 -1l-5 -9q-13 -30 -11.5 -60.5t17.5 -44.5q14 -12 37 -11q13 1 33 10q60 31 128 117q13 17 20 12q6 -5 -1 -17
q-14 -22 -59 -70zM79 249q-37 -47 -33 -51q1 -2 10.5 0.5t15.5 7.5q18 12 34 43q12 25 5 25q-3 0 -14.5 -9t-17.5 -16zM152 366q-4 4 2 20l5 13l-17 -16q-14 -14 -20 -17q-3 -2 -7 2t-4 8q0 7 34 42q16 16 23 20t13 -1q6 -4 5 -11.5t-10 -30.5q-12 -32 -18 -32q-3 0 -6 3z
" />
    <glyph glyph-name="edieresis" unicode="&#xeb;" horiz-adv-x="236" 
d="M193 103q-42 -45 -95 -69q-37 -13 -61 -3q-37 15 -50 57.5t4 92.5q10 30 33 62.5t44 47.5q35 25 57 13t9 -49q-8 -22 -25.5 -44t-32.5 -29q-10 -5 -26 -5l-16 -1l-5 -9q-13 -30 -11.5 -60.5t17.5 -44.5q14 -12 37 -11q13 1 33 10q60 31 128 117q13 17 20 12q6 -5 -1 -17
q-14 -22 -59 -70zM79 249q-37 -47 -33 -51q1 -2 10.5 0.5t15.5 7.5q18 12 34 43q12 25 5 25q-3 0 -14.5 -9t-17.5 -16zM128 393q-10 6 -7 18q2 8 11 11.5t17 -1.5q5 -3 5 -10t-5 -12q-11 -9 -15 -8zM165 393q-10 6 -7 18q2 8 11 11.5t17 -1.5q4 -3 4 -10t-4 -12
q-11 -9 -15 -8z" />
    <glyph glyph-name="igrave" unicode="&#xec;" horiz-adv-x="185" 
d="M94 275q-79 -110 -88 -145q-8 -32 1 -51q3 -7 13 -13q9 -3 20 -1q24 5 61 33.5t68 66.5q26 30 32 25q7 -5 -5 -20q-31 -38 -57 -62q-57 -53 -93 -62q-17 -5 -32 0q-23 7 -33 34q-5 12 -5 37q0 24 6 42q7 24 40.5 77t47.5 66q10 8 20.5 4.5t10.5 -15.5q0 -8 -7 -16z
M178 396q-1 -5 -9 -4q-9 0 -22 5l-20 5q-12 3 -12 13q0 5 3.5 8.5t8.5 3.5q3 0 26.5 -11t24.5 -13v-7z" />
    <glyph glyph-name="iacute" unicode="&#xed;" horiz-adv-x="185" 
d="M94 275q-79 -110 -88 -145q-8 -32 1 -51q3 -7 13 -13q9 -3 20 -1q24 5 61 33.5t68 66.5q26 30 32 25q7 -5 -5 -20q-31 -38 -57 -62q-57 -53 -93 -62q-17 -5 -32 0q-23 7 -33 34q-5 12 -5 37q0 24 6 42q7 24 40.5 77t47.5 66q10 8 20.5 4.5t10.5 -15.5q0 -8 -7 -16z
M165 428q9 3 13 -1q4 -3 2 -8q-1 -4 -27 -15q-24 -10 -30 -11.5t-10 2.5q-3 5 -2 10q3 5 13 9q6 1 21 7q11 5 20 7z" />
    <glyph glyph-name="icircumflex" unicode="&#xee;" horiz-adv-x="185" 
d="M94 275q-79 -110 -88 -145q-8 -32 1 -51q3 -7 13 -13q9 -3 20 -1q24 5 61 33.5t68 66.5q26 30 32 25q7 -5 -5 -20q-31 -38 -57 -62q-57 -53 -93 -62q-17 -5 -32 0q-23 7 -33 34q-5 12 -5 37q0 24 6 42q7 24 40.5 77t47.5 66q10 8 20.5 4.5t10.5 -15.5q0 -8 -7 -16z
M153 379q-4 4 2 20l5 13l-17 -16q-14 -14 -20 -17q-3 -2 -7 2t-4 8q0 7 34 42q16 16 23 20t13 -1q6 -4 5 -11.5t-10 -30.5q-12 -32 -18 -32q-3 0 -6 3z" />
    <glyph glyph-name="idieresis" unicode="&#xef;" horiz-adv-x="185" 
d="M94 275q-79 -110 -88 -145q-8 -32 1 -51q3 -7 13 -13q9 -3 20 -1q24 5 61 33.5t68 66.5q26 30 32 25q7 -5 -5 -20q-31 -38 -57 -62q-57 -53 -93 -62q-17 -5 -32 0q-23 7 -33 34q-5 12 -5 37q0 24 6 42q7 24 40.5 77t47.5 66q10 8 20.5 4.5t10.5 -15.5q0 -8 -7 -16z
M126 390q-10 6 -7 18q2 8 11 11.5t17 -1.5q5 -3 5 -10.5t-5 -11.5q-11 -9 -15 -8zM163 390q-10 6 -7 18q2 8 11 11.5t17 -1.5q4 -3 4 -10.5t-4 -11.5q-11 -9 -15 -8q-1 0 -3 1t-3 1z" />
    <glyph glyph-name="eth" unicode="&#xf0;" horiz-adv-x="412" 
d="M415 470q14 -8 0 -17q-9 -4 -58 -6l-74 -130q-57 -101 -75 -140q-43 -97 -31 -143q9 -34 39 -36q25 -2 61 30t96 109q47 61 53 61q6 -1 6 -7q1 -5 -38 -58q-76 -99 -117 -132q-33 -23 -56 -23q-15 -1 -29 5q-40 21 -37 85q3 58 44 141q17 35 120 215q2 5 7 12.5t6 9.5
h-18l-91 -131q-33 -49 -33 -57q0 -14 -11 -14q-5 0 -11 -11q-66 -99 -109 -142q-24 -23 -43 -23q-18 0 -28 20q-14 27 -0.5 73.5t49.5 93.5q16 23 48 45q27 18 52 18q16 0 23 -5q8 -6 14 -14q7 -9 8 -9t15 21l92 135q-21 0 -29 2q-7 2 -10 6t-0.5 8.5t9.5 7.5q6 3 49 3
l11.5 16t8.5 11q58 79 79 88q6 2 11 -1q5 -4 5 -11q0 -11 -52 -103q37 0 44 -3zM163 261q5 10 -10 23q-7 6 -14 4q-13 -1 -32.5 -16.5t-33.5 -33.5q-34 -44 -51 -97q-12 -34 -6 -47q1 -6 16 3q16 9 57 60q67 89 74 104zM377 529q-5 -5 -44 -56h4h9l8 14l7 12.5l6 10.5
t4.5 8.5t3 6t1.5 3.5z" />
    <glyph glyph-name="ntilde" unicode="&#xf1;" horiz-adv-x="326" 
d="M192 108q-27 44 20 136l14 29q-4 -2 -9 -5q-31 -19 -123 -111q-62 -62 -79.5 -74.5t-30.5 -6.5q-32 17 4 101q19 43 46.5 85t45.5 55t27 1q6 -7 4 -13t-18 -26q-44 -56 -76 -128q-19 -40 -19 -51q0 -8 105 94q55 55 88 80q38 28 52 23q6 -2 8 -6q5 -11 -16 -53
q-27 -56 -30 -80q-4 -23 4 -39t22 -13q28 5 81 63q22 23 26 23q8 0 8 -8q0 -4 -20.5 -26.5t-37.5 -38.5q-24 -20 -36 -27q-17 -8 -28 -7q-19 1 -32 23zM191 400q-13 -10 -21 -2q-9 9 -1 17q3 4 13 8.5t16 4.5q16 0 16 -11q0 -2 3 -5q3 -4 11 0q6 3 16 11q11 10 16 5
q7 -7 -8 -20q-26 -22 -42 -14q-8 2 -9 7l-4 4z" />
    <glyph glyph-name="ograve" unicode="&#xf2;" horiz-adv-x="198" 
d="M167 326q17 -38 -30 -143q-7 -12 -7 -15q1 -1 7 -0.5t15 2.5t14 4q3 1 14.5 7.5t13.5 7.5q15 11 18 0q1 -3 -1 -7q-6 -10 -40 -27q-25 -9 -45 -9q-10 0 -16 -9q-52 -75 -88 -66q-22 5 -32.5 26t-6.5 49q7 48 39 84q13 15 13 23q0 24 16 56t42 45q25 12 46 1q19 -8 28 -29
zM51 104q7 5 18 16t17.5 21t4.5 11q-18 7 -33 24q-8 8 -12 16l-2 4t-2 3t-2 0q-3 -1 -10.5 -17.5t-10.5 -29.5q-11 -46 8 -55q8 -4 24 7zM117 193q33 69 33 107q0 22 -13 33t-31 4q-28 -10 -42 -53q-8 -27 -2 -28q11 -2 11 -15q0 -6 -7 -12q-7 -5 -7 -9q0 -13 18 -31
q9 -9 19 -14q9 -5 12 -1q3 3 9 19zM181 400q-1 -5 -9 -4q-9 0 -22 5l-20 5q-12 3 -12 13q0 5 4 8.5t8 3.5q3 0 26.5 -11t24.5 -13v-7z" />
    <glyph glyph-name="oacute" unicode="&#xf3;" horiz-adv-x="198" 
d="M167 326q17 -38 -30 -143q-7 -12 -7 -15q1 -1 7 -0.5t15 2.5t14 4q3 1 14.5 7.5t13.5 7.5q15 11 18 0q1 -3 -1 -7q-6 -10 -40 -27q-25 -9 -45 -9q-10 0 -16 -9q-52 -75 -88 -66q-22 5 -32.5 26t-6.5 49q7 48 39 84q13 15 13 23q0 24 16 56t42 45q25 12 46 1q19 -8 28 -29
zM51 104q7 5 18 16t17.5 21t4.5 11q-18 7 -33 24q-8 8 -12 16l-2 4t-2 3t-2 0q-3 -1 -10.5 -17.5t-10.5 -29.5q-11 -46 8 -55q8 -4 24 7zM117 193q33 69 33 107q0 22 -13 33t-31 4q-28 -10 -42 -53q-8 -27 -2 -28q11 -2 11 -15q0 -6 -7 -12q-7 -5 -7 -9q0 -13 18 -31
q9 -9 19 -14q9 -5 12 -1q3 3 9 19zM162 425q9 3 13 -1q4 -3 2 -8q-1 -4 -27 -15q-24 -10 -30 -11.5t-10 2.5q-3 4 -2 10q3 5 13 9q6 1 21 7q11 6 20 7z" />
    <glyph glyph-name="ocircumflex" unicode="&#xf4;" horiz-adv-x="198" 
d="M167 326q17 -38 -30 -143q-7 -12 -7 -15q1 -1 7 -0.5t15 2.5t14 4q3 1 14.5 7.5t13.5 7.5q15 11 18 0q1 -3 -1 -7q-6 -10 -40 -27q-25 -9 -45 -9q-10 0 -16 -9q-52 -75 -88 -66q-22 5 -32.5 26t-6.5 49q7 48 39 84q13 15 13 23q0 24 16 56t42 45q25 12 46 1q19 -8 28 -29
zM51 104q7 5 18 16t17.5 21t4.5 11q-18 7 -33 24q-8 8 -12 16l-2 4t-2 3t-2 0q-3 -1 -10.5 -17.5t-10.5 -29.5q-11 -46 8 -55q8 -4 24 7zM117 193q33 69 33 107q0 22 -13 33t-31 4q-28 -10 -42 -53q-8 -27 -2 -28q11 -2 11 -15q0 -6 -7 -12q-7 -5 -7 -9q0 -13 18 -31
q9 -9 19 -14q9 -5 12 -1q3 3 9 19zM150 398q-4 4 2 20l5 13l-17 -16q-14 -14 -20 -17q-3 -2 -7 2t-4 8q0 7 34 42q16 16 23 20t13 -1q6 -4 5 -11.5t-10 -30.5q-12 -32 -18 -32q-3 0 -6 3z" />
    <glyph glyph-name="otilde" unicode="&#xf5;" horiz-adv-x="198" 
d="M167 326q17 -38 -30 -143q-7 -12 -7 -15q1 -1 7 -0.5t15 2.5t14 4q3 1 14.5 7.5t13.5 7.5q15 11 18 0q1 -3 -1 -7q-6 -10 -40 -27q-25 -9 -45 -9q-10 0 -16 -9q-52 -75 -88 -66q-22 5 -32.5 26t-6.5 49q7 48 39 84q13 15 13 23q0 24 16 56t42 45q25 12 46 1q19 -8 28 -29
zM51 104q7 5 18 16t17.5 21t4.5 11q-18 7 -33 24q-8 8 -12 16l-2 4t-2 3t-2 0q-3 -1 -10.5 -17.5t-10.5 -29.5q-11 -46 8 -55q8 -4 24 7zM117 193q33 69 33 107q0 22 -13 33t-31 4q-28 -10 -42 -53q-8 -27 -2 -28q11 -2 11 -15q0 -6 -7 -12q-7 -5 -7 -9q0 -13 18 -31
q9 -9 19 -14q9 -5 12 -1q3 3 9 19zM121 400q-13 -10 -21 -2q-9 9 -1 17q3 4 13 8.5t16 4.5q16 0 16 -11q0 -2 3 -5q3 -4 11 0q6 3 16 11q11 10 16 5q7 -7 -8 -20q-26 -22 -42 -14q-8 2 -9 7l-4 4z" />
    <glyph glyph-name="odieresis" unicode="&#xf6;" horiz-adv-x="198" 
d="M167 326q17 -38 -30 -143q-7 -12 -7 -15q1 -1 7 -0.5t15 2.5t14 4q3 1 14.5 7.5t13.5 7.5q15 11 18 0q1 -3 -1 -7q-6 -10 -40 -27q-25 -9 -45 -9q-10 0 -16 -9q-52 -75 -88 -66q-22 5 -32.5 26t-6.5 49q7 48 39 84q13 15 13 23q0 24 16 56t42 45q25 12 46 1q19 -8 28 -29
zM51 104q7 5 18 16t17.5 21t4.5 11q-18 7 -33 24q-8 8 -12 16l-2 4t-2 3t-2 0q-3 -1 -10.5 -17.5t-10.5 -29.5q-11 -46 8 -55q8 -4 24 7zM117 193q33 69 33 107q0 22 -13 33t-31 4q-28 -10 -42 -53q-8 -27 -2 -28q11 -2 11 -15q0 -6 -7 -12q-7 -5 -7 -9q0 -13 18 -31
q9 -9 19 -14q9 -5 12 -1q3 3 9 19zM111 400q-10 6 -7 18q2 8 11 11.5t17 -1.5q4 -3 4 -10.5t-4 -11.5q-11 -9 -15 -8zM148 400q-10 6 -7 18q2 8 11 11.5t17 -1.5q5 -3 5 -10.5t-5 -11.5q-11 -9 -15 -8q-1 0 -3 1t-3 1z" />
    <glyph glyph-name="divide" unicode="&#xf7;" horiz-adv-x="202" 
d="M102 191q-3 4 -3 10t4 9q6 6 16 3q13 -7 6 -19q-3 -5 -11 -6t-12 3zM152 168q2 -7 -4 -8.5t-31 -1.5q-8 0 -25.5 0.5t-22.5 1.5q-17 1 -18 4q-3 4 0 7q2 4 47 5q36 1 44.5 -0.5t9.5 -7.5zM78 147q12 5 18.5 -4.5t-2.5 -19.5q-10 -12 -20 -2q-6 6 -4.5 14.5t8.5 11.5z" />
    <glyph glyph-name="oslash" unicode="&#xf8;" horiz-adv-x="198" 
d="M167 326q17 -38 -30 -143q-7 -12 -7 -15q1 -1 7 -0.5t15 2.5t14 4q3 1 14.5 7.5t13.5 7.5q15 11 18 0q1 -3 -1 -7q-6 -10 -40 -27q-25 -9 -45 -9q-10 0 -16 -9q-52 -75 -88 -66q-3 0 -4 1l-11 -18l-31 -50q-7 -15 -17 -7q-7 5 11 32l32 51q-25 22 -19 66q7 48 39 84
q13 15 13 23q0 24 16 56t42 45q25 12 46 1l17 27l31 50q7 15 17 7q7 -5 -11 -32l-39 -63q8 -8 13 -18zM117 193q33 69 33 107q0 22 -13 33t-31 4q-28 -10 -42 -53q-8 -27 -2 -28q11 -2 11 -15q0 -6 -7 -12q-7 -5 -7 -9q0 -13 18 -31q9 -9 19 -14q9 -5 12 -1q3 3 9 19z
M51 104q7 5 18 16t17.5 21t4.5 11q-18 7 -33 24q-8 8 -12 16l-2 4t-2 3t-2 0q-3 -1 -10.5 -17.5t-10.5 -29.5q-11 -46 8 -55q8 -4 24 7z" />
    <glyph glyph-name="ugrave" unicode="&#xf9;" horiz-adv-x="281" 
d="M159 80q-18 10 -21.5 40.5t8.5 67.5q1 2 2 5t2 5v2q-1 0 -17 -18q-18 -21 -49 -52.5t-39 -35.5q-31 -18 -49 1q-20 20 -8.5 67t50.5 106q29 43 43.5 55t25.5 3q10 -10 -12 -38q-84 -116 -81 -165q0 -13 5 -14q5 0 15 5q17 9 79.5 76.5t94.5 111.5q27 37 38 37
q12 0 12 -14q0 -6 -35 -62q-67 -105 -59 -150q1 -17 17 -16q33 6 84 72q20 23 24 24q6 0 6 -6q1 -5 -20 -34q-55 -73 -97 -76q-14 0 -19 3zM225 399q-1 -5 -9 -4q-9 0 -22 5l-20 5q-12 3 -12 13q0 4 4 8t8 4q3 0 26.5 -11t24.5 -13v-7z" />
    <glyph glyph-name="uacute" unicode="&#xfa;" horiz-adv-x="281" 
d="M159 80q-18 10 -21.5 40.5t8.5 67.5q1 2 2 5t2 5v2q-1 0 -17 -18q-18 -21 -49 -52.5t-39 -35.5q-31 -18 -49 1q-20 20 -8.5 67t50.5 106q29 43 43.5 55t25.5 3q10 -10 -12 -38q-84 -116 -81 -165q0 -13 5 -14q5 0 15 5q17 9 79.5 76.5t94.5 111.5q27 37 38 37
q12 0 12 -14q0 -6 -35 -62q-67 -105 -59 -150q1 -17 17 -16q33 6 84 72q20 23 24 24q6 0 6 -6q1 -5 -20 -34q-55 -73 -97 -76q-14 0 -19 3zM207 428q9 3 13 -1q4 -3 2 -8q-1 -4 -27 -15q-24 -10 -30 -11.5t-10 2.5q-3 5 -2 10q3 5 13 9q6 1 21 7q11 5 20 7z" />
    <glyph glyph-name="ucircumflex" unicode="&#xfb;" horiz-adv-x="281" 
d="M159 80q-18 10 -21.5 40.5t8.5 67.5q1 2 2 5t2 5v2q-1 0 -17 -18q-18 -21 -49 -52.5t-39 -35.5q-31 -18 -49 1q-20 20 -8.5 67t50.5 106q29 43 43.5 55t25.5 3q10 -10 -12 -38q-84 -116 -81 -165q0 -13 5 -14q5 0 15 5q17 9 79.5 76.5t94.5 111.5q27 37 38 37
q12 0 12 -14q0 -6 -35 -62q-67 -105 -59 -150q1 -17 17 -16q33 6 84 72q20 23 24 24q6 0 6 -6q1 -5 -20 -34q-55 -73 -97 -76q-14 0 -19 3zM199 387q-4 4 2 20l5 13l-17 -16q-14 -14 -20 -17q-3 -2 -7 2t-4 8q0 7 34 42q16 16 23 20t13 -1q6 -4 5 -11.5t-10 -30.5
q-12 -32 -18 -32q-3 0 -6 3z" />
    <glyph glyph-name="udieresis" unicode="&#xfc;" horiz-adv-x="281" 
d="M159 80q-18 10 -21.5 40.5t8.5 67.5q1 2 2 5t2 5v2q-1 0 -17 -18q-18 -21 -49 -52.5t-39 -35.5q-31 -18 -49 1q-20 20 -8.5 67t50.5 106q29 43 43.5 55t25.5 3q10 -10 -12 -38q-84 -116 -81 -165q0 -13 5 -14q5 0 15 5q17 9 79.5 76.5t94.5 111.5q27 37 38 37
q12 0 12 -14q0 -6 -35 -62q-67 -105 -59 -150q1 -17 17 -16q33 6 84 72q20 23 24 24q6 0 6 -6q1 -5 -20 -34q-55 -73 -97 -76q-14 0 -19 3zM161 400q-10 6 -7 18q2 8 11 11.5t17 -1.5q4 -3 4 -10.5t-4 -11.5q-11 -9 -15 -8zM198 400q-10 6 -7 18q2 8 11 11.5t17 -1.5
q5 -3 5 -10.5t-5 -11.5q-11 -9 -15 -8z" />
    <glyph glyph-name="yacute" unicode="&#xfd;" horiz-adv-x="310" 
d="M-115 -192q-12 3 -22 16q-14 22 13 62.5t78 73.5q40 24 68 39q78 44 92.5 53t18.5 15q32 45 89 169q26 55 23 55q-5 0 -91 -91q-52 -56 -76.5 -77.5t-43.5 -27.5q-27 -7 -40 19q-13 27 7 89q10 30 32 65t37 47q10 7 19 3.5t9 -13.5q0 -7 -13 -27q-23 -34 -41 -76.5
t-20 -66.5q-1 -13 1.5 -14t14.5 4q22 12 90 81q78 80 102 97.5t35 4.5q7 -10 0 -28q-7 -20 -39.5 -85.5t-52.5 -100.5l-3 -7q3 0 28 17q60 40 93 69q18 17 22 19.5t8 -0.5q4 -2 5 -4t-0.5 -5.5t-5.5 -8t-11 -11.5q-27 -24 -32 -28q-35 -28 -111 -75q-21 -12 -36 -33
q-46 -68 -83 -109q-71 -79 -117 -100q-27 -13 -39 -11q-4 0 -8 1zM-117 -142q-9 -20 2.5 -26t36.5 6q32 16 79 62.5t88 103.5q10 12 8 12q-1 0 -27.5 -14.5l-58 -33t-43.5 -26.5q-66 -42 -85 -84zM215 433q9 3 13 -1q4 -3 2 -8q-1 -4 -27 -15q-24 -10 -30 -11.5t-10 2.5
q-3 4 -2 10q3 5 13 9q6 1 21 7q11 6 20 7z" />
    <glyph glyph-name="ydieresis" unicode="&#xff;" horiz-adv-x="310" 
d="M-115 -192q-12 3 -22 16q-14 22 13 62.5t78 73.5q40 24 68 39q78 44 92.5 53t18.5 15q32 45 89 169q26 55 23 55q-5 0 -91 -91q-52 -56 -76.5 -77.5t-43.5 -27.5q-27 -7 -40 19q-13 27 7 89q10 30 32 65t37 47q10 7 19 3.5t9 -13.5q0 -7 -13 -27q-23 -34 -41 -76.5
t-20 -66.5q-1 -13 1.5 -14t14.5 4q22 12 90 81q78 80 102 97.5t35 4.5q7 -10 0 -28q-7 -20 -39.5 -85.5t-52.5 -100.5l-3 -7q3 0 28 17q60 40 93 69q18 17 22 19.5t8 -0.5q4 -2 5 -4t-0.5 -5.5t-5.5 -8t-11 -11.5q-27 -24 -32 -28q-35 -28 -111 -75q-21 -12 -36 -33
q-46 -68 -83 -109q-71 -79 -117 -100q-27 -13 -39 -11q-4 0 -8 1zM-117 -142q-9 -20 2.5 -26t36.5 6q32 16 79 62.5t88 103.5q10 12 8 12q-1 0 -27.5 -14.5l-58 -33t-43.5 -26.5q-66 -42 -85 -84zM157 392q-10 6 -7 18q2 8 11 11.5t17 -1.5q4 -3 4 -10.5t-4 -11.5
q-11 -9 -15 -8q-1 0 -3 1t-3 1zM194 392q-10 6 -7 18q2 8 11 11.5t17 -1.5q5 -3 5 -10.5t-5 -11.5q-11 -9 -15 -8q-1 0 -3 1t-3 1z" />
    <glyph glyph-name="Lslash" unicode="&#x141;" horiz-adv-x="529" 
d="M375 490q-101 -144 -168 -273q42 14 45 13q11 -6 6 -16q-3 -7 -70 -34q-25 -51 -42 -98q-22 -60 -18 -64q13 2 28 4q125 23 261 20q60 -2 77 -4.5t17 -11.5q0 -10 -13 -7q-13 5 -86 5.5t-121 -4.5q-152 -14 -166 -26q-3 -3 -10 -2q-5 1 -34 -6t-40 -12q-11 -4 -17 1
q-4 6 -4 7q0 6 11 10.5t48 14.5l30 7l4 23q8 44 47 132q-31 -12 -36 -12q-8 0 -11 7t2 14q5 6 47 23l16 6q58 119 152 267q31 48 75 108q72 97 94 119q15 16 24 16q16 0 16 -15q0 -8 -17 -26q-73 -84 -147 -186z" />
    <glyph glyph-name="lslash" unicode="&#x142;" horiz-adv-x="222" 
d="M21 155l-8 -23q57 20 61 19q11 -6 6 -16q-4 -7 -75 -36q-1 -8 -1 -25q0 -29 6 -39q11 -26 42 -14q42 15 141 130q35 40 38 42q7 2 10 -5q1 -6 -31 -45q-93 -114 -148 -140q-25 -12 -46 -5q-31 12 -40 63q-1 8 -1 26q-21 -9 -29 -9t-11 7t2 14q4 5 41 20q12 74 69 174
q78 135 192 277q82 101 118 105q9 1 17 -6q7 -8 7 -21q0 -31 -36 -104q-46 -91 -140 -205q-104 -125 -171 -161q-7 -3 -13 -23zM58 236q-13 -26 -13 -27q0 -3 21 15.5l45 41.5q50 50 94 105q74 93 106 152q44 81 47 116l2 11l-7 -4q-32 -19 -138.5 -167t-156.5 -243z" />
    <glyph glyph-name="OE" unicode="&#x152;" horiz-adv-x="1008" 
d="M653 799q-11 0 -17 -0.5t-9 -1.5t-3 -1.5v-2.5q10 -31 10 -70q0 -50 -14 -110q-26 -104 -91 -234l-17 -35q0 -2 90 0l90 1l6 -5q8 -8 1 -15q-6 -6 -121 -7l-82 -2l-10 -17q-100 -165 -209 -238q-20 -13 -19 -13q1 -1 179.5 7.5t207.5 10.5q21 3 25 -1q4 -2 4.5 -7
t-2.5 -7q-6 -5 -330 -21q-99 -5 -125 -9q-60 -5 -80 -2q-41 6 -71 37q-50 53 -45 150q4 96 65 219q57 114 125 185q50 51 93 65l17 5l18 27q47 68 93 105q94 73 162 22l10 -7l107 1q71 1 140.5 1.5t110.5 0.5t45 -1q15 -4 10 -16q-3 -4 -7 -6q-1 0 -16.5 -0.5t-46 -1
t-58.5 -0.5q-116 -1 -236 -6zM614 711q3 68 -17 87q-7 7 -8 12q-3 8 -15 13q-29 16 -64 8q-77 -20 -154 -135l-12 -17l7 -7q14 -11 5 -22q-6 -6 -18 -5q-13 0 -16 -3l-4 -6q-4 -6 -10.5 -17t-12.5 -20l-15.5 -24.5t-10 -14t-6.5 -5t-5 2.5q-7 6 13 41q17 27 18 29q2 3 -7 -3
q-24 -17 -47 -40q-62 -62 -112.5 -155t-67.5 -175q-5 -22 -5 -66t4 -57q31 -110 136 -86q49 12 107 60t113 121q18 23 39 54.5t21 34.5q0 1 -24.5 0t-36.5 -3q-28 -4 -28 14q0 7 8 14l49 2l48 1l11 20q30 52 64 136q50 125 53 211z" />
    <glyph glyph-name="Ydieresis" unicode="&#x178;" horiz-adv-x="611" 
d="M20 207q0 34 18 89q45 139 145 265q34 43 48.5 54t25.5 2q7 -6 5 -11.5t-15 -18.5q-33 -32 -76 -94.5t-72 -119.5q-35 -68 -49 -121.5t-3 -74.5q20 -40 123 43q51 40 175 168q182 191 254 248q83 68 113 49q5 -2 12 -12q4 -8 4 -38q0 -29 -3 -45q-23 -93 -96.5 -229
t-164.5 -253l-20 -27q3 0 130 79q45 29 51 28t6 -7t-13 -14q-70 -47 -166 -103l-46 -28l-37 -37q-40 -41 -57 -54q-67 -55 -111 -66q-17 -5 -24 -1q-6 5 -6 13q0 13 25 34q36 31 137 89q58 35 62 39q50 50 128 169q84 126 137 241.5t53 171.5q0 30 -9 36q-8 5 -32 -7
q-43 -20 -111.5 -82.5t-200.5 -201.5q-118 -124 -164 -163q-60 -50 -99 -67q-25 -10 -45 -4q-17 7 -27 27q-5 11 -5 34zM232 -88q37 18 101 76q9 9 7 9q-3 0 -35 -20q-43 -25 -79 -50.5t-36 -30.5q0 -1 6 0.5t16 6t20 9.5zM470 748q-10 6 -7 18q2 8 11 11.5t17 -1.5
q5 -3 5 -10.5t-5 -11.5q-11 -9 -15 -8q-1 0 -3 1t-3 1zM507 748q-10 6 -7 18q2 8 11 11.5t17 -1.5q4 -3 4 -10.5t-4 -11.5q-11 -9 -15 -8z" />
    <glyph glyph-name="Zcaron" unicode="&#x17d;" horiz-adv-x="489" 
d="M115 125l52 17l53 52q112 114 258 234q129 106 162 139q43 42 50 62q3 11 0 17q-9 19 -58.5 22.5t-114.5 -9.5q-37 -6 -50 -15q-11 -7 -20 1q-8 8 0 20q7 11 72.5 20t109.5 4q62 -6 77 -34q11 -21 -12 -56q-25 -38 -162 -151l-165 -141q-64 -58 -131 -125
q-22 -25 -20 -25q1 0 8.5 2t21.5 6.5t26 7.5q73 21 120 30q8 1 12 -3q9 -9 -9 -15q-7 -2 -19 -5q-38 -8 -139 -38q-45 -13 -53.5 -18.5t-39.5 -40.5q-102 -114 -102 -144q0 -7 24 -7q26 0 128 22q189 43 207 38q8 -2 9.5 -9.5t-5.5 -11.5q-3 -3 -56 -12l-67.5 -13l-67.5 -13
q-92 -16 -102 -18q-51 -8 -59 -4q-1 0 -9 2q-19 4 -23 20q-6 40 101 158q16 18 15 19q-16 -5 -34 -10q-35 -11 -42 -11q-11 0 -13 5.5t8 10.5q9 4 59 20zM600 807q15 0 13 -16v-3q1 0 11 9q12 12 17 12q2 0 5 -3t3 -7q0 -1 -21 -23.5t-28 -28.5q-15 -12 -22 0q-5 8 4 37
q7 23 18 23z" />
    <glyph glyph-name="zcaron" unicode="&#x17e;" horiz-adv-x="201" 
d="M108 430q15 0 13 -16v-3q1 0 11 9q12 12 17 12q2 0 5 -3t3 -7q0 -1 -21 -23.5t-28 -28.5q-15 -12 -22 0q-5 8 4 37q7 23 18 23zM109 208q-25 -37 -25 -39q-1 -6 10 -16q23 -21 23 -35q0 -5 2 -7q1 -2 9.5 4.5t22.5 19.5l30 29q26 26 30 26q5 0 7 -3.5t1 -8.5
q-2 -5 -33 -35t-47 -43l-20 -16l-2 -11q-7 -35 -34 -70t-61 -52q-19 -10 -43 -13t-35 3q-29 20 17 61q16 16 77 52q19 10 46 28q12 9 14 11.5t1 8.5q-1 23 -20 38q-20 16 -20 30t37 63q27 36 27 37q0 4 -22 -11q-34 -21 -84 -78q-18 -21 -23 -21q-4 0 -6.5 4t-0.5 8
q4 11 34 44q38 44 78 67.5t51 7.5q5 -8 -2 -23.5t-39 -59.5zM88 48q7 14 7 17q-1 1 -15 -7q-33 -21 -50 -30q-35 -21 -51 -33q-29 -22 -27 -35q0 -2 2 -3q10 -4 33 2q31 7 58 31.5t43 57.5z" />
    <glyph glyph-name="circumflex" unicode="&#x2c6;" horiz-adv-x="174" 
d="M90 546q-4 4 2 20l5 13l-17 -16q-14 -14 -20 -17q-3 -2 -7 2t-4 8q0 7 34 42q16 16 23 20t13 -1q6 -4 5 -11.5t-10 -30.5q-12 -32 -18 -32q-3 0 -6 3z" />
    <glyph glyph-name="caron" unicode="&#x2c7;" horiz-adv-x="172" 
d="M74 607q15 0 13 -16v-3q1 0 11 9q12 12 17 12q2 0 5 -3t3 -7q0 -1 -21 -23.5t-28 -28.5q-15 -12 -22 0q-5 8 4 37q7 23 18 23z" />
    <glyph glyph-name="breve" unicode="&#x2d8;" horiz-adv-x="178" 
d="M86 600q2 -6 -6 -20t-7 -15q3 -3 14.5 7t21.5 24q7 11 13 11q14 0 -2 -25q-34 -50 -59 -35q-21 11 -4 45q11 22 22 16q6 -4 7 -8z" />
    <glyph glyph-name="dotaccent" unicode="&#x2d9;" horiz-adv-x="132" 
d="M57 548q-10 6 -7 18q2 8 11 11.5t17 -1.5q4 -3 4 -10.5t-4 -11.5q-11 -9 -15 -8z" />
    <glyph glyph-name="ring" unicode="&#x2da;" horiz-adv-x="167" 
d="M105 607q20 -9 11 -27q-9 -19 -29 -32q-19 -10 -31 0q-7 7 -7 18q1 23 19 36t37 5zM82 568q22 14 16 22q-6 6 -14 -2q-20 -23 -13 -26q1 0 11 6z" />
    <glyph glyph-name="ogonek" unicode="&#x2db;" horiz-adv-x="172" 
d="M95 -24q-21 -30 -22 -34v-4q5 2 21 22q17 18 21 17q5 0 7 -5q1 -7 -22 -31t-32 -26q-7 0 -10 1q-9 3 -9 16.5t9 29.5q16 34 34 52q8 7 15 5t7 -10q0 -3 -19 -33z" />
    <glyph glyph-name="tilde" unicode="&#x2dc;" horiz-adv-x="195" 
d="M74 549q-13 -10 -21 -2q-9 9 -1 17q3 4 13 8.5t16 4.5q16 0 16 -11q0 -2 3 -5q3 -4 11 0q6 3 16 11q11 10 16 5q7 -7 -8 -20q-26 -22 -42 -14q-7 2 -9 7l-4 4z" />
    <glyph glyph-name="hungarumlaut" unicode="&#x2dd;" horiz-adv-x="147" 
d="M65 590q7 5 13 2q5 -1 4 -7q0 -4 -22 -22q-29 -23 -35 -20q-5 4 -5 9q1 7 10 13q4 2 18 12q7 7 17 13zM109 590q7 5 13 2q5 -1 4 -7q0 -4 -22 -22q-29 -23 -35 -20q-5 4 -5 9q1 7 10 13q4 2 18 12q7 7 17 13z" />
    <glyph glyph-name="endash" unicode="&#x2013;" horiz-adv-x="214" 
d="M161 175q9 -9 0 -18q-4 -4 -49.5 -6t-53.5 1t-8 10.5t7 12.5q5 4 52 4t52 -4z" />
    <glyph glyph-name="emdash" unicode="&#x2014;" horiz-adv-x="270" 
d="M217 175q9 -9 0 -18q-4 -4 -77.5 -6t-81.5 1t-8 10.5t7 12.5q5 4 108 4q47 0 52 -4z" />
    <glyph glyph-name="quoteleft" unicode="&#x2018;" horiz-adv-x="111" 
d="M131 598q-12 0 -16.5 11t3.5 22q1 2 8 13l11 17q19 32 27 32q1 0 7 -2q4 -2 6 -7q2 -6 -10 -31l-15 -35q-6 -20 -21 -20z" />
    <glyph glyph-name="quoteright" unicode="&#x2019;" horiz-adv-x="111" 
d="M160 694q12 0 16.5 -11t-3.5 -22q-1 -2 -8 -13l-11 -17q-19 -32 -27 -32q-1 0 -7 2q-4 2 -6 7q-2 6 10 31q2 5 6 13.5t6 13.5t3 8q6 20 21 20z" />
    <glyph glyph-name="quotesinglbase" unicode="&#x201a;" horiz-adv-x="81" 
d="M-20 27q-5 5 1 16q5 9 3 13q-4 10 1.5 19t16.5 11q9 1 14 -5q4 -6 4 -9q0 -7 -14 -28t-19 -21q-1 0 -7 4z" />
    <glyph glyph-name="quotedblleft" unicode="&#x201c;" horiz-adv-x="168" 
d="M131 598q-12 0 -16.5 11t3.5 22q1 2 8 13l11 17q19 32 27 32q1 0 7 -2q4 -2 6 -7q2 -6 -10 -31l-15 -35q-6 -20 -21 -20zM184 608q-22 12 -2 34q1 2 7.5 11t9.5 15q3 4 6 9t5 8t2 4q3 4 9.5 4t10.5 -3q3 -3 3 -13q0 -3 -27 -60q-2 -4 -10 -8q-6 -4 -14 -1z" />
    <glyph glyph-name="quotedblright" unicode="&#x201d;" horiz-adv-x="168" 
d="M217 694q12 0 16.5 -11t-3.5 -22q-1 -2 -8 -13l-11 -17q-19 -32 -27 -32q-1 0 -7 2q-4 2 -6 7q-2 6 10 31q2 5 6 13.5t6 13.5t3 8q6 20 21 20zM164 684q22 -12 2 -34q-1 -2 -7.5 -11t-9.5 -15q-3 -4 -6 -9t-5 -8t-2 -4q-3 -4 -9.5 -4t-10.5 3q-3 3 -3 13q0 3 27 60
q2 4 10 8q6 4 14 1z" />
    <glyph glyph-name="quotedblbase" unicode="&#x201e;" horiz-adv-x="81" 
d="M-20 27q-5 5 1 16q5 9 3 13q-4 10 1.5 19t16.5 11q9 1 14 -5q4 -6 4 -9q0 -7 -14 -28t-19 -21q-1 0 -7 4zM-61 27q-5 5 1 16q5 9 3 13q-4 10 1.5 19t16.5 11q9 1 14 -5q4 -6 4 -9q0 -7 -14 -28t-19 -21q-1 0 -7 4z" />
    <glyph glyph-name="bullet" unicode="&#x2022;" horiz-adv-x="181" 
d="M96 213q10 0 23 -13q17 -15 11 -42.5t-29 -34.5l-18 -5q-5 3 -11 5q-23 10 -23 41q0 10 18.5 29.5t28.5 19.5z" />
    <glyph glyph-name="ellipsis" unicode="&#x2026;" horiz-adv-x="243" 
d="M3 88q4 0 9 -5q7 -6 4.5 -16.5t-11.5 -13.5l-7 -2l-4 2q-9 4 -9 16q0 4 7 11.5t11 7.5zM84 88q4 0 9 -5q7 -6 4.5 -16.5t-11.5 -13.5l-7 -2l-4 2q-9 4 -9 16q0 4 7 11.5t11 7.5zM165 88q4 0 9 -5q7 -6 4.5 -16.5t-11.5 -13.5l-7 -2l-4 2q-9 4 -9 16q0 4 7 11.5t11 7.5z
" />
    <glyph glyph-name="guilsinglleft" unicode="&#x2039;" horiz-adv-x="242" 
d="M147 202q-2 -1 -57 -35l-22 -13l21 -22q25 -27 18 -33q-1 -3 -5 -3q-3 0 -26 23q-24 24 -25 28q-4 10 4.5 19t45.5 36l46 33q22 16 27 18q7 3 13 -1t6 -12q0 -6 -7 -11.5t-39 -26.5z" />
    <glyph glyph-name="guilsinglright" unicode="&#x203a;" horiz-adv-x="226" 
d="M81 99q-23 -15 -30 -8q-5 7 20 24q38 27 73 56l6 4l-4 7q-4 8 -17 26q-12 17 -15 23q-4 14 9 18q7 3 14 -2.5t20 -24.5q28 -43 12 -57q-4 -4 -21.5 -17l-40 -29.5z" />
    <glyph glyph-name="fraction" unicode="&#x2044;" horiz-adv-x="276" 
d="M31 -105q-4 0 -9 5q-2 3 2 12q2 4 133 214l249 398l38.5 62l38.5 62.5t22 34.5q6 9 13.5 21.5l12 19.5t5.5 9q7 15 17 7q7 -5 -11 -32l-104 -167l-143 -229l-101 -164q-43 -65 -103 -166q-55 -86 -60 -87z" />
    <glyph glyph-name="Euro" unicode="&#x20ac;" horiz-adv-x="336" 
d="M440 617q-4 0 -9 6.5t-7 12.5q-3 19 -16.5 30t-32.5 11q-62 0 -140 -105q-23 -31 -60.5 -90t-35.5 -61q8 0 38 3q38 4 48 4q11 0 13 -5q1 -5 -2.5 -7.5t-13.5 -3.5q-93 -11 -95 -13q-1 -1 -19 -35.5t-20 -40.5q-1 -3 0 -3.5t4 0.5t50 7q45 5 50 3q8 -7 2 -13
q-4 -2 -48 -9q-52 -8 -57 -10l-12 -2l-6 -15q-15 -40 -23 -79q-6 -39 0 -66q5 -25 20 -40q21 -21 74 -7q43 14 116 56q24 14 28 8q5 -6 -3 -13.5t-36 -22.5q-110 -62 -159 -52q-35 7 -50 42q-11 23 -11 63q0 44 17 94l4 12.5t3 9.5l1 4q0 2 -13 0q-19 -3 -19 8q0 9 24 14
l18 3l8 18q2 4 5 11.5t7.5 16.5l6.5 13l12 23l-12 -1q-4 0 -21 -4q-2 0 -6 -0.5t-5 -0.5q-6 0 -8.5 6.5t1.5 10.5q2 2 31 6q7 0 14 1t11 1l4 1q2 1 11 17q48 87 103 161q19 25 46.5 53t42.5 36q51 30 92 20q23 -6 38 -22t16 -34q2 -31 -19 -31z" />
    <glyph glyph-name="trademark" unicode="&#x2122;" horiz-adv-x="471" 
d="M537 722q-3 -22 -80 -145q-59 -93 -63 -96q-2 -1 -6 -1t-6 1q-4 4 9 26.5t70 114.5q28 44 37.5 60t8.5 17q0 1 -13 -12.5l-33.5 -36.5l-43.5 -49q-29 -33 -43 -47q-15 -5 -15 11q0 10 21 58l2 8q-6 0 -72 -64q-32 -34 -37 -34q-3 0 -6.5 3t-3.5 6q0 16 73 125
q31 46 31 47q-2 3 -12 2t-33 -5l-27 -5l-3 -10q-9 -30 -37 -85t-57 -100q-13 -21 -19.5 -26t-14.5 -2q-21 9 2 37q54 72 85 134q18 33 18 44h-5q-5 -1 -13 -3t-18 -4q-84 -19 -104 -19q-10 0 -14 5q-4 7 6 17q8 7 64.5 25t79.5 20q23 3 31 -14q0 -1 20 3q42 8 56 4
q13 -3 13 -16q0 -10 -36 -63q-34 -52 -32 -52t20 17q23 23 39 35q31 26 38 5q5 -8 -9 -36l-6 -14l17 17q4 5 6 7q24 27 58.5 62.5t40.5 38.5q7 3 12 0t4 -11z" />
    <glyph glyph-name="minus" unicode="&#x2212;" horiz-adv-x="214" 
d="M161 175q9 -9 0 -18q-4 -4 -49.5 -6t-53.5 1t-8 10.5t7 12.5q5 4 52 4t52 -4z" />
    <glyph glyph-name="a.ss01" unicode="&#xe000;" horiz-adv-x="492" 
d="M255 2q52 8 104 65t70 125q18 72 -7 120q-10 18 0 28q18 14 35 -13q15 -24 15 -67q0 -61 -33 -124q-23 -47 -65 -87q-51 -52 -101 -66q-29 -7 -56 1q-31 11 -47 43q-24 50 1 127q13 41 48 98q15 22 15 25q0 2 -4 2t-91 -90q-66 -68 -89.5 -88t-41.5 -21q-16 -1 -23.5 7.5
t-8.5 28.5q-1 45 40 112q49 81 115 114q51 25 83 10q7 -3 16.5 -11.5t12.5 -14.5l3 -6l11 6q18 9 23 0q4 -11 -21 -49q-37 -55 -52 -88q-29 -58 -29 -104q0 -43 21.5 -66t55.5 -17zM163 239q48 50 48 55q1 4 -10 10q-24 13 -69 -13q-30 -17 -54 -41q-23 -23 -43.5 -54
t-27.5 -53q-12 -31 -7 -42q3 -7 18 1q9 3 18 11q17 14 127 126z" />
    <glyph glyph-name="b.ss01" unicode="&#xe001;" horiz-adv-x="362" 
d="M345 718q8 -9 2.5 -19.5t-42.5 -59.5q-53 -68 -143 -204q-50 -75 -98 -164t-68 -141l-3 -12q1 1 15 23q47 77 102 132q39 39 74 57q45 22 77 13q44 -12 59 -68q4 -14 4 -43t-4 -48q-18 -86 -73 -158q-13 -18 -39 -43t-45 -40q-51 -37 -92 -48q-52 -14 -102 -5
q-24 4 -35 13q-7 7 -7 13q0 23 42 17q41 -6 74 0q79 16 151.5 87.5t95.5 156.5q14 55 4 95t-41 50q-37 12 -99 -36q-40 -29 -87.5 -93t-87.5 -141q-1 -2 -8 -7q-12 -7 -15 5q-2 3 6 35q13 56 34.5 106t73.5 144q42 76 95 159q139 217 161 227q11 5 19 -3z" />
    <glyph glyph-name="c.ss01" unicode="&#xe002;" horiz-adv-x="502" 
d="M172 304q-40 0 -91.5 -59.5t-68.5 -126.5q-13 -52 8 -95q22 -42 74 -60q13 -5 44 -5q38 0 71 11q79 25 136.5 88.5t82.5 152.5q11 40 14 89q1 35 5 41q14 18 29 -2q18 -23 -11 -124q-33 -106 -102.5 -177.5t-162.5 -95.5q-18 -4 -49.5 -5.5t-45.5 1.5q-50 12 -82.5 45
t-41.5 82q-8 45 11 104q14 46 48 95q26 37 59.5 61t61.5 27q25 3 45.5 -9t28.5 -33q4 -10 4 -32q-1 -21 -6 -32q-8 -15 -20 -11q-10 1 -10 31q0 20 -4 25q-8 14 -27 14z" />
    <glyph glyph-name="d.ss01" unicode="&#xe003;" horiz-adv-x="533" 
d="M435 22q-32 -43 -69 -71q-32 -23 -63 -31q-34 -8 -60 0q-43 14 -61 67q-5 15 -5 56q0 43 4 60q14 62 51 148q15 37 17 39q0 2 -2 2q-1 0 -3 1t-5 3t-5 3q-9 7 -12 7q-2 0 -31 -43q-61 -91 -98 -133.5t-62 -47.5q-19 -4 -32.5 13.5t-13.5 46.5q0 30 10 58q14 38 47.5 77.5
t69.5 60.5q55 31 112 15q3 -1 8.5 6t23.5 35q139 213 184 247q18 14 24 8q4 -4 3 -13q-1 -16 -101 -184q-111 -190 -147 -299q-22 -69 -22 -114q0 -41 12 -63q17 -34 53.5 -39t76.5 22q45 30 79.5 83t50.5 114q9 37 9 72q0 36 -12 74q-8 26 0 34q8 7 18.5 2t16.5 -19
q9 -21 11.5 -61t-4.5 -73q-17 -88 -73 -163zM135 212q66 94 66 99q0 1 -17 1t-24 -2q-30 -7 -61 -31q-37 -32 -67 -83q-15 -26 -19.5 -53t4.5 -38q6 -8 23 2q35 20 95 105zM247 347q-1 -1 7.5 -11.5t10.5 -10.5l2 3q2 2 4.5 6.5t4.5 10.5q21 40 89 151q73 116 70 116
q-31 -34 -103 -137q-73 -103 -85 -128z" />
    <glyph glyph-name="e.ss01" unicode="&#xe004;" horiz-adv-x="401" 
d="M-9 17q-17 28 -20 58q-7 45 21 105q35 71 82 117t86 46q16 0 25 -13q7 -10 0.5 -30t-22.5 -41q-20 -28 -52.5 -50.5t-59.5 -26.5l-14 -2l-9 -18q-28 -55 -22 -100q6 -38 34 -59t72 -21q73 0 142 69q62 62 84 152q5 20 5 55q0 36 -5 51q-7 21 -3 29q6 11 17 9t18 -15
q12 -25 10 -69.5t-17 -89.5q-23 -71 -75.5 -127t-113.5 -76q-50 -17 -92 -9q-60 10 -91 56zM53 205q-3 -4 10 1l6 3q24 11 51.5 36.5t37.5 47.5q8 17 3 17t-21 -11q-18 -12 -47 -43.5t-40 -50.5z" />
    <glyph glyph-name="f.ss01" unicode="&#xe005;" horiz-adv-x="362" 
d="M209 -39q-45 -44 -79 -65q-56 -37 -121 -58l-17 -5v-24q-2 -59 -32 -91q-24 -26 -47 -17q-28 10 -39 49q-4 9 -6.5 30.5t-0.5 25.5t0 6q-1 2 -19 0q-40 -6 -75 3q-49 17 -49 52q0 34 50 59q31 17 72 18q32 0 37 -1l8 -2l12 36q44 127 124 262q118 195 191 261
q48 46 68 32q29 -19 -16 -106q-44 -88 -130 -174q-62 -62 -109 -87q-9 -5 -21 -27q-34 -58 -60 -121q-33 -76 -33 -83l14 -9q17 -10 33 -29.5t22 -38.5q1 -6 27 3q59 20 116.5 62.5t94.5 93.5q55 73 76 153q6 22 6 70q1 37 2.5 46t9.5 11q13 3 20 -15q4 -11 4 -44
q0 -32 -8 -62q-30 -117 -125 -214zM80 255q-36 -58 -34 -58q9 6 19 14q88 68 154 167q53 76 56 118l1 14l-7 -5q-25 -18 -62 -66q-49 -60 -127 -184zM-107 -158q-2 -9 0 -9l3 1q4 0 10.5 1l12.5 2q46 7 50 11q0 1 -7 17q-8 17 -21 28q-25 25 -31 19q-1 -1 -8.5 -32t-8.5 -38
zM-119 -99l4 21q-2 2 -20 3t-29 -1q-75 -8 -91 -47q-4 -9 -3 -18q7 -21 41 -28q11 -1 35.5 -1t35.5 1l13 3q2 2 5 24q4 23 9 43zM-42 -254q8 14 13 39t3 37l-1 7l-17 -4q-5 -1 -19 -3t-19 -3q-23 -2 -25.5 -3.5t-3.5 -10.5q-1 -6 1 -26q4 -34 16.5 -50.5t28.5 -7.5
q12 5 23 25z" />
    <glyph glyph-name="g.ss01" unicode="&#xe006;" horiz-adv-x="576" 
d="M554 37q-1 -7 -9 -13q-7 -4 -31 -3q-26 2 -89 2q-82 0 -157 -14l-24 -4l-13 -33q-85 -206 -231 -304q-86 -59 -155 -42q-37 10 -53 41.5t-5 71.5q7 25 29.5 57t52.5 58q137 124 356 185l11 3l10 37q29 109 29 171q0 44 -8 51q-6 8 -6 0q0 -2 1 -5q2 -18 -7.5 -23.5
t-22.5 6.5l-9 8l-14 -11q-18 -15 -46 -45q-37 -37 -108 -115q-52 -56 -74 -56q-8 0 -14 6q-4 7 -6 13q-5 25 19 77.5t61 97.5q38 47 83 72.5t79 19.5q26 -3 40 -17q5 -5 17 -5q13 0 20 -7q15 -12 16 -59q0 -38 -4 -59q-9 -60 -26 -121q-7 -28 -7 -30q2 0 27 5q90 17 197 16
q55 0 62 -4q17 -11 9 -28zM193 287l13 12l-15 -1q-21 -1 -60 -24q-83 -50 -125 -131q-7 -14 -13 -29t-8 -24t1 -10q2 0 9 5q17 11 90 91q75 83 108 111zM189 -72q34 68 31 71q0 1 -19 -3.5t-42.5 -11t-36.5 -11.5q-111 -37 -201 -105q-57 -43 -84 -83q-42 -59 -27 -100
q10 -30 49 -39q25 -4 57 5q73 18 157 105q66 69 116 172z" />
    <glyph glyph-name="h.ss01" unicode="&#xe007;" horiz-adv-x="553" 
d="M225 303q-18 -13 -65.5 -60.5t-67.5 -72.5q-84 -100 -142 -207q-10 -18 -12 -20q-13 -8 -19 2q-7 9 -4 33q10 70 92 235q98 194 204 342q97 137 141 158q17 9 30 2.5t13 -24.5q0 -24 -45 -111q-70 -136 -180 -256q-49 -54 -92 -89q-38 -30 -45.5 -38.5t-23.5 -41.5
q-57 -115 -68 -162q-2 -6 2 -1q2 4 15 26q46 76 110 154.5t120 126.5q84 73 112 46q6 -6 8 -17q2 -9 -17 -63q-32 -90 -32 -140q0 -53 34 -76q44 -33 98 3q35 23 61.5 67t37.5 98q12 58 1 97q-3 16 0 23q7 15 22 8q15 -6 19 -44q6 -61 -23 -132q-15 -35 -36 -65
q-44 -66 -101 -87q-28 -10 -59.5 -2.5t-52.5 28.5q-42 43 -34 122q6 59 38 131q9 23 15 34q1 3 -5 1q-20 -7 -49 -28zM147 392q-12 -18 -34 -54l-39 -64.5t-17 -29.5t10.5 7.5t24.5 21.5l25 24q140 140 219 300q38 77 32 83q-1 1 -14.5 -12.5t-32.5 -35.5l-35 -42
q-51 -62 -139 -198z" />
    <glyph glyph-name="i.ss01" unicode="&#xe008;" horiz-adv-x="390" 
d="M155 -101q-13 -4 -39.5 -5t-39.5 1q-25 3 -55 18q-51 28 -64 93q-8 43 5 94q17 64 67 147q56 93 79 98q14 3 21 -7.5t1 -23.5q-4 -8 -48 -64q-74 -93 -96 -172q-12 -46 -1 -86q9 -28 26 -44q23 -24 67 -31t84 7q61 21 107 89q85 128 55 273q-8 34 -6 47.5t15 15.5
q10 2 18.5 -6.5t13.5 -25.5q3 -13 4 -50t-2 -57q-16 -140 -99 -238q-46 -55 -113 -73zM156 453q5 10 15 14.5t19 -0.5q11 -6 10.5 -21.5t-11.5 -23.5q-4 -4 -13.5 -4.5t-13.5 2.5q-7 4 -9 15t3 18z" />
    <glyph glyph-name="j.ss01" unicode="&#xe009;" horiz-adv-x="401" 
d="M219 365q-6 -11 -15.5 -15.5t-18.5 0.5q-13 6 -13 21q3 23 15 32q4 3 15 3.5t15 -2.5q16 -13 2 -39zM-319 -375q-34 11 -42 38q-4 15 0 34q17 63 127.5 152t246.5 149l30 13l15 30q26 51 55 122t38 108q8 31 3 38q-9 7 -51 -27q-39 -33 -102 -114q-11 -14 -19 -7
q-6 4 -1 13t27 35q84 99 120 116q21 11 36.5 5t20.5 -26q5 -17 -7 -64q-23 -88 -63 -177q-11 -26 -11 -27q4 0 26 8q111 35 211 37q19 0 27 -5q24 -15 6 -33q-12 -11 -69 -14q-67 -4 -113 -13q-49 -9 -94 -25l-22 -7l-14 -24q-52 -91 -127 -182q-17 -20 -47 -50.5t-45 -42.5
q-79 -64 -141 -62q-13 0 -21 2zM-321 -291q-14 -30 -5 -42q5 -5 11 -8q13 -7 45 0q90 23 196 165q14 18 36 51t37.5 58.5t14.5 26.5q-4 2 -62 -27q-93 -47 -171.5 -111t-101.5 -113z" />
    <glyph glyph-name="k.ss01" unicode="&#xe00a;" horiz-adv-x="643" 
d="M387 -72q-17 -5 -49.5 -5t-50.5 4q-93 19 -143 94q-29 43 -39 98q-11 56 -7 97q1 15 -1 15q-11 0 -105 -153q-36 -60 -45 -60q-3 0 -7 4q-8 8 1 39q12 47 60 142q109 219 241 398q81 107 110 121q14 7 25 2.5t14 -17.5q8 -28 -61.5 -136t-160.5 -209q-56 -63 -101 -98
q-17 -16 -23 -24q-29 -48 -59 -116q-6 -13 -12 -27.5t-9 -23.5l-3 -9l11 16q35 63 77 120q27 39 28 46q2 8 7 10q6 2 25 22q36 40 71 57.5t57 6.5q37 -20 2 -63q-24 -30 -84 -40q-27 -5 -29 -5q-5 0 -6.5 -7t-1.5 -36q-2 -125 69 -191q37 -35 93 -50q14 -4 46 -4q48 0 87 19
q62 31 105.5 94.5t56.5 143.5q9 49 1 104q-5 29 5 38q10 10 24 -1q17 -12 17 -71q0 -129 -83 -237q-64 -84 -153 -108zM124 266q-2 -4 2 -3q1 0 5 1q7 0 31 8q48 15 61 31q14 15 5 22q-14 11 -57 -18q-37 -24 -47 -41zM82 303q-3 -6 4 1q6 5 21 20q30 29 87 95
q93 113 143 203q26 48 26 59q0 8 -39 -39q-94 -113 -181 -243q-29 -42 -61 -96z" />
    <glyph glyph-name="l.ss01" unicode="&#xe00b;" horiz-adv-x="520" 
d="M173 -140q-35 -8 -74 -2q-96 19 -124 123q-5 19 -6 51q-2 61 18 127.5t70 166.5q57 112 121 209t115 148q50 50 69 30q22 -23 -32 -141q-44 -96 -128 -214q-35 -49 -78.5 -97.5t-73.5 -70.5q-15 -11 -19 -20q-1 -2 -3 -7q-62 -172 13 -247q14 -15 29 -22q80 -38 183 28.5
t160 193.5q39 86 39 179q0 30 1.5 37.5t10.5 14.5q9 8 19.5 4t13.5 -16q2 -8 2 -38.5t-3 -48.5q-10 -66 -45.5 -139t-86.5 -130q-85 -96 -191 -119zM100 320q-48 -93 -48 -100q0 -5 41 38q82 85 164 222q34 57 60.5 119.5t26.5 85.5v6l-9 -9q-14 -14 -25 -29
q-99 -118 -210 -333z" />
    <glyph glyph-name="m.ss01" unicode="&#xe00c;" horiz-adv-x="645" 
d="M302 113q0 60 41 128q4 7 3 7t-22 -16q-17 -13 -85 -73q-49 -45 -66.5 -58t-28.5 -13q-25 0 -22 42q2 48 43 110q1 2 2.5 4t2 3.5t1.5 3t1 2.5l1 1q0 1 -4.5 -2.5t-12.5 -10.5t-16 -15q-42 -40 -102 -112q-25 -29 -35.5 -37t-20.5 -5q-12 4 -12 27q0 67 61 159
q22 33 49.5 65.5t37.5 37.5q14 7 24 -3q5 -5 5 -13q-2 -7 -45 -59q-73 -87 -96 -139q-20 -48 -15 -53q1 -1 8 5.5t21 22.5l36 42q87 105 130 125q20 9 30 1q6 -5 6 -15q-1 -13 -25 -52q-50 -84 -50 -107v-7l6 4q13 7 76 64q120 109 149 109q16 0 14 -15q0 -7 -14 -34
q-38 -68 -44 -115q-5 -41 15 -65t60 -24q43 0 86 33q68 51 87 148q3 19 3 46.5t-3 37.5q-9 27 -5 35q5 11 18 8q11 -1 19 -16t10 -36q5 -55 -18 -115t-65 -102q-36 -36 -79.5 -52.5t-80.5 -8.5q-36 8 -57.5 35.5t-21.5 66.5z" />
    <glyph glyph-name="n.ss01" unicode="&#xe00d;" horiz-adv-x="568" 
d="M193 110q3 63 59 167q28 49 23 49q-8 0 -41 -25q-67 -51 -144 -138q-52 -58 -69.5 -72.5t-29.5 -10.5q-18 7 -10 55q12 66 53 133q47 80 73 93q11 5 22 1t12 -15q3 -10 -15 -29q-41 -43 -76 -98t-46 -94q-6 -23 -3.5 -24t18.5 16q18 16 63 67q147 163 197 163q9 0 15 -6
q8 -9 4.5 -22t-22.5 -46q-40 -68 -56 -127q-11 -46 -2 -80q16 -47 50 -64q28 -12 59 -4q47 12 90.5 60t65.5 112q21 64 18 134q-1 32 2 38q7 15 21.5 15t20.5 -15q3 -6 3 -27q0 -71 -21 -137q-20 -58 -52 -103q-31 -42 -65 -68q-33 -23 -66 -33q-13 -3 -34.5 -3.5t-31.5 1.5
q-39 11 -62 46q-26 39 -23 91z" />
    <glyph glyph-name="o.ss01" unicode="&#xe00e;" horiz-adv-x="407" 
d="M53 37q-42 -56 -74 -49q-16 4 -24 21.5t-5 43.5q5 43 30 100t48 77l9 8l1 18q3 42 28 83t57 58q26 13 45 5q27 -13 28 -45q3 -66 -65 -194l-19 -34l5 -4q18 -14 49 -20q62 -13 120 36t63 119q1 14 -3 39q-10 50 12 50q6 0 12.5 -7.5t9.5 -17.5q19 -61 -14 -126t-99 -97
q-26 -13 -34 -14q-35 -9 -70 -2q-31 6 -56 22l-5 4l-5 -8q-8 -15 -44 -66zM62 279q-3 -12 -4 -20t-0.5 -12t3.5 -4q4 0 9 -5.5t6 -9.5q3 -11 -7 -22l-6 -7l4 -11q8 -22 23 -38q5 -7 8 -4q2 1 23 41q49 96 53 155q1 26 -11 36q-22 14 -55.5 -18.5t-45.5 -80.5zM-5 8
q25 10 78 94q12 19 12 22t-5 8q-13 12 -26 37l-7 14l-4 -5q-28 -32 -50 -85q-17 -40 -17 -64q0 -13 5 -18q6 -6 14 -3z" />
    <glyph glyph-name="q.ss01" unicode="&#xe00f;" horiz-adv-x="508" 
d="M482 155q-23 -115 -103 -218q-32 -42 -83 -85q-80 -63 -169 -85l-26 -7l-1 -19q-5 -52 -36 -82q-16 -15 -36 -16q-12 -1 -24 5q-11 6 -18 16q-16 24 -17 69l-1 33l-17 6q-50 19 -66 52q-4 11 -4 24q1 14 8 24q15 20 42 26q30 8 60 -2l10 -3q1 1 12 29q54 135 188 330
l24 37q0 2 -4 2q-7 0 -68 -71q-102 -116 -130 -134q-8 -6 -20 -6q-11 0 -17 8q-10 11 -10 36q0 17 5 32q15 44 46 86q40 53 78 80q28 22 58 29q44 11 69 -17q6 -8 14 -8q17 0 14 -16q0 -8 -44 -74q-118 -176 -164 -276l-18.5 -42t-10.5 -25.5t-1 -9.5q5 -1 21 -15t23 -22
q23 -28 28 -54l3 -11l8 2q51 8 111 42q57 31 107 85.5t82 117.5q44 88 44 164q0 42 -16 92q-9 27 -9 34q0 17 14 22q5 3 14 -1q23 -13 34 -86q6 -46 -4 -98zM185 283q18 19 16 23q-2 2 -9 5q-12 6 -37 -1q-38 -12 -80 -54t-64 -90q-21 -47 -13 -65q4 -6 18 2q22 15 65 64z
M12 -138q-2 -3 -12 -42t-9 -40q3 -2 35.5 -3.5t43.5 0.5q6 1 5 6q-2 9 -12 27t-16 25q-8 9 -21 18.5t-14 8.5zM-24 -193q11 39 12 43l6 22l-12 4q-30 7 -52 0q-37 -13 -30 -38.5t51 -45.5q5 -2 11 -4l7 -3q3 0 7 22zM79 -259v15l-39 1q-9 0 -19.5 0.5t-17.5 0.5h-8l-7 1v-25
q0 -24 4 -39q8 -24 22 -31.5t31 4.5q13 9 23 30.5t11 42.5z" />
    <glyph glyph-name="r.ss01" unicode="&#xe010;" horiz-adv-x="505" 
d="M239 -156q-41 -10 -67 -5q-72 13 -105 72.5t-16 145.5q7 39 29 88q1 2 14 26.5l21 39.5q26 45 30.5 59t-2.5 17q-3 2 -22 8.5t-22 6.5q-1 0 -10 -17q-36 -65 -78 -110q-14 -16 -20 -15q-6 0 -6 6q-1 6 12 21q7 7 25 30q15 20 35.5 52.5t20.5 36.5q0 2 -9 7q-17 10 -16 28
t19 35q17 17 33 11q20 -9 6 -50q-3 -11 -3 -14l2 -1q3 -1 8 -2.5t9 -2.5q32 -8 42 -20t3 -33t-24 -52q-45 -87 -62 -152q-5 -21 -5 -59q0 -37 4 -50q21 -64 79 -81q30 -10 65 0q99 24 169 142q56 93 51 186q-5 64 -24 107q-12 29 6 36q15 5 29 -13q17 -25 23 -103
q6 -67 -17 -137q-30 -91 -93 -158.5t-134 -85.5zM93 339q11 26 4 28q-3 1 -7 -1t-10 -11t-6 -14q0 -4 4.5 -8.5t8.5 -4.5q2 0 6 11z" />
    <glyph glyph-name="s.ss01" unicode="&#xe011;" horiz-adv-x="442" 
d="M44 17q0 -81 -26 -149q-22 -56 -65 -96q-60 -58 -102 -50q-46 8 -8 83q49 99 157 214q18 19 17 26q-1 2 -3 22q0 2 -4 22.5t-7 32.5q-8 44 -7 72q1 43 16 71q11 23 40.5 55t51.5 45q51 31 80 15q22 -12 12 -33q-4 -9 -23 -14q-40 -9 -83 -52q-31 -31 -43 -57t-12 -63
q0 -65 7 -96q1 -1 22 18q95 88 192 143q48 28 93.5 42t61.5 6q9 -5 10 -14.5t-6 -15.5q-6 -6 -10 -6q-1 0 -5.5 -1l-11.5 -2.5l-12 -2.5q-141 -30 -282 -150q-19 -16 -37 -34l-13 -13v-18zM-48 -198q64 75 67 179l1 30l-18 -19q-56 -58 -106.5 -134.5t-50.5 -103.5
q0 -24 45 -1q38 18 62 49z" />
    <glyph glyph-name="t.ss01" unicode="&#xe012;" horiz-adv-x="574" 
d="M545 486q-4 -3 -34 1q-36 5 -54 6q-26 2 -86 3.5t-72 -0.5l-13 -1l-14 -22q-53 -86 -133 -184.5t-118 -126.5q-11 -7 -23 -33q-29 -57 -46 -115q-7 -33 0 -63q13 -44 66 -61q55 -18 119 11q109 52 176 186q38 75 39 138q2 41 -10 75q-10 24 0 32q17 13 31 -8
q7 -12 11.5 -41.5t3.5 -50.5q-4 -53 -28 -108q-40 -95 -106 -162q-73 -76 -155 -94q-39 -7 -67 -2q-83 15 -102 86q-9 38 4 82q22 73 64 158q69 139 155 267l9 15t6 11l2 4q-12 4 -169 -11q-93 -7 -186 -19.5t-104 -18.5q-10 -5 -19 0t-9 15q0 15 18 17q127 16 435 34l51 4
l15 20q66 91 96 106q16 7 27 1.5t12 -21.5q1 -20 -23 -69q-15 -30 -15 -31h119q96 -1 113 -2.5t21 -9.5q5 -13 -7 -18zM181 374q21 28 51 72.5t30 46.5t-4 2q-2 -2 -18 -2q-15 0 -21 -6q-13 -14 -94 -141.5t-85 -140.5q-2 -5 22 21l33 39q50 60 86 109zM293 550q22 45 20 53
q0 1 -8.5 -7.5t-21.5 -23.5t-25 -31l-21 -28l19 1q18 0 21 4q2 2 16 32z" />
    <glyph glyph-name="w.ss01" unicode="&#xe013;" horiz-adv-x="387" 
d="M150 94q-3 10 -3 33t3 38q3 19 13 60l-1 -1l-5.5 -5.5t-8 -7.5t-10.5 -10l-12 -12q-82 -86 -111 -83q-17 1 -27 21q-4 6 -4 29q0 21 6 40q14 38 41.5 79.5t44.5 49.5q17 9 28 -4t-4 -34q-39 -55 -59 -93q-29 -59 -21 -63q7 -5 40 24q28 22 96 93q28 29 33 29q6 0 9 -5
q2 -4 -8 -35q-14 -42 -19 -74q-10 -63 9 -91q15 -21 33.5 -17.5t48.5 33.5q37 39 63 89q42 82 42 151q0 28 13 28q22 0 14 -43q-14 -71 -46.5 -136t-73.5 -106q-20 -19 -40 -29q-20 -12 -38 -6q-35 11 -46 58z" />
    <glyph glyph-name="x.ss01" unicode="&#xe014;" horiz-adv-x="427" 
d="M69 258q-36 -46 -53 -79q-3 -6 -4.5 -8l-3 -4t-3 -2.5t-3.5 -0.5q-7 -1 -9 3.5t1 12.5t27.5 44t38.5 53q33 42 55 53q19 8 25 -22q0 -12 -3 -44q-5 -43 -3 -44q1 0 11 11q74 86 81 88q4 1 8 -2t4 -7t-11 -17l-45 -51q-42 -49 -43 -50l-10 -13v-24q0 -54 12 -84t40 -44
q11 -6 28 -6q18 0 31 6q39 17 74.5 59.5t49.5 91.5q10 36 9 77q-1 25 -7 39q-10 29 -3 36q8 7 19 2t17 -19q11 -24 7 -62q-4 -46 -15 -75q-27 -84 -90.5 -138.5t-116.5 -40.5q-25 7 -45 25q-37 32 -47 100l-1 10l-10 -13q-6 -7 -26 -36q-25 -37 -31 -37q-2 0 -6 4
q-3 3 -1 10q7 17 52 76q17 23 19.5 28t2.5 13q0 37 12 92l5 31q-1 1 -14.5 -13t-24.5 -29z" />
    <glyph glyph-name="y.ss01" unicode="&#xe015;" horiz-adv-x="561" 
d="M538 154q-6 -11 -24 -14q-146 -20 -257 -55q-41 -13 -47 -17.5t-17 -29.5q-76 -170 -171 -267q-64 -64 -123 -82q-29 -8 -51 0q-19 7 -29.5 27.5t-8.5 45.5q6 61 69 129.5t174 135.5q63 37 125 64l22 9l11 26q22 55 39.5 112.5t17.5 73.5q0 8 -4 8t-21 -11
q-39 -28 -101 -94q-89 -99 -112 -110q-34 -16 -43 21q-3 13 0 32q11 65 62 136q25 34 37 39q11 6 21 0.5t10 -16.5q0 -7 -11 -22q-39 -48 -65 -100q-22 -42 -26 -65q-2 -12 13 -1q22 16 95 95q110 116 145 116q19 0 20 -21q2 -41 -54 -184l-9 -24q0 -1 17 5q83 31 165 48
q107 22 118 18q10 -3 14 -11.5t-1 -16.5zM133 -42q8 14 19.5 38l19.5 42l9 19q-2 2 -85 -37q-114 -59 -189 -132q-56 -53 -72 -103q-6 -16 -6 -36q1 -17 7 -26q18 -29 64 -14q56 18 118 84t115 165z" />
    <glyph glyph-name="z.ss01" unicode="&#xe016;" horiz-adv-x="576" 
d="M545 344q6 -2 9 -7q6 -10 -7 -18q-5 -3 -54 -16q-43 -10 -75 -21q-83 -32 -168 -84q-60 -39 -79 -55l-6 -5l3 -13q12 -40 6 -89t-27 -92q-26 -50 -73.5 -93.5t-96.5 -61.5q-11 -4 -30.5 -5t-27.5 2q-14 5 -22 20q-5 10 -4 28q3 45 44 106q65 95 167 180q29 25 30 25
q3 4 -5 20q-16 31 -12 53q4 21 23 57q13 24 13 28q0 12 -39 -14q-19 -12 -52.5 -48t-45.5 -57q-8 -17 -16 -17q-5 0 -7.5 5t-1.5 10q3 9 26.5 38.5t46.5 52.5q52 52 88 54q20 0 22 -21q1 -14 -19 -55q-15 -30 -15 -43t8 -28l8 -17l22 16q94 68 195 115q53 24 106 39.5
t66 10.5zM102 -88q53 71 53 151q0 45 -8 58q-2 3 -16 -9q-93 -73 -159 -159q-54 -72 -59 -117q-2 -21 10 -28.5t37 -1.5q34 9 74 39t68 67z" />
    <glyph glyph-name="a.salt" unicode="&#xe4c0;" horiz-adv-x="368" 
d="M378 195q6 0 6 -5q1 -6 -15.5 -27.5t-89.5 -110.5q-113 -139 -168 -165q-25 -13 -40 -3q-15 9 -14 37q1 21 8 41q24 68 136 245q40 62 37 66q-4 2 -87 -81q-89 -90 -118.5 -112t-46.5 -11q-14 8 -15 37q-1 42 34 104q32 53 71.5 90.5t75.5 48.5q18 5 35 4q18 -1 31 -7
q14 -8 23 -18l11 -11l2 1q1 1 3 2l4 2q15 12 23 2q6 -6 -3.5 -24t-62.5 -101q-121 -187 -140 -259q-7 -33 0 -39q12 -12 57 23q33 27 65.5 62.5t128.5 153.5q44 55 49 55zM133 201q89 89 89 91q0 8 -27 16q-55 11 -132 -88q-26 -34 -44 -70t-18 -55q0 -8 3 -8q4 0 21 12
q19 12 108 102z" />
    <glyph glyph-name="b.salt" unicode="&#xe4c1;" horiz-adv-x="373" 
d="M182 78q60 89 87 160q34 89 4 103q-12 6 -46 -10q-80 -39 -201 -207q-32 -45 -41 -54.5t-16 -6.5q-11 5 -6 28q5 29 31 90q43 103 143 268.5t171 254.5q17 21 24.5 26t16.5 1q11 -7 7 -19q0 -2 -25 -37q-49 -66 -117 -167q-131 -197 -188 -314q-44 -88 -37 -88q1 0 5 6
l32 44q126 169 206 199q40 16 60 -3q29 -26 15 -97q-14 -63 -50 -130q-4 -7 -6.5 -12t-1.5 -5l17 10l36 22.5t29 19.5l31 23q31 25 29 5v-3q-5 -17 -131 -94l-33 -19l-16 -25q-33 -48 -68 -83q-72 -72 -146 -90q-20 -5 -32 -2q-14 5 -14 19q0 12 19 35q18 23 46 43t94 57
l59 34zM133 13l5 7l-5 -3q-129 -68 -158 -112q-8 -11 -3 -11q3 0 17 6q24 9 68 41q16 13 42 37.5t34 34.5z" />
    <glyph glyph-name="c.salt" unicode="&#xe4c2;" horiz-adv-x="327" 
d="M39 -37q-31 6 -49 35t-17 73q0 67 36.5 142.5t86.5 111.5q49 34 89 28q37 -6 50 -36q13 -25 3 -62q-11 -34 -30 -23q-10 7 -6 23q6 29 -4 43q-7 10 -24 10.5t-35 -8.5q-54 -27 -97.5 -111t-36.5 -146q6 -61 53 -61q40 0 89.5 35.5t137.5 125.5q36 37 45 45t14 3
q3 -3 3 -6q0 -9 -80 -87q-91 -92 -144 -118q-28 -14 -52 -17q-18 -3 -32 0z" />
    <glyph glyph-name="d.salt" unicode="&#xe4c3;" horiz-adv-x="412" 
d="M337 378q-70 -124 -105 -194q-86 -178 -86 -258q0 -25 6 -31.5t21 1.5q43 22 144 157q65 89 82 116q19 26 20 26q9 0 9 -7q0 -18 -123 -180q-42 -55 -81 -94q-53 -51 -78 -37q-47 23 3 175q21 67 83 195q22 44 20 46q0 2 -3 2t-9 6q-7 5 -9 5q-1 0 -15 -19
q-88 -137 -132 -179q-31 -33 -60 -36q-30 -2 -39 30q-2 7 -2 24.5t3 29.5q22 104 119 170q64 41 115 29q3 0 5.5 -0.5t4.5 -1t4 -1.5h1q3 0 32 46l103 151.5t61 84.5t34 38t15 -1q5 -6 0 -19.5t-32 -67.5q-46 -92 -111 -206zM198 294q13 18 11 20q-8 5 -43 -8
q-35 -14 -72 -51t-56 -77q-33 -67 -21 -81q7 -9 29 5q25 14 60 62q20 25 92 130zM276 378l-23 -35l7 -11q7 -9 7 -12q0 -2 2 0l5 10l13.5 25l16.5 31l85 154q2 4 9 17q-5 -5 -122 -179z" />
    <glyph glyph-name="e.salt" unicode="&#xe4c4;" horiz-adv-x="236" 
d="M43 -30q-15 0 -25 2q-33 13 -49 56q-5 15 -5 41.5t5 44.5q29 109 123 191q70 60 92 24q6 -12 0 -30q-11 -38 -51 -74.5t-80 -45.5q-13 -3 -16.5 -7t-12.5 -26q-25 -56 -23 -98q2 -35 21 -50q7 -6 22 -6t28 7q38 18 122 124q54 67 60 67q4 0 7 -3.5t1 -6.5
q-7 -14 -87 -110q-67 -77 -101 -92q-14 -7 -31 -8zM75 234q-7 -9 -13 -18l-9 -13.5t-2 -4.5h2q2 1 5 2l6 2q34 14 64 44q21 21 29 38q12 24 9 29t-18.5 -6t-36 -31.5t-36.5 -41.5z" />
    <glyph glyph-name="f.salt" unicode="&#xe4c5;" horiz-adv-x="148" 
d="M16 177q-61 -101 -95 -180l-6 -15l13 5q58 22 183 155q45 47 47 48q3 2 6.5 -0.5t3.5 -6.5q0 -6 -59 -68t-90 -89q-23 -20 -37 -28q-10 -7 -30 -17.5t-26 -12.5q-5 -1 -2 -7l4 -8q26 -53 7 -127q-13 -50 -42 -69q-17 -12 -32 -1q-24 17 -12 90q9 45 28 100l6 16
q-5 0 -11 1q-16 1 -26 8.5t-10 17.5q0 7 6 12q15 8 41 -3q3 -1 6 -2.5t5 -1.5h1q2 2 11 23q33 74 69 138q28 51 92.5 155t107.5 167q67 99 86 103q10 1 16.5 -5t4.5 -15q-1 -7 -91 -129q-109 -145 -175 -254zM-111 -219q26 26 33 76.5t-9 86.5q-5 11 -7 12t-3 -3l-12 -32
q-33 -95 -26 -133q3 -18 11 -18q2 0 13 11z" />
    <glyph glyph-name="g.salt" unicode="&#xe4c6;" horiz-adv-x="395" 
d="M-96 -370q-34 21 18 98q23 32 79 91q51 54 143 132l63 54l5 13q7 17 28 80.5t25 81.5q13 54 16 101q1 29 -3 29t-7.5 -2.5t-2.5 -5.5q3 -10 -6 -21q-10 -13 -23 -2l-6 4l-16 -14q-35 -29 -156 -156q-51 -54 -68 -61q-14 -6 -24 -1q-14 8 -11 35q1 27 27 80q33 68 85 119
q72 69 131 69q36 0 55 -22l5 -6l11 4q17 5 26 -6q7 -9 4 -50.5t-14 -85.5q-12 -44 -38 -122q-8 -29 -6 -29q49 44 117 112q42 44 45 44q2 0 5 -3t3 -6q0 -7 -61 -71q-26 -26 -108 -97q-13 -11 -16 -16t-10 -22q-41 -101 -98.5 -186t-114.5 -128q-37 -29 -67 -35
q-22 -6 -35 1zM213 291l8 7l-6 2q-21 9 -61 -10q-22 -11 -54.5 -40.5t-51.5 -54.5q-54 -71 -64 -117q-1 -6 1 -6q4 0 17 11q8 5 90 89q76 79 121 119zM-37 -245q-54 -67 -54 -97q0 -11 5.5 -13t22.5 4q24 8 51 28q81 60 158 197q13 23 29.5 58t15.5 36l-60 -50
q-112 -96 -168 -163z" />
    <glyph glyph-name="h.salt" unicode="&#xe4c7;" horiz-adv-x="369" 
d="M156 398q-159 -238 -209 -377q-2 -5 -3.5 -9.5t-1.5 -7.5v-2q7 7 35 46q73 96 138 165q120 126 167 126q17 0 23 -14q3 -9 0 -22q-5 -21 -26 -73q-42 -101 -27 -137q11 -29 54 16q39 39 66 76q10 15 18 6q4 -6 -29 -49q-49 -62 -75 -76q-21 -10 -38 -2q-35 14 -28 83
q6 58 39 132q4 9 7 17t4 12l2 5q-3 1 -25.5 -13.5t-39.5 -28.5q-23 -18 -68.5 -63.5t-70.5 -75.5q-23 -27 -77 -99q-46 -63 -58 -75q-13 -13 -21 -4q-9 9 7 57q38 115 142 292q67 116 220 346q33 50 45 62.5t26 10.5t18.5 -13.5t-4.5 -24.5q-7 -12 -30 -38
q-85 -106 -180 -248z" />
    <glyph glyph-name="i.salt" unicode="&#xe4c8;" horiz-adv-x="185" 
d="M120 305q-72 -87 -131 -204q-26 -52 -34.5 -92.5t3.5 -53.5q11 -13 48.5 19.5t91.5 101.5l57 70q39 50 45 50q5 0 7 -3t0 -6q-1 -4 -60.5 -78.5t-77.5 -95.5q-55 -62 -80 -73q-15 -9 -32 -6q-18 4 -27 29q-12 32 4.5 92t56.5 129q23 40 64 101t48 65q9 6 20 1t12 -16
q1 -10 -15 -30zM172 420q-13 3 -18 18q-4 11 0 21t14 15q14 4 24 0q17 -9 7.5 -34t-27.5 -20z" />
    <glyph glyph-name="j.salt" unicode="&#xe4c9;" horiz-adv-x="240" 
d="M197 444q0 28 22 28q11 0 15.5 -10.5t-2.5 -21.5q-10 -17 -23 -13q-12 5 -12 17zM-14 -65q117 188 167 324q7 17 11 32t4.5 22.5t-2.5 8.5q-4 0 -20 -8.5t-25 -16.5q-23 -17 -68.5 -65t-53.5 -63q-7 -11 -15 -8q-10 6 13 35q16 19 55 59t56 54q40 30 58 32q18 3 26 -12
q10 -21 -2 -65q-19 -71 -83 -200l-29 -58q2 0 68 72.5t91 102.5q7 8 16 17q4 1 7.5 -1t3.5 -6q0 -6 -55.5 -69l-113.5 -123q-54 -56 -70 -82q-132 -218 -249 -276q-38 -18 -59 -14q-21 3 -21 22q0 13 18 32t82 73q64 53 76 64l56 48l33 29zM-155 -257q52 59 70 88
q-3 -1 -34 -29l-63 -53q-105 -86 -105 -98q0 -8 27 5q47 23 105 87z" />
    <glyph glyph-name="k.salt" unicode="&#xe4ca;" horiz-adv-x="277" 
d="M356 725q12 -1 17 -11q4 -8 -0.5 -17.5t-24.5 -33.5q-37 -46 -171 -233q-142 -199 -197 -317l-4 -11q1 0 20 26q27 38 53 69q34 43 34 51q0 19 21 19q8 0 24 15q42 41 81 61q38 18 53 -8q13 -24 -15 -52q-38 -38 -108 -49q-3 0 -4.5 -0.5t-2.5 -2t-1.5 -3t-0.5 -6.5
q-2 -12 0.5 -39.5t6.5 -39.5q7 -27 24 -35q10 -4 19 -2q10 2 22 10t33.5 28t32.5 35q13 17 16 17q4 1 7 -1t3 -6q0 -7 -26.5 -36t-48.5 -47q-25 -19 -47 -19q-15 0 -25 5q-30 18 -43 68q-9 36 -9 58q0 3 -3 1q0 -1 -2 -2q-21 -20 -71 -89.5t-65 -100.5q-8 -17 -13 -17t-6 3
q-6 7 -2 26q7 37 39 103q59 125 207 349l65 101q74 113 98 130q7 4 14 3zM151 279l-11 -10l12 1q18 3 26 5q11 3 24 8q9 5 24 16t16 15q6 11 -1 16q-7 6 -35.5 -10.5t-54.5 -40.5z" />
    <glyph glyph-name="l.salt" unicode="&#xe4cb;" horiz-adv-x="192" 
d="M274 616q-109 -166 -207 -347q-139 -258 -121 -324q10 -34 57 12q43 42 143 174q38 50 47.5 61t13.5 11q6 0 6 -5q2 -5 0 -7q-3 -5 -50.5 -68l-64.5 -85q-84 -108 -119 -123q-19 -10 -35 0q-5 3 -13 16q-6 12 -7 30q-3 54 54 189q14 33 59 123l72 140l106 188.5t72 118.5
q8 10 23 7q6 -2 11 -8t5 -13q0 -13 -52 -90z" />
    <glyph glyph-name="m.salt" unicode="&#xe4cc;" horiz-adv-x="440" 
d="M313 152q1 34 34 85l8 14q-7 0 -50 -34q-23 -17 -86 -72q-60 -52 -74 -52q-15 -1 -17.5 14t6.5 44q13 40 42 86q5 8 8 13.5t2 5.5l-20 -16q-49 -40 -117 -116q-38 -42 -52.5 -52.5t-23.5 -0.5q-5 5 -4 23q0 12 5 34q15 47 50 106t75 107q27 31 44 13q4 -4 4 -13
q0 -7 -5 -14.5t-32 -40.5q-63 -74 -96 -138q-24 -45 -24 -59q0 -5 56 56q84 95 147 138q21 14 31 5q5 -5 5 -15q0 -14 -30 -60q-36 -54 -46 -80q-6 -16 -6 -17q0 -8 44 30q10 8 23 20q103 88 139 107q23 12 31 3q10 -9 -10 -47q-38 -71 -39 -86q-1 -11 2 -15q4 -5 15 -5
q12 0 19 4q26 14 59 47l19 17q1 0 5 -2q8 -7 -15 -31q-36 -34 -62 -47q-14 -8 -31 -6.5t-25 11.5q-11 14 -8 36z" />
    <glyph glyph-name="n.salt" unicode="&#xe4cd;" horiz-adv-x="337" 
d="M168 145q31 70 79 143q2 4 5 8.5t5.5 7.5t4.5 6.5t3.5 5.5t2.5 4t2 3v1q-5 0 -35 -22q-74 -55 -166 -156q-42 -46 -57 -59t-25 -13q-23 0 -18 35q10 56 71 150q48 71 65 84q19 12 28 -5q5 -8 1 -16t-26 -38q-48 -64 -76 -115q-31 -56 -31 -65q0 -1 12.5 11.5l43.5 45.5
q53 58 116.5 114t89.5 68q23 10 31.5 -1.5t-2.5 -38.5q-5 -11 -35 -64q-103 -180 -101 -218q1 -10 6 -10q24 -3 123 111q35 39 44 52q18 23 25 20q3 -3 3 -7t-8.5 -16t-22.5 -29t-39 -45q-69 -80 -103 -99q-24 -13 -40 -1q-30 25 24 148z" />
    <glyph glyph-name="o.salt" unicode="&#xe4ce;" horiz-adv-x="213" 
d="M17 223q2 3 5 6.5l5 6t2 3.5q3 3 0 13q-10 35 8 71q28 56 83 85t79 0q10 -11 9 -41q-1 -43 -50 -148l-18 -39l9 -1q19 -1 54 9q26 9 30 3q2 -4 -3 -9t-17 -9.5t-29 -8.5q-18 -3 -35 -2l-19 1l-15 -28q-29 -53 -61 -93.5t-54 -50.5q-20 -10 -34 -3q-11 6 -17 24t-3 38
q7 42 27.5 92.5t43.5 80.5zM56 316q-14 -29 -10 -52q2 -9 3.5 -10.5t7.5 -2.5q10 -2 15.5 -11t1.5 -18q-2 -6 2 -10q6 -7 22 -17t21 -10q1 0 19 36q43 91 52 141q3 18 0 27q-8 21 -41 12q-26 -7 -52.5 -31.5t-40.5 -53.5zM52 195q-17 -17 -44 -70t-33 -83q-5 -24 2 -33
q5 -6 22 5q19 14 47.5 51t52.5 82l12 21l-15 8q-15 6 -26 16l-11 9z" />
    <glyph glyph-name="p.salt" unicode="&#xe4cf;" horiz-adv-x="345" 
d="M-163 -228q-47 -94 -59 -99q-6 -3 -12 3q-4 4 -3 25q4 71 93 247q52 103 140 245q74 122 121 181q20 24 34 21q14 -5 18 -16t-6 -23q-3 -5 -31 -41q-118 -150 -232 -354q-45 -81 -84 -167q-28 -68 -25 -71l1 3q2 2 5 8t7 13t8.5 16.5t9.5 18.5q142 277 283 448
q21 25 58.5 62.5t54.5 50.5q62 46 92 19q16 -13 17 -47q1 -49 -24 -101q-32 -66 -87 -112t-120 -60q-43 -9 -85 -3q-21 3 -22 0q-9 -13 -61 -100q-49 -84 -91 -167zM4 61q-2 -2 2 -3q3 0 14 1q5 1 17.5 2t17.5 2q62 11 113 44q61 38 100 96t40 109q0 49 -32 40
q-38 -9 -105 -76q-48 -48 -98 -116q-64 -83 -69 -99z" />
    <glyph glyph-name="q.salt" unicode="&#xe4d0;" horiz-adv-x="354" 
d="M239 249q-62 -94 -130 -229q-52 -101 -48 -103q2 -4 41 19q66 40 147 122q73 73 103 120q11 16 16 16q11 0 6 -14q-9 -28 -96 -119q-91 -94 -161 -137q-37 -23 -60 -30q-9 -3 -10 -7q-1 -6 6 -13q18 -15 28 -36q31 -62 21 -123q-4 -21 -16 -43.5t-25 -32.5
q-12 -10 -27 -15t-24 -2q-14 4 -23 19q-10 16 -10 49q0 54 31 146l14 40l-9 4q-8 3 -29 5q-30 1 -38 8q-4 4 -3.5 9.5t4.5 7.5q13 6 46 -2q13 -4 28 -2l14 2l2 4q2 4 5 12t6 14q70 160 176 326q37 57 37 62q0 4 -9 -7q-2 -2 -2 -4q-5 -5 -9 -7q-19 -9 -133 -144
q-54 -65 -78 -79q-17 -10 -30 -5.5t-18 21.5q-12 40 21 106q24 48 62.5 90.5t72.5 58.5q25 12 54 11q17 -1 29 -7q16 -9 19 -12l5 -6l9 3q15 7 24 0q5 -4 4 -14q-1 -19 -43 -82zM196 295l23 24l-8 3q-45 19 -116 -44q-47 -41 -76 -98q-25 -49 -17 -74q6 -14 26 1
q21 16 94 104q56 66 74 84zM60 -163q-3 6 -8.5 12t-9.5 10t-5 3q-9 -14 -28 -86q-21 -77 -12 -113q5 -18 17 -22l4 -1q4 1 10 3q32 11 49 56q12 28 5 73q-6 39 -22 65z" />
    <glyph glyph-name="r.salt" unicode="&#xe4d1;" horiz-adv-x="287" 
d="M63 67q27 67 59 122q37 65 34 77q-1 2 -11 8q-6 4 -29 13.5t-25 9.5q-1 0 -13 -23q-32 -55 -67 -100q-17 -22 -24 -14q-7 7 9 26q46 55 73 108q5 11 2 13q-10 5 -17.5 16.5t-7.5 20.5q0 15 17 30q19 17 37 18t20 -15q3 -8 -12 -40q0 -2 10 -5q59 -22 70 -44
q7 -13 0.5 -31t-34.5 -63q-68 -111 -86 -183q-14 -52 2 -54q13 -1 58.5 42t92.5 102q4 4 15.5 18.5l16.5 20.5l31 39q13 19 20 12q5 -5 -9 -25q-22 -34 -105 -133q-20 -23 -47 -49.5t-39 -34.5q-23 -16 -36 -16q-4 0 -9 3q-39 24 4 131zM93 352q3 10 1 9q-1 0 -5 -4
q-3 -3 -4.5 -5.5t-1 -4t2.5 -1.5q4 -2 5 -1t2 7z" />
    <glyph glyph-name="s.salt" unicode="&#xe4d2;" horiz-adv-x="223" 
d="M228 176q-23 -18 -81 -71l-64 -60q-23 -19 -28 -25q-1 0 -3 -19q-12 -98 -92 -178q-65 -66 -101 -48q-15 8 -15 26q1 54 152 189l36 33l-1 23q-1 34 -20 84q-18 49 -17 68q0 51 65 125q24 27 52 44q46 25 66 14q23 -11 13 -33q-3 -5 -7 -7.5t-26 -12.5q-19 -10 -31 -18
q-16 -12 -41.5 -44.5t-37.5 -56.5q-9 -17 -9.5 -32t7.5 -54q5 -28 8 -60l2 -19l34 30q91 84 109 99q30 25 37 22q12 -7 -7 -19zM27 -12l1 9l-20 -18q-81 -74 -112 -114q-47 -60 -30 -73q8 -6 32 7q29 16 62.5 56t49.5 78q13 27 17 55z" />
    <glyph glyph-name="t.salt" unicode="&#xe4d3;" horiz-adv-x="223" 
d="M309 625q6 -10 1 -20.5t-40 -57.5l-39 -51l158 -1q158 0 160 -2q3 -2 2.5 -7t-4.5 -7q-3 -2 -144 -1q-139 2 -163 0l-23 -1l-12 -16q-54 -76 -107 -163q-100 -162 -136 -258q-21 -53 -22 -90q-1 -32 9 -41q4 -5 13 -5q43 1 142 129l56 73q34 43 51 68q16 23 22 23
q2 0 4 -4t1 -7q-5 -14 -51 -73q-108 -140 -142 -175q-43 -43 -66 -50q-24 -7 -38 1q-17 10 -22 29q-3 10 -2.5 36t4.5 43q10 43 30 89q71 166 192 358q16 26 17 28q2 3 -3 3.5t-38 -0.5q-262 -10 -308 -17q-24 -4 -39 -5l-47 -7q-21 -3 -27 0q-10 4 -10.5 14.5t8.5 16.5
q10 6 135 8q29 1 87 2.5t62 1.5q51 3 118 3q62 2 68 3l10 1l19 28q50 74 74 98q25 25 40 3z" />
    <glyph glyph-name="u.salt" unicode="&#xe4d4;" horiz-adv-x="315" 
d="M129 58q0 61 65 199q8 17 6 17q0 -1 -46 -54q-99 -114 -126 -127q-27 -14 -41.5 2t-7.5 52q14 72 84 165q17 21 20 23q14 11 27 1t4 -26q-1 -4 -26 -37q-84 -117 -84 -156q0 -14 14 -6q21 10 61 52q77 80 156 176q28 35 32 14q1 -8 -33 -69q-86 -151 -88 -228
q0 -24 12 -29q15 -5 54.5 34.5t91.5 112.5q11 15 17 21q9 4 9 -8q0 -8 -42 -62.5t-68 -79.5q-45 -44 -70 -33q-21 10 -21 46z" />
    <glyph glyph-name="v.salt" unicode="&#xe4d5;" horiz-adv-x="218" 
d="M65 315q8 -7 5.5 -20t-18.5 -61q-40 -123 -40 -152q0 -10 5 -10q7 0 24.5 14t32.5 32l9 11v18q0 17 6 29q20 43 42 35q6 -1 8 1q10 8 62 109l7.5 15.5t6.5 12.5l3 5q3 3 7 0.5t4 -7.5q0 -10 -38.5 -79.5t-68.5 -114.5q-16 -21 -16 -25q0 -3 5 -6q18 -18 64 21
q19 15 32 31q16 17 20 17q14 -2 -1 -20q-38 -47 -76 -65q-11 -5 -26 -5q-16 0 -24 5l-9 6l-5 -7q-5 -8 -24 -25q-39 -39 -61 -26q-6 4 -12 15q-5 11 -5 42q0 43 16 104q16 64 30 93q16 24 35 7z" />
    <glyph glyph-name="w.salt" unicode="&#xe4d6;" horiz-adv-x="427" 
d="M148 85q-9 45 15 120q5 13 5 18q0 1 -1.5 -0.5l-4.5 -4.5l-6 -6q-76 -85 -111 -102q-41 -20 -56 12q-19 36 29 121q18 30 39 55t33 28q10 3 17.5 -1.5t9.5 -13.5q2 -10 -15 -31q-25 -29 -52 -77.5t-30 -68.5q-2 -8 3 -8q12 0 39 20q32 24 100 98q28 30 32 32q5 0 8 -1
q8 -5 -5 -41q-42 -116 -22 -163q11 -26 40 -12t59 58q7 11 5 17q-4 12 0.5 31.5t15.5 33.5q13 17 27 13q3 -1 4.5 0.5t5.5 9.5q13 28 38 96l14 41l6 1q5 0 7 -2t0.5 -10.5t-6 -21.5l-13.5 -39q-37 -99 -71 -153q-7 -10 11 -14q10 -2 21 1q25 7 65 45q26 26 32 26q5 0 6 -5
q0 -7 -26 -32q-55 -55 -92 -55q-13 0 -22 5l-10 4l-12 -16q-23 -31 -48 -47.5t-43 -11.5q-33 8 -41 51z" />
    <glyph glyph-name="x.salt" unicode="&#xe4d7;" horiz-adv-x="270" 
d="M93 199q5 44 15 91l5 23l-9 -9q-14 -14 -41.5 -52.5t-44.5 -67.5q-15 -26 -23 -19q-5 5 0 17t30 49q77 117 101 108q14 -4 14 -29q0 -19 -5 -41q-3 -23 -4.5 -39.5t-0.5 -16.5l22 27q19 26 24 31q3 3 6.5 3.5t5.5 -1.5t2 -5q1 -6 -32 -49l-34 -44v-41q0 -39 5 -53
q9 -23 19 -23q25 0 107 119q11 15 15 15q4 1 7.5 -1.5t2.5 -7.5q-2 -9 -35.5 -55t-51.5 -64q-36 -39 -63 -25q-15 8 -25 27q-14 30 -14 50q0 10 -2 9q-3 0 -16 -17q-9 -10 -27 -34q-11 -16 -16 -16q-10 0 -10 9q0 6 35 48q34 44 35 53q1 4 3 31z" />
    <glyph glyph-name="y.salt" unicode="&#xe4d8;" horiz-adv-x="327" 
d="M-118 -322q-12 5 -12 20q0 64 228 271q51 46 59 56t30 57q32 69 60 143t31 97l2 9l-12 -8q-18 -12 -25 -18q-34 -27 -129 -132q-55 -60 -79 -76q-27 -16 -44 1q-35 35 36 159q53 90 82 75q9 -4 9 -15q0 -5 -15 -23q-24 -25 -52 -72q-56 -94 -42 -110q2 -2 5 -2
q15 0 109 100q97 104 135 128q25 16 34 7t1 -41q-21 -82 -88 -229l-8 -16l20 18q11 10 68 67q47 49 52 49q9 0 7 -10q-2 -4 -55.5 -58t-82.5 -81l-29 -26l-18 -33q-34 -65 -71 -120q-41 -62 -90 -114t-80 -67q-23 -12 -36 -6zM-79 -236q-37 -50 -33 -67q1 -3 4 -3q4 0 12 4
q22 10 63.5 51t76.5 87q46 63 83 130l8 13l-9 -7q-149 -132 -205 -208z" />
    <glyph glyph-name="z.salt" unicode="&#xe4d9;" horiz-adv-x="268" 
d="M178 72q-8 -53 -54.5 -114t-104.5 -95q-43 -27 -68 -20q-14 3 -17 16q-4 17 13 39t68 66l119 102l29 26l-1 10q-3 22 -28 53q-16 20 -19 27q-10 28 33 96q14 21 18 30q3 4 1 4q-1 1 -6 0q-12 -2 -23 -8q-29 -14 -62.5 -46t-59.5 -70q-14 -22 -21 -20q-11 4 -1 20
q12 22 45 58t57 54q63 46 88 29q19 -15 -4 -49q-22 -32 -34 -53q-10 -20 -8.5 -31.5t16.5 -32.5q21 -29 23 -46q2 -8 3 -8q2 -2 47 43q43 43 48 43q8 0 8 -8q0 -1 -13 -15t-33.5 -33.5l-37.5 -35.5l-19 -18zM-20 -136q50 18 102 73.5t71 110.5q5 13 5 16q0 1 -5 -3t-15 -13
q-36 -34 -109 -95q-62 -51 -73 -71q-10 -16 -3.5 -21t27.5 3z" />
    </font>
</defs>
</svg>
